<svg width="224" height="224" viewBox="0 0 224 224" fill="none" xmlns="http://www.w3.org/2000/svg">
<g clip-path="url(#clip0_215_27)">
<g filter="url(#filter0_d_215_27)">
<path d="M148.604 88.6919C147.536 89.6982 146.16 89.6305 144.745 89.6305M184.896 74.3002C185.851 74.2471 186.356 72.1628 186.356 71.3801M169.497 85.1712C168.47 85.0274 171.086 88.6212 171.425 88.8802C172.69 89.8466 174.012 90.4284 175.527 90.837C176.718 91.1583 174.559 92.8776 174.139 93.179C173.08 93.9406 171.96 94.4978 170.712 94.8527M149.223 89.9247C148.485 90.2722 148.977 89.3582 149.158 88.985C150.42 86.3885 151.402 83.6344 152.804 81.1109C153.231 80.342 154.591 80.9757 155.202 81.1919C157.642 82.0564 160.198 82.598 162.638 83.4116M171.29 80.5925C171.29 80.3239 171.319 80.1086 171.414 79.8526C171.848 78.6817 172.333 77.5311 172.748 76.3531C173.126 75.2809 173.5 74.2092 173.915 73.1505C174.146 72.5603 174.447 71.9346 174.552 71.3035C174.627 70.8556 177.269 71.8584 177.393 71.9084C180.051 72.9837 182.632 74.0472 185.385 74.8571M157 113.5C160.192 115 165 116.208 168.372 116.611M190.868 68.1736C189 71.3801 188 77.5 190.868 83.481M190.868 84C190.868 94 187.241 100.676 185.096 103.874C181.924 108.604 177.212 113.208 170.712 116.208M156.51 116.208C154.579 116.684 160 128.979 160.192 129.528M183.915 106.52C183.915 111.508 187.868 116.416 190.05 120.648M190.459 122.262C190.349 122.262 191.188 121.893 191.459 121.59C195.817 116.696 200.405 112.199 205.184 107.731M205.593 108.135C206.85 108.135 208 110.5 212 110.5C216 110.5 211 110.5 218.5 110.5M161.419 131.546C155.867 131.546 150.587 134.259 145.485 136.859M145.485 136.859C144.619 137.301 143.757 137.739 142.9 138.16C141.84 138.682 140.787 139.177 139.741 139.619M145.485 136.859C144.446 135.827 143.417 134.792 142.398 133.753C131.505 122.633 132.332 102.052 119.696 94.8527C107.06 87.6535 102.214 71.9031 104.807 58.687C106.449 50.3197 112.556 43.5257 119.696 39.1128C122.881 37.1442 128.377 36.3986 131.958 38.0451C135.238 39.5532 139.434 42.1181 142.055 44.7054M145.485 136.859C145.732 137.104 145.98 137.349 146.228 137.594M138.923 142.445C138.923 156.846 136.469 166 130 179M109.064 153.343C118.754 164.644 127.642 176.887 136.469 188.864M101.293 138.005C95.7808 138.005 90.5692 136.571 86.2731 141.212C79.1906 148.862 82.0421 162.457 93.749 162.852C104.76 163.223 116.769 147.407 108.837 137.78C106.123 134.486 101.495 132.814 97.1778 133.134M97.1778 133.134C96.0619 133.217 94.9667 133.433 93.9308 133.789C89.4647 135.322 86.661 138.772 84.1144 142.445M97.1778 133.134C97.1869 133.278 97.1953 133.421 97.2029 133.565M97.1778 133.134C97.077 131.55 96.8905 129.977 96.695 128.408M95.9759 167.875C100.418 176.642 107.3 184.393 113.177 192.228C121.624 203.488 127.5 209.5 138.605 214.5M139.741 212.68C145.186 202.218 153.887 187.968 158.556 177.159M159.374 178.37C165.313 190.092 171.685 201.492 178.597 212.68M96.695 128.408C96.1565 124.086 95.5495 119.796 96.4758 115.4C97.2022 111.954 99.0862 105.643 102.838 104.188C105.196 103.274 105.779 113.887 105.792 114.952C105.859 120.482 105.792 126.016 105.792 131.546M96.695 128.408C97.2427 129.208 97.8112 129.993 98.43 130.739M96.695 128.408C94.3951 125.047 92.461 121.414 88.7045 119.213C86.9572 118.189 85.1963 117.193 83.4781 116.118C82.2403 115.344 80.9228 114.038 79.4107 113.808C77.6484 113.541 77.0559 114.064 77.002 115.871C76.9152 118.785 79.6134 121.663 81.3649 123.743C84.2085 127.119 87.3704 130.211 90.6587 133.161M101.702 145.27C99.1115 145.27 95.9445 144.779 93.6127 145.943C92.9736 146.262 89.9777 148.355 91.1131 149.329C93.6817 151.534 98.5564 151.196 101.702 151.325M138.105 56.0642C139.29 56.0642 137.39 57.2995 136.809 58.0152C131.281 64.8357 136.1 76.0367 138.605 83.1086C140.328 87.9755 142.371 92.7452 143.74 97.7296C145.109 102.714 151.506 105.707 154 109.32C156.494 112.933 156.919 118.954 161.419 124M141.377 74.2284C142.402 74.1159 142.82 73.4245 143.695 72.9726C147.007 71.2604 149.792 71.9976 153.238 72.2101M167.554 69.3846C167.554 65.8987 172.53 62.4105 177.552 63.0056M154.574 50.1964C152.492 49.6826 156.775 46.4513 158.438 45.1122C162.529 41.8188 170.625 37.0671 175.697 41.3498C180.786 45.6465 181.55 52.6087 183.322 58.5345C185.138 64.6089 199.888 90.9997 201.444 99.8356M159.675 103.276C159.598 102.672 160.566 103.996 161.684 104.216C166.065 105.081 169.179 105.371 173.121 103.276M138.614 30.8868C140.803 28.4869 142.273 25.5687 144.723 23.2957C148.929 19.394 153.957 18.454 159.463 17.4248L159.622 17.395C169.221 15.6002 179.616 14.4858 187.724 20.8876C190.986 23.4624 193.559 26.7222 196.725 29.3877C198.557 30.9296 199.764 32.3595 201.444 34.491C208.71 43.7069 208.22 51.5872 210.93 63.0056C214.158 76.6037 213.877 95.5694 215.5 98.5" stroke="#CDD6F4" stroke-opacity="0.5" stroke-width="3" stroke-linecap="round"/>
</g>
</g>
<defs>
<filter id="filter0_d_215_27" x="67.5" y="6.49942" width="160.5" height="217.501" filterUnits="userSpaceOnUse" color-interpolation-filters="sRGB">
<feFlood flood-opacity="0" result="BackgroundImageFix"/>
<feColorMatrix in="SourceAlpha" type="matrix" values="0 0 0 0 0 0 0 0 0 0 0 0 0 0 0 0 0 0 127 0" result="hardAlpha"/>
<feOffset/>
<feGaussianBlur stdDeviation="4"/>
<feColorMatrix type="matrix" values="0 0 0 0 0.803922 0 0 0 0 0.839216 0 0 0 0 0.956863 0 0 0 0.25 0"/>
<feBlend mode="normal" in2="BackgroundImageFix" result="effect1_dropShadow_215_27"/>
<feBlend mode="normal" in="SourceGraphic" in2="effect1_dropShadow_215_27" result="shape"/>
</filter>
<clipPath id="clip0_215_27">
<rect width="224" height="224" fill="white" transform="matrix(-1 0 0 1 224 0)"/>
</clipPath>
</defs>
</svg>
