<svg width="262" height="256" viewBox="0 0 262 256" fill="none" xmlns="http://www.w3.org/2000/svg">
<g filter="url(#filter0_d_185_673)">
<path d="M160.279 99.1056C160.818 99.5372 161.424 99.899 162.124 100.001C164.104 100.288 164.404 98.7296 164.764 97.1123M195.826 86.149C196.472 86.149 197.038 86.3801 197.681 86.4535C199.257 86.6336 199.798 85.8062 200.643 84.654M144.126 219.994C136.415 219.394 127.875 216.308 123.171 208.471C119.336 202.081 118.842 194.863 121.717 188.396C125.866 179.065 134.703 172.23 143.669 169.874C155.842 166.675 154.437 169.692 160.847 170.381M143.677 171L152.577 195.037M132.641 179.641C135.339 186.927 136.684 194.993 140.799 201.675M151.338 86C149.545 86.505 155.447 96.6066 155.846 97.9694C157.59 103.921 156.839 110.814 156.839 117M160 123C166.25 136.5 182.37 141.612 193 143M202.334 66C198.387 74.2117 204.045 85.4196 208.324 92.2171C213.14 99.8682 216.989 104.986 222 113.5C225.212 118.958 226.798 122.141 229.872 127.677M153.151 53.2483C152.94 51.3348 149.867 49.1474 148.479 48.2012C140.584 42.8194 131.643 44.3575 125.582 51.8063C114.855 64.9889 117.519 87.5809 121.415 102.617C127.892 127.615 142.782 151.154 163 167M158.514 55.8704C156.25 55.586 162.188 44.9743 162.296 44.7696C169.836 30.4426 175.5 26.5 185.066 23.9998C203.362 18.0209 218.891 24.2681 228.575 40.651C237.568 55.8637 241.993 102 252 115.591M162.296 64C160.987 70.7322 152.5 77 145.5 80M160 59C164.272 59 167.434 60.2415 171.624 61.4211C183.349 64.7221 196.298 65.5512 207 59.6917M153.326 81C151.906 81 155.581 81.0906 155.657 81.101C163.794 82.2102 171.836 83.9565 180 85M180 81C180.146 79.4928 181.307 77.8645 181.931 76.7948C183.708 73.7433 185.83 71.3867 188 69M166.886 99.7078C166.876 99.7073 166.866 99.7067 166.856 99.7061M166.856 99.7061C165.007 99.5906 164.242 98.3423 165.96 97.1967M166.856 99.7061C167.813 101.69 170.754 101.246 172.12 99.3715C173.754 97.1307 172.893 96.2101 171.328 96.0112M166.856 99.7061C166.673 99.3252 166.562 98.8549 166.55 98.288C166.548 98.2319 166.551 98.1763 166.557 98.1211M165.96 97.1967C166.05 97.1367 166.147 97.0769 166.25 97.0176C166.772 96.7198 167.528 96.4455 168.348 96.2521M165.96 97.1967C166.053 97.4718 166.244 97.7789 166.557 98.1211M165.96 97.1967C165.377 95.4686 168.696 95 170.363 95C171.255 95 171.421 95.4429 171.211 95.9684M168.348 96.2521C168.428 96.2332 168.509 96.2151 168.59 96.1978M168.348 96.2521C168.32 96.2788 168.293 96.3059 168.267 96.3334M168.348 96.2521C168.649 95.9664 169.082 95.7344 169.578 95.6725M168.59 96.1978C169.476 96.0087 170.416 95.9183 171.199 95.9966M168.59 96.1978C168.48 96.2397 168.372 96.285 168.267 96.3334M168.59 96.1978C169.489 95.8536 170.5 95.7358 171.211 95.9684M171.199 95.9966C171.243 96.0009 171.286 96.0058 171.328 96.0112M171.199 95.9966C171.203 95.9872 171.207 95.9778 171.211 95.9684M171.199 95.9966C170.892 96.7241 169.884 97.5961 169.092 97.6715C167.717 97.8023 167.672 96.9683 168.267 96.3334M171.328 96.0112C171.29 95.9958 171.251 95.9815 171.211 95.9684M171.328 96.0112C171.683 96.1546 171.948 96.3968 172.064 96.7561C173.354 100.768 168.74 100.25 166.793 98.3627C166.708 98.2803 166.629 98.1998 166.557 98.1211M166.557 98.1211C166.64 97.3897 167.366 96.7471 168.267 96.3334M194.597 88.0128C194.597 86.7541 196.025 86.8644 196.882 86.9581C197.085 86.9803 197.272 87.0278 197.444 87.0976M197.444 87.0976C199.969 88.1229 199.182 93.9514 196.794 94.81C193.572 95.9683 192.699 91.5571 193.085 88.9308C193.459 86.3848 196.49 84.8322 197.444 87.0976ZM197.444 87.0976C197.559 87.3713 197.644 87.7008 197.69 88.0909C197.901 89.8725 197.3 92.5868 195.054 91.3724C193.545 90.5565 194.293 87.7167 195.704 87.3682C197.255 86.9851 197.762 89.7807 196.917 90.8059C195.439 92.5968 195.229 89.6447 195.229 88.716M182.636 102C182.636 106.553 182.2 111.993 179.015 115.648C178.771 115.929 181.517 116.46 181.668 116.481C184.707 116.924 187.928 116.827 191 117M142 169C143.784 169 144.968 168.921 146.696 168.154C154.41 164.731 162.333 160.283 170.673 158.485C173.282 157.923 175.981 157.955 178.613 157.549C179.884 157.353 181.026 156.56 182.29 156.491C183.631 156.418 184.993 155.947 186.245 155.947C189.012 155.947 191.744 152.838 193.753 151.294C198.878 147.356 204.752 141.581 211.241 140.024C217.062 138.628 223.896 139.765 229.872 139.36C235.272 138.993 240.587 138 246 138M188 194C190.175 194 190.511 193.411 191.796 191.487C194.657 187.2 197.032 182.123 202 180M173.847 169.552C169.439 169.307 165.398 169.784 163.237 174.296M163.237 174.296C163.23 174.311 163.223 174.326 163.216 174.341C161.588 177.779 162.085 182.656 163.706 186.002C165.808 190.339 171.81 191.62 176.11 190.288C184.488 187.694 189.084 173.791 181.067 168.223C177.604 165.818 172.335 165.168 168.555 167.205C165.593 168.802 164.055 171.386 163.237 174.296ZM163.237 174.296C162.79 175.886 162.558 177.573 162.425 179.25M196.73 188.269C196.73 204.251 204.903 219.383 204.903 235.384M171.441 201.405C170.487 201.405 169.565 201.221 168.601 201.242C166.554 201.287 164.757 202.522 162.995 203.403C162.123 203.839 161.302 204.041 160.526 204.669C159.647 205.381 158.694 205.995 157.841 206.74C156.543 207.873 155.882 209.24 155.327 210.827C154.495 213.205 153.16 216.308 155.852 218.043C159.41 220.336 163.963 220.272 168.077 219.924C169.161 219.832 170.195 219.452 171.278 219.345C172.332 219.24 173.368 219.18 174.407 218.947C176.68 218.437 179.377 218.227 181.432 217.102C182.988 216.251 184.401 215.163 185.637 213.901C186.845 212.668 187.703 211.128 188.784 209.787C191.728 206.136 190.487 201.718 189.507 197.589C188.816 194.676 187.88 191.78 187.057 188.899C186.559 187.158 185.793 186.238 184.462 185.128M182.895 130.024C183.669 130.024 184.316 130.257 185.066 130.462C186.507 130.857 188.095 130.698 189.577 130.698C190.361 130.698 190.655 130.316 190.764 129.522C190.964 128.067 191.473 126.722 191.801 125.315C192.169 123.739 193.905 123.673 195.233 123.673C195.938 123.673 196.658 123.713 197.361 123.652C198.277 123.572 199.026 123.024 199.82 122.61C200.614 122.195 200.578 121.401 200.707 120.616C200.993 118.882 201.448 117.24 202.043 115.591" stroke="#A6E3A1" stroke-opacity="0.5" stroke-width="3" stroke-linecap="round"/>
</g>
<defs>
<filter id="filter0_d_185_673" x="108.5" y="12.2754" width="153" height="232.609" filterUnits="userSpaceOnUse" color-interpolation-filters="sRGB">
<feFlood flood-opacity="0" result="BackgroundImageFix"/>
<feColorMatrix in="SourceAlpha" type="matrix" values="0 0 0 0 0 0 0 0 0 0 0 0 0 0 0 0 0 0 127 0" result="hardAlpha"/>
<feOffset/>
<feGaussianBlur stdDeviation="4"/>
<feColorMatrix type="matrix" values="0 0 0 0 0.803922 0 0 0 0 0.839216 0 0 0 0 0.956863 0 0 0 0.25 0"/>
<feBlend mode="normal" in2="BackgroundImageFix" result="effect1_dropShadow_185_673"/>
<feBlend mode="normal" in="SourceGraphic" in2="effect1_dropShadow_185_673" result="shape"/>
</filter>
</defs>
</svg>
