<svg width="256" height="266" viewBox="0 0 256 266" fill="none" xmlns="http://www.w3.org/2000/svg">
<g filter="url(#filter0_d_230_813)">
<path d="M124 159.5L125.033 158.412L125.033 158.412L124 159.5ZM124.066 131.569C123.247 131.693 122.684 132.458 122.808 133.277C122.932 134.096 123.696 134.659 124.515 134.535L124.066 131.569ZM128.812 132.432L128.984 133.922L128.812 132.432ZM140.132 131.733L140.416 130.261L140.132 131.733ZM148.278 137.391L147.035 138.232L147.035 138.232L148.278 137.391ZM148.611 144.02C148.719 144.841 149.472 145.419 150.293 145.311C151.115 145.203 151.693 144.45 151.585 143.628L148.611 144.02ZM122.042 145.75C122.456 145.033 122.211 144.115 121.493 143.701C120.776 143.287 119.858 143.532 119.444 144.25L122.042 145.75ZM122.433 154.609L121.229 155.503L121.322 155.627L121.437 155.73L122.433 154.609ZM130.646 156.735L130.325 158.201L130.325 158.201L130.646 156.735ZM138.085 158.141C138.912 158.094 139.545 157.385 139.498 156.558C139.45 155.731 138.742 155.099 137.915 155.146L138.085 158.141ZM129.5 144C129.5 143.172 128.828 142.5 128 142.5C127.172 142.5 126.5 143.172 126.5 144H129.5ZM126.5 155C126.5 155.828 127.172 156.5 128 156.5C128.828 156.5 129.5 155.828 129.5 155H126.5ZM137.5 144C137.5 143.172 136.828 142.5 136 142.5C135.172 142.5 134.5 143.172 134.5 144H137.5ZM134.5 156C134.5 156.828 135.172 157.5 136 157.5C136.828 157.5 137.5 156.828 137.5 156H134.5ZM112.185 133.138C111.365 133.255 110.795 134.015 110.912 134.835C111.029 135.655 111.789 136.225 112.609 136.108L112.185 133.138ZM123.704 135.219C124.529 135.295 125.259 134.688 125.335 133.863C125.412 133.038 124.805 132.308 123.98 132.232L123.704 135.219ZM111.732 141.493C110.94 141.736 110.496 142.576 110.739 143.367C110.983 144.159 111.822 144.604 112.614 144.36L111.732 141.493ZM115.464 142.702L115.47 144.202L115.464 142.702ZM123.618 144.202C124.446 144.202 125.118 143.53 125.118 142.702C125.118 141.873 124.446 141.202 123.618 141.202V144.202ZM150.481 144.614C149.704 144.901 149.306 145.763 149.593 146.54C149.879 147.318 150.742 147.715 151.519 147.429L150.481 144.614ZM155.718 158.593L154.287 159.043L154.287 159.043L155.718 158.593ZM171.607 205.557C171.915 206.326 172.788 206.7 173.557 206.393C174.326 206.085 174.7 205.212 174.393 204.443L171.607 205.557ZM141.25 160.256C141.392 159.44 140.845 158.664 140.029 158.522C139.212 158.381 138.436 158.928 138.295 159.744L141.25 160.256ZM140.331 165.03L138.863 165.342L138.863 165.342L140.331 165.03ZM145.556 183.061L146.979 182.587L146.979 182.587L145.556 183.061ZM158.55 231.383C158.761 232.184 159.582 232.662 160.383 232.45C161.184 232.239 161.662 231.418 161.45 230.617L158.55 231.383ZM167.452 230.465C167.245 229.663 166.427 229.181 165.625 229.388C164.823 229.596 164.34 230.414 164.548 231.216L167.452 230.465ZM176.72 228.16L176.276 226.726L176.276 226.726L176.72 228.16ZM231.409 213.443C232.206 213.217 232.669 212.388 232.443 211.591C232.217 210.794 231.388 210.331 230.591 210.557L231.409 213.443ZM173.335 204.367C172.593 204.734 172.288 205.634 172.655 206.377C173.022 207.119 173.922 207.424 174.665 207.057L173.335 204.367ZM194.766 198.296L195.238 199.719L194.766 198.296ZM215.546 192.397C216.317 192.096 216.699 191.226 216.397 190.454C216.096 189.683 215.226 189.301 214.454 189.603L215.546 192.397ZM191.767 96.4128C190.938 96.4128 190.267 97.0843 190.267 97.9128C190.267 98.7412 190.938 99.4128 191.767 99.4128V96.4128ZM194.003 99.1205L193.355 100.474L193.355 100.474L194.003 99.1205ZM199.231 99.9536C199.93 99.5079 200.135 98.5805 199.689 97.8822C199.243 97.1839 198.316 96.9791 197.617 97.4248L199.231 99.9536ZM156 108.836C155.171 108.836 154.5 109.507 154.5 110.336C154.5 111.164 155.171 111.836 156 111.836V108.836ZM162.735 105.815C162.897 105.003 162.37 104.213 161.558 104.051C160.745 103.889 159.955 104.416 159.793 105.229L162.735 105.815ZM151.171 107.695C150.889 106.916 150.028 106.514 149.249 106.797C148.471 107.079 148.068 107.94 148.351 108.718L151.171 107.695ZM152.397 134.798L150.91 134.995L150.91 134.995L152.397 134.798ZM153.397 149.357C153.551 150.171 154.336 150.706 155.15 150.553C155.964 150.399 156.499 149.614 156.345 148.8L153.397 149.357ZM154.782 144.042C154.029 143.698 153.139 144.03 152.794 144.783C152.45 145.537 152.782 146.427 153.535 146.771L154.782 144.042ZM179.274 170.965C179.497 171.763 180.324 172.229 181.122 172.007C181.92 171.785 182.387 170.958 182.164 170.16L179.274 170.965ZM187.094 104.653C187.019 105.478 187.627 106.207 188.452 106.282C189.277 106.357 190.007 105.749 190.082 104.924L187.094 104.653ZM188.829 100.976L187.382 101.372L187.382 101.372L188.829 100.976ZM184.742 105.422L186.236 105.558L184.742 105.422ZM190.438 108.37L189.973 106.944L189.973 106.944L190.438 108.37ZM191.473 102.765L192.683 101.879L192.683 101.879L191.473 102.765ZM188.383 104.347L189.626 103.508L189.626 103.508L188.383 104.347ZM190.018 104.497L190.987 103.352L190.987 103.352L190.018 104.497ZM187.987 105.226L188.467 103.805L188.467 103.805L187.987 105.226ZM192.22 99.5615L190.72 99.5323L190.72 99.5323L192.22 99.5615ZM187.662 101.467L189.142 101.709L189.142 101.709L187.662 101.467ZM193.136 102.987L194.566 103.443L194.566 103.443L193.136 102.987ZM189.842 99.4849L190.559 100.802L190.559 100.802L189.842 99.4849ZM189.916 104.839L190.375 103.411L190.375 103.411L189.916 104.839ZM192.548 102.125L193.419 100.903L193.419 100.903L192.548 102.125ZM186.849 104.629L188.2 103.979L188.2 103.979L186.849 104.629ZM193.794 106.179L192.832 105.028L192.832 105.028L193.794 106.179ZM191.549 99.9928L191.413 101.487L191.549 99.9928ZM187.848 105.987L189.345 105.889L189.345 105.889L187.848 105.987ZM194.408 105.953C194.483 105.128 193.875 104.398 193.05 104.323C192.225 104.248 191.496 104.856 191.421 105.681L194.408 105.953ZM164.727 112.335C165.555 112.307 166.203 111.614 166.175 110.786C166.148 109.958 165.454 109.309 164.626 109.337L164.727 112.335ZM166.352 112.854L164.901 112.475L164.901 112.475L166.352 112.854ZM166.77 108.635L168.262 108.476L168.262 108.476L166.77 108.635ZM160.667 106.705L159.194 106.422L159.194 106.422L160.667 106.705ZM161.738 112.679L160.969 113.966L160.969 113.966L161.738 112.679ZM166.644 110.031L168.139 110.144L168.139 110.144L166.644 110.031ZM162.07 111.724L161.754 113.19L161.754 113.19L162.07 111.724ZM161.989 107.213L162.653 108.558L162.653 108.558L161.989 107.213ZM167.826 110.139L166.333 110.003L167.826 110.139ZM161.334 108.631L159.836 108.555L159.836 108.555L161.334 108.631ZM161.552 108.158L161.154 109.605L161.154 109.605L161.552 108.158ZM162.19 110.011L162.571 108.56L162.571 108.56L162.19 110.011ZM159.311 111.613C159.236 112.438 159.844 113.168 160.669 113.243C161.494 113.318 162.224 112.71 162.299 111.885L159.311 111.613ZM176.956 111.763C176.174 111.49 175.318 111.902 175.045 112.684C174.771 113.465 175.183 114.321 175.965 114.595L176.956 111.763ZM175.213 119.961L176.434 120.832L176.434 120.832L175.213 119.961ZM170.835 121.038L171.797 122.19L171.797 122.19L170.835 121.038ZM178.364 130.662C179.158 130.898 179.993 130.445 180.229 129.651C180.465 128.857 180.013 128.022 179.219 127.786L178.364 130.662ZM205.111 77.9579C204.363 77.6016 203.468 77.919 203.111 78.6669C202.755 79.4148 203.073 80.3099 203.82 80.6662L205.111 77.9579ZM207.179 80.6049L206.118 81.665L206.118 81.665L207.179 80.6049ZM208.187 88.7653L206.687 88.7795L206.687 88.7795L208.187 88.7653ZM206.111 109.071L204.62 108.912L204.62 108.912L206.111 109.071ZM207.095 141.617L205.631 141.948L207.095 141.617ZM215.831 170.351C216.087 171.139 216.933 171.57 217.721 171.314C218.509 171.058 218.94 170.212 218.685 169.424L215.831 170.351ZM196.054 74.8698C195.265 74.6168 194.42 75.0512 194.167 75.8401C193.914 76.6289 194.349 77.4735 195.138 77.7265L196.054 74.8698ZM196.614 75.8987L197.689 74.8528L197.689 74.8528L196.614 75.8987ZM189.448 72.922L189.732 71.4491L189.732 71.4491L189.448 72.922ZM164.041 75.7372L163.144 74.5351L163.144 74.5351L164.041 75.7372ZM146.019 120.481C145.262 120.817 144.92 121.703 145.256 122.46C145.592 123.217 146.478 123.559 147.235 123.223L146.019 120.481ZM200.133 47.1892C200.958 47.2646 201.688 46.6569 201.764 45.8319C201.839 45.0069 201.231 44.277 200.406 44.2017L200.133 47.1892ZM190.494 42.8673L191.04 41.4702L191.04 41.4702L190.494 42.8673ZM163.153 38.0121L163.118 39.5117L163.153 38.0121ZM124.669 66.2297L126.153 66.4474L126.153 66.4474L124.669 66.2297ZM129.02 126.746C129.156 127.564 129.929 128.116 130.746 127.98C131.564 127.844 132.116 127.071 131.98 126.254L129.02 126.746ZM107.11 88.8139C106.921 88.0074 106.113 87.507 105.307 87.6962C104.5 87.8854 104 88.6926 104.189 89.4991L107.11 88.8139ZM107.222 117.361L105.723 117.435L107.222 117.361ZM106.665 143.393C106.665 144.221 107.336 144.893 108.165 144.893C108.993 144.893 109.665 144.221 109.665 143.393H106.665ZM100.377 86.6338C100.377 87.4623 101.048 88.1338 101.877 88.1338C102.705 88.1338 103.377 87.4623 103.377 86.6338H100.377ZM97.0557 83.2003L97.3568 81.7308L97.3568 81.7308L97.0557 83.2003ZM64.177 85.8895C63.4176 86.2207 63.0704 87.1047 63.4015 87.8641C63.7327 88.6234 64.6167 88.9706 65.3761 88.6395L64.177 85.8895ZM70.5775 139.286C70.5775 138.458 69.9059 137.786 69.0775 137.786C68.2491 137.786 67.5775 138.458 67.5775 139.286H70.5775ZM71.5222 159.024C71.8605 159.78 72.7478 160.119 73.504 159.781C74.2602 159.443 74.5989 158.555 74.2606 157.799L71.5222 159.024ZM113.195 151.83C114.024 151.83 114.695 151.158 114.695 150.33C114.695 149.502 114.024 148.83 113.195 148.83L113.195 151.83ZM107.955 150.75L108.297 152.211L107.955 150.75ZM71.2512 160.248C70.4596 160.493 70.016 161.332 70.2602 162.124C70.5045 162.916 71.3443 163.359 72.1358 163.115L71.2512 160.248ZM78.6794 97.2855C78.2926 96.5529 77.3852 96.2725 76.6526 96.6592C75.92 97.046 75.6396 97.9534 76.0263 98.686L78.6794 97.2855ZM77.9817 94.8325L78.0272 93.3332L77.9817 94.8325ZM77.0035 100.368L77.4665 98.9415L77.4665 98.9415L77.0035 100.368ZM80.3921 97.0398L81.6413 96.2094L80.3921 97.0398ZM79.2044 98.8967L77.7618 98.4857L77.7618 98.4857L79.2044 98.8967ZM79.8681 100.116C80.6965 100.116 81.3681 99.4448 81.3681 98.6164C81.3681 97.788 80.6965 97.1164 79.8681 97.1164V100.116ZM186.175 137.994C185.366 137.817 184.566 138.329 184.388 139.138C184.211 139.947 184.723 140.747 185.532 140.925L186.175 137.994ZM184.981 141.244L184.222 139.95L184.222 139.95L184.981 141.244ZM173.836 141.789C173.011 141.714 172.281 142.321 172.206 143.146C172.13 143.971 172.738 144.701 173.563 144.777L173.836 141.789ZM197.633 88.9625C196.805 88.9903 196.156 89.6841 196.184 90.512C196.212 91.34 196.906 91.9886 197.734 91.9608L197.633 88.9625ZM194.486 85.3453L195.2 84.026L195.2 84.026L194.486 85.3453ZM185.386 83.8286L185.33 82.3297L185.33 82.3297L185.386 83.8286ZM176.773 85.1827C176.095 85.6592 175.932 86.5948 176.408 87.2725C176.885 87.9502 177.821 88.1133 178.498 87.6368L176.773 85.1827ZM205.92 45.5616C205.095 45.4863 204.366 46.0939 204.29 46.9189C204.215 47.7439 204.823 48.4738 205.648 48.5492L205.92 45.5616ZM208.052 45.6526L207.165 44.4425L207.165 44.4425L208.052 45.6526ZM217.702 40.8695L218.184 42.2899L218.184 42.2899L217.702 40.8695ZM239.545 52.4058L240.791 51.5715L239.545 52.4058ZM251.843 104.215L253.341 104.299L251.843 104.215ZM238.118 163.956C237.845 164.738 238.259 165.593 239.041 165.866C239.824 166.138 240.679 165.725 240.951 164.942L238.118 163.956ZM247.741 151.183C248.351 150.623 248.391 149.674 247.83 149.064C247.269 148.454 246.32 148.414 245.71 148.975L247.741 151.183ZM237.603 159.86L236.56 158.781L236.56 158.781L237.603 159.86ZM217.49 173.559C216.778 173.982 216.543 174.902 216.966 175.614C217.389 176.326 218.31 176.561 219.022 176.138L217.49 173.559ZM178.222 176.491C178.912 176.032 179.099 175.101 178.641 174.411C178.182 173.721 177.251 173.534 176.561 173.993L178.222 176.491ZM170.026 176.077C169.24 176.339 168.815 177.188 169.077 177.974C169.339 178.76 170.188 179.185 170.974 178.923L170.026 176.077ZM61.9785 107.986C61.3206 108.49 61.1953 109.431 61.6987 110.089C62.202 110.747 63.1435 110.872 63.8014 110.369L61.9785 107.986ZM73.1681 104.965L73.4698 103.496L73.1681 104.965ZM77.0007 106.984L77.8817 105.77L77.8817 105.77L77.0007 106.984ZM78.6363 108.391L77.5741 109.45L77.5741 109.45L78.6363 108.391ZM80.1945 114.962L78.7021 115.114L78.7021 115.114L80.1945 114.962ZM80.7268 121.873L82.225 121.8L82.225 121.8L80.7268 121.873ZM79.8654 133.327L81.189 134.033L81.189 134.033L79.8654 133.327ZM77.4459 135.268L76.8943 133.873L76.8943 133.873L77.4459 135.268ZM68.2399 134.95C67.4208 135.074 66.8574 135.839 66.9815 136.658C67.1056 137.477 67.8702 138.04 68.6893 137.916L68.2399 134.95ZM146.481 224.555C147.309 224.555 147.981 223.883 147.981 223.055C147.981 222.226 147.309 221.555 146.481 221.555V224.555ZM139.234 221.559L139.311 220.061L139.311 220.061L139.234 221.559ZM114.444 217.317L114.722 215.843L114.722 215.843L114.444 217.317ZM78.9752 209.697C78.1467 209.697 77.4752 210.369 77.4752 211.197C77.4752 212.025 78.1467 212.697 78.9752 212.697V209.697ZM114.444 185.952L114.302 184.459L114.197 184.469L114.094 184.493L114.444 185.952ZM107.955 187.034L107.967 185.534L107.955 187.034ZM97.6632 187.864L96.601 188.923L97.189 189.513L98.0005 189.326L97.6632 187.864ZM82.4076 156.276C81.8543 155.659 80.9059 155.608 80.2893 156.161C79.6728 156.715 79.6215 157.663 80.1748 158.28L82.4076 156.276ZM83.3836 160.855L84.6882 160.115L84.6882 160.115L83.3836 160.855ZM66.1525 89.7458C66.0777 88.9207 65.3483 88.3125 64.5232 88.3873C63.6982 88.4621 63.09 89.1916 63.1648 90.0166L66.1525 89.7458ZM65.4239 98.3418L63.9271 98.4394L65.4239 98.3418ZM64.2799 101.448C64.2799 102.276 64.9514 102.948 65.7799 102.948C66.6083 102.948 67.2799 102.276 67.2799 101.448H64.2799ZM150.477 231.403C150.477 230.575 149.805 229.903 148.977 229.903C148.148 229.903 147.477 230.575 147.477 231.403H150.477ZM149.055 254.716C149.316 255.502 150.165 255.928 150.951 255.667C151.737 255.405 152.163 254.556 151.902 253.77L149.055 254.716ZM221.051 175.94C220.222 175.94 219.551 176.612 219.551 177.44C219.551 178.269 220.222 178.94 221.051 178.94V175.94ZM225.083 177.998L224.62 179.425L224.62 179.425L225.083 177.998ZM239.014 191.663L237.617 192.212L237.617 192.212L239.014 191.663ZM242.211 232.937L240.721 232.766L240.721 232.766L242.211 232.937ZM240.724 249.391L239.227 249.298L239.227 249.298L240.724 249.391ZM238.449 255.392C238.113 256.15 238.455 257.036 239.212 257.371C239.97 257.707 240.856 257.365 241.191 256.608L238.449 255.392ZM64.1656 110.812C64.994 110.812 65.6656 110.14 65.6656 109.312C65.6656 108.483 64.994 107.812 64.1656 107.812V110.812ZM61.1379 109.5L61.6413 110.913L61.6413 110.913L61.1379 109.5ZM55.8941 115.354L54.5278 114.734L54.5278 114.734L55.8941 115.354ZM55.3478 122.569L56.8235 122.3L56.8235 122.3L55.3478 122.569ZM56.7368 132.305L55.2432 132.443L56.7368 132.305ZM58.8394 145.649C59.1463 146.418 60.0189 146.793 60.7884 146.486C61.5579 146.179 61.9329 145.307 61.626 144.537L58.8394 145.649ZM59.6242 143.047C59.2723 142.297 58.3791 141.974 57.6291 142.326C56.8791 142.678 56.5564 143.571 56.9083 144.321L59.6242 143.047ZM60.0142 149.507L58.5483 149.825L60.0142 149.507ZM63.9471 164.752L65.3817 164.314L65.3817 164.314L63.9471 164.752ZM68.9412 178.182L70.3682 177.719L70.3682 177.719L68.9412 178.182ZM71.3446 187.072L69.9097 187.509L69.9097 187.509L71.3446 187.072ZM79.8971 205.104L78.5619 205.787L78.5619 205.787L79.8971 205.104ZM82.6882 213.107C83.1321 213.807 84.0589 214.014 84.7584 213.57C85.4579 213.126 85.6652 212.2 85.2213 211.5L82.6882 213.107ZM168.444 89.5856C168.617 90.3959 169.413 90.9129 170.224 90.7404C171.034 90.5679 171.551 89.7713 171.378 88.961L168.444 89.5856ZM168.889 88.7984L169.21 87.3331L169.21 87.3331L168.889 88.7984ZM161.129 87.8649L160.823 86.3965L160.823 86.3965L161.129 87.8649ZM151.051 93.6971C150.497 94.3132 150.548 95.2616 151.164 95.8154C151.78 96.3692 152.728 96.3188 153.282 95.7027L151.051 93.6971ZM145.642 184.493C146.467 184.415 147.072 183.683 146.993 182.858C146.915 182.033 146.183 181.428 145.358 181.507L145.642 184.493ZM122 155.5C120.549 155.881 120.549 155.881 120.549 155.881C120.549 155.881 120.549 155.881 120.549 155.882C120.549 155.882 120.55 155.882 120.55 155.883C120.55 155.884 120.55 155.885 120.551 155.886C120.551 155.889 120.552 155.892 120.553 155.896C120.555 155.904 120.558 155.914 120.562 155.927C120.569 155.953 120.579 155.99 120.592 156.035C120.618 156.125 120.655 156.252 120.704 156.407C120.801 156.715 120.945 157.14 121.133 157.609C121.486 158.486 122.084 159.749 122.967 160.588L125.033 158.412C124.65 158.048 124.247 157.311 123.917 156.489C123.764 156.109 123.645 155.759 123.565 155.505C123.525 155.379 123.495 155.278 123.476 155.21C123.467 155.177 123.46 155.152 123.455 155.136C123.453 155.128 123.452 155.123 123.451 155.12C123.451 155.119 123.451 155.118 123.451 155.118C123.45 155.118 123.451 155.118 123.451 155.118C123.451 155.118 123.451 155.118 123.451 155.119C123.451 155.119 123.451 155.119 123.451 155.119C123.451 155.119 123.451 155.119 122 155.5ZM122.967 160.588C124.312 161.865 126.405 162.263 128.003 162.416C129.674 162.576 131.343 162.5 132 162.5V159.5C131.157 159.5 129.77 159.571 128.289 159.43C126.734 159.281 125.577 158.929 125.033 158.412L122.967 160.588ZM132 162.5C133.122 162.5 133.804 161.778 134.131 161.124C134.427 160.532 134.523 159.86 134.559 159.357C134.597 158.823 134.577 158.308 134.551 157.94C134.537 157.753 134.522 157.596 134.509 157.483C134.503 157.427 134.497 157.381 134.493 157.348C134.491 157.331 134.489 157.318 134.488 157.308C134.487 157.303 134.486 157.299 134.486 157.295C134.486 157.294 134.486 157.292 134.485 157.291C134.485 157.29 134.485 157.29 134.485 157.289C134.485 157.289 134.485 157.289 134.485 157.289C134.485 157.288 134.485 157.288 133 157.5C131.515 157.712 131.515 157.712 131.515 157.712C131.515 157.711 131.515 157.711 131.515 157.711C131.515 157.711 131.515 157.711 131.515 157.71C131.515 157.71 131.515 157.71 131.515 157.71C131.515 157.71 131.515 157.711 131.515 157.712C131.515 157.715 131.516 157.721 131.517 157.731C131.52 157.749 131.524 157.778 131.528 157.818C131.537 157.897 131.548 158.013 131.558 158.154C131.579 158.442 131.591 158.802 131.566 159.143C131.54 159.515 131.479 159.718 131.447 159.782C131.438 159.801 131.471 159.725 131.584 159.642C131.716 159.544 131.873 159.5 132 159.5V162.5ZM124.291 133.052C124.515 134.535 124.515 134.535 124.515 134.535C124.515 134.535 124.515 134.535 124.515 134.535C124.515 134.535 124.516 134.535 124.516 134.535C124.516 134.535 124.516 134.535 124.517 134.535C124.518 134.535 124.52 134.535 124.523 134.534C124.528 134.534 124.535 134.532 124.546 134.531C124.566 134.528 124.596 134.523 124.635 134.518C124.713 134.506 124.826 134.489 124.968 134.468C125.251 134.426 125.648 134.368 126.099 134.304C127.006 134.174 128.12 134.022 128.984 133.922L128.64 130.942C127.734 131.046 126.587 131.204 125.676 131.334C125.218 131.399 124.816 131.458 124.529 131.5C124.385 131.522 124.27 131.539 124.19 131.551C124.151 131.557 124.12 131.561 124.099 131.564C124.088 131.566 124.08 131.567 124.075 131.568C124.072 131.568 124.07 131.569 124.069 131.569C124.068 131.569 124.067 131.569 124.067 131.569C124.067 131.569 124.067 131.569 124.067 131.569C124.067 131.569 124.067 131.569 124.066 131.569C124.066 131.569 124.066 131.569 124.291 133.052ZM128.984 133.922C130.11 133.792 131.162 133.638 132.144 133.494C133.133 133.349 134.042 133.217 134.923 133.121C136.675 132.931 138.239 132.896 139.848 133.206L140.416 130.261C138.396 129.871 136.5 129.932 134.599 130.139C133.654 130.241 132.688 130.382 131.71 130.526C130.723 130.67 129.714 130.817 128.64 130.942L128.984 133.922ZM139.848 133.206C141.953 133.612 143.1 134.036 144.011 134.687C144.948 135.357 145.768 136.359 147.035 138.232L149.52 136.55C148.244 134.664 147.168 133.257 145.756 132.247C144.319 131.219 142.666 130.694 140.416 130.261L139.848 133.206ZM147.035 138.232C148.189 139.937 148.286 141.551 148.611 144.02L151.585 143.628C151.295 141.422 151.159 138.973 149.52 136.55L147.035 138.232ZM119.444 144.25C118.314 146.207 118.334 148.437 118.802 150.376C119.271 152.324 120.227 154.154 121.229 155.503L123.638 153.714C122.838 152.638 122.079 151.171 121.718 149.674C121.356 148.169 121.432 146.807 122.042 145.75L119.444 144.25ZM121.437 155.73C122.567 156.733 124.223 157.141 125.67 157.409C126.43 157.55 127.246 157.669 128.022 157.789C128.813 157.912 129.584 158.038 130.325 158.201L130.967 155.27C130.129 155.087 129.28 154.948 128.481 154.825C127.666 154.699 126.919 154.59 126.217 154.46C124.738 154.185 123.867 153.876 123.429 153.487L121.437 155.73ZM130.325 158.201C131.823 158.529 133.17 158.539 134.439 158.457C135.065 158.417 135.687 158.353 136.284 158.293C136.889 158.233 137.477 158.176 138.085 158.141L137.915 155.146C137.235 155.184 136.589 155.248 135.985 155.308C135.371 155.369 134.808 155.427 134.246 155.463C133.138 155.535 132.095 155.517 130.967 155.27L130.325 158.201ZM112.397 134.623C112.609 136.108 112.609 136.108 112.609 136.108C112.609 136.108 112.609 136.108 112.609 136.108C112.609 136.108 112.609 136.108 112.61 136.108C112.611 136.108 112.612 136.107 112.614 136.107C112.617 136.107 112.623 136.106 112.631 136.105C112.646 136.103 112.669 136.099 112.699 136.095C112.759 136.087 112.848 136.074 112.963 136.059C113.194 136.027 113.527 135.983 113.937 135.93C114.758 135.824 115.884 135.686 117.105 135.558C119.607 135.294 122.316 135.091 123.704 135.219L123.98 132.232C122.243 132.071 119.23 132.317 116.79 132.574C115.54 132.706 114.391 132.847 113.554 132.954C113.136 133.008 112.795 133.054 112.558 133.086C112.439 133.102 112.347 133.115 112.284 133.124C112.252 133.129 112.228 133.132 112.211 133.134C112.203 133.135 112.197 133.136 112.192 133.137C112.19 133.137 112.188 133.138 112.187 133.138C112.187 133.138 112.186 133.138 112.186 133.138C112.186 133.138 112.186 133.138 112.186 133.138C112.185 133.138 112.185 133.138 112.397 134.623ZM112.614 144.36C113.377 144.125 114.192 144.207 115.47 144.202L115.459 141.202C114.59 141.205 113.055 141.085 111.732 141.493L112.614 144.36ZM115.47 144.202C118.184 144.192 120.892 144.202 123.618 144.202V141.202C120.908 141.202 118.18 141.192 115.459 141.202L115.47 144.202ZM151.519 147.429C151.143 147.567 150.809 147.478 150.631 147.386C150.491 147.314 150.455 147.249 150.507 147.312C150.61 147.435 150.788 147.721 151.02 148.225C151.47 149.203 151.957 150.622 152.422 152.159C152.882 153.679 153.304 155.255 153.631 156.517C153.943 157.723 154.197 158.756 154.287 159.043L157.149 158.143C157.149 158.142 157.149 158.143 157.149 158.142C157.149 158.142 157.149 158.142 157.148 158.141C157.148 158.14 157.148 158.139 157.147 158.137C157.146 158.133 157.145 158.129 157.143 158.122C157.139 158.109 157.134 158.092 157.128 158.071C157.117 158.028 157.102 157.974 157.084 157.906C157.048 157.77 157.003 157.595 156.949 157.383C156.842 156.962 156.701 156.404 156.535 155.765C156.204 154.487 155.771 152.867 155.293 151.289C154.82 149.727 154.285 148.144 153.745 146.971C153.482 146.399 153.172 145.822 152.809 145.388C152.629 145.173 152.365 144.905 152.006 144.72C151.608 144.515 151.06 144.401 150.481 144.614L151.519 147.429ZM154.287 159.043C159.421 175.364 165.527 190.355 171.607 205.557L174.393 204.443C168.3 189.21 162.242 174.333 157.149 158.143L154.287 159.043ZM138.295 159.744C138.118 160.765 138.203 161.829 138.346 162.762C138.488 163.69 138.713 164.635 138.863 165.342L141.798 164.719C141.626 163.907 141.436 163.123 141.311 162.308C141.187 161.498 141.155 160.807 141.25 160.256L138.295 159.744ZM138.863 165.342C140.174 171.516 142.142 177.568 144.133 183.536L146.979 182.587C144.986 176.612 143.069 170.708 141.798 164.719L138.863 165.342ZM144.133 183.536C149.447 199.461 154.299 215.296 158.55 231.383L161.45 230.617C157.179 214.454 152.308 198.557 146.979 182.587L144.133 183.536ZM164.548 231.216C164.741 231.964 165.341 232.272 165.639 232.376C165.942 232.482 166.236 232.498 166.428 232.5C166.833 232.503 167.305 232.435 167.755 232.351C168.685 232.176 169.881 231.856 171.087 231.504C173.48 230.806 176.2 229.89 177.163 229.593L176.276 226.726C175.166 227.07 172.639 227.926 170.246 228.625C169.059 228.971 167.978 229.256 167.2 229.402C166.797 229.478 166.558 229.501 166.452 229.5C166.388 229.499 166.476 229.49 166.63 229.544C166.779 229.596 167.287 229.825 167.452 230.465L164.548 231.216ZM177.163 229.593C195.246 224 213.115 218.629 231.409 213.443L230.591 210.557C212.267 215.751 194.374 221.13 176.276 226.726L177.163 229.593ZM174.665 207.057C181.131 203.861 188.238 202.039 195.238 199.719L194.294 196.872C187.56 199.104 180.051 201.048 173.335 204.367L174.665 207.057ZM195.238 199.719C202.06 197.459 208.817 195.024 215.546 192.397L214.454 189.603C207.775 192.211 201.067 194.627 194.294 196.872L195.238 199.719ZM191.767 99.4128C191.666 99.4128 191.706 99.3668 192.056 99.6133C192.13 99.6659 192.208 99.7231 192.298 99.7903C192.384 99.8541 192.486 99.9304 192.588 100.004C192.788 100.148 193.053 100.329 193.355 100.474L194.651 97.7676C194.593 97.7398 194.5 97.6838 194.34 97.5687C194.261 97.512 193.934 97.2667 193.784 97.1612C193.399 96.8901 192.682 96.4128 191.767 96.4128V99.4128ZM193.355 100.474C195.386 101.446 197.614 100.986 199.231 99.9536L197.617 97.4248C196.639 98.0494 195.519 98.1832 194.651 97.7676L193.355 100.474ZM156 111.836C159.618 111.836 162.114 108.929 162.735 105.815L159.793 105.229C159.369 107.355 157.802 108.836 156 108.836V111.836ZM148.351 108.718C149.722 112.497 150.101 116.84 150.256 121.414C150.408 125.9 150.342 130.696 150.91 134.995L153.884 134.602C153.341 130.496 153.414 126.012 153.254 121.312C153.098 116.699 152.715 111.949 151.171 107.695L148.351 108.718ZM150.91 134.995C151.916 142.608 151.99 141.914 153.397 149.357L156.345 148.8C154.919 141.259 154.876 142.105 153.884 134.602L150.91 134.995ZM153.535 146.771C165.29 152.141 176.139 159.71 179.274 170.965L182.164 170.16C178.644 157.523 166.65 149.464 154.782 144.042L153.535 146.771ZM190.082 104.924C190.087 104.863 190.095 104.797 190.103 104.726L187.125 104.365C187.113 104.46 187.103 104.556 187.094 104.653L190.082 104.924ZM190.103 104.726C190.123 104.561 190.15 104.379 190.182 104.175L187.217 103.716C187.184 103.927 187.151 104.149 187.125 104.365L190.103 104.726ZM190.182 104.175C190.192 104.108 190.203 104.04 190.214 103.97C190.224 103.9 190.236 103.829 190.247 103.756L187.282 103.297C187.272 103.367 187.261 103.436 187.25 103.506C187.239 103.575 187.228 103.646 187.217 103.716L190.182 104.175ZM190.247 103.756C190.257 103.69 190.268 103.622 190.278 103.554L187.311 103.11C187.302 103.172 187.292 103.234 187.282 103.297L190.247 103.756ZM190.278 103.554C190.33 103.205 190.382 102.817 190.41 102.426L187.418 102.212C187.398 102.488 187.359 102.786 187.311 103.11L190.278 103.554ZM190.41 102.426C190.442 101.983 190.447 101.484 190.365 100.989L187.405 101.478C187.434 101.65 187.441 101.891 187.418 102.212L190.41 102.426ZM190.365 100.989C190.349 100.895 190.331 100.8 190.308 100.705L187.389 101.399C187.395 101.422 187.4 101.448 187.405 101.478L190.365 100.989ZM190.308 100.705C190.307 100.699 190.305 100.693 190.304 100.687L187.388 101.395C187.389 101.396 187.389 101.397 187.389 101.399L190.308 100.705ZM190.304 100.687C190.295 100.651 190.286 100.616 190.276 100.58L187.382 101.372C187.384 101.379 187.386 101.386 187.388 101.395L190.304 100.687ZM190.276 100.58C190.138 100.076 189.983 99.6291 189.805 99.2462L187.086 100.514C187.171 100.698 187.274 100.974 187.382 101.372L190.276 100.58ZM189.805 99.2462C189.567 98.7356 189.198 98.1423 188.582 97.7988C187.823 97.3752 187.039 97.5097 186.469 97.8503C185.984 98.1406 185.632 98.5797 185.389 98.9423C185.13 99.3304 184.901 99.7756 184.701 100.222C183.929 101.95 183.336 104.32 183.248 105.286L186.236 105.558C186.289 104.971 186.78 102.923 187.44 101.445C187.599 101.09 187.75 100.809 187.883 100.611C188.032 100.387 188.086 100.379 188.008 100.426C187.846 100.522 187.474 100.616 187.12 100.419C186.91 100.301 186.94 100.201 187.086 100.514L189.805 99.2462ZM183.248 105.286C183.153 106.335 183.339 107.303 183.836 108.12C184.332 108.933 185.065 109.478 185.86 109.806C187.401 110.441 189.285 110.323 190.902 109.796L189.973 106.944C188.789 107.329 187.681 107.311 187.004 107.032C186.69 106.902 186.506 106.735 186.398 106.559C186.292 106.385 186.188 106.084 186.236 105.558L183.248 105.286ZM190.902 109.796C192.15 109.39 192.941 108.469 193.354 107.459L190.578 106.322C190.432 106.679 190.229 106.86 189.973 106.944L190.902 109.796ZM193.354 107.459C193.419 107.3 193.475 107.14 193.523 106.978L190.644 106.132C190.625 106.2 190.602 106.263 190.578 106.322L193.354 107.459ZM193.523 106.978C193.759 106.173 193.798 105.316 193.693 104.518L190.719 104.908C190.777 105.353 190.747 105.784 190.644 106.132L193.523 106.978ZM193.693 104.518C193.646 104.158 193.569 103.802 193.462 103.458L190.597 104.348C190.652 104.524 190.693 104.713 190.719 104.908L193.693 104.518ZM193.462 103.458C193.409 103.288 193.349 103.12 193.281 102.956L190.507 104.099C190.54 104.177 190.57 104.261 190.597 104.348L193.462 103.458ZM193.281 102.956C193.126 102.58 192.928 102.214 192.683 101.879L190.263 103.651C190.348 103.767 190.432 103.917 190.507 104.099L193.281 102.956ZM192.683 101.879C191.447 100.19 189.383 100.304 188.154 101.026L189.674 103.612C189.794 103.542 189.941 103.513 190.055 103.527C190.105 103.533 190.141 103.546 190.167 103.561C190.19 103.574 190.224 103.598 190.263 103.651L192.683 101.879ZM188.154 101.026C188.017 101.107 187.885 101.196 187.759 101.296L189.621 103.649C189.635 103.637 189.653 103.625 189.674 103.612L188.154 101.026ZM187.759 101.296C187.369 101.605 187.014 102.027 186.805 102.558L189.597 103.657C189.588 103.679 189.581 103.687 189.584 103.684C189.587 103.68 189.598 103.667 189.621 103.649L187.759 101.296ZM186.805 102.558C186.569 103.159 186.545 103.837 186.787 104.501L189.605 103.474C189.609 103.483 189.617 103.512 189.616 103.554C189.616 103.596 189.607 103.632 189.597 103.657L186.805 102.558ZM186.787 104.501C186.875 104.743 186.995 104.972 187.139 105.186L189.626 103.508C189.607 103.48 189.603 103.468 189.605 103.474L186.787 104.501ZM187.139 105.186C187.366 105.522 187.661 105.727 187.864 105.844L189.364 103.246C189.374 103.252 189.405 103.271 189.448 103.307C189.489 103.342 189.557 103.407 189.626 103.508L187.139 105.186ZM187.864 105.844C188.22 106.05 188.614 106.169 188.932 106.235C189.252 106.302 189.627 106.344 189.979 106.316L189.747 103.325C189.763 103.324 189.749 103.326 189.702 103.322C189.658 103.318 189.604 103.311 189.546 103.299C189.488 103.287 189.438 103.272 189.399 103.259C189.357 103.244 189.348 103.237 189.364 103.246L187.864 105.844ZM189.979 106.316C190.117 106.306 190.311 106.28 190.519 106.209C190.691 106.15 191.097 105.985 191.382 105.552C191.743 105.003 191.679 104.406 191.495 104.005C191.344 103.675 191.116 103.461 190.987 103.352L189.048 105.641C189.038 105.633 188.884 105.507 188.768 105.254C188.619 104.929 188.551 104.397 188.877 103.902C189.127 103.521 189.467 103.398 189.548 103.371C189.664 103.331 189.742 103.326 189.747 103.325L189.979 106.316ZM190.987 103.352C190.475 102.918 189.91 102.648 189.34 102.523L188.7 105.454C188.782 105.472 188.903 105.518 189.048 105.641L190.987 103.352ZM189.34 102.523C189.151 102.482 188.963 102.457 188.778 102.447L188.62 105.443C188.644 105.445 188.671 105.448 188.7 105.454L189.34 102.523ZM188.778 102.447C188.461 102.431 188.152 102.459 187.862 102.525L188.53 105.45C188.548 105.445 188.579 105.441 188.62 105.443L188.778 102.447ZM187.862 102.525C187.626 102.579 187.397 102.659 187.182 102.767L188.525 105.449C188.518 105.453 188.516 105.454 188.517 105.453C188.518 105.453 188.522 105.451 188.53 105.45L187.862 102.525ZM187.182 102.767C186.716 103 186.03 103.524 185.915 104.432C185.775 105.544 186.567 106.233 187.187 106.52L188.447 103.798C188.45 103.799 188.479 103.812 188.523 103.846C188.567 103.88 188.632 103.938 188.697 104.028C188.842 104.228 188.929 104.508 188.891 104.807C188.857 105.078 188.736 105.253 188.665 105.333C188.593 105.414 188.535 105.444 188.525 105.449L187.182 102.767ZM187.187 106.52C187.292 106.569 187.399 106.611 187.507 106.647L188.467 103.805C188.451 103.799 188.445 103.796 188.447 103.798L187.187 106.52ZM187.507 106.647C189.333 107.263 191.012 107.196 192.203 106.016L190.092 103.885C190.033 103.943 189.95 104.002 189.755 104.024C189.526 104.05 189.12 104.025 188.467 103.805L187.507 106.647ZM192.203 106.016C192.656 105.567 192.952 105.032 193.152 104.509L190.349 103.439C190.255 103.685 190.161 103.817 190.092 103.885L192.203 106.016ZM193.152 104.509C193.226 104.313 193.289 104.115 193.342 103.918L190.446 103.137C190.415 103.25 190.383 103.35 190.349 103.439L193.152 104.509ZM193.342 103.918C193.512 103.287 193.596 102.62 193.643 101.991L190.651 101.77C190.611 102.306 190.547 102.763 190.446 103.137L193.342 103.918ZM193.643 101.991C193.689 101.37 193.701 100.738 193.71 100.168L190.71 100.119C190.701 100.694 190.69 101.246 190.651 101.77L193.643 101.991ZM193.71 100.168C193.713 99.968 193.716 99.7779 193.72 99.5907L190.72 99.5323C190.716 99.7262 190.713 99.925 190.71 100.119L193.71 100.168ZM193.72 99.5907C193.721 99.5171 193.721 99.4442 193.72 99.3721L190.72 99.4348C190.721 99.4647 190.721 99.4972 190.72 99.5323L193.72 99.5907ZM193.72 99.3721C193.703 98.5671 193.485 97.64 192.717 97.0376C191.933 96.4226 191.018 96.4879 190.402 96.6582C189.203 96.9894 188.024 97.98 187.262 98.9582L189.629 100.802C189.875 100.485 190.178 100.186 190.485 99.9525C190.805 99.7093 191.059 99.5889 191.201 99.5498C191.36 99.506 191.141 99.6135 190.866 99.3979C190.607 99.195 190.712 99.0247 190.72 99.4348L193.72 99.3721ZM187.262 98.9582C186.778 99.579 186.321 100.373 186.182 101.226L189.142 101.709C189.169 101.548 189.303 101.22 189.629 100.802L187.262 98.9582ZM186.182 101.225C186.18 101.235 186.178 101.245 186.177 101.257L189.141 101.715C189.142 101.714 189.142 101.712 189.142 101.709L186.182 101.225ZM186.177 101.257C186.022 102.257 186.299 103.153 186.854 103.85L189.201 101.981C189.164 101.935 189.15 101.901 189.143 101.876C189.137 101.852 189.128 101.804 189.141 101.715L186.177 101.257ZM186.854 103.85C186.947 103.967 187.046 104.076 187.149 104.177L189.253 102.039C189.232 102.018 189.215 101.999 189.201 101.981L186.854 103.85ZM187.149 104.177C187.417 104.441 187.717 104.657 188.024 104.831L189.505 102.222C189.391 102.158 189.309 102.094 189.253 102.039L187.149 104.177ZM188.024 104.831C188.07 104.857 188.116 104.882 188.163 104.907L189.557 102.251C189.54 102.241 189.522 102.232 189.505 102.222L188.024 104.831ZM188.163 104.907C189.34 105.525 190.837 105.697 192.057 105.442L191.444 102.506C190.871 102.625 190.087 102.529 189.557 102.251L188.163 104.907ZM192.057 105.442C192.194 105.414 192.332 105.379 192.467 105.337L191.591 102.468C191.547 102.482 191.498 102.494 191.444 102.506L192.057 105.442ZM192.467 105.337C193.237 105.102 194.21 104.559 194.566 103.443L191.707 102.532C191.723 102.484 191.744 102.444 191.765 102.415C191.785 102.387 191.8 102.376 191.798 102.377C191.796 102.379 191.78 102.391 191.744 102.409C191.709 102.427 191.658 102.448 191.591 102.468L192.467 105.337ZM194.566 103.443C194.603 103.326 194.636 103.209 194.664 103.091L191.748 102.387C191.736 102.436 191.722 102.485 191.707 102.532L194.566 103.443ZM194.664 103.091C194.897 102.125 194.851 101.09 194.542 100.181L191.702 101.149C191.824 101.507 191.851 101.961 191.748 102.387L194.664 103.091ZM194.542 100.181C194.284 99.4242 193.81 98.6679 193.06 98.1606L191.38 100.646C191.462 100.702 191.6 100.848 191.702 101.149L194.542 100.181ZM193.06 98.1606C191.908 97.3819 190.485 97.4271 189.125 98.1674L190.559 100.802C190.883 100.626 191.09 100.595 191.191 100.594C191.282 100.594 191.334 100.615 191.38 100.646L193.06 98.1606ZM189.125 98.1674C188.116 98.7164 187.627 99.8063 187.405 100.645L190.304 101.414C190.369 101.172 190.448 100.993 190.519 100.879C190.593 100.76 190.621 100.769 190.559 100.802L189.125 98.1674ZM187.405 100.645C187.402 100.654 187.4 100.664 187.397 100.675L190.3 101.429C190.301 101.426 190.303 101.421 190.304 101.414L187.405 100.645ZM187.397 100.675C187.376 100.757 187.356 100.839 187.338 100.922L190.27 101.557C190.28 101.513 190.29 101.47 190.3 101.429L187.397 100.675ZM187.338 100.922C187.227 101.437 187.176 101.981 187.191 102.513L190.19 102.431C190.182 102.138 190.21 101.834 190.27 101.557L187.338 100.922ZM187.191 102.513C187.201 102.896 187.245 103.286 187.332 103.665L190.257 102.999C190.219 102.834 190.195 102.642 190.19 102.431L187.191 102.513ZM187.332 103.665C187.359 103.783 187.39 103.901 187.426 104.018L190.294 103.139C190.281 103.096 190.268 103.049 190.257 102.999L187.332 103.665ZM187.426 104.018C187.49 104.229 187.571 104.441 187.672 104.647L190.368 103.331C190.344 103.282 190.318 103.218 190.294 103.139L187.426 104.018ZM187.672 104.647C187.977 105.273 188.504 105.917 189.342 106.228L190.384 103.414C190.401 103.42 190.415 103.428 190.427 103.436C190.437 103.443 190.441 103.447 190.44 103.445C190.435 103.44 190.406 103.409 190.368 103.331L187.672 104.647ZM189.342 106.228C189.381 106.242 189.42 106.255 189.458 106.268L190.375 103.411C190.377 103.412 190.38 103.413 190.384 103.414L189.342 106.228ZM189.458 106.268C190.06 106.461 190.701 106.496 191.279 106.445L191.015 103.457C190.727 103.482 190.505 103.453 190.375 103.411L189.458 106.268ZM191.279 106.445C191.773 106.401 192.271 106.29 192.731 106.118L191.68 103.308C191.482 103.382 191.249 103.436 191.015 103.457L191.279 106.445ZM192.731 106.118C193.371 105.879 194.139 105.444 194.595 104.7C194.841 104.301 194.995 103.81 194.957 103.262C194.921 102.721 194.706 102.243 194.411 101.845L192.001 103.633C192.029 103.67 191.974 103.611 191.964 103.465C191.954 103.312 192.002 103.191 192.039 103.13C192.068 103.083 192.074 103.096 192.004 103.146C191.936 103.194 191.829 103.253 191.68 103.308L192.731 106.118ZM194.411 101.845C194.145 101.488 193.804 101.177 193.419 100.903L191.678 103.346C191.883 103.492 191.972 103.593 192.001 103.633L194.411 101.845ZM193.419 100.903C193.234 100.771 193.04 100.655 192.842 100.551L191.452 103.21C191.546 103.259 191.62 103.305 191.678 103.346L193.419 100.903ZM192.842 100.551C191.706 99.9576 190.16 99.6484 188.789 99.7367L188.981 102.731C189.849 102.675 190.841 102.891 191.452 103.21L192.842 100.551ZM188.789 99.7367C188.754 99.7389 188.72 99.7414 188.685 99.7441L188.923 102.735C188.942 102.733 188.962 102.732 188.981 102.731L188.789 99.7367ZM188.685 99.7441C188.639 99.7479 188.592 99.7521 188.545 99.7568L188.845 102.742C188.871 102.739 188.897 102.737 188.923 102.735L188.685 99.7441ZM188.545 99.7568C188.067 99.8048 187.576 99.9068 187.111 100.09L188.207 102.882C188.363 102.821 188.576 102.769 188.845 102.742L188.545 99.7568ZM187.111 100.09C186.298 100.409 185.466 101.025 185.111 102.084C184.766 103.11 184.985 104.215 185.497 105.28L188.2 103.979C187.871 103.295 187.954 103.041 187.955 103.038C187.955 103.037 187.955 103.031 187.977 103.011C188.005 102.985 188.073 102.935 188.207 102.882L187.111 100.09ZM185.497 105.28C185.855 106.023 186.573 106.502 187.106 106.792L188.54 104.157C188.363 104.061 188.249 103.98 188.184 103.925C188.153 103.898 188.143 103.886 188.146 103.889C188.149 103.892 188.173 103.922 188.2 103.979L185.497 105.28ZM187.106 106.792C188.444 107.521 190.462 108.024 192.054 108.055L192.113 105.055C190.957 105.033 189.418 104.635 188.54 104.157L187.106 106.792ZM192.054 108.055C192.253 108.059 192.452 108.055 192.647 108.043L192.462 105.049C192.357 105.056 192.24 105.058 192.113 105.055L192.054 108.055ZM192.647 108.043C193.265 108.005 194.113 107.867 194.755 107.33L192.832 105.028C192.911 104.961 192.946 104.966 192.863 104.99C192.786 105.013 192.655 105.037 192.462 105.049L192.647 108.043ZM194.755 107.33C196.135 106.177 196.439 104.522 196.189 103.102C195.944 101.712 195.155 100.367 194.057 99.4918L192.187 101.838C192.702 102.249 193.114 102.938 193.234 103.622C193.349 104.276 193.183 104.735 192.832 105.028L194.755 107.33ZM194.057 99.4918C193.665 99.1797 193.218 98.915 192.726 98.7347L191.695 101.552C191.848 101.608 192.015 101.701 192.187 101.838L194.057 99.4918ZM192.726 98.7347C192.398 98.6148 192.05 98.5322 191.686 98.499L191.413 101.487C191.5 101.495 191.594 101.515 191.695 101.552L192.726 98.7347ZM191.686 98.499C189.956 98.3409 188.588 98.9514 187.679 100.098L190.03 101.962C190.271 101.658 190.626 101.415 191.413 101.487L191.686 98.499ZM187.679 100.098C187.676 100.102 187.672 100.107 187.667 100.114L190.025 101.968C190.026 101.967 190.027 101.965 190.03 101.962L187.679 100.098ZM187.667 100.114C187.589 100.213 187.516 100.314 187.447 100.417L189.943 102.081C189.97 102.041 189.998 102.003 190.025 101.968L187.667 100.114ZM187.447 100.417C186.999 101.088 186.728 101.85 186.563 102.59L189.492 103.241C189.603 102.741 189.76 102.356 189.943 102.081L187.447 100.417ZM186.563 102.59C186.46 103.053 186.395 103.524 186.358 103.988L189.348 104.229C189.377 103.878 189.424 103.546 189.492 103.241L186.563 102.59ZM186.358 103.988C186.326 104.386 186.314 104.783 186.317 105.17L189.317 105.147C189.314 104.837 189.324 104.529 189.348 104.229L186.358 103.988ZM186.317 105.17C186.318 105.288 186.32 105.405 186.324 105.521L189.322 105.429C189.319 105.335 189.318 105.241 189.317 105.147L186.317 105.17ZM186.324 105.521C186.33 105.712 186.339 105.9 186.351 106.085L189.345 105.889C189.335 105.737 189.327 105.583 189.322 105.429L186.324 105.521ZM186.351 106.085C186.416 107.069 187.167 107.617 187.536 107.84C187.994 108.115 188.536 108.299 189.053 108.415C190.056 108.641 191.391 108.702 192.486 108.297L191.447 105.483C191.088 105.616 190.39 105.641 189.711 105.488C189.387 105.415 189.176 105.325 189.083 105.269C189.038 105.242 189.072 105.253 189.132 105.325C189.196 105.402 189.325 105.594 189.345 105.889L186.351 106.085ZM192.486 108.297C192.85 108.163 193.237 107.959 193.574 107.647L191.535 105.446C191.548 105.434 191.55 105.435 191.535 105.443C191.52 105.452 191.492 105.466 191.447 105.483L192.486 108.297ZM193.574 107.647C194.031 107.224 194.345 106.646 194.408 105.953L191.421 105.681C191.424 105.65 191.434 105.601 191.461 105.548C191.488 105.495 191.518 105.462 191.535 105.446L193.574 107.647ZM164.626 109.337C163.973 109.359 163.236 109.568 162.721 110.191C162.214 110.804 162.166 111.523 162.236 112.039L165.208 111.636C165.209 111.637 165.21 111.648 165.21 111.67C165.209 111.691 165.207 111.725 165.198 111.768C165.179 111.86 165.131 111.984 165.033 112.103C164.816 112.365 164.592 112.34 164.727 112.335L164.626 109.337ZM162.236 112.039C162.315 112.619 162.562 113.156 162.84 113.583L165.353 111.945C165.303 111.867 165.265 111.794 165.24 111.733C165.227 111.703 165.219 111.678 165.214 111.661C165.209 111.643 165.208 111.634 165.208 111.636L162.236 112.039ZM162.84 113.583C163.077 113.947 163.378 114.295 163.726 114.58L165.626 112.259C165.542 112.189 165.441 112.079 165.353 111.945L162.84 113.583ZM163.726 114.58C164.167 114.941 164.97 115.425 165.933 115.231C167.046 115.006 167.586 114.067 167.804 113.233L164.901 112.475C164.862 112.623 164.838 112.613 164.899 112.54C164.976 112.448 165.127 112.333 165.338 112.29C165.528 112.252 165.656 112.293 165.685 112.304C165.712 112.314 165.689 112.31 165.626 112.259L163.726 114.58ZM167.804 113.233C167.818 113.177 167.832 113.121 167.846 113.064L164.932 112.352C164.921 112.395 164.911 112.436 164.901 112.475L167.804 113.233ZM167.846 113.064C168.155 111.799 168.407 109.833 168.262 108.476L165.279 108.794C165.373 109.68 165.195 111.273 164.932 112.352L167.846 113.064ZM168.262 108.476C168.2 107.897 167.973 107.374 167.71 106.942L165.147 108.502C165.201 108.591 165.236 108.664 165.256 108.718C165.277 108.772 165.279 108.797 165.279 108.794L168.262 108.476ZM167.71 106.942C167.302 106.272 166.713 105.662 166.081 105.169L164.235 107.533C164.656 107.862 164.971 108.213 165.147 108.502L167.71 106.942ZM166.081 105.169C166.039 105.136 165.997 105.104 165.955 105.072L164.154 107.471C164.181 107.492 164.208 107.512 164.235 107.533L166.081 105.169ZM165.955 105.072C164.997 104.353 163.702 103.713 162.423 103.693C161.751 103.683 161.002 103.846 160.363 104.357C159.718 104.873 159.35 105.607 159.194 106.422L162.14 106.989C162.196 106.696 162.276 106.669 162.236 106.701C162.2 106.729 162.212 106.69 162.376 106.693C162.772 106.699 163.458 106.949 164.154 107.471L165.955 105.072ZM159.194 106.422C159.12 106.803 159.037 107.254 158.969 107.736L161.94 108.154C161.997 107.749 162.069 107.358 162.14 106.989L159.194 106.422ZM158.969 107.736C158.963 107.775 158.958 107.814 158.953 107.853L161.926 108.251C161.931 108.219 161.935 108.187 161.94 108.154L158.969 107.736ZM158.953 107.853C158.936 107.979 158.92 108.107 158.906 108.237L161.889 108.561C161.9 108.458 161.912 108.354 161.926 108.251L158.953 107.853ZM158.906 108.237C158.797 109.244 158.764 110.498 159.146 111.642L161.992 110.693C161.816 110.166 161.794 109.43 161.889 108.561L158.906 108.237ZM159.146 111.642C159.236 111.913 159.351 112.183 159.498 112.445L162.118 110.984C162.072 110.902 162.03 110.806 161.992 110.693L159.146 111.642ZM159.498 112.445C159.831 113.042 160.311 113.574 160.969 113.966L162.507 111.391C162.338 111.29 162.215 111.159 162.118 110.984L159.498 112.445ZM160.969 113.966C162.312 114.768 163.717 115.202 165.037 114.875L164.316 111.963C164.107 112.015 163.55 112.014 162.507 111.391L160.969 113.966ZM165.037 114.875C165.633 114.728 166.157 114.435 166.592 114.028L164.542 111.838C164.47 111.906 164.399 111.943 164.316 111.963L165.037 114.875ZM166.592 114.028C167.612 113.074 168.028 111.615 168.139 110.144L165.148 109.917C165.059 111.091 164.753 111.64 164.542 111.838L166.592 114.028ZM168.139 110.144C168.223 109.038 168.135 108.058 167.844 107.227L165.013 108.218C165.127 108.543 165.211 109.081 165.148 109.917L168.139 110.144ZM167.844 107.227C167.602 106.534 167.217 105.942 166.687 105.496L164.754 107.791C164.82 107.846 164.923 107.962 165.013 108.218L167.844 107.227ZM166.687 105.496C166.334 105.199 165.941 104.987 165.533 104.85L164.576 107.693C164.65 107.718 164.707 107.751 164.754 107.791L166.687 105.496ZM165.533 104.85C165.358 104.791 165.183 104.747 165.008 104.714L164.462 107.664C164.505 107.672 164.543 107.682 164.576 107.693L165.533 104.85ZM165.008 104.714C163.615 104.456 162.167 104.947 161.074 105.6L162.614 108.175C163.369 107.723 164.06 107.59 164.462 107.664L165.008 104.714ZM161.074 105.6C160.463 105.965 159.892 106.422 159.422 106.938L161.641 108.958C161.896 108.677 162.233 108.403 162.614 108.175L161.074 105.6ZM159.422 106.938C159.381 106.983 159.341 107.029 159.301 107.075L161.578 109.029C161.598 109.006 161.619 108.982 161.641 108.958L159.422 106.938ZM159.301 107.075C159.225 107.164 159.151 107.256 159.079 107.349L161.469 109.164C161.502 109.12 161.538 109.075 161.578 109.029L159.301 107.075ZM159.079 107.349C158.58 108.007 158.145 108.883 158.182 109.867C158.222 110.952 158.822 111.85 159.779 112.443L161.359 109.893C161.215 109.803 161.177 109.743 161.175 109.74C161.173 109.737 161.175 109.741 161.178 109.748C161.18 109.756 161.18 109.759 161.18 109.755C161.179 109.746 161.18 109.69 161.223 109.581C161.266 109.471 161.343 109.329 161.469 109.164L159.079 107.349ZM159.779 112.443C159.905 112.521 160.036 112.593 160.171 112.66L161.501 109.971C161.445 109.943 161.399 109.917 161.359 109.893L159.779 112.443ZM160.171 112.66C160.636 112.89 161.167 113.064 161.754 113.19L162.386 110.257C161.981 110.17 161.696 110.067 161.501 109.971L160.171 112.66ZM161.754 113.19C161.794 113.199 161.834 113.207 161.874 113.215L162.463 110.274C162.438 110.268 162.412 110.263 162.386 110.257L161.754 113.19ZM161.874 113.215C162.586 113.358 163.258 113.396 163.883 113.329L163.561 110.346C163.285 110.376 162.923 110.366 162.463 110.274L161.874 113.215ZM163.883 113.329C165.333 113.172 166.446 112.449 167.083 111.393C167.694 110.38 167.799 109.178 167.509 108.129C167.217 107.073 166.488 106.062 165.314 105.56C164.121 105.05 162.731 105.173 161.324 105.868L162.653 108.558C163.489 108.145 163.945 108.237 164.134 108.318C164.341 108.407 164.529 108.608 164.618 108.93C164.709 109.26 164.661 109.601 164.515 109.843C164.395 110.042 164.146 110.283 163.561 110.346L163.883 113.329ZM161.324 105.868C161.11 105.974 160.908 106.09 160.718 106.216L162.384 108.711C162.457 108.663 162.545 108.611 162.653 108.558L161.324 105.868ZM160.718 106.216C160.352 106.461 160.029 106.749 159.766 107.084L162.126 108.936C162.167 108.884 162.244 108.805 162.384 108.711L160.718 106.216ZM159.766 107.084C159.502 107.421 159.308 107.793 159.19 108.192L162.067 109.042C162.073 109.021 162.087 108.986 162.126 108.936L159.766 107.084ZM159.19 108.192C158.859 109.312 159.191 110.384 159.68 111.196L162.251 109.649C162.024 109.272 162.054 109.084 162.067 109.042L159.19 108.192ZM159.68 111.196C160.079 111.859 160.633 112.445 161.241 112.923L163.096 110.565C162.715 110.266 162.427 109.942 162.251 109.649L159.68 111.196ZM161.241 112.923C161.949 113.48 162.789 113.936 163.663 114.2L164.53 111.328C164.046 111.182 163.537 110.913 163.096 110.565L161.241 112.923ZM163.663 114.2C164.307 114.394 165.011 114.497 165.718 114.425L165.416 111.441C165.187 111.464 164.886 111.436 164.53 111.328L163.663 114.2ZM165.718 114.425C166.16 114.381 166.61 114.267 167.04 114.059L165.737 111.357C165.659 111.395 165.555 111.427 165.416 111.441L165.718 114.425ZM167.04 114.059C168.407 113.4 169.161 112.031 169.32 110.275L166.333 110.003C166.284 110.541 166.161 110.865 166.051 111.051C165.949 111.224 165.841 111.307 165.737 111.357L167.04 114.059ZM169.32 110.275C169.521 108.063 168.008 106.272 166.496 105.359L164.945 107.928C165.922 108.517 166.39 109.377 166.333 110.003L169.32 110.275ZM166.496 105.359C166.259 105.217 166.014 105.089 165.762 104.978L164.554 107.724C164.685 107.781 164.816 107.85 164.945 107.928L166.496 105.359ZM165.762 104.978C165.578 104.897 165.389 104.825 165.198 104.762L164.272 107.616C164.364 107.646 164.458 107.682 164.554 107.724L165.762 104.978ZM165.198 104.762C163.765 104.297 161.784 104.336 160.61 106.035L163.078 107.74C163.16 107.622 163.256 107.558 163.415 107.525C163.604 107.486 163.897 107.494 164.272 107.616L165.198 104.762ZM160.61 106.035C160.417 106.315 160.261 106.622 160.141 106.952L162.961 107.976C163 107.868 163.042 107.792 163.078 107.74L160.61 106.035ZM160.141 106.952C160.035 107.245 159.957 107.554 159.905 107.877L162.868 108.351C162.893 108.196 162.926 108.073 162.961 107.976L160.141 106.952ZM159.905 107.877C159.87 108.096 159.847 108.322 159.836 108.555L162.832 108.707C162.838 108.574 162.851 108.455 162.868 108.351L159.905 107.877ZM159.836 108.555C159.824 108.776 159.82 108.989 159.823 109.193L162.823 109.152C162.821 109.017 162.823 108.869 162.832 108.707L159.836 108.555ZM159.823 109.193C159.828 109.554 159.854 109.892 159.904 110.206L162.868 109.742C162.843 109.586 162.826 109.392 162.823 109.152L159.823 109.193ZM159.904 110.206C160.091 111.4 160.692 112.584 161.957 112.914C163.141 113.223 164.165 112.575 164.693 111.872C165.263 111.11 165.522 109.976 164.986 108.872C164.466 107.805 163.368 107.102 161.95 106.712L161.154 109.605C161.633 109.736 161.925 109.885 162.093 110.002C162.176 110.059 162.225 110.106 162.253 110.137C162.266 110.153 162.275 110.165 162.28 110.172C162.285 110.18 162.287 110.184 162.288 110.184C162.288 110.185 162.287 110.182 162.285 110.177C162.283 110.172 162.282 110.166 162.28 110.158C162.278 110.141 162.278 110.125 162.28 110.11C162.283 110.084 162.291 110.074 162.292 110.073C162.293 110.071 162.297 110.067 162.305 110.06C162.312 110.054 162.329 110.042 162.358 110.029C162.416 110.003 162.547 109.967 162.715 110.011C163.144 110.123 162.975 110.428 162.868 109.742L159.904 110.206ZM161.95 106.712C161.887 106.695 161.825 106.678 161.766 106.663L161.008 109.565C161.054 109.577 161.103 109.591 161.154 109.605L161.95 106.712ZM161.766 106.663C161.579 106.614 161.406 106.573 161.246 106.54L160.646 109.48C160.742 109.499 160.861 109.527 161.008 109.565L161.766 106.663ZM161.246 106.54C161.039 106.498 160.831 106.465 160.633 106.452L160.43 109.445C160.448 109.446 160.515 109.453 160.646 109.48L161.246 106.54ZM160.633 106.452C160.581 106.448 160.527 106.446 160.471 106.445L160.437 109.445C160.43 109.445 160.427 109.445 160.43 109.445L160.633 106.452ZM160.471 106.445C160.316 106.443 160.068 106.453 159.8 106.543C159.521 106.637 159.071 106.874 158.828 107.412C158.595 107.93 158.703 108.398 158.786 108.631C158.871 108.869 158.994 109.05 159.073 109.155L161.475 107.358C161.483 107.369 161.555 107.462 161.612 107.624C161.668 107.779 161.772 108.181 161.564 108.644C161.346 109.128 160.948 109.322 160.754 109.388C160.57 109.449 160.44 109.445 160.437 109.445L160.471 106.445ZM159.073 109.155C159.154 109.264 159.24 109.36 159.317 109.439L161.478 107.359C161.469 107.349 161.464 107.344 161.463 107.343C161.462 107.341 161.466 107.346 161.475 107.358L159.073 109.155ZM159.317 109.439C159.421 109.548 159.533 109.651 159.639 109.745L161.617 107.489C161.55 107.43 161.505 107.387 161.478 107.359L159.317 109.439ZM159.639 109.745C159.884 109.959 160.168 110.179 160.415 110.367L162.23 107.978C161.989 107.795 161.777 107.629 161.617 107.489L159.639 109.745ZM160.415 110.367C160.794 110.655 161.05 110.841 161.194 110.964C161.224 110.991 161.216 110.985 161.189 110.957C161.176 110.943 161.138 110.902 161.092 110.838C161.06 110.793 160.948 110.632 160.882 110.388C160.81 110.118 160.755 109.539 161.199 109.032C161.569 108.609 162.029 108.549 162.152 108.536C162.319 108.519 162.444 108.537 162.482 108.542C162.533 108.55 162.566 108.559 162.571 108.56L161.81 111.462C161.869 111.477 162.139 111.553 162.457 111.521C162.603 111.506 163.079 111.439 163.457 111.006C163.909 110.489 163.856 109.897 163.78 109.61C163.709 109.349 163.586 109.168 163.537 109.1C163.475 109.012 163.414 108.944 163.373 108.901C163.291 108.814 163.206 108.738 163.143 108.684C162.912 108.486 162.517 108.196 162.23 107.978L160.415 110.367ZM162.571 108.56C162.091 108.434 161.504 108.357 160.92 108.548L161.851 111.4C161.742 111.436 161.67 111.433 161.666 111.433C161.663 111.433 161.673 111.433 161.698 111.437C161.723 111.441 161.76 111.449 161.81 111.462L162.571 108.56ZM160.92 108.548C160.127 108.807 159.728 109.417 159.55 109.927L162.381 110.919C162.374 110.94 162.338 111.035 162.24 111.144C162.131 111.265 161.992 111.354 161.851 111.4L160.92 108.548ZM159.55 109.927C159.383 110.402 159.357 110.939 159.339 111.219L162.333 111.412C162.344 111.239 162.353 111.12 162.365 111.022C162.378 110.922 162.388 110.899 162.381 110.919L159.55 109.927ZM159.339 111.219C159.33 111.357 159.323 111.471 159.313 111.586L162.302 111.844C162.316 111.689 162.325 111.535 162.333 111.412L159.339 111.219ZM159.313 111.586C159.313 111.595 159.312 111.604 159.311 111.613L162.299 111.885C162.3 111.871 162.301 111.858 162.302 111.844L159.313 111.586ZM175.965 114.595C175.518 114.438 175.617 114.029 175.626 114.437C175.634 114.797 175.529 115.367 175.307 116.077C175.094 116.758 174.807 117.459 174.539 118.037C174.406 118.325 174.282 118.574 174.178 118.766C174.127 118.863 174.083 118.941 174.047 119C174.01 119.064 173.992 119.09 173.992 119.09L176.434 120.832C176.658 120.518 176.969 119.929 177.262 119.298C177.569 118.635 177.908 117.81 178.17 116.973C178.423 116.165 178.644 115.224 178.625 114.373C178.608 113.568 178.331 112.245 176.956 111.763L175.965 114.595ZM173.992 119.09C173.8 119.359 173.689 119.381 173.677 119.385C173.619 119.402 173.498 119.418 173.174 119.371C172.96 119.34 172.354 119.218 171.87 119.21C171.269 119.201 170.54 119.331 169.874 119.887L171.797 122.19C171.798 122.189 171.792 122.194 171.781 122.2C171.769 122.206 171.758 122.21 171.751 122.212C171.736 122.217 171.751 122.209 171.822 122.21C172.054 122.214 172.198 122.261 172.745 122.34C173.181 122.403 173.833 122.469 174.533 122.26C175.28 122.038 175.916 121.558 176.434 120.832L173.992 119.09ZM169.874 119.887C169.184 120.463 168.925 121.26 169.003 122.044C169.071 122.73 169.386 123.352 169.71 123.848C170.367 124.855 171.436 125.896 172.51 126.805C173.608 127.734 174.813 128.609 175.836 129.281C176.348 129.617 176.825 129.91 177.231 130.138C177.598 130.343 178.015 130.558 178.364 130.662L179.219 127.786C179.223 127.787 179.065 127.726 178.697 127.52C178.368 127.336 177.952 127.082 177.483 126.774C176.544 126.157 175.439 125.353 174.448 124.515C173.433 123.656 172.635 122.841 172.221 122.207C172.009 121.882 171.987 121.737 171.988 121.747C171.999 121.856 171.942 122.069 171.797 122.19L169.874 119.887ZM203.82 80.6662C204.072 80.7861 204.352 80.895 204.597 80.9881C204.862 81.0887 205.094 81.1736 205.331 81.269C205.564 81.3627 205.755 81.4479 205.905 81.5291C205.978 81.5688 206.033 81.6023 206.071 81.629C206.11 81.6561 206.122 81.669 206.118 81.665L208.241 79.5448C207.708 79.0118 206.946 78.6846 206.451 78.4856C205.798 78.2232 205.446 78.1178 205.111 77.9579L203.82 80.6662ZM206.118 81.665C206.201 81.748 206.368 82.0121 206.509 82.6118C206.641 83.1781 206.713 83.88 206.742 84.6522C206.771 85.4169 206.757 86.2004 206.735 86.9201C206.714 87.6064 206.683 88.3033 206.687 88.7795L209.687 88.751C209.684 88.3548 209.71 87.7837 209.734 87.0116C209.756 86.273 209.773 85.4078 209.74 84.5387C209.708 83.6772 209.625 82.7603 209.43 81.928C209.243 81.1291 208.91 80.2148 208.241 79.5448L206.118 81.665ZM206.687 88.7795C206.752 95.5376 205.366 101.903 204.62 108.912L207.603 109.23C208.304 102.65 209.754 95.7225 209.687 88.751L206.687 88.7795ZM204.62 108.912C203.455 119.848 203.155 130.995 205.631 141.948L208.558 141.287C206.186 130.8 206.453 120.03 207.603 109.23L204.62 108.912ZM205.631 141.948C206.769 146.979 208.579 151.769 210.462 156.436C212.358 161.135 214.312 165.673 215.831 170.351L218.685 169.424C217.123 164.616 215.104 159.924 213.244 155.313C211.37 150.669 209.639 146.067 208.558 141.287L205.631 141.948ZM195.138 77.7265C195.127 77.7232 195.174 77.7392 195.306 77.8035C195.425 77.8611 195.563 77.9331 195.725 78.0178C196.003 78.1638 196.427 78.3909 196.756 78.5187C196.846 78.5539 196.968 78.5976 197.105 78.6301C197.205 78.6537 197.488 78.7172 197.826 78.655C198.016 78.6203 198.294 78.5334 198.557 78.3103C198.839 78.0709 199.005 77.7586 199.07 77.4498C199.178 76.9371 198.996 76.5303 198.948 76.4241C198.817 76.1328 198.605 75.8654 198.443 75.6732C198.253 75.4468 198.003 75.175 197.689 74.8528L195.539 76.9446C195.828 77.2418 196.022 77.4549 196.145 77.6018C196.297 77.7829 196.267 77.7771 196.214 77.6588C196.205 77.6392 196.036 77.2967 196.135 76.8291C196.195 76.5428 196.35 76.2483 196.617 76.0221C196.864 75.8123 197.122 75.7342 197.285 75.7042C197.573 75.6515 197.785 75.708 197.798 75.7111C197.849 75.7231 197.869 75.7327 197.844 75.7233C197.714 75.6724 197.48 75.5503 197.118 75.3607C196.959 75.2776 196.782 75.1852 196.617 75.1048C196.465 75.031 196.258 74.9354 196.054 74.8698L195.138 77.7265ZM197.689 74.8528C195.424 72.5243 192.2 71.9246 189.732 71.4491L189.164 74.3949C191.807 74.9042 194.038 75.4015 195.539 76.9446L197.689 74.8528ZM189.732 71.4491C181.22 69.8092 171.125 68.5775 163.144 74.5351L164.938 76.9392C171.754 71.8514 180.584 72.7418 189.164 74.3949L189.732 71.4491ZM163.144 74.5351C159.039 77.5991 157.069 81.7436 156.094 86.197C155.131 90.5922 155.112 95.4342 154.996 99.9367C154.877 104.531 154.658 108.778 153.432 112.357C152.238 115.842 150.094 118.674 146.019 120.481L147.235 123.223C152.169 121.036 154.841 117.499 156.27 113.329C157.667 109.253 157.877 104.558 157.995 100.014C158.114 95.3787 158.138 90.886 159.024 86.8387C159.898 82.8496 161.582 79.444 164.938 76.9392L163.144 74.5351ZM200.406 44.2017C197.111 43.9006 194.454 42.8044 191.04 41.4702L189.948 44.2644C193.263 45.5597 196.334 46.8421 200.133 47.1892L200.406 44.2017ZM191.04 41.4702C182.101 37.9771 172.629 36.7303 163.187 36.5125L163.118 39.5117C172.357 39.7248 181.449 40.9432 189.948 44.2644L191.04 41.4702ZM163.187 36.5125C144.87 36.0901 126.054 46.4536 123.185 66.012L126.153 66.4474C128.726 48.9063 145.725 39.1106 163.118 39.5117L163.187 36.5125ZM123.185 66.012C121.745 75.8252 122.438 86.3388 123.863 96.7007C125.282 107.021 127.466 117.414 129.02 126.746L131.98 126.254C130.392 116.721 128.251 106.586 126.835 96.292C125.425 86.039 124.774 75.8499 126.153 66.4474L123.185 66.012ZM104.189 89.4991C105.205 93.8274 105.483 98.4592 105.555 103.213C105.627 107.898 105.495 112.832 105.723 117.435L108.72 117.286C108.494 112.73 108.629 108.05 108.555 103.167C108.481 98.3533 108.2 93.4626 107.11 88.8139L104.189 89.4991ZM105.723 117.435C106.155 126.14 106.665 134.744 106.665 143.393H109.665C109.665 134.649 109.149 125.948 108.72 117.286L105.723 117.435ZM103.377 86.6338C103.377 85.7569 103.213 84.9502 102.808 84.2515C102.395 83.5405 101.807 83.0711 101.182 82.7513C100.581 82.4442 99.9181 82.2604 99.301 82.121C98.7123 81.988 97.9702 81.8565 97.3568 81.7308L96.7545 84.6697C97.5177 84.8262 98.0665 84.9177 98.6398 85.0472C99.1847 85.1703 99.5546 85.2887 99.8153 85.4221C100.051 85.5428 100.152 85.6524 100.213 85.7575C100.281 85.8749 100.377 86.1215 100.377 86.6338H103.377ZM97.3568 81.7308C85.0132 79.2011 75.3371 81.0231 64.177 85.8895L65.3761 88.6395C76.1077 83.9599 85.1491 82.2913 96.7545 84.6697L97.3568 81.7308ZM67.5775 139.286C67.5775 145.888 68.588 152.466 71.5222 159.024L74.2606 157.799C71.537 151.712 70.5775 145.571 70.5775 139.286H67.5775ZM113.195 148.83C111.405 148.83 109.613 148.823 107.614 149.29L108.297 152.211C109.91 151.834 111.367 151.83 113.195 151.83L113.195 148.83ZM107.614 149.29C95.3185 152.163 83.1534 156.575 71.2512 160.248L72.1358 163.115C84.232 159.382 96.1339 155.053 108.297 152.211L107.614 149.29ZM76.0263 98.686C76.0295 98.6919 76.0326 98.6979 76.0358 98.7039L78.6867 97.2994C78.6843 97.2949 78.6819 97.2902 78.6794 97.2855L76.0263 98.686ZM76.0358 98.7039C76.1339 98.8891 76.2322 99.0642 76.3307 99.2292L78.9067 97.6916C78.8365 97.5739 78.7631 97.4435 78.6867 97.2994L76.0358 98.7039ZM76.3307 99.2292C76.5756 99.6394 76.8285 99.9989 77.0923 100.302L79.3547 98.3317C79.2353 98.1946 79.0842 97.9889 78.9067 97.6916L76.3307 99.2292ZM77.0923 100.302C77.5993 100.884 78.357 101.49 79.3391 101.453C80.4 101.413 81.0274 100.666 81.3228 100.104C81.8962 99.0129 81.9246 97.4537 81.5297 96.1993L78.6682 97.1002C78.7648 97.4069 78.8065 97.7566 78.7922 98.0816C78.7773 98.4221 78.7062 98.6342 78.6671 98.7087C78.6184 98.8014 78.7627 98.4726 79.2253 98.455C79.6091 98.4405 79.6531 98.6743 79.3547 98.3317L77.0923 100.302ZM81.5297 96.1993C81.1182 94.8921 80.0461 93.3945 78.0272 93.3332L77.9361 96.3318C78.1245 96.3375 78.2314 96.3953 78.3238 96.4824C78.4393 96.5912 78.5707 96.7904 78.6682 97.1002L81.5297 96.1993ZM78.0272 93.3332C76.8224 93.2966 75.9166 93.9246 75.3493 94.6859C74.8059 95.4151 74.5186 96.3172 74.4082 97.1507C74.2971 97.9891 74.3453 98.9037 74.6131 99.7117C74.8719 100.492 75.4377 101.437 76.5406 101.795L77.4665 98.9415C77.6442 98.9991 77.5685 99.0929 77.4607 98.7677C77.362 98.4699 77.3186 98.0244 77.3822 97.5448C77.4464 97.0603 77.5999 96.6864 77.7549 96.4784C77.8267 96.3821 77.8784 96.3481 77.8948 96.3391C77.9023 96.3349 77.9076 96.3309 77.9361 96.3318L78.0272 93.3332ZM76.5406 101.795C78.0271 102.277 79.7588 101.842 80.8938 100.939C81.4885 100.466 82.024 99.782 82.2158 98.8989C82.4149 97.9821 82.1998 97.0495 81.6413 96.2094L79.1429 97.8702C79.3206 98.1374 79.2865 98.2513 79.2841 98.2621C79.2745 98.3068 79.2258 98.4321 79.026 98.591C78.8275 98.749 78.5436 98.8846 78.2286 98.9512C77.9112 99.0183 77.6433 98.9989 77.4665 98.9415L76.5406 101.795ZM81.6413 96.2094C81.5135 96.0172 81.3788 95.8375 81.2365 95.672L78.9614 97.6275C79.015 97.6898 79.076 97.7695 79.1429 97.8702L81.6413 96.2094ZM81.2365 95.672C80.7976 95.1614 80.252 94.7467 79.595 94.5647C78.9104 94.3751 78.2399 94.4773 77.6765 94.7769C76.6317 95.3326 76.0871 96.4607 75.9182 97.4555L78.8759 97.9578C78.9086 97.765 78.9707 97.6114 79.0323 97.51C79.0972 97.4033 79.1314 97.4011 79.0851 97.4257C79.0582 97.44 79.0122 97.4582 78.9509 97.4656C78.8881 97.4733 78.8329 97.4666 78.7943 97.4559C78.7203 97.4354 78.7879 97.4256 78.9614 97.6275L81.2365 95.672ZM75.9182 97.4555C75.8938 97.5989 75.8761 97.7446 75.8653 97.892L78.8572 98.1114C78.8611 98.0591 78.8674 98.0078 78.8759 97.9578L75.9182 97.4555ZM75.8653 97.892C75.8571 98.004 75.8529 98.1171 75.8529 98.231H78.8529C78.8529 98.191 78.8543 98.151 78.8572 98.1114L75.8653 97.892ZM75.8529 98.231C75.8529 98.3906 75.8691 98.5452 75.8985 98.6929L78.841 98.1084C78.8483 98.145 78.8529 98.1862 78.8529 98.231H75.8529ZM75.8985 98.6929C76.1087 99.7514 76.9583 100.454 77.7131 100.727L78.7339 97.9063C78.7422 97.9093 78.7475 97.9118 78.7501 97.9131C78.7527 97.9144 78.7539 97.9152 78.754 97.9153C78.7541 97.9153 78.7542 97.9154 78.7544 97.9156C78.7546 97.9157 78.7558 97.9168 78.758 97.919C78.7616 97.9227 78.7741 97.9363 78.7897 97.9639C78.8054 97.9919 78.8274 98.0401 78.841 98.1084L75.8985 98.6929ZM77.7131 100.727C78.1327 100.879 78.7171 100.973 79.3196 100.758C79.9964 100.517 80.4582 99.9704 80.647 99.3077L77.7618 98.4857C77.7809 98.4187 77.8284 98.3042 77.9348 98.1858C78.0433 98.065 78.1776 97.98 78.3129 97.9318C78.5624 97.8429 78.7256 97.9033 78.7339 97.9063L77.7131 100.727ZM80.647 99.3077C80.6975 99.1305 80.7348 98.9474 80.7537 98.7602L77.769 98.4577C77.77 98.4481 77.7701 98.4566 77.7618 98.4857L80.647 99.3077ZM80.7537 98.7602C80.812 98.1849 80.6912 97.5925 80.3178 97.0935C79.9627 96.6188 79.4865 96.372 79.0886 96.2473C78.3354 96.0114 77.5214 96.0977 76.953 96.2739L77.841 99.1394C77.892 99.1236 77.9751 99.1073 78.0649 99.1039C78.1587 99.1004 78.2007 99.1129 78.1918 99.1102C78.183 99.1074 78.0441 99.0623 77.9157 98.8906C77.8509 98.804 77.8078 98.709 77.7855 98.6188C77.764 98.5319 77.7675 98.4731 77.769 98.4577L80.7537 98.7602ZM76.953 96.2739C76.7347 96.3415 76.4814 96.4437 76.2437 96.5997C76.0548 96.7238 75.6223 97.0454 75.4605 97.6412C75.2466 98.4287 75.6443 99.0518 76.0136 99.3666C76.3274 99.634 76.6928 99.7669 76.9557 99.8424L77.7838 96.9589C77.6747 96.9276 77.792 96.9406 77.9594 97.0832C78.0549 97.1646 78.2076 97.3235 78.3084 97.5787C78.4174 97.8545 78.4299 98.1541 78.3556 98.4275C78.2281 98.8968 77.9092 99.0951 77.8907 99.1072C77.8235 99.1514 77.7975 99.1529 77.841 99.1394L76.953 96.2739ZM76.9557 99.8424C77.0738 99.8763 77.1965 99.9055 77.3224 99.9309L77.9151 96.99C77.8549 96.9779 77.8121 96.9671 77.7838 96.9589L76.9557 99.8424ZM77.3224 99.9309C77.8113 100.029 78.4399 100.088 79.2225 100.108L79.3003 97.1095C78.6048 97.0914 78.167 97.0408 77.9151 96.99L77.3224 99.9309ZM79.2225 100.108C79.4251 100.114 79.6402 100.116 79.8681 100.116V97.1164C79.6638 97.1164 79.4748 97.114 79.3003 97.1095L79.2225 100.108ZM185.532 140.925C185.45 140.907 185.145 140.821 184.899 140.492C184.636 140.14 184.635 139.774 184.663 139.591C184.688 139.429 184.74 139.347 184.729 139.367C184.724 139.375 184.703 139.411 184.653 139.474C184.553 139.6 184.414 139.745 184.28 139.871C184.216 139.931 184.162 139.979 184.126 140.009C184.107 140.025 184.098 140.032 184.099 140.032C184.099 140.031 184.101 140.03 184.104 140.028C184.106 140.026 184.111 140.022 184.118 140.017C184.123 140.013 184.164 139.984 184.222 139.95L185.74 142.537C185.889 142.45 186.032 142.326 186.064 142.299C186.142 142.233 186.235 142.15 186.335 142.056C186.529 141.874 186.782 141.618 187.007 141.334C187.18 141.114 187.538 140.637 187.628 140.045C187.683 139.69 187.657 139.171 187.303 138.697C186.965 138.244 186.5 138.066 186.175 137.994L185.532 140.925ZM184.222 139.95C181.318 141.654 177.367 142.112 173.836 141.789L173.563 144.777C177.439 145.131 182.096 144.676 185.74 142.537L184.222 139.95ZM197.734 91.9608C198.016 91.9513 198.407 91.8827 198.774 91.6212C199.17 91.3399 199.384 90.9456 199.469 90.5724C199.609 89.9577 199.405 89.3924 199.296 89.1222C199.034 88.4723 198.538 87.732 198.068 87.101C197.575 86.4393 197.018 85.7765 196.545 85.256C196.309 84.9959 196.083 84.7605 195.89 84.5726C195.793 84.4793 195.695 84.3879 195.6 84.3075C195.527 84.2453 195.379 84.1231 195.2 84.026L193.772 86.6645C193.662 86.6051 193.612 86.5555 193.66 86.5962C193.687 86.6187 193.733 86.6606 193.801 86.7265C193.936 86.857 194.116 87.0436 194.324 87.2733C194.741 87.7324 195.235 88.3203 195.662 88.8935C196.112 89.4975 196.406 89.9766 196.514 90.2437C196.59 90.4321 196.466 90.2497 196.544 89.9065C196.598 89.6691 196.746 89.3827 197.035 89.1769C197.296 88.991 197.541 88.9656 197.633 88.9625L197.734 91.9608ZM195.2 84.026C192.234 82.4212 188.243 82.2214 185.33 82.3297L185.442 85.3276C188.273 85.2224 191.56 85.4679 193.772 86.6645L195.2 84.026ZM185.33 82.3297C182.079 82.4504 179.416 83.3243 176.773 85.1827L178.498 87.6368C180.653 86.122 182.752 85.4275 185.442 85.3276L185.33 82.3297ZM205.648 48.5492C206.135 48.5937 206.608 48.5515 207.059 48.3842C207.51 48.2171 207.838 47.9622 208.078 47.7347C208.276 47.5469 208.504 47.2817 208.595 47.1827C208.723 47.0436 208.824 46.946 208.938 46.8627L207.165 44.4425C206.826 44.6913 206.573 44.9494 206.386 45.1534C206.162 45.3976 206.114 45.4629 206.014 45.5571C205.957 45.6114 205.966 45.5899 206.016 45.5713C206.067 45.5526 206.057 45.5741 205.92 45.5616L205.648 48.5492ZM208.938 46.8627C211.295 45.1364 215.298 43.2691 218.184 42.2899L217.22 39.449C214.158 40.4879 209.85 42.4764 207.165 44.4425L208.938 46.8627ZM218.184 42.2899C222.237 40.9149 226.053 41.8806 229.513 44.1117C233.003 46.3623 236.026 49.8462 238.298 53.2402L240.791 51.5715C238.395 47.9919 235.101 44.1456 231.139 41.5904C227.146 39.0157 222.375 37.7 217.22 39.449L218.184 42.2899ZM238.298 53.2402C247.847 67.5075 251.307 87.083 250.345 104.13L253.341 104.299C254.326 86.8281 250.812 66.5432 240.791 51.5715L238.298 53.2402ZM250.345 104.13C249.213 124.213 244.735 144.943 238.118 163.956L240.951 164.942C247.648 145.7 252.19 124.695 253.341 104.299L250.345 104.13ZM245.71 148.975C244.021 150.529 242.49 152.26 241.018 153.942C239.529 155.644 238.104 157.29 236.56 158.781L238.645 160.939C240.298 159.342 241.813 157.589 243.275 155.918C244.755 154.227 246.188 152.612 247.741 151.183L245.71 148.975ZM236.56 158.781C230.615 164.525 224.536 169.374 217.49 173.559L219.022 176.138C226.303 171.814 232.564 166.813 238.645 160.939L236.56 158.781ZM176.561 173.993C175.829 174.48 175.053 174.744 173.992 175.014C172.963 175.275 171.595 175.554 170.026 176.077L170.974 178.923C172.405 178.446 173.537 178.225 174.731 177.922C175.893 177.626 177.063 177.262 178.222 176.491L176.561 173.993ZM63.8014 110.369C65.3224 109.205 66.7685 108.051 68.3222 107.254C69.8387 106.475 71.3162 106.116 72.8665 106.434L73.4698 103.496C71.0301 102.995 68.841 103.615 66.9523 104.585C65.1007 105.535 63.4028 106.896 61.9785 107.986L63.8014 110.369ZM72.8665 106.434C73.8741 106.641 74.9647 107.36 76.1197 108.198L77.8817 105.77C76.7995 104.984 75.2078 103.852 73.4698 103.496L72.8665 106.434ZM76.1197 108.198C76.6311 108.569 77.1142 108.989 77.5741 109.45L79.6985 107.332C79.1405 106.772 78.5372 106.246 77.8817 105.77L76.1197 108.198ZM77.5741 109.45C77.6722 109.549 77.8353 109.798 78.0025 110.286C78.1618 110.752 78.2864 111.318 78.383 111.932C78.5834 113.205 78.6241 114.346 78.7021 115.114L81.6868 114.811C81.6354 114.305 81.5608 112.826 81.3464 111.465C81.2356 110.761 81.0779 110.007 80.8408 109.315C80.6116 108.645 80.2642 107.899 79.6985 107.332L77.5741 109.45ZM78.7021 115.114C78.9336 117.392 79.1174 119.67 79.2285 121.947L82.225 121.8C82.1108 119.461 81.9224 117.13 81.6868 114.811L78.7021 115.114ZM79.2285 121.947C79.2965 123.338 79.462 125.382 79.4249 127.484C79.3869 129.64 79.1315 131.515 78.5418 132.621L81.189 134.033C82.1458 132.238 82.386 129.717 82.4245 127.537C82.4639 125.302 82.2869 123.07 82.225 121.8L79.2285 121.947ZM78.5418 132.621C78.291 133.092 77.6918 133.558 76.8943 133.873L77.9975 136.663C79.1216 136.219 80.4658 135.389 81.189 134.033L78.5418 132.621ZM76.8943 133.873C76.9506 133.851 76.8862 133.878 76.5682 133.935C76.303 133.983 75.9519 134.038 75.5351 134.097C74.7038 134.214 73.6597 134.342 72.6183 134.462C70.5956 134.697 68.4721 134.915 68.2399 134.95L68.6893 137.916C68.6824 137.917 68.7073 137.914 68.7937 137.904C68.8685 137.895 68.9694 137.884 69.0946 137.87C69.3451 137.843 69.6814 137.807 70.0806 137.763C70.8766 137.677 71.9125 137.564 72.9634 137.442C74.0123 137.321 75.0858 137.19 75.9545 137.067C76.3877 137.006 76.7822 136.945 77.1026 136.887C77.3701 136.839 77.7312 136.769 77.9975 136.663L76.8943 133.873ZM146.481 221.555C144.758 221.555 143.12 221.216 141.879 220.865C141.263 220.691 140.754 220.517 140.391 220.385C140.209 220.319 140.065 220.264 139.953 220.222C139.901 220.202 139.844 220.18 139.796 220.163C139.773 220.155 139.736 220.142 139.694 220.129C139.673 220.123 139.637 220.112 139.592 220.102C139.567 220.095 139.455 220.068 139.311 220.061L139.158 223.057C139.017 223.05 138.911 223.023 138.892 223.019C138.854 223.01 138.827 223.001 138.816 222.998C138.793 222.991 138.781 222.987 138.79 222.99C138.805 222.995 138.834 223.006 138.892 223.028C138.998 223.068 139.162 223.131 139.367 223.205C139.778 223.354 140.358 223.553 141.063 223.752C142.462 224.148 144.389 224.555 146.481 224.555V221.555ZM139.311 220.061C132.084 219.692 122.091 217.234 114.722 215.843L114.166 218.791C121.237 220.126 131.66 222.674 139.158 223.057L139.311 220.061ZM114.722 215.843C107.042 214.394 102.276 212.899 97.1917 211.705C92.1245 210.515 86.9978 209.697 78.9752 209.697V212.697C86.7466 212.697 91.6428 213.484 96.5057 214.626C101.352 215.764 106.423 217.33 114.166 218.791L114.722 215.843ZM114.444 185.952C114.094 184.493 114.094 184.493 114.094 184.493C114.094 184.493 114.094 184.493 114.094 184.493C114.094 184.493 114.094 184.493 114.094 184.493C114.094 184.493 114.093 184.493 114.092 184.494C114.09 184.494 114.087 184.495 114.084 184.496C114.076 184.498 114.063 184.501 114.047 184.504C114.015 184.512 113.967 184.523 113.904 184.538C113.779 184.567 113.597 184.609 113.372 184.659C112.922 184.76 112.304 184.894 111.629 185.027C110.223 185.303 108.748 185.54 107.967 185.534L107.944 188.534C109.079 188.542 110.849 188.238 112.208 187.97C112.916 187.831 113.56 187.691 114.027 187.587C114.261 187.534 114.451 187.491 114.584 187.46C114.65 187.444 114.702 187.432 114.738 187.424C114.755 187.42 114.769 187.416 114.779 187.414C114.783 187.413 114.787 187.412 114.79 187.412C114.791 187.411 114.792 187.411 114.793 187.411C114.793 187.411 114.793 187.411 114.794 187.411C114.794 187.411 114.794 187.411 114.794 187.41C114.794 187.41 114.794 187.41 114.444 185.952ZM107.967 185.534C104.347 185.506 100.942 185.568 97.3259 186.403L98.0005 189.326C101.249 188.576 104.352 188.506 107.944 188.534L107.967 185.534ZM80.1748 158.28C80.5043 158.647 80.7926 159.117 81.1013 159.705C81.3691 160.214 81.7406 160.999 82.079 161.595L84.6882 160.115C84.3617 159.539 84.1419 159.042 83.7571 158.31C83.4133 157.655 82.9879 156.923 82.4076 156.276L80.1748 158.28ZM82.079 161.595C84.5883 166.017 87.3784 170.838 89.1487 174.777L91.8851 173.547C90.0418 169.445 87.1598 164.47 84.6882 160.115L82.079 161.595ZM89.1487 174.777C89.5858 175.749 90.0311 176.861 90.5223 178.076C91.0085 179.28 91.5342 180.571 92.1146 181.85C93.2641 184.382 94.6884 187.005 96.601 188.923L98.7254 186.805C97.2054 185.281 95.9601 183.063 94.8463 180.61C94.295 179.395 93.7906 178.157 93.3039 176.953C92.8221 175.76 92.3515 174.584 91.8851 173.547L89.1487 174.777ZM63.1648 90.0166C63.4254 92.8926 63.7439 95.6278 63.9271 98.4394L66.9207 98.2443C66.7346 95.388 66.4037 92.5172 66.1525 89.7458L63.1648 90.0166ZM63.9271 98.4394C63.9662 99.0392 64.0699 99.644 64.1448 100.127C64.2252 100.645 64.2799 101.062 64.2799 101.448H67.2799C67.2799 100.808 67.1902 100.187 67.1093 99.6666C67.0231 99.1106 66.9488 98.6755 66.9207 98.2443L63.9271 98.4394ZM147.477 231.403C147.477 234.955 147.26 239.108 147.338 242.964C147.418 246.915 147.799 250.939 149.055 254.716L151.902 253.77C150.784 250.407 150.415 246.728 150.337 242.903C150.258 238.983 150.477 235.286 150.477 231.403H147.477ZM221.051 178.94C222.346 178.94 223.48 179.055 224.62 179.425L225.546 176.571C224.002 176.07 222.526 175.94 221.051 175.94V178.94ZM224.62 179.425C230.465 181.322 235.371 186.492 237.617 192.212L240.41 191.115C237.888 184.696 232.374 178.787 225.546 176.571L224.62 179.425ZM237.617 192.212C242.6 204.897 242.284 219.156 240.721 232.766L243.702 233.108C245.278 219.386 245.672 204.512 240.41 191.115L237.617 192.212ZM240.721 232.766C240.09 238.256 239.569 243.769 239.227 249.298L242.221 249.483C242.559 244.018 243.075 238.559 243.702 233.108L240.721 232.766ZM239.227 249.298C239.19 249.882 239.173 250.473 239.154 251.023C239.134 251.584 239.112 252.115 239.069 252.632C238.981 253.666 238.811 254.574 238.449 255.392L241.191 256.608C241.745 255.359 241.957 254.079 242.058 252.884C242.109 252.287 242.132 251.692 242.152 251.128C242.172 250.552 242.188 250.016 242.221 249.483L239.227 249.298ZM64.1656 107.812C63.9505 107.812 63.7251 107.804 63.4583 107.795C63.202 107.787 62.9121 107.778 62.6171 107.782C62.0366 107.788 61.3306 107.839 60.6344 108.087L61.6413 110.913C61.8752 110.829 62.1933 110.786 62.6492 110.781C62.8724 110.779 63.1038 110.785 63.3617 110.794C63.6091 110.802 63.8909 110.812 64.1656 110.812V107.812ZM60.6344 108.087C59.1617 108.611 57.87 109.814 56.8876 110.998C55.8783 112.215 55.0429 113.598 54.5278 114.734L57.2603 115.973C57.6668 115.076 58.3606 113.921 59.1964 112.914C60.0591 111.874 60.9284 111.167 61.6413 110.913L60.6344 108.087ZM54.5278 114.734C53.2046 117.654 53.3634 120.052 53.8722 122.839L56.8235 122.3C56.361 119.767 56.3035 118.084 57.2603 115.973L54.5278 114.734ZM53.8722 122.839C54.4607 126.062 54.9453 129.211 55.2432 132.443L58.2305 132.167C57.9218 128.818 57.4214 125.575 56.8235 122.3L53.8722 122.839ZM55.2432 132.443C55.6893 137.283 57.1225 141.344 58.8394 145.649L61.626 144.537C59.9324 140.291 58.6354 136.56 58.2305 132.167L55.2432 132.443ZM56.9083 144.321C57.6823 145.971 58.1212 147.854 58.5483 149.825L61.4802 149.189C61.0591 147.247 60.5619 145.045 59.6242 143.047L56.9083 144.321ZM58.5483 149.825C59.6586 154.947 60.9786 160.167 62.5125 165.19L65.3817 164.314C63.8761 159.383 62.5761 154.245 61.4802 149.189L58.5483 149.825ZM62.5125 165.19C63.2315 167.545 64.1345 169.821 65.0226 172.034C65.918 174.265 66.7961 176.428 67.5143 178.644L70.3682 177.719C69.612 175.386 68.691 173.12 67.8068 170.917C66.9154 168.695 66.0585 166.531 65.3817 164.314L62.5125 165.19ZM67.5143 178.644C67.9694 180.049 68.3355 181.491 68.7069 182.984C69.0745 184.462 69.4489 185.997 69.9097 187.509L72.7795 186.635C72.3464 185.213 71.9922 183.763 71.6182 182.26C71.2479 180.771 70.8594 179.235 70.3682 177.719L67.5143 178.644ZM69.9097 187.509C71.9051 194.059 75.6251 200.052 78.5619 205.787L81.2322 204.42C78.1377 198.376 74.6712 192.844 72.7795 186.635L69.9097 187.509ZM78.5619 205.787C79.8468 208.297 81.1646 210.706 82.6882 213.107L85.2213 211.5C83.7648 209.205 82.4935 206.883 81.2322 204.42L78.5619 205.787ZM171.378 88.961C171.31 88.6371 171.157 88.2693 170.841 87.9596C170.537 87.6606 170.198 87.5323 169.974 87.4704C169.771 87.4141 169.563 87.388 169.475 87.3758C169.354 87.3592 169.283 87.349 169.21 87.3331L168.568 90.2637C168.774 90.3086 168.958 90.333 169.067 90.3479C169.128 90.3563 169.159 90.3608 169.183 90.3649C169.206 90.3688 169.198 90.3683 169.173 90.3614C169.124 90.3477 168.93 90.2878 168.739 90.1002C168.537 89.9019 168.466 89.6886 168.444 89.5856L171.378 88.961ZM169.21 87.3331C167.151 86.8822 164.173 85.6977 160.823 86.3965L161.435 89.3333C163.955 88.8078 165.871 89.6731 168.568 90.2637L169.21 87.3331ZM160.823 86.3965C155.28 87.5528 153.23 91.2728 151.051 93.6971L153.282 95.7027C155.915 92.7734 157.128 90.2318 161.435 89.3333L160.823 86.3965ZM114.586 187.445L145.642 184.493L145.358 181.507L114.302 184.459L114.586 187.445ZM126.5 144V155H129.5V144H126.5ZM134.5 144V156H137.5V144H134.5Z" fill="#B4BEFE" fill-opacity="0.5"/>
</g>
<path d="M65.9287 81.1515C64.985 81.4953 58.4921 82.9656 56.4532 83.5583C56.4532 84.9053 57.4541 86.6334 57.7251 87.9607C57.9353 88.9904 58.3614 89.9544 58.4921 91.0346C58.6565 92.3933 58.5757 92.1873 59.2592 95.2612C59.9427 98.3351 59.6427 97.5666 60.0263 100.641C60.4098 103.714 60.7778 105.268 61.1752 106.178C61.4227 106.744 61.695 106.974 61.0233 106.974C53.4239 106.974 46.3346 110.183 40.1701 114.382C37.8385 115.971 35.7929 118.033 33.5793 119.697C32.6574 120.389 31.964 121.288 31.1399 122.079C31.0149 122.254 30.8874 122.426 30.7572 122.596C30.0014 123.577 30.6822 122.516 31.1144 122.103C31.1229 122.095 31.1314 122.087 31.1399 122.079C32.1925 120.605 33.0685 118.939 33.9276 117.361C35.4728 114.523 36.9621 111.252 37.1337 107.985C37.3282 104.283 36.2648 100.55 34.6509 97.2395C32.8946 93.6366 30.8949 90.042 27.4349 87.8451C25.9467 86.9001 24.449 85.8174 22.8535 85.0715C21.6857 84.5255 20.4435 83.9348 19.3437 83.2642C17.484 82.1301 15.6734 80.8242 13.7709 79.7569C12.912 79.275 12.0931 78.6598 11.1453 78.3433C10.5005 78.1279 12.1933 78.3075 12.4849 78.3075C16.3679 78.3075 20.2057 78.7904 24.1038 78.6206C26.2968 78.5251 28.4894 78.3693 30.6679 78.0748C32.7575 77.7924 35.1159 77.7656 37.0712 76.9386C39.4878 75.9164 42.5836 74.1109 43.7067 71.5793C44.3763 70.0698 45.0284 68.4815 45.0284 66.8015C45.0284 65.3683 44.9977 63.9492 45.1535 62.5248C45.4505 59.8094 45.241 56.9145 45.3499 54.1861C45.3773 53.5009 46.4759 54.9195 46.5556 55.0361C47.1314 55.8792 47.5447 56.7673 48.047 57.6576C48.6486 58.724 48.946 60.0092 49.6545 61.0128C50.8928 62.7666 52.4375 64.3364 53.8788 65.9247C54.9117 67.0631 55.9744 67.8618 57.4064 68.4478C58.2083 68.7759 58.8768 69.3261 59.6569 69.7004C60.3586 70.037 61.1265 70.1362 61.8271 70.4967C63.2116 71.209 64.574 71.8034 66.087 72.1877C67.303 72.4965 68.5851 72.5786 69.7844 72.9124C71.9041 73.5023 74.3464 74.1523 76.536 74.2813C77.4212 74.3334 76.7915 75.8864 76.661 76.2496C76.3931 76.9951 76.2149 76.8758 75.4107 77.0996C74.7273 77.2898 74.1065 77.5902 73.4013 77.7438C72.2748 77.9891 71.4498 78.6887 70.3916 79.1127C68.8936 79.713 67.4563 80.595 65.9287 81.1515Z" fill="url(#paint0_radial_230_813)" fill-opacity="0.5"/>
<defs>
<filter id="filter0_d_230_813" x="45.5" y="28.5" width="216" height="237" filterUnits="userSpaceOnUse" color-interpolation-filters="sRGB">
<feFlood flood-opacity="0" result="BackgroundImageFix"/>
<feColorMatrix in="SourceAlpha" type="matrix" values="0 0 0 0 0 0 0 0 0 0 0 0 0 0 0 0 0 0 127 0" result="hardAlpha"/>
<feOffset/>
<feGaussianBlur stdDeviation="4"/>
<feColorMatrix type="matrix" values="0 0 0 0 0.803922 0 0 0 0 0.839216 0 0 0 0 0.956863 0 0 0 0.25 0"/>
<feBlend mode="normal" in2="BackgroundImageFix" result="effect1_dropShadow_230_813"/>
<feBlend mode="normal" in="SourceGraphic" in2="effect1_dropShadow_230_813" result="shape"/>
</filter>
<radialGradient id="paint0_radial_230_813" cx="0" cy="0" r="1" gradientUnits="userSpaceOnUse" gradientTransform="translate(76.9678 97.0346) rotate(-145.32) scale(64.8284 62.1637)">
<stop offset="0.355" stop-color="#B4BEFE"/>
<stop offset="1" stop-color="#B4BEFE" stop-opacity="0"/>
</radialGradient>
</defs>
</svg>
