<svg width="262" height="394" viewBox="0 0 262 394" fill="none" xmlns="http://www.w3.org/2000/svg">
<g filter="url(#filter0_d_230_1037)">
<path d="M141.346 233.866C142.092 235.733 141.898 238.058 142.007 240.011C142.515 249.094 142.621 258.162 142.621 267.258C142.621 272.455 142.607 277.58 143.282 282.737C143.416 283.754 143.218 285.083 143.897 285.762M155.375 233.441C156.126 233.722 156.358 237.832 156.438 238.38C157.06 242.595 157.132 246.849 157.69 251.07C158.583 257.819 158.394 264.831 159.603 271.488C160.09 274.166 158.978 279.527 161.753 280.988C164.193 282.273 168.57 282.602 171.295 281.744C176.208 280.196 181.304 280.657 186.434 280.657H202.968C207.684 280.657 212.344 281.508 217.021 281.508M142.196 285.336C142.349 287.942 146.676 290.09 148.668 291.197C151.844 292.963 156.946 292.567 160.477 292.567C164.931 292.567 169.662 291.604 174.082 290.961C177.905 290.404 182.119 290.706 185.986 290.464C190.33 290.193 194.616 290.575 198.952 290.015C202.683 289.534 206.43 289.179 210.171 288.763C213.875 288.351 217.537 288.314 221.272 288.314M215.32 281.082C215.419 279.504 219.511 279.219 220.753 278.436C223.016 277.008 222.973 272.569 222.973 270.283C222.973 266.813 225.01 263.898 225.099 260.428C225.161 258.012 225.343 255.385 224.886 253.008C223.926 248.012 222.973 242.91 222.973 237.789C222.973 234.756 222.123 231.794 222.123 228.762M234.452 227.486C234.452 230.548 235.33 233.388 235.633 236.419C235.999 240.082 236.162 243.841 236.672 247.478C237.166 251.004 237.428 254.549 237.428 258.112V271.299C237.428 272.556 235.726 274.904 234.782 275.883C232.163 278.601 229.121 281.417 226.043 283.635C224.206 284.958 221.662 287.109 220.847 288.739M141.771 236.844C141.771 234.411 139.991 233.069 137.732 232.567C136.724 232.343 135.572 231.797 134.543 231.739C133.955 231.707 132.085 232.069 131.662 231.645C130.457 230.44 131.983 227.374 133.055 226.659C135.246 225.198 139.389 225.359 141.983 225.359C147.352 225.359 152.285 223.657 157.596 223.657C159.61 223.657 160.965 222.75 162.815 222.429C164.959 222.055 167.418 222.381 169.594 222.381C175.436 222.381 181.267 221.956 187.167 221.956C193.407 221.956 199.723 221.531 205.873 221.531C209.305 221.531 212.884 219.404 216.383 219.404H224.721C229.088 219.404 233.466 218.978 237.853 218.978C240.943 218.978 240.84 219.599 240.395 222.268L240.38 222.358C240.159 223.686 237.007 223.985 236.058 224.839C233.952 226.735 234.044 229.134 233.176 231.739M154.95 235.568C154.95 232.869 155.006 230.463 158.351 230.463C159.471 230.463 160.205 229.613 161.54 229.613C163.554 229.613 165.446 229.446 167.445 229.211C175.655 228.244 184.515 229.187 192.788 229.187H209.794C212.611 229.187 220.545 226.455 222.123 229.613M139.645 226.635H134.591C132.574 226.635 130.348 225.465 128.355 224.934C124.326 223.858 123.151 215.117 126.041 212.432C128.288 210.344 132.167 208.136 135.158 207.517C141.159 206.275 147.096 204.83 153.202 204.303C166.595 203.148 180.434 204.09 193.874 204.09C203.587 204.09 212.982 203.448 222.548 201.727C226.592 201 231.097 201.538 235.208 201.538C236.523 201.538 238.738 201.16 239.979 201.727C244.044 203.587 247.808 207.922 247.631 212.692C247.566 214.457 245.635 215.395 244.655 216.757C244.077 217.56 242.516 217.284 241.679 217.702M125.501 78.5159C125.501 71.1476 128.161 62.3813 132.34 58.2874C136.52 54.1936 141.301 50.6952 144.628 49.6181C147.955 48.541 152.379 48.1732 157.14 48.1732C159.986 48.1732 162.932 47.5688 165.631 48.1732C168.361 48.7848 170.025 49.4627 172.8 49.6181C174.766 49.7282 177.073 50.8948 179.011 51.4376C181.391 52.104 183.691 53.211 185.965 54.1936C188.306 55.2047 189.709 56.4533 191.433 58.2874C192.394 59.3097 193.909 59.8425 194.777 60.9364C195.891 62.3393 197.55 63.0632 198.361 64.7894C199.381 66.9611 200.699 68.9441 201.572 71.1844C202.971 74.7734 205.288 77.2712 205.288 81.4057M144.628 75.9543C143.285 75.9543 143.801 75.0661 142.905 74.554C141.839 73.9444 140.02 73.9222 138.814 73.6384C136.466 73.0856 136.1 73.8068 133.86 74.554M215.844 77.4085C215.844 64.6368 218.573 40.0847 235.707 40.0847C238.555 40.0847 241.822 39.3633 243.566 42.1313C245.992 45.9814 246.414 50.1675 247.926 54.3571C249.501 58.7212 249.89 63.4462 250.348 68.0372C250.864 73.1956 250.029 78.617 250.833 83.7099C252.266 92.7908 251.517 101.978 252.555 111.07C253.398 118.449 252.663 126.306 252.663 133.744C252.663 142.019 252.975 150.201 253.148 158.465C253.218 161.862 254.116 165.141 254.116 168.644C254.116 172.602 254.546 176.504 254.601 180.439C254.717 188.809 253.655 197.67 254.709 205.968C255.495 212.167 255.57 219.163 255.57 225.411C255.57 232.597 256.539 239.724 256.539 246.954C256.539 252.01 257.795 259.331 256.162 264.028C255.357 266.342 256.054 269.869 256.054 272.376V276.334C256.054 277.571 255.169 278.257 255.085 279.431C254.854 282.675 254.419 284.92 251.586 286.81C249.274 288.352 246.254 289.233 243.458 289.233C237.502 289.233 232.43 290.003 226.502 287.779M45.3058 186.394C45.3058 182.548 50.5751 178.753 53.1892 176.511C56.6282 173.56 60.4066 171.074 64.0782 168.495C66.1973 167.007 69.7201 169.552 72.1095 170.266C79.553 172.488 86.2229 174.445 94.0846 174.445M87.4329 173.56C89.4863 173.56 91.4927 173.797 93.5426 173.904C99.9614 174.242 105.657 171.942 111.576 169.774C115.832 168.215 120.274 167.012 124.411 165.176C126.141 164.409 129.358 163.839 130.82 162.756C132.72 161.616 133.468 161.547 135.309 160.516M171.515 122.691C176.025 120.383 181.615 118.724 186.666 118.34C190.856 118.02 195.663 120.759 199.192 123.488C205.832 128.624 205.832 138.2 205.832 147.253C205.832 155.691 205.948 164.083 204.921 172.478M202.344 241.525C203.388 248.374 202.998 254.679 200.298 260.792C195.817 270.939 185.783 271.187 177.693 272.146M108.6 274.889C114.507 275.373 120.953 275.554 127.295 275.443C131.383 275.372 135.505 275.217 139.645 275.001M175.325 272.127C170.822 272.556 166.292 272.986 161.753 273.387M102.299 371.551C101.505 367.207 101.701 362.587 102.056 358.117M84.3255 359.196C84.1605 357.275 83.9706 355.375 83.7591 353.49M81.2971 358.247C73.9816 358.247 67.4033 354.217 60.9233 359.353C56.1424 363.142 59.239 367.772 63.8796 370.122C68.7909 372.609 74.9674 371.966 80.287 371.966C87.4505 371.966 94.5574 372.303 101.696 372.851M67.9875 308.601C66.3313 311.759 64.1672 314.464 62.4175 317.512M84.7477 223.974C82.3069 223.29 74.232 221.817 72.6017 222.457C69.3297 223.74 66.7257 228.121 65.7286 231.288C64.9396 233.793 65.0808 236.527 64.721 239.108C64.1791 242.996 63.3486 246.859 62.4865 250.686C61.0843 256.911 60.9836 257.127 59.7551 263.258M88.011 224.449C96.5788 224.433 100.635 225.181 109.203 225.164C113.168 225.157 120.432 225.784 125.174 226.17C126.557 226.282 127.784 226.383 128.921 226.484M113.305 248.233C105.997 248.513 98.1457 249.809 94.7263 249.809C91.3068 249.809 90.8595 249.684 89.0272 249.809C88.6473 254.751 87.4209 254.255 87.4031 258.713C87.3818 264.019 85.1326 269.336 82.9675 274.087C79.9087 280.801 79.291 287.545 75.8124 294.059L70.5199 308.813C65.7823 307.8 60.5946 305.964 57.0868 302.463M115.038 248.52C115.944 248.52 116.793 248.506 117.65 248.151C121.682 246.483 125.62 245.741 129.758 244.254C132.892 243.128 136.089 242.214 139.227 241.525M58.1657 183.296C57.5157 184.038 59.182 183.823 59.496 183.542C61.3049 181.927 63.3461 180.787 65.7042 180.198M68.3649 180.641C69.0488 180.641 70.0203 180.467 70.5821 180.936C74.6849 184.364 77.8522 189.76 81.2247 193.918M80.7813 195.245C82.2947 192.526 86.921 192.604 89.6502 192.246C107.479 189.907 125.075 186.422 142.863 183.739M145.137 181.725C143.578 182.586 142.961 183.007 141.452 183.946M145.081 149.662C145.081 143.554 146.239 137.361 144.982 131.296C142.816 120.846 132.574 114.1 128.427 104.424C124.903 96.2023 125.347 86.8042 125.521 77.8178M216.278 116.274C211.926 107.588 207.878 98.1293 205.192 88.8116C203.946 84.4892 203.144 80.0644 202.191 75.6723M137.985 76.6414C137.985 78.9665 139.083 80.8848 140.006 82.9847C141.261 85.8404 141.533 88.607 141.533 91.6882M141.977 93.0159C140.564 93.3682 142.478 97.416 142.691 97.9331C144.875 103.24 148.263 107.481 152.176 111.603M157.497 121.782C153.604 117.598 152.619 114.884 152.619 109.144C152.619 103.315 152.707 97.2443 151.634 91.4915C150.627 86.0934 148.45 78.9038 143.909 75.3234M13.7567 152.354C13.8422 154.273 14.3076 155.846 14.9392 157.664C16.9068 163.33 18.4609 169.109 20.1866 174.85C22.766 183.431 25.2014 192.068 27.9469 200.592M13.0713 126.686C13.0713 126.686 32.895 188.221 34.2197 193.069M92.6109 203.794C91.6966 207.472 92.6109 211.65 92.6109 215.135M10 215.393C22.4695 215.393 34.9242 215.536 47.3914 215.733C62.4239 215.971 77.7973 217.307 92.618 215.393M38.256 218.2C38.256 240.526 40.954 262.713 41.2473 285.06C41.6392 314.911 40.4627 353.892 40.4627 383.717M56.2415 217.749C56.2826 219.202 56.724 220.594 56.9368 222.015C57.7051 227.145 57.9544 232.372 57.9842 237.594C58.0944 256.875 57.1836 276.215 56.9704 295.504C56.678 321.96 54.8845 357.581 53.4237 384M153.883 190.901C153.883 194.185 153.914 197.477 153.913 200.771M205.611 239.564C191.12 239.564 176.752 240.183 162.481 237.26C161.288 237.016 160.11 236.747 158.936 236.49M204.763 167.628C203.989 170.238 204.466 173.197 204.575 175.856C204.916 184.169 205.133 192.457 205.179 200.771C205.185 201.845 205.187 202.92 205.187 203.995M207.308 241.679C206.675 238.366 206.229 235.054 205.915 231.739M169.594 124.742C166.789 124.742 161.57 131.416 159.696 133.105C157.036 135.766 155.896 137.667 153.617 139.948M136.568 155.608C136.568 160.271 137.879 165.247 139.324 169.637C140.72 173.88 148.135 187.82 152.815 189.082C156.194 183.401 164.492 179.298 169.893 176.877M136.568 154.834C137.485 154.296 138.058 153.387 138.829 152.664C143.074 148.681 147.604 145.029 152.068 141.299M130.268 274.915C131.79 269.476 119.136 275.979 118.44 276.527C115.102 279.15 112.709 283.902 112.116 288.763C111.129 296.859 115.192 298.531 120.242 300.958M122.264 300.958H129.249C158.969 300.958 187.653 299.942 217.006 297.28M190.9 271.84C194.585 271.84 200.235 271.035 203.429 270.986C209.119 270.898 215.353 270.606 220.753 272.661M221.479 296.94C226.21 294.107 229.93 288.816 229.86 283.635M225.623 112.937C225.043 112.937 223.728 112.684 223.255 112.937C221.266 113.998 219.73 118.641 219.08 120.188C216.378 126.615 214.701 133.162 213.491 140.007C209.971 159.913 207.011 180.635 209.683 200.771M217.929 265.317C214.892 254.06 212.378 242.665 210.81 231.142M216.154 265.907C216.154 269.715 216.817 273.604 218.231 277.18M235.092 288.941C231.345 288.745 228.135 288.239 225.359 286.561M225.031 114.708C229.157 114.708 232.094 116.985 235.683 118.843M216.436 75.6723C215.231 89.6583 219.574 102.175 229.765 112.346M38.8269 302.185C36.7203 301.572 30.0249 300.597 28.3024 300.86C25.5974 301.273 23.0726 302.742 21.2845 304.698C18.996 307.202 19.3727 310.585 21.7142 312.762C26.0104 316.756 33.0432 317.53 38.8269 318.479M10 202.18C18.3681 202.18 26.7025 202.98 35.0758 202.863C41.4158 202.774 47.7275 202.202 54.0726 202.18C62.3479 202.151 70.6082 202.531 78.8814 202.531H92.3108M158.651 304.637C159.501 306.037 159.631 307.574 159.852 309.09C160.615 314.321 161.089 319.574 161.108 324.837C161.13 330.997 160.125 337.107 160.125 343.257M177.079 306.476C177.079 312.289 178.023 318.078 178.813 323.859C179.585 329.501 179.256 335.181 180.15 340.805M128.729 359.902C127.612 359.902 126.538 359.987 125.534 360.224M125.534 360.224C123.635 360.673 121.981 361.668 120.738 363.669C116.2 370.974 125.492 374.372 131.029 374.203C139.567 373.943 139.965 362.659 133.476 358.843C129.867 356.72 127.26 357.87 125.534 360.224ZM125.534 360.224C123.901 362.449 123.055 365.749 122.891 368.377M208.601 355.129C205.783 356.255 202.764 364.564 202.881 367.047C203.155 372.889 215.262 372.553 218.272 369.548C222.837 364.992 218.331 357.84 214.203 354.835C209.635 351.839 204.067 359.546 203.294 365.723M155.508 342.288C151.451 340.383 146.175 339.764 141.737 339.475L141.717 339.473C139.54 339.331 137.229 339.181 135.096 339.745C132.887 340.33 130.797 341.421 128.644 342.18C126.206 343.04 123.267 344.02 121.569 346.13C120.418 347.561 121.654 349.203 122.572 350.323C124.341 352.481 126.398 353.614 129.159 354.11C134.559 355.08 140.515 354.922 145.966 354.597C150.349 354.336 165.775 350.646 170.334 348.266C176.413 350.266 200.324 354.901 208.888 351.728C211.306 350.833 219.297 348.03 216.311 344.196C214.825 342.287 211.814 341.452 209.619 340.754C205.874 339.564 201.798 339.228 197.897 338.907L197.845 338.902C193.392 338.536 188.78 338.35 184.62 340.297C184.492 340.357 182.851 341.374 183.638 341.641M34.7384 193.818C44.4766 193.523 54.1725 193.462 63.9429 193.462C73.24 193.462 82.899 193.026 92.1513 193.707M92.1513 193.707C92.615 193.741 93.0777 193.778 93.5394 193.818M92.1513 193.707C92.1433 193.652 92.1355 193.597 92.1279 193.542M92.1513 193.707C92.4274 195.607 92.9424 197.504 92.9424 199.459M28.0416 200.581C30.2672 200.481 32.4957 200.409 34.7257 200.356M34.7257 200.356C38.8004 200.261 42.8801 200.232 46.9559 200.225C63.051 200.196 74.0898 200.867 90.0916 199.705M34.7257 200.356C34.6401 197.1 34.1504 193.867 34.1504 190.614M34.7257 200.356C34.7339 200.668 34.7384 200.98 34.7384 201.293M73.8192 297.289C73.8192 301.48 74.2906 305.657 74.2906 309.859C74.2906 316.176 74.9961 322.433 75.2594 328.74C75.4057 332.244 76.2591 335.706 76.4116 339.206C76.4722 340.597 77.1187 341.918 77.3673 343.282C77.5771 344.434 78.4122 345.672 78.8206 346.732C79.3248 348.04 80.0189 349.176 80.6536 350.443M80.8893 352.324C81.8734 352.664 82.8231 353.065 83.7591 353.49M104.22 358.204C103.497 358.18 102.775 358.152 102.056 358.117M108.698 278.709C108.536 280.329 108.934 281.454 109.366 283.125C110.027 285.683 109.961 288.529 109.863 291.148C109.772 293.619 109.169 295.987 109.169 298.478V304.567C109.169 310.533 109.641 316.368 109.641 322.35C109.641 326.316 108.98 330.087 108.227 333.979C107.662 336.895 107.991 340.086 107.991 343.047C107.991 348.478 108.6 354.402 106.106 359.38M83.7591 353.49C86.5039 354.734 89.131 356.18 92.1621 356.884C95.4384 357.645 98.7255 357.956 102.056 358.117" stroke="#F9E2AF" stroke-opacity="0.5" stroke-width="3" stroke-linecap="round"/>
</g>
<path d="M37.8926 181.964L21.6388 130.772C21.239 129.513 21.4866 128.138 22.3003 127.097L76.5928 57.6723C78.5261 55.2002 82.4233 55.8157 83.5006 58.7633L125.198 172.849C126.104 175.33 124.4 177.993 121.767 178.209L42.0316 184.74C40.1736 184.892 38.4568 183.741 37.8926 181.964Z" fill="url(#paint0_linear_230_1037)" fill-opacity="0.5"/>
<defs>
<filter id="filter0_d_230_1037" x="0.5" y="30.5" width="266" height="363" filterUnits="userSpaceOnUse" color-interpolation-filters="sRGB">
<feFlood flood-opacity="0" result="BackgroundImageFix"/>
<feColorMatrix in="SourceAlpha" type="matrix" values="0 0 0 0 0 0 0 0 0 0 0 0 0 0 0 0 0 0 127 0" result="hardAlpha"/>
<feOffset/>
<feGaussianBlur stdDeviation="4"/>
<feColorMatrix type="matrix" values="0 0 0 0 0.803922 0 0 0 0 0.839216 0 0 0 0 0.956863 0 0 0 0.25 0"/>
<feBlend mode="normal" in2="BackgroundImageFix" result="effect1_dropShadow_230_1037"/>
<feBlend mode="normal" in="SourceGraphic" in2="effect1_dropShadow_230_1037" result="shape"/>
</filter>
<linearGradient id="paint0_linear_230_1037" x1="28.9785" y1="154.6" x2="107.248" y2="123.45" gradientUnits="userSpaceOnUse">
<stop stop-color="#F9E2AF"/>
<stop offset="1" stop-color="#F9E2AF" stop-opacity="0"/>
</linearGradient>
</defs>
</svg>
