<svg width="323" height="325" viewBox="0 0 323 325" fill="none" xmlns="http://www.w3.org/2000/svg">
<g filter="url(#filter0_d_802_114)">
<path d="M163 79.4064C162.904 79.0172 162.05 78.8621 161.714 78.8407C158.833 78.6574 156.657 78.7745 154.615 81.0228C150.805 85.2172 154.336 89.1944 158.998 89.5898M169.778 81.2165C169.723 80.8181 169.117 80.9594 168.782 80.9594C167.593 80.9594 166.776 83.0955 166.487 83.9012C165.925 85.4666 165.62 88.0151 166.883 89.3705C168.235 90.8214 171.605 90.7784 173.418 90.1845C176.096 89.3072 178.494 86.2272 177.912 83.6013C177.455 81.5396 174.362 80.9217 172.405 80.7595C169.455 80.515 168.069 83.7587 168.069 86.1003M180 78.702C180 81.4606 180.258 84.1997 180.285 86.953C180.293 87.7889 180.285 88.6254 180.285 89.4613C180.285 90.1009 180.302 88.1764 180.411 87.5471C180.907 84.7046 181.827 80.9943 183.481 78.6029C185.107 76.2529 186.314 79.6688 186.71 81.0123C187.302 83.0238 187.406 89.3873 187.406 87.2831C187.406 83.9097 188.246 81.1473 190.634 78.735C193.012 76.3332 194.454 80.7433 194.685 82.4974C194.89 84.0476 195.562 87.6494 193.958 88.2072M198.004 81.7734V89.2771M198.004 89.2771V89.3983C198.004 91.7192 197.995 90.7387 198.004 89.2771ZM198.004 89.2771C198.011 88.1742 198.029 86.7972 198.069 86.3585C198.262 84.2495 199.671 80.1972 202.03 79.7016C203.488 79.3953 203.768 85.5222 203.808 86.4774C203.815 86.6286 203.82 86.7813 203.825 86.9323M203.825 86.9323C203.874 88.574 203.824 90.0154 203.824 87.1397C203.824 87.0712 203.824 87.002 203.825 86.9323ZM203.825 86.9323C203.832 84.0723 204.024 80.2045 206.993 78.9374C209.819 77.7317 210.621 83.8511 210.744 85.5773C210.837 86.8847 211.502 90.8851 210.227 91.555M216.608 85.7468C213.979 85.7468 221.868 85.8236 224.496 85.7468C225.177 85.7268 224.895 84.546 224.895 84.0209C224.895 82.1961 224.938 80.296 223.176 79.3743C218.624 76.9925 215.233 82.2674 215.012 86.6429C214.861 89.6381 216.122 92.5816 218.971 93.3141C221.675 94.009 223.739 92.8378 226 91.4222M248.468 82.0352C246.185 81.7889 243.292 80.8962 242.449 84.0417C241.73 86.7281 241.731 90.4231 243.528 92.6246C245.345 94.8514 248.528 94.4794 251 94.4794M247 94.5244C246.078 94.5244 245.197 94.3149 244.746 95.1976C244.104 96.4537 244.293 98.3088 245.444 99.2646C246.956 100.519 244.014 100.33 243.286 100.33C241.718 100.33 239.334 100.84 239 99.0682M253.662 85.7472C253.662 84.5245 255.529 84.3667 256.567 84.1642C258.638 83.76 260.193 82.988 260.74 85.1609C261.233 87.1235 260.873 89.4076 260.873 91.405V92.5773M260.873 92.5773V93.3984C260.873 93.0863 260.884 92.8165 260.873 92.5773ZM260.873 92.5773C260.845 91.9609 260.668 91.5483 259.772 91.1411C258.339 90.4907 255.911 89.3691 254.263 90.1444C252.505 90.9713 250.873 93.8484 251.008 95.5677C251.16 97.5015 257.949 95.7553 259.07 95.5091M267 74.2272C268.725 73.6387 270.71 73.9513 272.49 73.9513C273.047 73.9513 274.57 73.6781 274.882 74.4571C275.188 75.2205 274.837 76.4421 274.523 77.124C273.221 79.951 269.548 83.073 271.48 86.642M274 91.555V93.5201M150 10.9826C150.327 20.3227 153.671 29.2507 155 38.4951M152 13.972C152.161 12.4516 155.06 11.3049 156.19 10.8164C160.42 8.98727 165.341 10.2041 166.543 14.7465C167.529 18.4723 167.076 23.1621 163.643 25.6906C161.715 27.1115 158.68 26.6229 156.372 26.6229M150 182.078C150 181.856 150.011 181.669 150.103 181.465C150.893 179.729 151.246 177.733 151.767 175.887C152.952 171.692 154.734 167.734 155.85 163.528C156.029 162.854 156.121 163.763 156.181 164.017C156.723 166.33 156.996 168.737 157.256 171.105C157.721 175.343 158 179.648 158 183.918M151 177.04C153.66 177.04 156.387 176.627 159 176.058M164 164.267C165.261 168.66 164.793 173.588 164.793 178.096V179.143M164.793 179.143V182.281C164.793 181.244 164.75 180.188 164.793 179.143ZM164.793 179.143C164.814 178.654 164.853 178.167 164.926 177.686C165.436 174.283 169.335 173.333 170.611 176.867C171.6 179.608 170.45 181.339 169.95 183.918M194.252 176.605C193.194 176.605 192.021 176.491 191.178 177.065M191.178 177.065C190.908 177.249 190.672 177.503 190.485 177.854C188.98 180.675 191.16 185.014 194.499 184.899C196.759 184.821 198.76 182.836 199.65 180.881C200.549 178.907 199.629 176.996 197.89 175.889C196.218 174.824 194.116 174.79 192.422 175.871C191.865 176.227 191.465 176.623 191.178 177.065ZM191.178 177.065C190.682 177.827 190.518 178.723 190.45 179.772M202.681 175.089C202.579 175.089 202.374 175.052 202.287 175.106C202.051 175.255 202.082 176.02 202.068 176.2C202.006 177.02 201.975 177.854 202.024 178.676C202.095 179.865 202.345 182.39 203.713 182.967C205.13 183.564 206.629 182.316 207.366 181.3C208.661 179.517 209.405 177.319 209.75 175.195C209.759 175.141 209.765 175.033 209.77 174.905M209.77 174.905C209.789 174.418 209.782 173.644 209.775 174.427C209.773 174.586 209.772 174.745 209.77 174.905ZM209.77 174.905C209.751 176.84 209.734 178.782 209.8 180.715C209.836 181.783 210 182.85 210 183.918M213 175.222C213.075 175.829 214.384 175.069 214.547 174.995C215.789 174.422 217.619 173.755 219.001 174.287C220.233 174.761 220.939 176.002 220.986 177.268C221.083 179.84 220.639 182.358 220.375 184.901M220 179.728C218.786 178.735 216.946 178.767 215.729 179.813C214.671 180.722 213.879 182.072 214.015 183.422C214.265 185.889 217.945 184.609 219.578 184.238M225 174.093C225.199 174.142 225.175 174.497 225.187 174.661C225.289 176.023 225.424 177.382 225.525 178.744C225.654 180.479 225.83 182.192 226 183.918M226 168.197H224M235 175.142C233.837 175.142 232.367 174.851 231.335 175.485C229.352 176.703 232.538 178.232 233.402 178.982C234.402 179.849 235.06 181.326 234.75 182.706C234.513 183.757 233.092 183.846 232.273 183.89C231.285 183.942 230.289 183.906 229.301 183.906H229.343M248.076 162.301H248.347C248.803 162.301 248.853 163.325 248.879 163.726C249.359 171.125 248.257 178.492 248.257 185.884M258.454 176.822C256.299 176.822 254.603 176.975 253.206 179.085C252.326 180.416 252.135 182.079 252.686 183.637C253.409 185.679 255.796 186.053 257.516 185.825C259.805 185.521 260.828 182.589 260.988 180.33C261.154 177.969 259.596 176.071 257.651 175.351C255.898 174.701 253.964 175.196 252.833 176.872C251.623 178.666 251.986 180.701 252.347 182.706M268.784 177.05C267.519 177.05 266.123 176.944 264.987 177.429M264.987 177.429C264.601 177.594 264.245 177.828 263.935 178.157C262.737 179.425 262.244 181.638 262.405 183.266C262.614 185.39 265.297 185.992 267.267 185.868C269.893 185.704 271.967 183.219 272 180.876C272.025 179.035 269.606 178.081 267.967 177.733C267.145 177.559 266.027 177.372 264.987 177.429ZM264.987 177.429C264.085 177.479 263.242 177.713 262.703 178.298C261.988 179.074 261.785 180.445 262.249 181.289M270.11 179.005C269.67 179.061 269.986 179.887 270.051 180.124C270.867 183.116 270.964 185.832 270.964 188.925C270.964 190.703 271.389 193.424 269.328 194.228C267.161 195.073 264.278 194.589 262 194.589M275 176.058V186.866M274 170.162H275M284.879 177.892C283.081 177.892 281.539 178.559 280.227 179.703C277.868 181.76 277.023 186.866 281.664 186.866C285.715 186.866 289.096 180.033 285.433 177.705C282.307 175.718 278.675 178.564 278 181.257M286 179.988V198.404M290.881 178.316C290.638 178.594 290.687 178.843 290.659 179.176C290.507 180.981 289.893 182.677 290.016 184.516C290.108 185.881 290.529 187.482 292.216 187.798C294.652 188.254 296.033 185.544 296.96 183.985C298.094 182.079 298.999 180.15 299.098 177.965C299.133 177.193 299.304 176.459 299.333 177.727C299.403 180.768 299.67 183.845 300 186.87M302.632 182.516H308.623C308.948 182.516 310.097 182.703 310.415 182.469C311.337 181.789 310.557 179.8 309.851 179.24C306.434 176.527 302.321 178.701 301.314 182.316C300.633 184.763 300.934 187.637 303.477 189.022C306.317 190.569 310.114 189.519 313 188.668M152 46.3558C152 53.7291 153.665 61.1008 153.665 68.4641M159.492 48.8123C159.278 50.6548 158.589 52.797 157.827 54.5441M160.325 60.9134C160.47 59.9187 166.2 60.2561 166.929 60.7911C169.318 62.5452 168.523 71.4725 168.523 68.7731C168.523 67.162 168.329 65.8214 166.53 64.9227C165.128 64.222 162.229 63.6092 161.378 65.2283C159.046 69.664 165.338 69.2742 168.523 69.2742M177.764 59.457C176.385 59.457 174.758 59.6737 173.869 60.8663C171.902 63.5047 175.855 66.1222 177.325 67.774C179.041 69.7012 175.736 70.0448 174.281 70.0892C173.891 70.1011 169.622 70.1018 171.728 70.1018M192.161 64.0669C194.137 64.0669 196.29 64.3979 198.236 64.0395C199.38 63.8289 198.131 60.869 197.784 60.2838C197.293 59.4552 196.185 59.022 195.377 58.7898C192.512 57.9654 191.284 60.6314 191.137 63.6831C191.039 65.7002 191.652 67.9396 193.376 68.8095C195.43 69.846 197.483 68.958 199.451 68.2612M189.462 56.1817C190.692 56.051 192.181 54.6874 193.097 54.0323C194.485 53.0392 196.266 51.9852 196.954 50.45M208.392 60.9892C207.63 60.2896 205.427 60.0213 204.608 60.5658C202.954 61.6645 202.701 63.994 202.8 65.8459C202.956 68.7484 206.519 68.878 208.609 69.2829M213.701 61.0838C212.178 61.0838 212.985 67.9378 212.985 69.1878C212.985 69.656 213.163 68.2676 213.277 67.8131C213.706 66.0986 214.1 64.3105 214.801 62.6811C216.378 59.0126 218.718 60.0938 221.096 62.2621M223.593 61.0947V69.2829M229.421 50.45C229.707 50.5238 230.018 56.0045 230.049 56.5109C230.141 58.0311 230.193 59.5608 230.222 61.0947M230.222 61.0947C230.283 64.3674 230.236 67.6594 230.236 70.9206M230.222 61.0947H225.258M230.222 61.0947H235.248M223.924 54.9895C223.383 54.9895 222.588 55.3099 222.361 55.7581M237.795 64.9819H244.784C245.428 64.9819 246 65.2263 246 64.4908C246 63.4294 245.318 62.4911 244.622 61.7258C243.765 60.7841 242.831 60.3295 241.55 60.2205C239.739 60.0666 238.557 62.1355 237.838 63.4873C236.921 65.2119 236.052 68.0851 238.185 69.3375C240.015 70.4116 242.671 70.1921 244.632 69.7859M170.975 29.6995C168.608 30.0273 167.306 33.7824 167.114 35.2773C166.636 38.9873 173.698 37.6195 175.385 35.5699C177.764 32.6799 176.137 29.3682 171.546 29.4757C166.379 29.5967 167.026 33.1668 167.026 36.2069M180.25 29.4731C180.25 31.8981 179.089 38.8354 182.056 38.7625C184.747 38.6965 186.555 33.5357 186.915 30.8302C187.262 28.2223 187.651 32.9949 187.756 33.5635C188.084 35.3353 188.152 37.2469 189.5 38.0744M194.252 28.4599V35.9336C194.252 36.4122 194.218 40.4708 194.252 37.9369C194.318 33.0171 196.652 24.2323 203.711 28.1132M211.534 30.3624C210.178 30.3624 209.401 30.2229 208.45 31.2947C207.39 32.4885 206.1 34.9544 206.196 36.8526M206.196 36.8526C206.262 38.1548 206.98 39.1897 208.87 39.3633C212.944 39.7373 216.643 36.6898 216.481 32.9264C216.47 32.6643 216.441 32.4193 216.395 32.1906M206.196 36.8526C204.77 36.0419 204.322 34.4818 205.846 32.4781C208.06 29.5669 215.487 27.6316 216.395 32.1906M206.196 36.8526C207.228 37.4391 208.772 37.6333 210.453 37.3193C212.547 36.9278 213.945 35.2974 215.139 33.8408C215.576 33.3087 216.012 32.7606 216.395 32.1906M216.395 32.1906C216.495 32.0429 216.591 31.8937 216.682 31.743C216.795 31.5566 216.867 30.9502 216.942 31.1513C217.336 32.209 216.933 33.9999 216.942 35.0959C216.971 38.5102 217.372 41.9141 217.663 45.3161C217.923 48.3484 218.13 51.3985 218.464 54.4246C218.533 55.0426 218.476 55.9002 219.105 56.1817M221.642 27.1507C219.644 27.5227 220.398 33.3064 220.581 34.5087C221.017 37.3704 224.566 39.0821 226.512 36.1825C227.619 34.5347 228.425 32.7149 229.28 30.9692C229.492 30.5372 230.6 28.1292 230.612 28.2143C231.15 31.8155 231.01 35.1916 232.132 38.7631M238.061 30.3044C234.344 32.2987 236.021 36.8633 239.666 38.2953C244.182 40.0697 246.761 36.4392 246.286 33.3826C245.742 29.8787 240.579 28.4502 236.797 30.2578C233.875 31.6542 234.243 34.8605 235.172 37.0205M251.079 30.6344V44.5693M251.079 17.8607C248.88 17.8607 248.711 17.8763 248.711 19.022M283.053 19.022C283.053 26.7754 284.254 34.5103 285.421 42.2468M278.316 30.6344H290.158M293.466 30.6344C291.437 30.6344 291.574 34.116 291.494 35.4342C291.378 37.3279 290.997 40.0464 292.176 41.7049C293.547 43.632 296.03 42.4892 297.373 41.1823C298.984 39.6141 300.269 37.4274 300.748 35.2019C300.847 34.742 300.976 31.8797 300.976 32.5504C300.976 36.4704 301.522 40.6676 302 44.5693M241.206 310.373C241.457 312.597 242.49 314.498 242.49 310.794C242.49 303.428 243.123 295.949 238.185 289.949C233.41 284.145 226.054 279.373 218.517 277.82C212.048 276.487 203.381 276.016 197.73 279.947C189.226 285.862 192.403 296.773 192.403 305.372V315M270.903 198.34C270.903 204.785 269.092 211.681 267.943 217.997C266.798 224.296 265.555 231.306 262.1 236.851C259.828 240.497 256.138 242.272 252.531 244.373M191.008 237.182C190.974 237.784 190.874 238.402 190.732 239.029M190.732 239.029C190.232 241.248 189.214 243.578 188.772 245.688C187.648 251.061 186.727 256.088 186.727 261.579M190.732 239.029C191.25 238.628 191.898 238.303 192.401 237.941C193.872 236.884 195.351 235.791 196.487 234.375C197.952 232.549 199.024 230.482 199.86 228.316C200.252 227.3 200.806 226.21 200.848 225.105M190.732 239.029C190.466 239.236 190.234 239.463 190.074 239.724M201.741 218.309C203.444 215.617 204.994 212.031 205.964 208.318C206.086 207.849 207.2 202.505 207.337 202.589C207.628 202.765 207.202 208.046 207.236 208.612C207.494 212.869 209.662 214.382 211.741 214.673M205.227 224.205C205.417 225.136 210.576 227.074 211.247 227.624C213.707 229.638 216.118 231.236 219.024 232.555C220.18 233.079 222.687 233.957 222.687 235.499C222.687 239.242 221.147 242.313 220.118 245.851C219.137 249.227 218.379 252.489 218.406 256.017C218.442 260.719 219.973 261.874 224.399 262.841M210.705 220.919C211.621 218.933 213.354 217.624 214.698 216.01C215.343 215.235 217.207 211.569 218.276 211.365C219.195 211.19 218.517 216.701 218.584 217.412C219.179 223.758 222.581 226.862 226.836 229.998M223.543 219.935C227.796 219.935 231.481 217.219 234.578 214.514C234.938 214.199 237.359 209.458 238.431 210.775C238.667 211.065 238.098 212.591 238.098 213.042C238.098 215.588 238.053 218.138 238.122 220.683C238.218 224.228 238.188 228.6 239.573 231.947C240.517 234.229 242.739 235.303 244.52 236.761M241.523 235.078C241.646 236.285 242.471 237.16 242.997 238.21C244.495 241.196 244.894 244.379 244.472 247.697C244.14 250.309 241.716 253.538 240.001 255.456C238.787 256.813 235.949 258.669 235.53 260.317M203.727 233.048C204.948 235.517 207.665 233.937 209.247 236.199M203.071 240.9C202.8 241.183 202.45 241.685 201.95 241.367C201.636 241.168 202.038 240.387 202.197 240.228C202.727 239.697 203.464 239.545 204.192 239.556C205.438 239.574 204.429 240.732 203.584 240.732C202.8 240.732 203.043 239.892 203.755 239.892M194.691 252.159C195.097 252.159 195.371 252.188 195.736 252.411C197.618 253.561 199.434 254.774 201.361 255.856M188.706 264.594C188.818 265.623 189.894 266.264 190.634 266.872C192.674 268.545 194.783 270.111 196.901 271.683L197.085 271.82M262 104.329C264.576 106.399 264.942 112.844 265.846 115.804C267.91 122.564 269.665 129.063 270.479 136.108C271.335 143.522 271.096 151.003 271.096 158.452" stroke="#89B5FA" stroke-opacity="0.5" stroke-width="3" stroke-linecap="round"/>
</g>
<g filter="url(#filter1_d_802_114)">
<path d="M145.945 313.656C147.991 317.293 148.162 311.883 147.912 310.461C145.767 298.269 141.331 282.885 130.555 275.625C124.012 271.218 114.883 269.317 107.055 270.219C99.9271 271.04 94.4973 276.741 90.7425 282.445C85.0733 291.058 84.5679 301.974 84.5679 311.997M119.488 206.917C119.543 206.423 120.137 206.131 120.43 205.747C121.819 203.927 122.898 201.794 124.752 200.385C129.626 196.683 137.947 198.896 142.463 202.107C147.792 205.896 150.272 212.281 150.36 218.714C150.505 229.264 149.886 234.169 149.5 244.07C149.205 251.619 149.024 255.851 148.67 263.398M115.685 207.794C116.468 207.599 115.167 206.28 114.987 206.072C111.731 202.307 107.522 199.265 102.8 197.639C98.3987 196.124 93.1288 195.571 88.5176 196.355C83.2637 197.249 79.0697 201.417 76.6885 205.974C71.6225 215.67 75.0401 224.804 75.0961 236.896C75.1585 250.347 75.6672 257.923 77.4034 271.262M137.254 229.142C135.398 233.318 134.574 237.086 137.254 241.107M136.951 245.191C137.64 245.169 137.523 248.501 137.53 248.836C137.624 253.167 135.621 255.825 132.674 258.728M131.192 213.666C133.109 213.453 134.273 214.109 135.207 216.216C137.305 220.947 137.795 226.463 138.613 231.519C139.124 234.683 139.494 237.811 139.494 241.015M112.6 215.561C112.754 215.425 112.927 215.314 112.808 215.068C112.474 214.377 111.185 213.623 110.536 213.25C109.5 212.655 108.556 211.807 107.433 211.381C106.367 210.975 104.989 210.753 103.85 210.77C101.698 210.803 99.7844 212.802 99.3065 214.782C98.7094 217.256 99.0635 220.082 99.2805 222.584C99.4246 224.245 99.6301 225.89 99.8388 227.543C100.058 229.283 99.9816 231.052 99.9816 232.801C99.9816 234.758 100.044 236.727 99.9556 238.682C99.8738 240.49 99.5482 242.268 99.3974 244.07C99.172 246.763 98.9831 249.338 98.4367 251.989C98.1199 253.526 97.8785 254.995 97.8785 256.572M134.085 225.875C132.422 225.968 130.838 226.242 129.132 226.064C126.452 225.786 124.4 223.879 122.667 221.988M113.192 221.502C111.418 221.502 111.021 223.09 109.791 224.31C107.169 226.909 103.88 227.738 100.316 228.062M130.927 235.836C127.557 235.836 123.264 237.485 120.237 235.593M113.678 236.565C112.86 236.565 112.177 236.903 111.383 237.105C108.987 237.715 106.658 237.928 104.203 238.023M118.78 242.881C118.78 244.621 120.043 245.89 121.533 246.741C121.951 246.98 120.604 247.021 120.183 247.254C118.926 247.953 117.755 248.643 116.35 248.955M122 253C121.349 253 120.903 253.074 120.272 253.27C117.896 254.009 115.47 254.261 113.011 254.458M40 156C40 172.495 34.8029 203.619 34.3934 220.1C34.1651 229.288 32.4558 239.7 34.1969 248.792C34.8618 252.265 36.9048 254.304 39.4468 256.597C41.558 258.501 44.1283 260.755 46.9147 261.651C49.2633 262.405 52.4398 261.677 54.8878 261.791C57.5189 261.913 60.1315 262.461 62.7768 262.24C64.872 262.066 66.7296 261.158 68.7567 260.752M30.2321 87.2956C29.964 87.3291 29.8554 88.5006 29.8271 90.043M29.8271 90.043C29.8022 91.3958 29.8391 93.0341 29.8842 94.4401M29.8271 90.043C27.4146 93.8114 27.8217 99.8943 28.3216 103.947C28.398 104.566 29.1245 107.836 29.6309 105.534C30.1999 102.947 29.9917 100.16 29.9917 97.5346C29.9917 97.2152 29.9331 95.964 29.8842 94.4401M29.8271 90.043C30.8606 88.4286 32.4116 87.239 34.6944 86.8157C36.4526 86.4897 38.7458 87.8492 38.609 89.8287C38.4993 91.4159 36.5996 92.5946 35.3624 93.2417C33.609 94.1588 31.7863 94.3173 29.8842 94.4401M29.8842 94.4401C29.6012 94.4584 29.3163 94.4758 29.0297 94.4949M45.7536 86.5712C44.3873 86.5712 43.4797 87.4739 42.9772 88.6767M42.9772 88.6767C42.6334 89.4997 42.4793 90.4632 42.4978 91.3742C42.5794 95.4126 48.711 95.6583 49.888 92.1044C50.8187 89.2944 50.0623 85.24 46.9035 84.8438C44.3822 84.5275 43.3732 86.4574 42.9772 88.6767ZM42.9772 88.6767C42.7691 89.8434 42.7303 91.0901 42.7303 92.1325M55.6787 86.6135C53.3493 86.6135 53.2119 89.06 53.1765 90.919L53.1761 90.94C53.152 92.2057 53.1341 93.1436 54.6778 93.5023C56.2697 93.8721 57.6508 93.1006 58.6257 91.9627C59.1689 91.3288 59.5052 90.6206 59.7227 89.8746M59.7227 89.8746C59.9624 89.0523 60.0579 88.184 60.1271 87.318C60.1823 86.6269 60.1444 84.7162 59.9881 86.5874C59.9118 87.4996 59.7637 88.6784 59.7227 89.8746ZM59.7227 89.8746C59.6599 91.707 59.8488 93.5803 60.9333 94.5982M65.7864 86.8302C65.7864 87.6288 65.7959 88.4217 65.7915 89.2103M65.7915 89.2103C65.7802 91.2294 65.6776 93.2205 65.091 95.2081C64.5282 97.1145 64.8649 91.1013 65.7447 89.3043C65.7602 89.2727 65.7758 89.2414 65.7915 89.2103ZM65.7915 89.2103C67.3652 86.0981 70.1886 85.5158 73.5482 85.8877M84.2222 90.7616C84.4421 90.7616 84.6612 90.7545 84.88 90.7427M84.88 90.7427C85.9375 90.6856 86.9861 90.5183 88.0612 90.5116C90.4947 90.4964 93.1318 90.8189 95.5444 90.4977C96.7199 90.3412 94.3098 87.1356 94.1952 87.0116C91.5508 84.1509 87.3723 83.7375 85.5297 87.8171C85.1493 88.6593 84.9321 89.6817 84.88 90.7427ZM84.88 90.7427C84.788 92.6141 85.2096 94.6059 86.1556 95.9422C88.0652 98.6396 91.9316 97.256 94.4873 96.5117M84.2222 79.9154C84.3786 79.5299 85.1846 79.4356 85.5749 79.3112C87.0634 78.8368 88.5367 78.3708 90.0444 77.9577M98.7935 85.7885C98.7935 87.1886 98.7033 88.6295 98.9549 90.0127C99.1509 91.0899 99.6469 92.0709 99.9771 93.1088C100.22 93.8723 100.258 94.7724 100.609 95.4964C100.917 96.1293 102.316 92.8385 102.425 92.584C103.441 90.2119 104.69 88.3024 106.541 86.4969M109.452 86.7674V93.6193M109.452 79.9154H110.422M116.244 76C116.244 78.9048 116.441 81.7972 116.487 84.7009C116.529 87.3139 116.923 89.8963 116.972 92.5094C116.992 93.5453 117.018 94.5603 117.215 95.577M112.363 84.8097H121.096M122.493 89.4947C121.798 89.4947 122.015 89.542 122.695 89.5899M122.695 89.5899C124.101 89.6886 127.482 89.7896 128.883 89.4803C129.264 89.3963 129.123 86.2053 128.927 85.9086C128.415 85.1321 127.016 84.8097 126.161 84.8097C124.188 84.8097 123.299 86.9267 122.915 88.5982C122.852 88.8706 122.774 89.21 122.695 89.5899ZM122.695 89.5899C122.354 91.2404 122.013 93.6553 122.988 94.657C124.584 96.2975 128.056 95.3782 129.83 94.7004M134.912 87.0937C134.912 88.1512 134.831 89.21 134.766 90.2721M134.766 90.2721C134.721 90.9978 134.683 91.725 134.683 92.4544V93.2802M134.766 90.2721C134.662 91.2735 134.683 92.3112 134.683 93.2802M134.766 90.2721C134.926 88.7263 135.386 87.2671 136.687 86.2815C138.332 85.0353 140.839 86.4706 142.444 87.0937M134.683 93.2802V95.4326M32.7926 105.366V124.943M39.1177 117.747C40.5382 117.747 41.9111 117.913 43.3239 118.002C44.0321 118.047 44.6088 118.513 45.3406 118.513C46.3018 118.513 46.1185 118.187 46.1185 117.294C46.1185 116.402 46.4819 114.758 45.6863 114.161C43.8773 112.805 40.992 110.765 39.7803 113.779C38.8407 116.116 38.1178 120.222 39.0456 122.68C40.0205 125.262 44.871 123.262 46.3778 122.595M53.1704 115.492C53.0254 114.904 50.144 115.223 49.7279 115.413C47.4388 116.461 50.2375 120.38 50.8926 121.578C51.4163 122.535 52.2122 124.342 50.6856 124.699C49.3719 125.007 45.2996 124.935 46.6477 124.935M76.4593 116.279C74.9977 116.279 72.6808 115.816 71.4254 116.539C68.6996 118.107 72.1963 121.757 73.3573 122.917C73.997 123.556 74.7612 124.261 74.745 125.216C74.7225 126.552 73.0393 126.628 71.9832 126.775C70.067 127.041 64.2375 126.801 66.1739 126.801M81.3111 117.112V134.731M79.9936 116.16C80.3783 114.888 84.2419 115.184 85.0655 115.184C87.6879 115.184 88.7844 115.891 89.0496 118.781C89.5628 124.375 81.8824 124.394 78.4 124.943M92.9556 116.885C92.9556 115.018 95.2572 114.289 97.1211 114.194C99.8784 114.053 100.924 114.68 101.229 117.32C101.504 119.703 101.287 122.206 101.287 124.604V122.362C101.287 120.739 101.031 119.991 99.1026 119.834C97.4698 119.7 96.4271 119.77 95.1829 120.799C93.9902 121.785 93.7634 124.007 95.0817 125.039C97.782 127.153 101.233 124.991 103.571 123.526L103.63 123.49M104.212 114.232C103.318 114.232 103.719 116.652 103.719 117.191C103.719 119.614 103.966 126.878 103.966 124.455C103.966 123.198 103.937 121.938 103.966 120.683C104.013 118.611 104.765 116.902 105.526 115.017C106.133 113.515 108.526 110.599 109.605 113.363C110.225 114.951 110.545 116.405 110.706 117.903M110.706 117.903C110.837 119.111 110.864 120.347 110.864 121.706C110.864 122.2 110.645 119.476 110.645 119.014C110.645 118.635 110.664 118.265 110.706 117.903ZM110.706 117.903C110.881 116.397 111.454 115.058 112.699 114.05C114.857 112.302 116.334 113.63 116.86 116.055C117.186 117.56 117.814 122.652 115.792 123.066M127.889 114.575C126.517 114.004 123.306 113.918 122.359 115.171C120.451 117.696 122.628 120.353 124.571 122.126C126.459 123.848 124.927 123.898 122.887 123.951C122.504 123.961 117.465 123.964 119.745 123.964M32.7926 130.816C29.8056 130.816 27.7586 134.317 26.9361 136.934C26.2173 139.22 25.4006 142.983 26.642 145.227C27.8755 147.456 29.8454 147.456 32.057 147.456H32.0706M38.2909 130.816C38.2909 136.65 39.3474 142.633 37.6444 148.435M42.4963 145.115C42.5703 145.115 42.6473 145.116 42.727 145.119M42.727 145.119C44.652 145.177 48.1701 145.877 49.4776 144.228C49.9696 143.608 49.1156 141.03 48.6555 140.588C46.7794 138.786 44.753 139.693 43.6149 141.827C43.1528 142.693 42.8427 143.914 42.727 145.119ZM42.727 145.119C42.6442 145.981 42.6609 146.836 42.7928 147.547C43.3927 150.781 48.6088 148.943 50.2593 148.419M56.0815 141.946C55.914 141.153 53.8086 141.849 53.5085 142.236C52.5345 143.494 53.5523 145.479 54.3172 146.384C55.0453 147.246 56.1487 148.462 55.5424 149.865C55.0772 150.941 52.1408 150.039 51.2296 150.039M72.8708 133.752C72.4284 133.862 72.6183 135.083 72.6183 135.419C72.6183 138.68 72.9618 141.909 73.3757 145.142C73.5464 146.475 73.8807 150.486 73.8807 149.142V145.253C73.8807 143.573 73.9255 142.693 75.8443 142.253C77.5421 141.863 80.1667 141.442 80.8938 143.447C81.3271 144.643 81.7581 147.436 80.3327 148.142C78.6889 148.956 76.1808 148.503 74.3856 148.503M86.4975 144.633C85.3178 144.633 84.555 145.648 84.3089 146.826M84.3089 146.826C83.8996 148.784 84.9185 151.192 87.8241 150.134C89.7823 149.421 91.3148 147.21 90.9648 144.885C90.6908 143.064 88.6511 142.6 87.2285 142.563C85.3493 142.514 84.5931 144.085 84.3721 145.92C84.3303 146.267 84.3091 146.564 84.3089 146.826ZM84.3089 146.826C84.308 147.956 84.6986 148.434 85.5228 149.425M93.9259 130.816C94.0937 133.778 95.1878 136.597 95.3276 139.625C95.4774 142.87 95.8667 146.171 95.8667 149.414M89.7218 142.562C86.4632 141.767 96.3894 141.583 99.7482 141.583M106.541 139.686C104.942 139.686 102.482 139.257 101.412 140.686C100.064 142.485 102.017 144.14 103.346 145.076C103.955 145.505 104.431 145.903 104.509 146.674C104.609 147.663 102.895 147.429 102.309 147.438C101.976 147.442 97.3442 147.438 99.226 147.438M115.811 145.164C116.955 145.164 124.978 145.656 124.978 144.779C124.978 143.745 123.911 141.255 123.182 140.598C119.962 137.697 116.428 141.898 115.61 145.164C114.792 148.43 115.001 149.445 116.722 151C119.134 153.178 124.737 148.76 124.737 148.76M127.889 134.731V150.393M124.978 142.562C124.978 140.892 131.537 141.842 132.741 141.942M138.333 142.075C138.333 141.522 137.917 141.519 137.409 141.663C135.886 142.094 134.216 143.35 133.859 144.943C132.847 149.456 137.26 150.173 140.504 148.767M142.444 148.435H144.385M146.326 148.435H147.296M149.237 147.456H151.178M152.224 130.816C151.857 130.867 152.928 131.724 153.078 131.849C154.662 133.173 155.364 135.167 155.928 137.083C157.141 141.199 157.973 147.164 154.703 150.393" stroke="#F5C2E7" stroke-opacity="0.5" stroke-width="3" stroke-linecap="round"/>
</g>
<defs>
<filter id="filter0_d_802_114" x="140.5" y="0.5" width="182" height="324" filterUnits="userSpaceOnUse" color-interpolation-filters="sRGB">
<feFlood flood-opacity="0" result="BackgroundImageFix"/>
<feColorMatrix in="SourceAlpha" type="matrix" values="0 0 0 0 0 0 0 0 0 0 0 0 0 0 0 0 0 0 127 0" result="hardAlpha"/>
<feOffset/>
<feGaussianBlur stdDeviation="4"/>
<feColorMatrix type="matrix" values="0 0 0 0 0.803922 0 0 0 0 0.839216 0 0 0 0 0.956863 0 0 0 0.25 0"/>
<feBlend mode="normal" in2="BackgroundImageFix" result="effect1_dropShadow_802_114"/>
<feBlend mode="normal" in="SourceGraphic" in2="effect1_dropShadow_802_114" result="shape"/>
</filter>
<filter id="filter1_d_802_114" x="16.4999" y="66.5" width="150" height="257.892" filterUnits="userSpaceOnUse" color-interpolation-filters="sRGB">
<feFlood flood-opacity="0" result="BackgroundImageFix"/>
<feColorMatrix in="SourceAlpha" type="matrix" values="0 0 0 0 0 0 0 0 0 0 0 0 0 0 0 0 0 0 127 0" result="hardAlpha"/>
<feOffset/>
<feGaussianBlur stdDeviation="4"/>
<feColorMatrix type="matrix" values="0 0 0 0 0.803922 0 0 0 0 0.839216 0 0 0 0 0.956863 0 0 0 0.25 0"/>
<feBlend mode="normal" in2="BackgroundImageFix" result="effect1_dropShadow_802_114"/>
<feBlend mode="normal" in="SourceGraphic" in2="effect1_dropShadow_802_114" result="shape"/>
</filter>
</defs>
</svg>
