<svg width="256" height="200" viewBox="0 0 256 200" fill="none" xmlns="http://www.w3.org/2000/svg">
<g filter="url(#filter0_d_230_1010)">
<path d="M56.273 10.5921C56.273 12.7313 55.2857 29.314 56.7336 29.507C66.8843 30.8604 77.6826 30.132 87.9514 30.132C89.0178 30.132 93.4754 30.7227 93.5765 29.4083C94.0781 22.8867 95.7719 15.4766 91.208 10M172.328 10.7896C172.328 15.9301 173.212 20.8001 173.48 25.8886C173.629 28.7203 172.847 29.54 175.881 29.54H189.73L206 29.2779C207.552 29.0059 213.165 29.3543 214.436 28.3158C216.176 26.8946 215.021 20.1133 214.943 18.342C214.846 16.1631 215.65 9.65401 215.318 11.8096M66.3195 45C65.9638 50.7364 66.3687 56.6453 66.0085 62.4523M62 60C55.6792 60 56.6751 64.3045 56.2686 68.0773L56.2672 68.0905C55.8029 72.3991 55.1995 78 61.545 78M70.5983 60C76.5674 60 74.7067 64.8199 74.786 68.5333C74.8746 72.6774 76.0622 78 70 78M65.4838 72.9784C65.4838 79.7327 67.2602 86.3022 67.2602 93.1104M62.1338 86C58.075 86 58.3854 91.4386 58.075 93.5155C57.8976 94.7027 58.0294 96.5 58.5294 98.5C59.0294 100.5 60.8414 101 62.0295 101M72 85C77.5 85 79 102 72.4282 102M67.6287 98.4395C67.6287 103.792 68.2208 109.075 68.2208 114.427M177.399 31C176.036 31.3408 172.184 35.2355 172 39C171.74 44.3254 175.707 47.7908 181.543 48.7635M195.737 30C198.5 32 200.084 34.7874 200 38.5C199.882 43.7109 196.166 48.3557 191 48.3557M58.4107 31C57.0476 31.3408 53.1962 35.2355 53.0121 39C52.7517 44.3254 56.719 47.7908 62.5555 48.7635M76.749 30C79.5121 32 81.0961 34.7874 81.0121 38.5C80.8942 43.7109 77.1781 48.3557 72.0121 48.3557M186 45C186 47.2949 186.476 49.4346 186.639 51.6952C186.93 55.7321 187 59.9181 187 64M181.648 62.0028C175.731 61.8686 177.403 66.5797 177.091 70.8618C176.795 74.9202 176.969 80.4787 181.613 80.249M192.062 80.7871C198.629 80.4332 197.921 75.1122 197.625 70.2845C197.354 65.8659 197.616 60.2348 191 61.0862M181.648 91.0028C175.731 90.8686 177.403 95.5797 177.091 99.8618C176.795 103.92 176.969 109.479 181.613 109.249M192.062 109.787C198.629 109.433 197.921 104.112 197.625 99.2845C197.354 94.8659 197.616 89.2348 191 90.0862M187 79V94.3951M187 104V120.579M50.494 118.925C50.3355 122.641 51.7263 126.362 51.8588 130.112C52.2732 141.844 52.765 153.676 52.2654 165.386C52.0241 171.043 50.7624 177.179 51.6594 182.851C52.0049 185.036 52.5998 186.875 52.506 189.075M50.1535 118.473C49.2487 118.473 52.6285 117.381 52.9027 117.363C64.8177 116.586 77.0458 117.298 88.9826 117.298C106.528 117.298 123.896 117.061 141.287 119.649C153.636 121.487 165.575 122 178.045 122H209M210 121C211.984 121.313 211.738 124.053 211.875 124.987C212.755 130.99 212.5 137.038 212.5 143.058C212.5 150.473 211.839 157.876 211.875 165.291C211.897 169.83 213.399 174.141 213.715 178.631C213.85 180.546 213.75 182.476 213.75 184.392C213.75 186.304 215 188.048 215 190M57.0954 190C56.4841 189.972 59.0002 189.818 59.2687 189.807C68.8798 189.407 78.8864 189.526 88.5767 189.526C111.127 189.526 132.662 188.362 154.959 187.702C171.328 187.217 187.612 187.358 204.051 187.316C207.045 187.308 209.994 187 213 187M39 11.3784C40.5523 12.1383 39.4667 24.0864 39.4667 26.4723C39.4667 31.4111 50.7036 30.2627 53 30.2627M156.63 10.3784C156.63 15.4217 156.627 20.4278 156.149 25.4578C155.86 28.5045 155.615 29.3784 159.242 29.3784H169M48 118C47.847 120.25 32.684 118 30 118M30 121C30 133.782 31.896 145.991 32.4167 158.726C32.8096 168.337 33 178.373 33 188M35 188C35.1241 189.296 45.1207 189.426 46.2766 189.472C47.2652 189.512 52.4504 188.565 53 190M71.5676 123.846C70.0075 123.846 66.2389 122.088 65.4891 124.187C64.7877 126.151 65.3991 127.333 66.6055 128.932C67.7254 130.417 69.2759 131.515 70.5132 132.902C71.8898 134.446 73.2411 136.047 74.917 137.244M66.2644 129.987C65.0694 131.315 63.5583 133.313 63.4732 135.228C63.436 136.066 63.015 138.721 64.1865 138.934C66.8972 139.427 69.2895 139.356 71.2575 137.12C72.3462 135.883 72.7705 134.316 73.8006 133.057C74.2972 132.45 74.8588 131.778 75.1962 131.103M83.0114 123.288C83.0114 125.186 83.9578 126.966 84.0814 128.901C84.2954 132.255 84.2106 135.59 84.6861 138.919M84.9653 132.499C84.9653 131.85 85.6123 131.301 86.2058 131.103C88.5314 130.328 89.5782 131.843 89.9739 134.019C90.2165 135.353 90.8515 137.512 89.2761 138.205C87.8071 138.852 86.4027 138.656 84.9653 138.081M93.0597 131.103C93.0597 133.275 92.607 135.835 93.0752 137.942C93.4389 139.579 98.3629 137.944 98.3629 135.848M98.0838 131.941C98.0838 136.274 98.9211 140.571 98.9211 144.935C98.9211 146.813 98.6047 146.455 96.6727 146.455C95.4777 146.455 92.2146 147.005 91.385 146.176M106.736 124.405C107.095 125.168 107.016 125.876 107.016 126.715C107.016 129.497 107.098 132.293 107 135.073C106.965 136.063 106.7 137.028 106.736 138.019C106.773 139.008 108.835 138.856 109.528 138.919M107.574 130.545H111.761M113.993 123.846C114.455 124.423 114.273 125.397 114.273 126.079V138.479M114.273 138.479V139.353C114.273 139.061 114.272 138.77 114.273 138.479ZM114.273 138.479C114.275 137.455 114.293 136.437 114.412 135.414C114.65 133.369 116.27 127.036 119.359 130.545C121.594 133.085 121.022 136.712 120.413 139.756M123.763 131.941C123.763 129.484 127.542 129.269 128.926 130.654C130.911 132.638 130.182 135.921 130.182 138.64M128.787 135.29C127.874 135.176 125.74 134.349 125.034 135.352C124.336 136.344 124.192 137.503 124.321 138.702C124.48 140.186 128.405 139.369 129.345 139.198M132.694 123.567C134.725 125.852 133.811 130.718 133.811 133.46C133.811 135.25 133.641 137.134 133.811 138.919C133.927 140.136 136.325 139.756 137.16 139.756M134.369 130.824C135.883 130.824 137.327 131.232 138.835 131.382M145.534 124.684C145.534 130.056 146.092 135.47 146.092 140.872M157.257 133.336C157.355 135.906 158.609 138.343 158.652 140.966C158.655 141.105 158.655 141.342 158.655 141.574M158.655 141.574C158.655 141.996 158.652 142.398 158.652 142.144C158.652 141.953 158.653 141.763 158.655 141.574ZM158.655 141.574C158.671 140.081 158.762 138.623 159.117 137.151C159.405 135.958 161.069 130.86 163.397 132.685C164.658 133.673 165.11 135.242 165.27 136.846M165.27 136.846C165.379 137.945 165.351 139.061 165.351 140.02V140.423C165.351 139.386 165.216 138.095 165.27 136.846ZM165.27 136.846C165.333 135.388 165.653 133.988 166.747 133.119C170.576 130.079 170.096 139.739 170.096 141.71M175.12 136.965C176.509 136.965 181.819 138.012 181.819 136.624C181.819 134.711 181.431 133.255 179.152 133.073C176.141 132.832 174.562 134.405 174.562 137.523C174.562 138.876 174.274 140.338 175.585 141.152C177.427 142.295 179.748 141.989 181.819 141.989M186.382 134.833C185.897 134.772 186.853 133.487 187.044 133.363C187.916 132.798 189.946 132.122 190.813 132.885C192.21 134.114 191.957 136.695 191.957 138.366C191.957 139.139 191.961 139.902 191.884 140.671C191.865 140.856 191.942 141.172 191.768 141.259M190.446 137.857C190.423 137.677 188.787 137.536 188.556 137.594C187.916 137.754 187.081 138.601 186.855 139.201C186.698 139.615 186.662 140.365 186.802 140.786C186.967 141.28 187.628 141.484 188.083 141.595C189.268 141.882 190.755 141.332 191.674 140.597M195.737 133.132C195.737 133.797 195.968 134.422 196.01 135.09C196.085 136.295 196.021 137.522 196.021 138.728C196.021 139.638 195.967 140.569 196.068 141.474C196.131 142.039 196.078 142.429 196.12 141.621C196.23 139.536 196.479 137.438 197.155 135.458C197.329 134.948 197.419 134.459 197.627 133.962C197.794 133.562 198.056 133.436 198.362 133.153C198.791 132.756 199.904 133.116 200.273 133.395C201.203 134.099 201.27 135.128 201.454 136.198C201.8 138.203 201.69 144.333 201.69 142.298M206.415 135.117H206.604M206.037 141.637C205.916 141.649 205.848 141.684 205.848 141.731M58.1369 163C57.8759 163.032 58.445 164.041 58.1369 166C57.8289 167.959 58.1369 170.021 58.1369 172M58 157.001V158M62.1683 163.247C61.9601 163.298 62.0486 163.767 62.0486 163.919C62.0486 164.992 62.0809 166.061 62.1135 167.131M62.1135 167.131C62.1312 167.714 62.149 168.297 62.1617 168.881C62.1819 169.814 62.1683 170.748 62.1683 171.681C62.1683 172.187 62.0835 170.811 62.0752 170.702C61.9866 169.54 61.9505 168.314 62.1135 167.131ZM62.1135 167.131C62.2824 165.904 62.6654 164.724 63.4259 163.71C64.8573 161.802 66.7349 164.204 67.3849 165.479C67.7042 166.106 67.8321 166.759 67.8832 167.427M67.8832 167.427C67.919 167.895 67.9172 168.37 67.9172 168.848C67.9172 169.91 68.1426 173.057 67.8507 172.034C67.4529 170.64 67.6537 168.86 67.8773 167.464C67.8792 167.452 67.8812 167.44 67.8832 167.427ZM67.8832 167.427C68.0863 166.164 68.561 163.476 70.073 163.064C72.0371 162.529 72.7443 165.596 72.8144 166.903C72.8944 168.393 72.9385 169.901 72.9475 171.394C72.9498 171.783 73.1229 172.71 72.8277 173M77 163.568C77 164.572 77.951 165.646 78.2507 166.597C78.6211 167.773 78.7004 169.049 78.7073 170.316M78.7073 170.316C78.7114 171.093 78.6884 171.866 78.6884 172.611V173.858C78.6884 172.69 78.6245 171.491 78.7073 170.316ZM78.7073 170.316C78.7319 169.966 78.7697 169.618 78.826 169.274C79.1033 167.578 79.6805 165.649 80.8333 164.343C81.3848 163.718 82.7997 162.82 83.5723 163.656C84.1869 164.321 84.2993 165.884 84.4291 166.755C84.5741 167.728 84.5932 168.731 84.5812 169.732M84.5812 169.732C84.5716 170.542 84.5416 171.352 84.5416 172.145C84.5416 172.614 84.4805 173.715 84.4353 172.555C84.3983 171.605 84.4508 170.664 84.5812 169.732ZM84.5812 169.732C84.6785 169.037 84.819 168.347 84.9981 167.661C85.3293 166.394 85.8032 165.071 86.4301 163.921C86.9075 163.045 87.4766 162.99 88.3937 163.001C89.0896 163.01 90.0165 162.996 90.276 163.763C90.7735 165.235 90.9162 167.058 90.9514 168.6C90.9835 170.007 91.1173 171.621 90.7325 172.989C90.662 173.24 90.6199 173.394 90.6199 173.657M96.2936 163C96.2936 165.351 96.8139 167.678 96.9138 170.027C97.0112 172.318 97.1173 174.87 96.6752 177.12C96.4861 178.082 96.1699 179.276 95.3819 179.705C94.2732 180.309 93.1308 179.827 92 179.652M96 156V155M107.558 164.431C107.305 164.431 107.227 164.169 107.072 163.974C106.614 163.399 106.061 163.003 105.345 163.003C104.396 163.003 102.975 162.886 102.515 164.016C102.13 164.961 102.103 165.897 102.103 166.909C102.103 167.909 102.437 167.94 103.246 168.276C103.896 168.546 104.657 168.606 105.351 168.606C105.828 168.606 106.49 168.49 106.946 168.673C108.047 169.113 108.784 170.422 108.976 171.596C109.223 173.117 107.529 173.378 106.477 173.72C105.838 173.927 105.033 173.988 104.367 173.988C103.981 173.988 103.546 174.053 103.189 173.878C102.952 173.762 102.654 173.727 102.435 173.585C102.257 173.471 102.196 173.289 102 173.219M121.078 166.385C121.042 166.064 120.251 166.005 120.066 166.002C118.892 165.98 118.167 166.125 117.576 167.349C117.217 168.093 116.473 170.398 117.595 170.773C118.49 171.073 119.528 170.995 120.451 170.979C121.08 170.968 121.604 170.889 122 170.341M116.258 162.864C117.025 162.2 117.888 161.748 118.942 161.748C120.111 161.748 120.572 161.902 121.125 162.864C121.552 163.605 121.369 164.614 121.369 165.43C121.369 166.48 121.125 167.5 121.125 168.554C121.125 169.103 121.429 169.543 122.099 169.559C123.734 169.596 125.184 169.129 126.108 167.817C126.785 166.854 126.679 165.681 126.872 164.599C127.052 163.59 127.076 162.495 126.723 161.525C126.277 160.298 125.962 159.053 125.439 157.88C124.749 156.334 123.348 155.771 121.68 155.22C119.923 154.64 117.947 154.049 116.075 154.049C115.623 154.049 114.853 153.911 114.432 154.098C113.449 154.537 112.836 155.71 112.513 156.59C111.782 158.576 111.655 160.54 111.363 162.591C111.16 164.023 111.025 165.378 111.025 166.825C111.025 167.545 110.898 168.344 111.214 169.007C111.64 169.899 111.786 170.701 112.364 171.542C112.885 172.301 113.48 173.391 114.338 173.885C115.861 174.762 117.84 174.914 119.604 174.914C120.935 174.914 122.665 175.168 123.938 174.803C124.743 174.572 125.758 174.691 126.601 174.691M133 165V174M132 159H133M136.338 165.81C136.338 167.717 136.373 169.624 136.261 171.525M136.261 171.525C136.231 172.041 136.19 172.557 136.135 173.072C136.101 173.384 136.045 173.688 136.001 173.998C135.992 174.059 136.057 172.951 136.071 172.841C136.124 172.402 136.189 171.963 136.261 171.525ZM136.261 171.525C136.436 170.47 136.66 169.42 136.899 168.381C137.06 167.677 137.239 166.756 137.72 166.189C138.488 165.286 140.843 165.468 141.249 166.645C141.643 167.789 141.394 169.323 141.383 170.535M141.383 170.535C141.383 170.563 141.382 170.59 141.382 170.617V172.494C141.382 172.825 141.486 173.751 141.293 173.483C141.124 173.248 141.268 172.431 141.268 172.166C141.268 171.607 141.29 171.071 141.383 170.535ZM141.383 170.535C141.423 170.302 141.477 170.068 141.548 169.833C141.881 168.73 142.373 167.747 143.013 166.8C143.289 166.391 143.794 165 144.363 165C145.131 165 145.472 165.185 145.962 165.803C147.045 167.17 147 168.636 147 170.328C147 171.403 146.656 172.403 146.656 173.445M150.476 165.216C150.476 166.072 150.581 166.923 150.581 167.778C150.581 167.789 150.581 167.8 150.581 167.811M150.581 167.811C150.577 169.359 150.241 170.883 150.241 172.445C150.241 172.948 150.018 173.987 150.005 172.817C149.99 171.515 149.995 170.233 150.267 168.949C150.348 168.566 150.45 168.183 150.581 167.811ZM150.581 167.811C150.909 166.883 151.418 166.024 152.239 165.387C152.848 164.915 153.34 164.829 154.133 164.783C155.447 164.707 155.312 166.686 155.312 167.485C155.312 168.435 155.24 169.378 155.175 170.322M155.175 170.322C155.123 171.082 155.076 171.841 155.076 172.603C155.076 172.727 154.838 173.842 154.749 173.28C154.576 172.19 154.812 171.263 155.175 170.322ZM155.175 170.322C155.324 169.936 155.494 169.548 155.666 169.145C156.225 167.833 156.423 166.116 157.317 164.96C157.558 164.649 158.451 164.094 158.844 164.021C160.634 163.687 160.869 167.466 160.947 168.461C161.088 170.251 160.937 172.229 160.619 174M166 165C166 167.045 165.881 169.085 165.881 171.129C165.881 172.568 165.975 174.043 165.814 175.475C165.671 176.751 165.341 178.005 165.191 179.281C165.118 179.901 164.952 180.705 164.547 181.222L164.545 181.224C164.166 181.709 163.378 182.717 162.776 182.924C162.005 183.189 161.281 182.705 160.667 182.346C159.835 181.86 158.97 181.506 158 181.391M166 157C165.473 157 164.344 158 165.508 158M174.357 166.14C174.744 166.096 174.105 165.681 174.02 165.614C173.372 165.108 172.773 165 171.955 165C170.914 165 170.552 165.601 170.247 166.424C170.052 166.952 169.741 168.481 170.395 168.849C171.601 169.528 173.326 169.334 174.505 170.122C175.088 170.511 175 171.589 174.989 172.154C174.975 172.96 174.454 173.943 173.451 173.996C172.334 174.055 171.413 173.433 170.311 173.433M179 175H180M188.192 165.459C188.192 164.379 187.765 164 186.475 164C184.644 164 183.936 167.031 183.648 168.275C183.316 169.706 182.684 171.886 183.188 173.341C183.479 174.182 183.817 175.258 184.804 175.58C186.331 176.078 187.629 176.232 189 175.489M188.507 156C189.363 156.219 188.844 162.652 188.844 163.638C188.844 165.893 188.536 168.005 188.347 170.231C188.283 170.98 188 171.741 188 172.486C188 173.33 188.169 174.143 188.169 175M193.619 171.382C194.316 171.382 197.899 171.774 197.913 171.087C197.961 168.855 198.59 165 195.601 165C193.223 165 193.171 170.906 193.133 172.328C193.094 173.767 192.558 175.939 193.959 176.691C195.002 177.251 196.738 176.878 197.913 176.878M202.159 165C201.781 165.097 202.187 165.812 202.252 166.022C202.801 167.807 202.66 169.781 202.66 171.626C202.66 172.799 202.644 173.974 202.66 175.147C202.667 175.71 202.963 176.142 202.994 176.661C203.042 177.482 203.239 176.59 203.355 176.302C203.893 174.962 204.587 173.682 205.172 172.364C205.919 170.682 206.531 168.94 207.388 167.31C207.572 166.96 207.608 166.704 208 166.704" stroke="#CDD6F4" stroke-opacity="0.5" stroke-width="3" stroke-linecap="round" stroke-linejoin="round"/>
</g>
<defs>
<filter id="filter0_d_230_1010" x="20.5" y="0.5" width="204.399" height="199" filterUnits="userSpaceOnUse" color-interpolation-filters="sRGB">
<feFlood flood-opacity="0" result="BackgroundImageFix"/>
<feColorMatrix in="SourceAlpha" type="matrix" values="0 0 0 0 0 0 0 0 0 0 0 0 0 0 0 0 0 0 127 0" result="hardAlpha"/>
<feOffset/>
<feGaussianBlur stdDeviation="4"/>
<feColorMatrix type="matrix" values="0 0 0 0 0.803922 0 0 0 0 0.839216 0 0 0 0 0.956863 0 0 0 0.25 0"/>
<feBlend mode="normal" in2="BackgroundImageFix" result="effect1_dropShadow_230_1010"/>
<feBlend mode="normal" in="SourceGraphic" in2="effect1_dropShadow_230_1010" result="shape"/>
</filter>
</defs>
</svg>
