<svg width="192" height="192" viewBox="0 0 192 192" fill="none" xmlns="http://www.w3.org/2000/svg">
<path d="M19.8879 84C17.2163 84 19.1994 88.4985 19.334 89.1691C20.773 96.3395 20.4743 103.524 20.4743 110.733M17.5 125.584C17.5 133.853 16.5 142.076 16.5 150.337M18.8357 149.757C18.6445 149.736 18.2669 149.599 18.6994 149.485C20.7851 148.937 24.3147 150.169 26.153 150.553C40.0159 153.441 53.4988 157.367 67.1024 161.016C81.1004 164.77 95.1085 168.522 109.37 171.498C117.45 173.185 125.249 174.835 133.185 176.953C138.068 178.257 142.126 180.841 147.092 181.729C149.195 182.105 152.108 182.284 154.046 183.029C155.265 183.498 156.047 184 157.5 184M30.5 128.554C28.5954 128.694 26.6145 131.416 25.4778 132.478C23.0623 134.733 20.5535 136.966 18.5 139.446M44.5 133.505C44.5 137.196 39.48 139.439 36.5989 141.529C33.5432 143.746 30.0583 145.684 27.5 148.356M64.306 139.446C66.0779 140 55.1488 146.61 54.398 147.095C49.7238 150.111 45.1824 153.272 40.5 156.277M87.5 147.366C87.3871 148.637 86.6068 149.146 85.4964 150.009C82.0786 152.662 78.5043 155.168 74.7723 157.482C70.4952 160.134 65.6056 162.48 62.5 166.178M105.5 154.297C99.9779 157.614 94.5412 161.03 89.3148 164.684L89.2623 164.721C88.1639 165.489 87.2099 166.156 86.5 167.168M132.5 153.307C132.227 154.17 131.101 154.776 130.332 155.277C126.746 157.612 123.257 159.984 119.955 162.618C116.827 165.113 113.471 167.576 110.5 170.139M144.5 159.248C137.881 162.317 132.965 167.756 126.5 171.129M151.5 167.168C151.337 167.687 150.861 168.076 150.478 168.482C148.37 170.723 146.098 172.853 143.656 174.822C141.677 176.416 138.532 177.797 137.5 180.04M38.5 84.9901C37.5074 85.3101 36.5084 86.478 35.7487 87.0229C32.6338 89.2569 29.2387 91.1048 25.8898 93.04C21.2177 95.7397 17.0881 99.0385 12.5 101.822M57.5 91.9208C52.3988 96.9715 45.7451 100.84 39.5 104.627C34.2622 107.804 29.0009 110.929 23.5 113.703M75.5 96.8713C74.7505 97.0067 74.005 97.7056 73.4351 98.1008C69.0265 101.158 64.6411 104.228 60.1604 107.199C56.7671 109.45 53.4165 111.742 49.9491 113.9C48.8558 114.581 47.7935 115.391 46.5 115.683M96.5 100.832C96.4321 101.993 95.7651 102.652 94.8556 103.512C91.2574 106.914 87.0423 109.656 82.7667 112.313C78.08 115.225 73.4767 118.145 68.5 120.634M110.5 107.762C106.459 113.48 100.891 117.965 94.5171 121.861C92.483 123.105 90.2544 124.106 88.5 125.584M136.5 114.693C131.245 118.209 125.729 121.352 119.844 124.013C116.907 125.341 112.572 126.38 110.5 128.554M147.5 119.644C142.838 123.765 136.485 125.872 131.5 129.545" stroke="#FFD6AD" stroke-width="3" stroke-linecap="round"/>
<path d="M12 61V75M12.5938 112C12.5938 114.072 13.8252 117.301 12 119M20 65C15.7412 69.0239 11.9781 73.6581 7 77M111 28C98.1224 28 85.946 30.1899 73.6443 33.58C59.545 37.4655 46.0995 42.5547 32.93 48.4C27.6309 50.752 20.6245 52.3013 16 55M7 63C25.8614 63 43.8913 69.9722 62.2456 73.284M62.2456 73.284C62.8809 73.3986 63.5165 73.5088 64.1525 73.6142C68.4719 74.33 72.8242 74.975 77.2002 75.5636M62.2456 73.284C63.6073 72.4357 65 71.4967 65 70M62.2456 73.284C61.7214 73.6105 61.2017 73.9237 60.768 74.25C57.4402 76.7536 54.1932 79.3563 51 82M77.2002 75.5636C99.2555 78.5303 121.912 80.0635 143.994 81.9994M77.2002 75.5636C77.6745 75.1739 78 74.7612 78 74M77.2002 75.5636C76.856 75.8464 76.4334 76.1171 76 76.5C73.3888 78.8069 70.6715 80.7024 70 84M143.994 81.9994C143.996 81.9996 143.998 81.9998 144 82M143.994 81.9994C144.054 72.9862 143.769 63.7218 139.609 55.465C134.396 45.1194 124.309 31 110 31M143.994 81.9994C143.978 84.3577 143.938 86.6987 143.938 89M111 30.2631C111 22.9096 115.838 20.5577 121.337 15.2149C123.332 13.2772 128.63 11.7617 129.789 9.78088C130.844 7.9755 132.407 6.97863 134.887 6.67571C140.454 5.9958 153.266 4.85445 157.238 9.00459C158.63 10.4586 159.512 15.6255 158.495 17.3647C158.229 17.82 155.197 19.1068 157.028 19.4547C161.021 20.2132 162.3 20.5141 164.432 23.7542C166.563 26.9925 165.711 28.4397 165.061 31.9351C164.025 37.5033 175.55 41.5212 176.306 47.3415C177.024 52.8654 173.785 54.3515 181.405 57.9708C185.942 60.1258 180.129 65.2739 179.17 67.6446C177.83 70.9523 185.126 71.9884 183.849 76.9004C183.114 79.7289 177.633 77.8681 177.633 82.3941C177.633 85.7012 179.053 88.2954 178.89 91.7694C178.732 95.1553 165.334 93.6802 161.918 93.6802C155.549 93.6802 151.208 88.5253 147.079 84.7801M147.079 84.7801C146.786 84.5143 146.494 84.2557 146.202 84.0064M147.079 84.7801C147.027 85.1656 147 85.5719 147 86M147.079 84.7801C147.793 79.5078 153.286 78.1257 160.772 78.001C164.018 77.947 166.426 80.0008 170 80.0008M177.094 103C177.094 107.927 174.182 118.283 177.861 122C184.119 128.322 181.492 131.561 181.239 139.311C180.998 146.68 177.094 153.559 177.094 160.603C177.094 166.943 179.857 172.827 179.857 179M151 107V125.054C151 128.158 154.004 127.789 157.111 128.379C160.77 129.075 159.883 132.992 159.681 135.506C159.312 140.07 153.056 150 157.25 154.034C161.53 158.152 154.916 166.399 161 169M157.399 171C154.95 171.549 156.256 176.244 157.263 177.473C162.138 183.428 170.434 182.74 177 179.794M16 81C19.2213 81 22.4276 81.0923 25.6204 81.2668M25.6204 81.2668C44.2018 82.2828 62.3236 86.0866 80.2659 90.7155M25.6204 81.2668C27.9708 79.6707 30.2888 78.0045 32.626 76.4074C34.6642 75.0146 36.6858 73.0982 39 72M25.6204 81.2668C24.7522 81.8565 23.8796 82.4365 23 83M80.2659 90.7155C86.5933 92.3479 92.8984 94.0829 99.1934 95.8345M80.2659 90.7155C83.0056 87.8146 86.2874 85.2418 89.3648 82.548C91.0159 81.1028 93 80.035 93 78M80.2659 90.7155C80.1767 90.81 80.0881 90.9048 80 91M99.1934 95.8345C113.466 99.8057 127.687 103.862 142 107M99.1934 95.8345C103.442 92.1997 107.708 88.5884 112 85M99.1934 95.8345C99.129 95.8896 99.0645 95.9448 99 96M142 138C132.423 138 124.062 134.504 114.832 132.925C100.197 130.422 85.6052 127.846 71.094 124.809C68.9502 124.36 66.8011 123.901 64.6493 123.429M64.6493 123.429C59.3022 122.257 53.9386 121.008 48.5988 119.66M64.6493 123.429C64.8727 122.98 65 122.506 65 122M64.6493 123.429C63.538 125.663 60.0477 127.274 58 129M48.5988 119.66C41.3031 117.817 34.0519 115.787 26.9479 113.51M48.5988 119.66C48.8545 119.149 49 118.6 49 118M48.5988 119.66C47.1333 122.586 42.0488 124.246 40 127M26.9479 113.51C22.5679 112.106 18.2439 110.607 14 109M26.9479 113.51C28.392 112.474 29.9131 111.25 30 110M26.9479 113.51C26.1657 114.071 25.406 114.576 24.9091 115C23.6039 116.113 21.6058 117.462 21 119M12 122C12.8444 122 13.2805 122.167 14.0615 122.419C18.0538 123.707 22.1208 124.547 26.2475 125.431C39.438 128.256 52.0627 133.039 65.0273 136.543C70.1682 137.932 75.4563 138.816 80.5805 140.233C83.3211 140.991 86.1815 141.765 89.0099 142.188C91.4908 142.56 93.4841 143.812 95.8359 144.462C98.4154 145.176 101.042 145.515 103.67 146.058C109.277 147.218 114.546 149.323 120.231 150.168C124.548 150.81 128.364 152.739 132.783 153.22C135.176 153.48 137.539 153.09 139.907 153.679C141.838 154.159 143.998 153.958 146 153.958M127 86C126.61 87.1951 124.499 88.1479 123.481 88.8599C121.2 90.4557 118.911 92.0857 117 94M142 86C142 87.6994 140.64 88.5361 139.132 89.7407C136.452 91.8829 134.058 94.2478 131 96M144 92C142.544 94.7531 140.619 97.3207 139 100M77 127C77 129.743 72.927 131.956 71 134M91 130C91 130.977 90.6956 131.204 89.9556 131.917C87.5404 134.244 84.779 136.22 83 139M102 135C102 137.027 99.436 138.684 98 140M119 136C116.727 139.23 112.924 141.283 110 144M129 139C126.647 141.656 124.316 144.322 122 147M144 142C144 145.99 137.142 148.825 134 151M160 83C158.149 84.7982 156.615 87.0234 155 89M167 103.025C166.438 103.025 165.659 102.885 165.229 103.267C161.165 106.874 157.607 111.046 154 115M176 112C176 114.049 174.628 115.792 173.512 117.588C170.953 121.707 168.54 125.877 166 130M178 128C175.464 130.371 174.004 133.73 172.222 136.539C170.353 139.486 168.104 142.205 166 145M178 144C177.536 146.005 175.561 148.348 174.401 150.07C172.654 152.664 170.834 156.145 168 158M177 157C176.924 157.628 176.719 157.982 176.356 158.565C174.604 161.374 172.813 164.156 171.156 167.01C169.931 169.117 168.911 171.338 167 173M176 173C176 174.691 174.844 176.417 174 178" stroke="#CDD6F4" stroke-width="3" stroke-linecap="round"/>
</svg>
