<svg width="193" height="192" viewBox="0 0 193 192" fill="none" xmlns="http://www.w3.org/2000/svg">
<path d="M19.8879 84C17.2163 84 19.1994 88.5435 19.334 89.2208C20.773 96.4629 20.4743 103.72 20.4743 111M17.5 126C17.5 134.351 16.5 142.656 16.5 151M18.8357 150.414C18.6445 150.394 18.2669 150.255 18.6994 150.14C20.7851 149.586 24.3147 150.831 26.153 151.218C40.0159 154.135 53.4988 158.101 67.1024 161.786C81.1004 165.578 95.1085 169.367 109.37 172.373C117.45 174.077 125.249 175.743 133.185 177.883C138.068 179.2 142.126 181.809 147.092 182.706C149.195 183.086 152.108 183.267 154.046 184.02C155.265 184.493 156.047 185 157.5 185M30.5 129C28.5954 129.141 26.6145 131.89 25.4778 132.962C23.0623 135.241 20.5535 137.495 18.5 140M44.5 134C44.5 137.728 39.48 139.993 36.5989 142.104C33.5432 144.343 30.0583 146.301 27.5 149M64.306 140C66.0779 140.56 55.1488 147.236 54.398 147.726C49.7238 150.773 45.1824 153.965 40.5 157M87.5 148C87.3871 149.284 86.6068 149.798 85.4964 150.669C82.0786 153.349 78.5043 155.88 74.7723 158.217C70.4952 160.895 65.6056 163.265 62.5 167M105.5 155C99.9779 158.35 94.5412 161.801 89.3148 165.491L89.2623 165.528C88.1639 166.304 87.2099 166.977 86.5 168M132.5 154C132.227 154.872 131.101 155.484 130.332 155.989C126.746 158.348 123.257 160.744 119.955 163.404C116.827 165.924 113.471 168.411 110.5 171M144.5 160C137.881 163.1 132.965 168.593 126.5 172M151.5 168C151.337 168.524 150.861 168.916 150.478 169.327C148.37 171.59 146.098 173.742 143.656 175.73C141.677 177.34 138.532 178.735 137.5 181M38.5 85C37.5074 85.3232 36.5084 86.5028 35.7487 87.0531C32.6338 89.3094 29.2387 91.1759 25.8898 93.1304C21.2177 95.8571 17.0881 99.1889 12.5 102M57.5 92C52.3988 97.1012 45.7451 101.008 39.5 104.833C34.2622 108.042 29.0009 111.199 23.5 114M75.5 97C74.7505 97.1367 74.005 97.8427 73.4351 98.2418C69.0265 101.329 64.6411 104.43 60.1604 107.431C56.7671 109.704 53.4165 112.02 49.9491 114.199C48.8558 114.887 47.7935 115.705 46.5 116M96.5 101C96.4321 102.173 95.7651 102.839 94.8556 103.707C91.2574 107.143 87.0423 109.913 82.7667 112.596C78.08 115.537 73.4767 118.487 68.5 121M110.5 108C106.459 113.774 100.891 118.305 94.5171 122.24C92.483 123.496 90.2544 124.507 88.5 126M136.5 115C131.245 118.551 125.729 121.725 119.844 124.413C116.907 125.754 112.572 126.803 110.5 129M147.5 120C142.838 124.163 136.485 126.291 131.5 130" stroke="#FFD6AD" stroke-width="3" stroke-linecap="round"/>
<path d="M12.5 61V75M13.0938 112C13.0938 114.072 14.3252 117.301 12.5 119M20.5 65C16.2412 69.0239 12.4781 73.6581 7.5 77M111.5 28C98.6224 28 86.446 30.1899 74.1443 33.58C60.045 37.4655 46.5995 42.5547 33.43 48.4C28.1309 50.752 21.1245 52.3013 16.5 55M7.5 63C26.3614 63 44.3913 69.9722 62.7456 73.284M62.7456 73.284C63.3809 73.3986 64.0165 73.5088 64.6525 73.6142C68.9719 74.33 73.3242 74.975 77.7002 75.5636M62.7456 73.284C64.1073 72.4357 65.5 71.4967 65.5 70M62.7456 73.284C62.2214 73.6105 61.7017 73.9237 61.268 74.25C57.9402 76.7536 54.6932 79.3563 51.5 82M77.7002 75.5636C99.7555 78.5303 122.412 80.0635 144.494 81.9994M77.7002 75.5636C78.1745 75.1739 78.5 74.7612 78.5 74M77.7002 75.5636C77.356 75.8464 76.9334 76.1171 76.5 76.5C73.8888 78.8069 71.1715 80.7024 70.5 84M144.494 81.9994C144.496 81.9996 144.498 81.9998 144.5 82M144.494 81.9994C144.554 72.9862 144.269 63.7218 140.109 55.465C134.896 45.1194 124.809 31 110.5 31M144.494 81.9994C144.478 84.3577 144.438 86.6987 144.438 89M111.5 30.2631C111.5 22.9096 116.338 20.5577 121.837 15.2149C123.832 13.2772 129.13 11.7617 130.289 9.78088C131.344 7.9755 132.907 6.97863 135.387 6.67571C140.954 5.9958 153.766 4.85445 157.738 9.00459C159.13 10.4586 160.012 15.6255 158.995 17.3647C158.729 17.82 155.697 19.1068 157.528 19.4547C161.521 20.2132 162.8 20.5141 164.932 23.7542C167.063 26.9925 166.211 28.4397 165.561 31.9351C164.525 37.5033 176.05 41.5212 176.806 47.3415C177.524 52.8654 174.285 54.3515 181.905 57.9708C186.442 60.1258 180.629 65.2739 179.67 67.6446C178.33 70.9523 185.626 71.9884 184.349 76.9004C183.614 79.7289 178.133 77.8681 178.133 82.3941C178.133 85.7012 179.553 88.2954 179.39 91.7694C179.232 95.1553 165.834 93.6802 162.418 93.6802C156.049 93.6802 151.708 88.5253 147.579 84.7801M147.579 84.7801C147.286 84.5143 146.994 84.2557 146.702 84.0064M147.579 84.7801C147.527 85.1656 147.5 85.5719 147.5 86M147.579 84.7801C148.293 79.5078 153.786 78.1257 161.272 78.001C164.518 77.947 166.926 80.0008 170.5 80.0008M177.594 103C177.594 107.927 174.682 118.283 178.361 122C184.619 128.322 181.992 131.561 181.739 139.311C181.498 146.68 177.594 153.559 177.594 160.603C177.594 166.943 180.357 172.827 180.357 179M151.5 107V125.054C151.5 128.158 154.504 127.789 157.611 128.379C161.27 129.075 160.383 132.992 160.181 135.506C159.812 140.07 153.556 150 157.75 154.034C162.03 158.152 155.416 166.399 161.5 169M157.899 171C155.45 171.549 156.756 176.244 157.763 177.473C162.638 183.428 170.934 182.74 177.5 179.794M16.5 81C19.7213 81 22.9276 81.0923 26.1204 81.2668M26.1204 81.2668C44.7018 82.2828 62.8236 86.0866 80.7659 90.7155M26.1204 81.2668C28.4708 79.6707 30.7888 78.0045 33.126 76.4074C35.1642 75.0146 37.1858 73.0982 39.5 72M26.1204 81.2668C25.2522 81.8565 24.3796 82.4365 23.5 83M80.7659 90.7155C87.0933 92.3479 93.3984 94.0829 99.6934 95.8345M80.7659 90.7155C83.5056 87.8146 86.7874 85.2418 89.8648 82.548C91.5159 81.1028 93.5 80.035 93.5 78M80.7659 90.7155C80.6767 90.81 80.5881 90.9048 80.5 91M99.6934 95.8345C113.966 99.8057 128.187 103.862 142.5 107M99.6934 95.8345C103.942 92.1997 108.208 88.5884 112.5 85M99.6934 95.8345C99.629 95.8896 99.5645 95.9448 99.5 96M142.5 138C132.923 138 124.562 134.504 115.332 132.925C100.697 130.422 86.1052 127.846 71.594 124.809C69.4502 124.36 67.3011 123.901 65.1493 123.429M65.1493 123.429C59.8022 122.257 54.4386 121.008 49.0988 119.66M65.1493 123.429C65.3727 122.98 65.5 122.506 65.5 122M65.1493 123.429C64.038 125.663 60.5477 127.274 58.5 129M49.0988 119.66C41.8031 117.817 34.5519 115.787 27.4479 113.51M49.0988 119.66C49.3545 119.149 49.5 118.6 49.5 118M49.0988 119.66C47.6333 122.586 42.5488 124.246 40.5 127M27.4479 113.51C23.0679 112.106 18.7439 110.607 14.5 109M27.4479 113.51C28.892 112.474 30.4131 111.25 30.5 110M27.4479 113.51C26.6657 114.071 25.906 114.576 25.4091 115C24.1039 116.113 22.1058 117.462 21.5 119M12.5 122C13.3444 122 13.7805 122.167 14.5615 122.419C18.5538 123.707 22.6208 124.547 26.7475 125.431C39.938 128.256 52.5627 133.039 65.5273 136.543C70.6682 137.932 75.9563 138.816 81.0805 140.233C83.8211 140.991 86.6815 141.765 89.5099 142.188C91.9908 142.56 93.9841 143.812 96.3359 144.462C98.9154 145.176 101.542 145.515 104.17 146.058C109.777 147.218 115.046 149.323 120.731 150.168C125.048 150.81 128.864 152.739 133.283 153.22C135.676 153.48 138.039 153.09 140.407 153.679C142.338 154.159 144.498 153.958 146.5 153.958M127.5 86C127.11 87.1951 124.999 88.1479 123.981 88.8599C121.7 90.4557 119.411 92.0857 117.5 94M142.5 86C142.5 87.6994 141.14 88.5361 139.632 89.7407C136.952 91.8829 134.558 94.2478 131.5 96M144.5 92C143.044 94.7531 141.119 97.3207 139.5 100M77.5 127C77.5 129.743 73.427 131.956 71.5 134M91.5 130C91.5 130.977 91.1956 131.204 90.4556 131.917C88.0404 134.244 85.279 136.22 83.5 139M102.5 135C102.5 137.027 99.936 138.684 98.5 140M119.5 136C117.227 139.23 113.424 141.283 110.5 144M129.5 139C127.147 141.656 124.816 144.322 122.5 147M144.5 142C144.5 145.99 137.642 148.825 134.5 151M160.5 83C158.649 84.7982 157.115 87.0234 155.5 89M167.5 103.025C166.938 103.025 166.159 102.885 165.729 103.267C161.665 106.874 158.107 111.046 154.5 115M176.5 112C176.5 114.049 175.128 115.792 174.012 117.588C171.453 121.707 169.04 125.877 166.5 130M178.5 128C175.964 130.371 174.504 133.73 172.722 136.539C170.853 139.486 168.604 142.205 166.5 145M178.5 144C178.036 146.005 176.061 148.348 174.901 150.07C173.154 152.664 171.334 156.145 168.5 158M177.5 157C177.424 157.628 177.219 157.982 176.856 158.565C175.104 161.374 173.313 164.156 171.656 167.01C170.431 169.117 169.411 171.338 167.5 173M176.5 173C176.5 174.691 175.344 176.417 174.5 178" stroke="#CDD6F4" stroke-width="3" stroke-linecap="round"/>
</svg>
