<svg width="224" height="224" viewBox="0 0 224 224" fill="none" xmlns="http://www.w3.org/2000/svg">
<g filter="url(#filter0_d_215_27)">
<path d="M39.4834 126.059V98.9256H46.3676V126.059H39.4834Z" fill="#89B5FA"/>
<path d="M53.9961 126.059V98.9256H60.771V101.88H61.7544C62.2279 100.968 63.011 100.184 64.1038 99.5274C65.1965 98.8344 66.6352 98.488 68.42 98.488C70.3505 98.488 71.8985 98.8709 73.0641 99.6368C74.2296 100.366 75.122 101.333 75.7412 102.536H76.7247C77.3439 101.369 78.218 100.403 79.3472 99.6368C80.4763 98.8709 82.079 98.488 84.1552 98.488C85.8307 98.488 87.3422 98.8527 88.6899 99.5821C90.074 100.275 91.1668 101.351 91.9681 102.81C92.8058 104.232 93.2247 106.037 93.2247 108.225V126.059H86.3406V108.718C86.3406 107.222 85.9581 106.11 85.1932 105.381C84.4283 104.615 83.3538 104.232 81.9697 104.232C80.4035 104.232 79.1833 104.743 78.3091 105.764C77.4714 106.748 77.0525 108.171 77.0525 110.031V126.059H70.1684V108.718C70.1684 107.222 69.7859 106.11 69.021 105.381C68.2561 104.615 67.1816 104.232 65.7975 104.232C64.2312 104.232 63.011 104.743 62.1369 105.764C61.2991 106.748 60.8802 108.171 60.8802 110.031V126.059H53.9961Z" fill="#89B5FA"/>
<path d="M100.629 126.059V98.9256H107.404V101.88H108.387C108.861 100.968 109.644 100.184 110.736 99.5274C111.829 98.8344 113.268 98.488 115.053 98.488C116.983 98.488 118.531 98.8709 119.697 99.6368C120.862 100.366 121.755 101.333 122.374 102.536H123.357C123.976 101.369 124.851 100.403 125.98 99.6368C127.109 98.8709 128.712 98.488 130.788 98.488C132.463 98.488 133.975 98.8527 135.323 99.5821C136.707 100.275 137.799 101.351 138.601 102.81C139.438 104.232 139.857 106.037 139.857 108.225V126.059H132.973V108.718C132.973 107.222 132.591 106.11 131.826 105.381C131.061 104.615 129.986 104.232 128.602 104.232C127.036 104.232 125.816 104.743 124.942 105.764C124.104 106.748 123.685 108.171 123.685 110.031V126.059H116.801V108.718C116.801 107.222 116.419 106.11 115.654 105.381C114.889 104.615 113.814 104.232 112.43 104.232C110.864 104.232 109.644 104.743 108.769 105.764C107.932 106.748 107.513 108.171 107.513 110.031V126.059H100.629Z" fill="#89B5FA"/>
<path d="M142.235 137V131.092H145.841C146.861 131.092 147.371 130.545 147.371 129.451V98.9256H154.255V130.873C154.255 132.733 153.708 134.21 152.616 135.304C151.523 136.435 150.066 137 148.245 137H142.235Z" fill="#F9E2AF"/>
<path d="M173.136 126.825C169.603 126.825 166.707 126.059 164.449 124.527C162.19 122.996 160.824 120.807 160.351 117.963L166.689 116.322C166.944 117.598 167.363 118.601 167.945 119.33C168.565 120.06 169.311 120.589 170.185 120.917C171.096 121.209 172.079 121.354 173.136 121.354C174.738 121.354 175.922 121.081 176.687 120.534C177.452 119.95 177.834 119.239 177.834 118.4C177.834 117.562 177.47 116.923 176.742 116.486C176.013 116.012 174.848 115.629 173.245 115.337L171.715 115.063C169.821 114.699 168.091 114.206 166.525 113.586C164.959 112.93 163.702 112.036 162.755 110.906C161.808 109.775 161.334 108.317 161.334 106.53C161.334 103.831 162.318 101.77 164.285 100.348C166.252 98.8891 168.838 98.1597 172.043 98.1597C175.066 98.1597 177.579 98.8344 179.583 100.184C181.586 101.533 182.897 103.302 183.517 105.49L177.124 107.46C176.833 106.074 176.232 105.089 175.321 104.505C174.447 103.922 173.354 103.63 172.043 103.63C170.732 103.63 169.73 103.867 169.038 104.341C168.346 104.779 168 105.399 168 106.201C168 107.077 168.364 107.733 169.093 108.171C169.821 108.572 170.805 108.882 172.043 109.101L173.573 109.374C175.613 109.739 177.452 110.231 179.091 110.851C180.767 111.435 182.078 112.292 183.025 113.422C184.008 114.516 184.5 116.012 184.5 117.908C184.5 120.753 183.462 122.959 181.386 124.527C179.346 126.059 176.596 126.825 173.136 126.825Z" fill="#F9E2AF"/>
<path d="M42.9255 95.7527C41.6871 95.7527 40.6308 95.3516 39.7566 94.5492C38.9189 93.7469 38.5 92.6893 38.5 91.3764C38.5 90.0635 38.9189 89.0058 39.7566 88.2035C40.6308 87.4012 41.6871 87 42.9255 87H150.813C152.088 87 153.144 87.4012 153.982 88.2035C154.819 89.0058 155.238 90.0635 155.238 91.3764C155.238 92.6893 154.819 93.7469 153.982 94.5492C153.144 95.3516 152.088 95.7527 150.813 95.7527H42.9255Z" fill="url(#paint0_linear_215_27)"/>
</g>
<defs>
<filter id="filter0_d_215_27" x="30.5" y="79" width="162" height="66" filterUnits="userSpaceOnUse" color-interpolation-filters="sRGB">
<feFlood flood-opacity="0" result="BackgroundImageFix"/>
<feColorMatrix in="SourceAlpha" type="matrix" values="0 0 0 0 0 0 0 0 0 0 0 0 0 0 0 0 0 0 127 0" result="hardAlpha"/>
<feOffset/>
<feGaussianBlur stdDeviation="4"/>
<feComposite in2="hardAlpha" operator="out"/>
<feColorMatrix type="matrix" values="0 0 0 0 0.803922 0 0 0 0 0.839216 0 0 0 0 0.956863 0 0 0 0.25 0"/>
<feBlend mode="normal" in2="BackgroundImageFix" result="effect1_dropShadow_215_27"/>
<feBlend mode="normal" in="SourceGraphic" in2="effect1_dropShadow_215_27" result="shape"/>
</filter>
<linearGradient id="paint0_linear_215_27" x1="42.7366" y1="91.3333" x2="150.933" y2="91.3333" gradientUnits="userSpaceOnUse">
<stop stop-color="#89B5FA"/>
<stop offset="0.13" stop-color="#B8B1F7"/>
<stop offset="0.25" stop-color="#DDADEB"/>
<stop offset="0.37" stop-color="#F8B0DC"/>
<stop offset="0.5" stop-color="#FFB3C9"/>
<stop offset="0.63" stop-color="#FFBAB8"/>
<stop offset="0.75" stop-color="#FFC7AD"/>
<stop offset="0.87" stop-color="#FFD6AD"/>
<stop offset="1" stop-color="#F9E1AE"/>
</linearGradient>
</defs>
</svg>
