<svg width="360" height="360" viewBox="0 0 360 360" fill="none" xmlns="http://www.w3.org/2000/svg">
<rect width="360" height="360" fill="#11111B"/>
<path opacity="0.5" d="M36.224 9.552C36.224 9.18933 36.336 8.89067 36.56 8.656C36.7947 8.42133 37.0933 8.304 37.456 8.304H39.008V9.456H37.904C37.616 9.456 37.472 9.616 37.472 9.936V22.864C37.472 23.184 37.616 23.344 37.904 23.344H39.008V24.496H37.456C37.0933 24.496 36.7947 24.3787 36.56 24.144C36.336 23.9093 36.224 23.6107 36.224 23.248V9.552ZM44.6449 21.104C44.6449 20.7947 44.7515 20.5333 44.9649 20.32C45.1889 20.096 45.4555 19.984 45.7649 19.984C46.0742 19.984 46.3355 20.096 46.5489 20.32C46.7729 20.5333 46.8849 20.7947 46.8849 21.104C46.8849 21.4133 46.7729 21.68 46.5489 21.904C46.3355 22.1173 46.0742 22.224 45.7649 22.224C45.4555 22.224 45.1889 22.1173 44.9649 21.904C44.7515 21.68 44.6449 21.4133 44.6449 21.104ZM45.9889 14.96C45.9889 14.6507 46.0955 14.3893 46.3089 14.176C46.5329 13.952 46.7995 13.84 47.1089 13.84C47.4182 13.84 47.6795 13.952 47.8929 14.176C48.1169 14.3893 48.2289 14.6507 48.2289 14.96C48.2289 15.2693 48.1169 15.536 47.8929 15.76C47.6795 15.9733 47.4182 16.08 47.1089 16.08C46.7995 16.08 46.5329 15.9733 46.3089 15.76C46.0955 15.536 45.9889 15.2693 45.9889 14.96ZM59.8018 9.104L60.7618 9.648L53.1778 23.696L52.2178 23.136L59.8018 9.104ZM69.5986 9.104L70.5586 9.648L62.9746 23.696L62.0146 23.136L69.5986 9.104ZM76.0355 11.696C76.0355 11.3867 76.1422 11.1253 76.3555 10.912C76.5795 10.688 76.8462 10.576 77.1555 10.576C77.4648 10.576 77.7262 10.688 77.9395 10.912C78.1635 11.1253 78.2755 11.3867 78.2755 11.696C78.2755 12.0053 78.1635 12.272 77.9395 12.496C77.7262 12.7093 77.4648 12.816 77.1555 12.816C76.8462 12.816 76.5795 12.7093 76.3555 12.496C76.1422 12.272 76.0355 12.0053 76.0355 11.696ZM75.7795 15.456C75.8008 15.3493 75.7848 15.2587 75.7315 15.184C75.6888 15.0987 75.6088 15.056 75.4915 15.056C75.4062 15.056 75.3262 15.0773 75.2515 15.12L73.3795 16.4L72.7395 15.456L74.6275 14.176C74.9582 13.952 75.3155 13.84 75.6995 13.84C76.0622 13.84 76.3768 13.9467 76.6435 14.16C76.9102 14.3733 77.0435 14.704 77.0435 15.152C77.0435 15.3227 77.0222 15.4933 76.9795 15.664L75.7955 20.608C75.7635 20.736 75.7742 20.8373 75.8275 20.912C75.8915 20.9867 75.9715 21.024 76.0675 21.024C76.1422 21.024 76.2222 20.9973 76.3075 20.944L78.1475 19.696L78.7875 20.64L76.9475 21.888C76.6062 22.112 76.2488 22.224 75.8755 22.224C75.5128 22.224 75.1982 22.1173 74.9315 21.904C74.6648 21.6907 74.5315 21.36 74.5315 20.912C74.5315 20.7413 74.5528 20.5707 74.5955 20.4L75.7795 15.456ZM88.6004 16.048C88.611 15.9947 88.6164 15.9467 88.6164 15.904C88.627 15.8613 88.6324 15.8133 88.6324 15.76C88.6324 15.5467 88.5737 15.3707 88.4564 15.232C88.339 15.0933 88.1577 15.024 87.9124 15.024C87.603 15.024 87.3577 15.1307 87.1764 15.344C87.0057 15.5573 86.8777 15.856 86.7924 16.24L85.5604 22H84.3124L85.5764 16.048C85.5977 15.9413 85.6084 15.8293 85.6084 15.712C85.6084 15.52 85.555 15.36 85.4484 15.232C85.3524 15.0933 85.171 15.024 84.9044 15.024C84.563 15.024 84.307 15.1467 84.1364 15.392C83.9657 15.6373 83.843 15.92 83.7684 16.24L82.5364 22H81.3044L82.9844 14.064H84.2324L84.0884 14.736H84.2804C84.3977 14.4267 84.579 14.2027 84.8244 14.064C85.0697 13.9147 85.3417 13.84 85.6404 13.84C85.971 13.84 86.2377 13.92 86.4404 14.08C86.6537 14.24 86.787 14.4587 86.8404 14.736H87.0324C87.1817 14.448 87.3737 14.2293 87.6084 14.08C87.843 13.92 88.131 13.84 88.4724 13.84C88.9524 13.84 89.315 13.984 89.5604 14.272C89.8057 14.5493 89.9284 14.9173 89.9284 15.376C89.9284 15.472 89.923 15.5787 89.9124 15.696C89.9017 15.8027 89.8857 15.8987 89.8644 15.984L88.8404 20.752C88.819 20.8373 88.8297 20.9013 88.8724 20.944C88.915 20.9867 88.9684 21.008 89.0324 21.008C89.0964 21.008 89.155 20.9867 89.2084 20.944L89.8804 20.448L90.5524 21.392L89.8324 21.936C89.715 22.0213 89.5657 22.0907 89.3844 22.144C89.2137 22.1973 89.0377 22.224 88.8564 22.224C88.6964 22.224 88.5417 22.2027 88.3924 22.16C88.243 22.1173 88.1044 22.0533 87.9764 21.968C87.859 21.872 87.763 21.7547 87.6884 21.616C87.6137 21.4667 87.5764 21.2853 87.5764 21.072C87.5764 21.0187 87.5764 20.9653 87.5764 20.912C87.587 20.8587 87.5977 20.8053 87.6084 20.752L88.6004 16.048ZM98.3973 16.048C98.4079 15.9947 98.4133 15.9467 98.4133 15.904C98.4239 15.8613 98.4293 15.8133 98.4293 15.76C98.4293 15.5467 98.3706 15.3707 98.2533 15.232C98.1359 15.0933 97.9546 15.024 97.7093 15.024C97.3999 15.024 97.1546 15.1307 96.9733 15.344C96.8026 15.5573 96.6746 15.856 96.5893 16.24L95.3573 22H94.1093L95.3733 16.048C95.3946 15.9413 95.4053 15.8293 95.4053 15.712C95.4053 15.52 95.3519 15.36 95.2453 15.232C95.1493 15.0933 94.9679 15.024 94.7013 15.024C94.3599 15.024 94.1039 15.1467 93.9333 15.392C93.7626 15.6373 93.6399 15.92 93.5653 16.24L92.3333 22H91.1013L92.7812 14.064H94.0293L93.8853 14.736H94.0773C94.1946 14.4267 94.3759 14.2027 94.6213 14.064C94.8666 13.9147 95.1386 13.84 95.4373 13.84C95.7679 13.84 96.0346 13.92 96.2373 14.08C96.4506 14.24 96.5839 14.4587 96.6373 14.736H96.8293C96.9786 14.448 97.1706 14.2293 97.4053 14.08C97.6399 13.92 97.9279 13.84 98.2693 13.84C98.7493 13.84 99.1119 13.984 99.3573 14.272C99.6026 14.5493 99.7253 14.9173 99.7253 15.376C99.7253 15.472 99.7199 15.5787 99.7093 15.696C99.6986 15.8027 99.6826 15.8987 99.6613 15.984L98.6373 20.752C98.6159 20.8373 98.6266 20.9013 98.6693 20.944C98.7119 20.9867 98.7653 21.008 98.8293 21.008C98.8933 21.008 98.9519 20.9867 99.0052 20.944L99.6773 20.448L100.349 21.392L99.6293 21.936C99.5119 22.0213 99.3626 22.0907 99.1813 22.144C99.0106 22.1973 98.8346 22.224 98.6533 22.224C98.4933 22.224 98.3386 22.2027 98.1893 22.16C98.0399 22.1173 97.9013 22.0533 97.7733 21.968C97.6559 21.872 97.5599 21.7547 97.4853 21.616C97.4106 21.4667 97.3733 21.2853 97.3733 21.072C97.3733 21.0187 97.3733 20.9653 97.3733 20.912C97.3839 20.8587 97.3946 20.8053 97.4053 20.752L98.3973 16.048ZM106.354 11.696C106.354 11.3867 106.461 11.1253 106.674 10.912C106.898 10.688 107.165 10.576 107.474 10.576C107.783 10.576 108.045 10.688 108.258 10.912C108.482 11.1253 108.594 11.3867 108.594 11.696C108.594 12.0053 108.482 12.272 108.258 12.496C108.045 12.7093 107.783 12.816 107.474 12.816C107.165 12.816 106.898 12.7093 106.674 12.496C106.461 12.272 106.354 12.0053 106.354 11.696ZM105.634 23.952C105.559 24.3147 105.383 24.6133 105.106 24.848C104.829 25.0827 104.509 25.2 104.146 25.2H100.578V24.048H103.938C104.226 24.048 104.402 23.888 104.466 23.568L106.21 15.408C106.231 15.2907 106.215 15.2053 106.162 15.152C106.109 15.088 106.045 15.056 105.97 15.056C105.906 15.056 105.842 15.0773 105.778 15.12L103.906 16.4L103.266 15.456L105.154 14.176C105.485 13.952 105.821 13.84 106.162 13.84C106.514 13.84 106.818 13.9627 107.074 14.208C107.33 14.4427 107.458 14.7627 107.458 15.168C107.458 15.2853 107.442 15.424 107.41 15.584L105.634 23.952ZM115.751 14.96C115.538 14.96 115.314 14.9867 115.079 15.04C114.855 15.0933 114.647 15.1733 114.455 15.28C114.274 15.3867 114.124 15.5253 114.007 15.696C113.89 15.856 113.831 16.048 113.831 16.272C113.831 16.6133 113.98 16.8693 114.279 17.04C114.588 17.2107 115.116 17.3227 115.863 17.376C116.631 17.4293 117.223 17.6213 117.639 17.952C118.066 18.2827 118.279 18.768 118.279 19.408C118.279 19.856 118.183 20.256 117.991 20.608C117.81 20.96 117.554 21.2587 117.223 21.504C116.892 21.7387 116.498 21.9147 116.039 22.032C115.591 22.16 115.095 22.224 114.551 22.224C114.007 22.224 113.543 22.1493 113.159 22C112.786 21.8613 112.476 21.6747 112.231 21.44C111.986 21.1947 111.804 20.9227 111.687 20.624C111.58 20.3147 111.527 20 111.527 19.68C111.527 19.6267 111.527 19.5733 111.527 19.52C111.527 19.456 111.532 19.3973 111.543 19.344L112.791 19.184C112.78 19.2693 112.775 19.3227 112.775 19.344C112.775 19.3653 112.775 19.3973 112.775 19.44C112.775 19.6747 112.807 19.8933 112.871 20.096C112.946 20.288 113.063 20.4587 113.223 20.608C113.383 20.7467 113.591 20.8587 113.847 20.944C114.103 21.0293 114.418 21.072 114.791 21.072C115.036 21.072 115.287 21.0453 115.543 20.992C115.81 20.928 116.05 20.8373 116.263 20.72C116.476 20.592 116.652 20.4373 116.791 20.256C116.93 20.064 116.999 19.8347 116.999 19.568C116.999 19.152 116.828 18.8747 116.487 18.736C116.156 18.5867 115.66 18.4853 114.999 18.432C114.242 18.3787 113.644 18.1973 113.207 17.888C112.78 17.5787 112.567 17.0933 112.567 16.432C112.567 16.0587 112.647 15.712 112.807 15.392C112.967 15.072 113.191 14.8 113.479 14.576C113.778 14.3413 114.13 14.16 114.535 14.032C114.951 13.904 115.41 13.84 115.911 13.84C116.402 13.84 116.823 13.9093 117.175 14.048C117.538 14.176 117.831 14.3467 118.055 14.56C118.29 14.7733 118.46 15.0187 118.567 15.296C118.684 15.5627 118.743 15.84 118.743 16.128V16.304L117.511 16.48V16.416C117.511 16.3947 117.511 16.3787 117.511 16.368C117.522 16.3467 117.527 16.3253 117.527 16.304C117.527 15.8987 117.372 15.5733 117.063 15.328C116.764 15.0827 116.327 14.96 115.751 14.96ZM123.148 21.104C123.148 20.7947 123.255 20.5333 123.468 20.32C123.692 20.096 123.959 19.984 124.268 19.984C124.577 19.984 124.839 20.096 125.052 20.32C125.276 20.5333 125.388 20.7947 125.388 21.104C125.388 21.4133 125.276 21.68 125.052 21.904C124.839 22.1173 124.577 22.224 124.268 22.224C123.959 22.224 123.692 22.1173 123.468 21.904C123.255 21.68 123.148 21.4133 123.148 21.104ZM135.585 20.752C135.243 21.3173 134.838 21.7067 134.369 21.92C133.899 22.1227 133.403 22.224 132.881 22.224C132.454 22.224 132.065 22.1493 131.713 22C131.361 21.8507 131.062 21.6427 130.817 21.376C130.571 21.0987 130.379 20.768 130.241 20.384C130.102 19.9893 130.033 19.5573 130.033 19.088C130.033 18.4267 130.134 17.7813 130.337 17.152C130.539 16.5227 130.833 15.9627 131.217 15.472C131.601 14.9813 132.07 14.5867 132.625 14.288C133.19 13.9893 133.835 13.84 134.561 13.84C135.126 13.84 135.595 13.9573 135.969 14.192C136.353 14.4267 136.614 14.8 136.753 15.312H136.945L137.937 10.576H139.185L137.041 20.656C137.009 20.848 137.078 20.944 137.249 20.944C137.313 20.944 137.382 20.9173 137.457 20.864L138.033 20.448L138.721 21.392L138.001 21.936C137.883 22.0213 137.739 22.0907 137.569 22.144C137.409 22.1973 137.227 22.224 137.025 22.224C136.865 22.224 136.71 22.2027 136.561 22.16C136.411 22.1173 136.273 22.0533 136.145 21.968C136.027 21.872 135.931 21.7547 135.857 21.616C135.782 21.4667 135.745 21.2853 135.745 21.072C135.745 21.0187 135.745 20.9653 135.745 20.912C135.755 20.8587 135.766 20.8053 135.777 20.752H135.585ZM133.265 21.04C133.691 21.04 134.097 20.944 134.481 20.752C134.875 20.5493 135.217 20.2773 135.505 19.936C135.803 19.5947 136.038 19.1947 136.209 18.736C136.379 18.2667 136.465 17.76 136.465 17.216C136.465 16.5547 136.299 16.0267 135.969 15.632C135.638 15.2267 135.158 15.024 134.529 15.024C134.027 15.024 133.579 15.136 133.185 15.36C132.801 15.5733 132.47 15.8613 132.193 16.224C131.915 16.576 131.702 16.9867 131.553 17.456C131.414 17.9253 131.345 18.4107 131.345 18.912C131.345 20.3307 131.985 21.04 133.265 21.04ZM141.558 18.416C141.536 18.5013 141.52 18.5973 141.51 18.704C141.499 18.8107 141.494 18.9227 141.494 19.04C141.494 19.6267 141.664 20.112 142.006 20.496C142.347 20.8693 142.891 21.056 143.638 21.056C144.011 21.056 144.342 21.0133 144.63 20.928C144.928 20.8427 145.184 20.7253 145.398 20.576C145.611 20.416 145.792 20.24 145.942 20.048C146.102 19.8453 146.235 19.632 146.342 19.408L147.366 19.984C147.216 20.2933 147.03 20.5867 146.806 20.864C146.582 21.1307 146.315 21.3653 146.006 21.568C145.696 21.7707 145.339 21.9307 144.934 22.048C144.528 22.1653 144.064 22.224 143.542 22.224C143.062 22.224 142.619 22.1493 142.214 22C141.819 21.8613 141.478 21.6587 141.19 21.392C140.902 21.1147 140.678 20.7787 140.518 20.384C140.358 19.9893 140.278 19.5413 140.278 19.04C140.278 18.368 140.384 17.7227 140.598 17.104C140.811 16.4747 141.12 15.92 141.526 15.44C141.931 14.96 142.432 14.576 143.03 14.288C143.627 13.9893 144.304 13.84 145.062 13.84C145.595 13.84 146.059 13.9253 146.454 14.096C146.848 14.256 147.174 14.48 147.43 14.768C147.686 15.0453 147.878 15.3653 148.006 15.728C148.134 16.08 148.198 16.448 148.198 16.832C148.198 17.12 148.166 17.3973 148.102 17.664L147.926 18.416H141.558ZM144.902 15.024C144.528 15.024 144.176 15.0827 143.846 15.2C143.526 15.3067 143.232 15.4613 142.966 15.664C142.699 15.8667 142.47 16.1067 142.278 16.384C142.086 16.6507 141.936 16.944 141.83 17.264H146.918C146.95 17.0933 146.966 16.9333 146.966 16.784C146.966 16.208 146.768 15.7707 146.374 15.472C145.979 15.1733 145.488 15.024 144.902 15.024ZM153.611 21.424H153.803L157.515 14.064L158.683 14.656L154.843 22H152.411L151.803 15.312C151.781 15.1413 151.691 15.056 151.531 15.056C151.413 15.056 151.317 15.104 151.243 15.2L150.459 16.192L149.562 15.472L150.331 14.48C150.501 14.2667 150.699 14.1067 150.923 14C151.147 13.8933 151.376 13.84 151.611 13.84C151.963 13.84 152.277 13.952 152.555 14.176C152.843 14.4 153.008 14.736 153.051 15.184L153.611 21.424ZM164.927 23.248C164.927 23.6107 164.81 23.9093 164.575 24.144C164.351 24.3787 164.058 24.496 163.695 24.496H162.143V23.344H163.247C163.535 23.344 163.679 23.184 163.679 22.864V9.936C163.679 9.616 163.535 9.456 163.247 9.456H162.143V8.304H163.695C164.058 8.304 164.351 8.42133 164.575 8.656C164.81 8.89067 164.927 9.18933 164.927 9.552V23.248Z" fill="#CDD6F4"/>
<g clip-path="url(#clip0_920_60)">
<rect x="56" y="56" width="248" height="248" rx="44" fill="url(#paint0_linear_920_60)"/>
<g clip-path="url(#clip1_920_60)">
<rect x="72" y="72" width="216" height="216" rx="32" fill="#11111B"/>
<g filter="url(#filter0_d_920_60)">
<path d="M212.604 152.692C211.536 153.698 210.16 153.631 208.745 153.631M248.896 138.3C249.851 138.247 250.356 136.163 250.356 135.38M233.497 149.171C232.47 149.027 235.086 152.621 235.425 152.88C236.69 153.847 238.012 154.428 239.527 154.837C240.718 155.158 238.559 156.878 238.139 157.179C237.08 157.941 235.96 158.498 234.712 158.853M213.223 153.925C212.485 154.272 212.977 153.358 213.158 152.985C214.42 150.389 215.402 147.634 216.804 145.111C217.231 144.342 218.591 144.976 219.202 145.192C221.642 146.056 224.198 146.598 226.638 147.412M235.29 144.592C235.29 144.324 235.319 144.109 235.414 143.853C235.848 142.682 236.333 141.531 236.748 140.353C237.126 139.281 237.5 138.209 237.915 137.151C238.146 136.56 238.447 135.935 238.552 135.304C238.627 134.856 241.269 135.858 241.393 135.908C244.051 136.984 246.632 138.047 249.385 138.857M221 177.5C224.192 179 229 180.208 232.372 180.611M254.868 132.174C253 135.38 252 141.5 254.868 147.481M254.868 148C254.868 158 251.241 164.676 249.096 167.874C245.924 172.604 241.212 177.208 234.712 180.208M220.51 180.208C218.579 180.684 224 192.979 224.192 193.528M247.915 170.52C247.915 175.508 251.868 180.416 254.05 184.648M254.459 186.262C254.349 186.262 255.188 185.893 255.459 185.59C259.817 180.696 264.405 176.199 269.184 171.731M269.593 172.135C270.85 172.135 272 174.5 276 174.5C280 174.5 275 174.5 282.5 174.5M225.419 195.546C219.867 195.546 214.587 198.259 209.485 200.859M209.485 200.859C208.619 201.301 207.757 201.739 206.9 202.16C205.84 202.682 204.787 203.177 203.741 203.619M209.485 200.859C208.446 199.827 207.417 198.792 206.398 197.753C195.505 186.633 196.332 166.052 183.696 158.853C171.06 151.654 166.214 135.903 168.807 122.687C170.449 114.32 176.556 107.526 183.696 103.113C186.881 101.144 192.377 100.399 195.958 102.045C199.238 103.553 203.434 106.118 206.055 108.705M209.485 200.859C209.732 201.104 209.98 201.349 210.228 201.594M202.923 206.445C202.923 220.846 200.469 230 194 243M173.064 217.343C182.754 228.644 191.642 240.887 200.469 252.864M165.293 202.005C159.781 202.005 154.569 200.571 150.273 205.212C143.191 212.862 146.042 226.457 157.749 226.852C168.76 227.223 180.769 211.407 172.837 201.78C170.123 198.486 165.495 196.814 161.178 197.134M161.178 197.134C160.062 197.217 158.967 197.433 157.931 197.789C153.465 199.322 150.661 202.772 148.114 206.445M161.178 197.134C161.187 197.278 161.195 197.421 161.203 197.565M161.178 197.134C161.077 195.55 160.891 193.977 160.695 192.408M159.976 231.875C164.418 240.642 171.3 248.393 177.177 256.228C185.624 267.488 191.5 273.5 202.605 278.5M203.741 276.68C209.186 266.218 217.887 251.968 222.556 241.159M223.374 242.37C229.313 254.092 235.685 265.492 242.597 276.68M160.695 192.408C160.157 188.086 159.549 183.796 160.476 179.4C161.202 175.954 163.086 169.643 166.838 168.188C169.196 167.274 169.779 177.887 169.792 178.952C169.859 184.482 169.792 190.016 169.792 195.546M160.695 192.408C161.243 193.208 161.811 193.993 162.43 194.739M160.695 192.408C158.395 189.047 156.461 185.414 152.704 183.213C150.957 182.189 149.196 181.193 147.478 180.118C146.24 179.344 144.923 178.038 143.411 177.808C141.648 177.541 141.056 178.064 141.002 179.871C140.915 182.785 143.613 185.663 145.365 187.743C148.209 191.119 151.37 194.211 154.659 197.161M165.702 209.27C163.111 209.27 159.944 208.779 157.613 209.943C156.974 210.262 153.978 212.355 155.113 213.329C157.682 215.534 162.556 215.196 165.702 215.325M202.105 120.064C203.29 120.064 201.39 121.3 200.809 122.015C195.281 128.836 200.1 140.037 202.605 147.109C204.328 151.976 206.371 156.745 207.74 161.73C209.109 166.714 215.506 169.707 218 173.32C220.494 176.933 220.919 182.954 225.419 188M205.377 138.228C206.402 138.116 206.82 137.424 207.695 136.973C211.007 135.26 213.792 135.998 217.238 136.21M231.554 133.385C231.554 129.899 236.53 126.41 241.552 127.006M218.574 114.196C216.492 113.683 220.775 110.451 222.438 109.112C226.529 105.819 234.625 101.067 239.697 105.35C244.786 109.647 245.55 116.609 247.322 122.535C249.138 128.609 263.888 155 265.444 163.836M223.675 167.276C223.598 166.672 224.566 167.996 225.684 168.216C230.065 169.081 233.179 169.371 237.121 167.276M202.614 94.8868C204.803 92.4869 206.273 89.5687 208.723 87.2957C212.929 83.394 217.957 82.454 223.463 81.4248L223.622 81.395C233.221 79.6002 243.616 78.4858 251.724 84.8876C254.986 87.4624 257.559 90.7222 260.725 93.3877C262.557 94.9296 263.764 96.3595 265.444 98.491C272.71 107.707 272.22 115.587 274.93 127.006C278.158 140.604 277.877 159.569 279.5 162.5" stroke="#CDD6F4" stroke-opacity="0.5" stroke-width="3" stroke-linecap="round"/>
</g>
<g filter="url(#filter1_d_920_60)">
<path d="M107.983 194.059V166.926H114.868V194.059H107.983Z" fill="#89B5FA"/>
<path d="M122.496 194.059V166.926H129.271V169.88H130.254C130.728 168.968 131.511 168.184 132.604 167.527C133.696 166.834 135.135 166.488 136.92 166.488C138.85 166.488 140.398 166.871 141.564 167.637C142.73 168.366 143.622 169.333 144.241 170.536H145.225C145.844 169.369 146.718 168.403 147.847 167.637C148.976 166.871 150.579 166.488 152.655 166.488C154.331 166.488 155.842 166.853 157.19 167.582C158.574 168.275 159.667 169.351 160.468 170.81C161.306 172.232 161.725 174.037 161.725 176.225V194.059H154.841V176.718C154.841 175.222 154.458 174.11 153.693 173.381C152.928 172.615 151.854 172.232 150.47 172.232C148.903 172.232 147.683 172.743 146.809 173.764C145.971 174.748 145.552 176.171 145.552 178.031V194.059H138.668V176.718C138.668 175.222 138.286 174.11 137.521 173.381C136.756 172.615 135.682 172.232 134.297 172.232C132.731 172.232 131.511 172.743 130.637 173.764C129.799 174.748 129.38 176.171 129.38 178.031V194.059H122.496Z" fill="#89B5FA"/>
<path d="M169.129 194.059V166.926H175.904V169.88H176.887C177.361 168.968 178.144 168.184 179.236 167.527C180.329 166.834 181.768 166.488 183.553 166.488C185.483 166.488 187.031 166.871 188.197 167.637C189.362 168.366 190.255 169.333 190.874 170.536H191.857C192.476 169.369 193.351 168.403 194.48 167.637C195.609 166.871 197.212 166.488 199.288 166.488C200.963 166.488 202.475 166.853 203.823 167.582C205.207 168.275 206.299 169.351 207.101 170.81C207.938 172.232 208.357 174.037 208.357 176.225V194.059H201.473V176.718C201.473 175.222 201.091 174.11 200.326 173.381C199.561 172.615 198.486 172.232 197.102 172.232C195.536 172.232 194.316 172.743 193.442 173.764C192.604 174.748 192.185 176.171 192.185 178.031V194.059H185.301V176.718C185.301 175.222 184.919 174.11 184.154 173.381C183.389 172.615 182.314 172.232 180.93 172.232C179.364 172.232 178.144 172.743 177.269 173.764C176.432 174.748 176.013 176.171 176.013 178.031V194.059H169.129Z" fill="#89B5FA"/>
<path d="M210.735 205V199.092H214.341C215.361 199.092 215.871 198.545 215.871 197.451V166.926H222.755V198.873C222.755 200.733 222.208 202.21 221.116 203.304C220.023 204.435 218.566 205 216.745 205H210.735Z" fill="#F9E2AF"/>
<path d="M241.636 194.825C238.103 194.825 235.207 194.059 232.949 192.527C230.69 190.996 229.324 188.807 228.851 185.963L235.189 184.322C235.444 185.598 235.863 186.601 236.445 187.33C237.065 188.06 237.811 188.589 238.685 188.917C239.596 189.209 240.579 189.354 241.636 189.354C243.238 189.354 244.422 189.081 245.187 188.534C245.952 187.95 246.334 187.239 246.334 186.4C246.334 185.562 245.97 184.923 245.242 184.486C244.513 184.012 243.348 183.629 241.745 183.337L240.215 183.063C238.321 182.699 236.591 182.206 235.025 181.586C233.459 180.93 232.202 180.036 231.255 178.906C230.308 177.775 229.834 176.317 229.834 174.53C229.834 171.831 230.818 169.77 232.785 168.348C234.752 166.889 237.338 166.16 240.543 166.16C243.566 166.16 246.079 166.834 248.083 168.184C250.086 169.533 251.397 171.302 252.017 173.49L245.624 175.46C245.333 174.074 244.732 173.089 243.821 172.505C242.947 171.922 241.854 171.63 240.543 171.63C239.232 171.63 238.23 171.867 237.538 172.341C236.846 172.779 236.5 173.399 236.5 174.201C236.5 175.077 236.864 175.733 237.593 176.171C238.321 176.572 239.305 176.882 240.543 177.101L242.073 177.374C244.113 177.739 245.952 178.231 247.591 178.851C249.267 179.435 250.578 180.292 251.525 181.422C252.508 182.516 253 184.012 253 185.908C253 188.753 251.962 190.959 249.886 192.527C247.846 194.059 245.096 194.825 241.636 194.825Z" fill="#F9E2AF"/>
<path d="M111.426 163.753C110.187 163.753 109.131 163.352 108.257 162.549C107.419 161.747 107 160.689 107 159.376C107 158.063 107.419 157.006 108.257 156.204C109.131 155.401 110.187 155 111.426 155H219.313C220.588 155 221.644 155.401 222.482 156.204C223.319 157.006 223.738 158.063 223.738 159.376C223.738 160.689 223.319 161.747 222.482 162.549C221.644 163.352 220.588 163.753 219.313 163.753H111.426Z" fill="url(#paint1_linear_920_60)"/>
</g>
</g>
<g filter="url(#filter2_b_920_60)">
<path fill-rule="evenodd" clip-rule="evenodd" d="M100 48C71.2812 48 48 71.2812 48 100V260C48 288.719 71.2812 312 100 312H260C288.719 312 312 288.719 312 260V100C312 71.2812 288.719 48 260 48H100ZM100 64C80.1177 64 64 80.1177 64 100V260C64 279.882 80.1177 296 100 296H260C279.882 296 296 279.882 296 260V100C296 80.1177 279.882 64 260 64H100Z" fill="#11111B" fill-opacity="0.01"/>
</g>
</g>
<defs>
<filter id="filter0_d_920_60" x="131.5" y="70.4995" width="160.5" height="217.501" filterUnits="userSpaceOnUse" color-interpolation-filters="sRGB">
<feFlood flood-opacity="0" result="BackgroundImageFix"/>
<feColorMatrix in="SourceAlpha" type="matrix" values="0 0 0 0 0 0 0 0 0 0 0 0 0 0 0 0 0 0 127 0" result="hardAlpha"/>
<feOffset/>
<feGaussianBlur stdDeviation="4"/>
<feColorMatrix type="matrix" values="0 0 0 0 0.803922 0 0 0 0 0.839216 0 0 0 0 0.956863 0 0 0 0.5 0"/>
<feBlend mode="normal" in2="BackgroundImageFix" result="effect1_dropShadow_920_60"/>
<feBlend mode="normal" in="SourceGraphic" in2="effect1_dropShadow_920_60" result="shape"/>
</filter>
<filter id="filter1_d_920_60" x="99" y="147" width="162" height="66" filterUnits="userSpaceOnUse" color-interpolation-filters="sRGB">
<feFlood flood-opacity="0" result="BackgroundImageFix"/>
<feColorMatrix in="SourceAlpha" type="matrix" values="0 0 0 0 0 0 0 0 0 0 0 0 0 0 0 0 0 0 127 0" result="hardAlpha"/>
<feOffset/>
<feGaussianBlur stdDeviation="4"/>
<feComposite in2="hardAlpha" operator="out"/>
<feColorMatrix type="matrix" values="0 0 0 0 0.803922 0 0 0 0 0.839216 0 0 0 0 0.956863 0 0 0 0.25 0"/>
<feBlend mode="normal" in2="BackgroundImageFix" result="effect1_dropShadow_920_60"/>
<feBlend mode="normal" in="SourceGraphic" in2="effect1_dropShadow_920_60" result="shape"/>
</filter>
<filter id="filter2_b_920_60" x="40" y="40" width="280" height="280" filterUnits="userSpaceOnUse" color-interpolation-filters="sRGB">
<feFlood flood-opacity="0" result="BackgroundImageFix"/>
<feGaussianBlur in="BackgroundImageFix" stdDeviation="4"/>
<feComposite in2="SourceAlpha" operator="in" result="effect1_backgroundBlur_920_60"/>
<feBlend mode="normal" in="SourceGraphic" in2="effect1_backgroundBlur_920_60" result="shape"/>
</filter>
<linearGradient id="paint0_linear_920_60" x1="56" y1="180" x2="304" y2="180" gradientUnits="userSpaceOnUse">
<stop stop-color="#89B5FA"/>
<stop offset="0.13" stop-color="#B8B1F7"/>
<stop offset="0.25" stop-color="#DDADEB"/>
<stop offset="0.37" stop-color="#F8B0DC"/>
<stop offset="0.5" stop-color="#FFB3C9"/>
<stop offset="0.63" stop-color="#FFBAB8"/>
<stop offset="0.75" stop-color="#FFC7AD"/>
<stop offset="0.87" stop-color="#FFD6AD"/>
<stop offset="1" stop-color="#F9E1AE"/>
</linearGradient>
<linearGradient id="paint1_linear_920_60" x1="111.237" y1="159.333" x2="219.433" y2="159.333" gradientUnits="userSpaceOnUse">
<stop stop-color="#89B5FA"/>
<stop offset="0.13" stop-color="#B8B1F7"/>
<stop offset="0.25" stop-color="#DDADEB"/>
<stop offset="0.37" stop-color="#F8B0DC"/>
<stop offset="0.5" stop-color="#FFB3C9"/>
<stop offset="0.63" stop-color="#FFBAB8"/>
<stop offset="0.75" stop-color="#FFC7AD"/>
<stop offset="0.87" stop-color="#FFD6AD"/>
<stop offset="1" stop-color="#F9E1AE"/>
</linearGradient>
<clipPath id="clip0_920_60">
<rect width="264" height="264" fill="white" transform="translate(48 48)"/>
</clipPath>
<clipPath id="clip1_920_60">
<rect x="72" y="72" width="216" height="216" rx="32" fill="white"/>
</clipPath>
</defs>
</svg>
