<svg width="256" height="376" viewBox="0 0 256 376" fill="none" xmlns="http://www.w3.org/2000/svg">
<g clip-path="url(#clip0_633_75)">
<path d="M-5 51V25H-21V51H-5Z" fill="url(#paint0_linear_633_75)"/>
<path d="M11 51V25H-5V51H11Z" fill="url(#paint1_linear_633_75)"/>
<path d="M27 51V25H11V51H27Z" fill="url(#paint2_linear_633_75)"/>
<path d="M43 51V25H27V51H43Z" fill="url(#paint3_linear_633_75)"/>
<path d="M59 51V25H43V51H59Z" fill="url(#paint4_linear_633_75)"/>
<path d="M75 51V25H59V51H75Z" fill="url(#paint5_linear_633_75)"/>
<path d="M91 51V25H75V51H91Z" fill="url(#paint6_linear_633_75)"/>
<path d="M107 51V25H91V51H107Z" fill="url(#paint7_linear_633_75)"/>
<path d="M123 51V25H107V51H123Z" fill="url(#paint8_linear_633_75)"/>
<path d="M139 51V25H123V51H139Z" fill="url(#paint9_linear_633_75)"/>
<path d="M155 51V25H139V51H155Z" fill="url(#paint10_linear_633_75)"/>
<path d="M171 51V25H155V51H171Z" fill="url(#paint11_linear_633_75)"/>
<path d="M187 51V25H171V51H187Z" fill="url(#paint12_linear_633_75)"/>
<path d="M-5 25V51M-5 25H-21V51H-5M-5 25H11M-5 51H11M11 25V51M11 25H27M11 51H27M27 25V51M27 25H43M27 51H43M43 25V51M43 25H59M43 51H59M59 25V51M59 25H75M59 51H75M75 25V51M75 25H91M75 51H91M91 25V51M91 25H107M91 51H107M107 25V51M107 25H123M107 51H123M123 25V51M123 25H139M123 51H139M139 25V51M139 25H155M139 51H155M155 25V51M155 25H171M155 51H171M171 25V51M171 25H187V51H171" stroke="#1E1E2E" stroke-width="2" stroke-linecap="round"/>
<path d="M-5 99V73H-21V99H-5Z" fill="url(#paint13_linear_633_75)"/>
<path d="M11 99V73H-5V99H11Z" fill="url(#paint14_linear_633_75)"/>
<path d="M27 99V73H11V99H27Z" fill="url(#paint15_linear_633_75)"/>
<path d="M43 99V73H27V99H43Z" fill="url(#paint16_linear_633_75)"/>
<path d="M59 99V73H43V99H59Z" fill="url(#paint17_linear_633_75)"/>
<path d="M75 99V73H59V99H75Z" fill="url(#paint18_linear_633_75)"/>
<path d="M91 99V73H75V99H91Z" fill="url(#paint19_linear_633_75)"/>
<path d="M107 99V73H91V99H107Z" fill="url(#paint20_linear_633_75)"/>
<path d="M123 99V73H107V99H123Z" fill="url(#paint21_linear_633_75)"/>
<path d="M139 99V73H123V99H139Z" fill="url(#paint22_linear_633_75)"/>
<path d="M155 99V73H139V99H155Z" fill="url(#paint23_linear_633_75)"/>
<path d="M171 99V73H155V99H171Z" fill="url(#paint24_linear_633_75)"/>
<path d="M187 99V73H171V99H187Z" fill="url(#paint25_linear_633_75)"/>
<path d="M-5 73V99M-5 73H-21V99H-5M-5 73H11M-5 99H11M11 73V99M11 73H27M11 99H27M27 73V99M27 73H43M27 99H43M43 73V99M43 73H59M43 99H59M59 73V99M59 73H75M59 99H75M75 73V99M75 73H91M75 99H91M91 73V99M91 73H107M91 99H107M107 73V99M107 73H123M107 99H123M123 73V99M123 73H139M123 99H139M139 73V99M139 73H155M139 99H155M155 73V99M155 73H171M155 99H171M171 73V99M171 73H187V99H171" stroke="#1E1E2E" stroke-width="2" stroke-linecap="round"/>
<path d="M-5 147V121H-21V147H-5Z" fill="url(#paint26_linear_633_75)"/>
<path d="M11 147V121H-5V147H11Z" fill="url(#paint27_linear_633_75)"/>
<path d="M27 147V121H11V147H27Z" fill="url(#paint28_linear_633_75)"/>
<path d="M43 147V121H27V147H43Z" fill="url(#paint29_linear_633_75)"/>
<path d="M59 147V121H43V147H59Z" fill="url(#paint30_linear_633_75)"/>
<path d="M75 147V121H59V147H75Z" fill="url(#paint31_linear_633_75)"/>
<path d="M91 147V121H75V147H91Z" fill="url(#paint32_linear_633_75)"/>
<path d="M107 147V121H91V147H107Z" fill="url(#paint33_linear_633_75)"/>
<path d="M123 147V121H107V147H123Z" fill="url(#paint34_linear_633_75)"/>
<path d="M139 147V121H123V147H139Z" fill="url(#paint35_linear_633_75)"/>
<path d="M155 147V121H139V147H155Z" fill="url(#paint36_linear_633_75)"/>
<path d="M171 147V121H155V147H171Z" fill="url(#paint37_linear_633_75)"/>
<path d="M187 147V121H171V147H187Z" fill="url(#paint38_linear_633_75)"/>
<path d="M-5 121V147M-5 121H-21V147H-5M-5 121H11M-5 147H11M11 121V147M11 121H27M11 147H27M27 121V147M27 121H43M27 147H43M43 121V147M43 121H59M43 147H59M59 121V147M59 121H75M59 147H75M75 121V147M75 121H91M75 147H91M91 121V147M91 121H107M91 147H107M107 121V147M107 121H123M107 147H123M123 121V147M123 121H139M123 147H139M139 121V147M139 121H155M139 147H155M155 121V147M155 121H171M155 147H171M171 121V147M171 121H187V147H171" stroke="#1E1E2E" stroke-width="2" stroke-linecap="round"/>
<path d="M-5 195V169H-21V195H-5Z" fill="url(#paint39_linear_633_75)"/>
<path d="M11 195V169H-5V195H11Z" fill="url(#paint40_linear_633_75)"/>
<path d="M27 195V169H11V195H27Z" fill="url(#paint41_linear_633_75)"/>
<path d="M43 195V169H27V195H43Z" fill="url(#paint42_linear_633_75)"/>
<path d="M59 195V169H43V195H59Z" fill="url(#paint43_linear_633_75)"/>
<path d="M75 195V169H59V195H75Z" fill="url(#paint44_linear_633_75)"/>
<path d="M91 195V169H75V195H91Z" fill="url(#paint45_linear_633_75)"/>
<path d="M107 195V169H91V195H107Z" fill="url(#paint46_linear_633_75)"/>
<path d="M123 195V169H107V195H123Z" fill="url(#paint47_linear_633_75)"/>
<path d="M139 195V169H123V195H139Z" fill="url(#paint48_linear_633_75)"/>
<path d="M155 195V169H139V195H155Z" fill="url(#paint49_linear_633_75)"/>
<path d="M171 195V169H155V195H171Z" fill="url(#paint50_linear_633_75)"/>
<path d="M187 195V169H171V195H187Z" fill="url(#paint51_linear_633_75)"/>
<path d="M-5 169V195M-5 169H-21V195H-5M-5 169H11M-5 195H11M11 169V195M11 169H27M11 195H27M27 169V195M27 169H43M27 195H43M43 169V195M43 169H59M43 195H59M59 169V195M59 169H75M59 195H75M75 169V195M75 169H91M75 195H91M91 169V195M91 169H107M91 195H107M107 169V195M107 169H123M107 195H123M123 169V195M123 169H139M123 195H139M139 169V195M139 169H155M139 195H155M155 169V195M155 169H171M155 195H171M171 169V195M171 169H187V195H171" stroke="#1E1E2E" stroke-width="2" stroke-linecap="round"/>
<path d="M-5 243V217H-21V243H-5Z" fill="url(#paint52_linear_633_75)"/>
<path d="M11 243V217H-5V243H11Z" fill="url(#paint53_linear_633_75)"/>
<path d="M27 243V217H11V243H27Z" fill="url(#paint54_linear_633_75)"/>
<path d="M43 243V217H27V243H43Z" fill="url(#paint55_linear_633_75)"/>
<path d="M59 243V217H43V243H59Z" fill="url(#paint56_linear_633_75)"/>
<path d="M75 243V217H59V243H75Z" fill="url(#paint57_linear_633_75)"/>
<path d="M91 243V217H75V243H91Z" fill="url(#paint58_linear_633_75)"/>
<path d="M107 243V217H91V243H107Z" fill="url(#paint59_linear_633_75)"/>
<path d="M123 243V217H107V243H123Z" fill="url(#paint60_linear_633_75)"/>
<path d="M139 243V217H123V243H139Z" fill="url(#paint61_linear_633_75)"/>
<path d="M155 243V217H139V243H155Z" fill="url(#paint62_linear_633_75)"/>
<path d="M171 243V217H155V243H171Z" fill="url(#paint63_linear_633_75)"/>
<path d="M187 243V217H171V243H187Z" fill="url(#paint64_linear_633_75)"/>
<path d="M-5 217V243M-5 217H-21V243H-5M-5 217H11M-5 243H11M11 217V243M11 217H27M11 243H27M27 217V243M27 217H43M27 243H43M43 217V243M43 217H59M43 243H59M59 217V243M59 217H75M59 243H75M75 217V243M75 217H91M75 243H91M91 217V243M91 217H107M91 243H107M107 217V243M107 217H123M107 243H123M123 217V243M123 217H139M123 243H139M139 217V243M139 217H155M139 243H155M155 217V243M155 217H171M155 243H171M171 217V243M171 217H187V243H171" stroke="#1E1E2E" stroke-width="2" stroke-linecap="round"/>
<path d="M108.5 364.5H-8L-8 267H188V285L108.5 364.5Z" fill="#11111B" stroke="#11111B" stroke-width="2" stroke-linecap="round" stroke-linejoin="round"/>
<rect x="-13" y="285" width="43" height="91" fill="#313244"/>
<path d="M127 268.414V282.586L111 298.586V284.414L127 268.414ZM128.414 284H133.586L117.586 300H112.414L128.414 284Z" fill="#313244" stroke="#11111B" stroke-width="2" stroke-linecap="round"/>
<path d="M127 2H135V283H127V2Z" fill="#313244"/>
<path d="M135 283V284H136V283H135ZM127 283H126V284H127V283ZM134 2V283H136V2H134ZM135 282H127V284H135V282ZM128 283V2H126V283H128Z" fill="#6C7086"/>
<path d="M188 44L206 26H188V44Z" fill="#11111B"/>
<path d="M206 2H-18V11H206V2Z" fill="#313244"/>
<path fill-rule="evenodd" clip-rule="evenodd" d="M206 26V17H-18V26H188H206Z" fill="#313244"/>
<path d="M-18 11V17H206V11H-18Z" fill="#585B70"/>
<path d="M206 26V17M206 26L188 44V26M206 26H188M-18 17V11M-18 17V26H188M-18 17H206M-18 11V2H206V11M-18 11H206M206 17V11" stroke="#11111B" stroke-width="3" stroke-linejoin="round"/>
<path d="M206 26V17M206 26L188 44M206 26H188H135M-18 17V11M-18 17V26H127M-18 17H127M-18 11V2H127M-18 11H127M206 17V11M206 17H135M206 11V2H135M206 11H135M127 17V26M127 17H135M127 26H135M135 26V17M135 11V2M135 11H127M135 2H127M127 2V11" stroke="#6C7086"/>
<path d="M188 92L206 74H188V92Z" fill="#11111B"/>
<path d="M206 50H-18V59H206V50Z" fill="#313244"/>
<path fill-rule="evenodd" clip-rule="evenodd" d="M206 74V65H-18V74H188H206Z" fill="#313244"/>
<path d="M-18 59V65H206V59H-18Z" fill="#585B70"/>
<path d="M206 74V65M206 74L188 92V74M206 74H188M-18 65V59M-18 65V74H188M-18 65H206M-18 59V50H206V59M-18 59H206M206 65V59" stroke="#11111B" stroke-width="3" stroke-linejoin="round"/>
<path d="M206 74V65M206 74L188 92M206 74H188H135M-18 65V59M-18 65V74H127M-18 65H127M-18 59V50H127M-18 59H127M206 65V59M206 65H135M206 59V50H135M206 59H135M127 65V74M127 65H135M127 74H135M135 74V65M135 59V50M135 59H127M135 50H127M127 50V59" stroke="#6C7086"/>
<path d="M188 140L206 122H188V140Z" fill="#11111B"/>
<path d="M206 98H-18V107H206V98Z" fill="#313244"/>
<path fill-rule="evenodd" clip-rule="evenodd" d="M206 122V113H-18V122H188H206Z" fill="#313244"/>
<path d="M-18 107V113H206V107H-18Z" fill="#585B70"/>
<path d="M206 122V113M206 122L188 140V122M206 122H188M-18 113V107M-18 113V122H188M-18 113H206M-18 107V98H206V107M-18 107H206M206 113V107" stroke="#11111B" stroke-width="3" stroke-linejoin="round"/>
<path d="M206 122V113M206 122L188 140M206 122H188H135M-18 113V107M-18 113V122H127M-18 113H127M-18 107V98H127M-18 107H127M206 113V107M206 113H135M206 107V98H135M206 107H135M127 113V122M127 113H135M127 122H135M135 122V113M135 107V98M135 107H127M135 98H127M127 98V107" stroke="#6C7086"/>
<path d="M188 188L206 170H188V188Z" fill="#11111B"/>
<path d="M206 146H-18V155H206V146Z" fill="#313244"/>
<path fill-rule="evenodd" clip-rule="evenodd" d="M206 170V161H-18V170H188H206Z" fill="#313244"/>
<path d="M-18 155V161H206V155H-18Z" fill="#585B70"/>
<path d="M206 170V161M206 170L188 188V170M206 170H188M-18 161V155M-18 161V170H188M-18 161H206M-18 155V146H206V155M-18 155H206M206 161V155" stroke="#11111B" stroke-width="3" stroke-linejoin="round"/>
<path d="M206 170V161M206 170L188 188M206 170H188H135M-18 161V155M-18 161V170H127M-18 161H127M-18 155V146H127M-18 155H127M206 161V155M206 161H135M206 155V146H135M206 155H135M127 161V170M127 161H135M127 170H135M135 170V161M135 155V146M135 155H127M135 146H127M127 146V155" stroke="#6C7086"/>
<path d="M188 236L206 218H188V236Z" fill="#11111B"/>
<path d="M206 194H-18V203H206V194Z" fill="#313244"/>
<path fill-rule="evenodd" clip-rule="evenodd" d="M206 218V209H-18V218H188H206Z" fill="#313244"/>
<path d="M-18 203V209H206V203H-18Z" fill="#585B70"/>
<path d="M206 218V209M206 218L188 236V218M206 218H188M-18 209V203M-18 209V218H188M-18 209H206M-18 203V194H206V203M-18 203H206M206 209V203" stroke="#11111B" stroke-width="3" stroke-linejoin="round"/>
<path d="M206 218V209M206 218L188 236M206 218H188H135M-18 209V203M-18 209V218H127M-18 209H127M-18 203V194H127M-18 203H127M206 209V203M206 209H135M206 203V194H135M206 203H135M127 209V218M127 209H135M127 218H135M135 218V209M135 203V194M135 203H127M135 194H127M127 194V203" stroke="#6C7086"/>
<path d="M188 285L206 267H188V285Z" fill="#11111B"/>
<path d="M206 243H-18V252H206V243Z" fill="#313244"/>
<path fill-rule="evenodd" clip-rule="evenodd" d="M206 267V258H-18V267H188H206Z" fill="#313244"/>
<path d="M-18 252V258H206V252H-18Z" fill="#585B70"/>
<path d="M206 267V258M206 267L188 285V267M206 267H188M-18 258V252M-18 258V267H188M-18 258H206M-18 252V243H206V252M-18 252H206M206 258V252" stroke="#11111B" stroke-width="3" stroke-linejoin="round"/>
<path d="M206 267V258M206 267L188 285M206 267H188H135M-18 258V252M-18 258V267H127M-18 258H127M-18 252V243H127M-18 252H127M206 258V252M206 258H135M206 252V243H135M206 252H135M127 258V267M127 258H135M127 267H135M135 267V258M135 252V243M135 252H127M135 243H127M127 243V252" stroke="#6C7086"/>
<path d="M24 276H120V338H24V276Z" fill="url(#paint65_linear_633_75)"/>
<path d="M24 276H56V338H24V276Z" fill="url(#paint66_linear_633_75)"/>
<path d="M88 276H120V338H88V276Z" fill="url(#paint67_linear_633_75)"/>
<path d="M24 276H120M24 276V338M24 276H56V338H24M120 276V338M120 276H88V338H120M120 338H24" stroke="#11111B" stroke-width="2"/>
<path d="M24 276V338L15 347V285L24 276Z" fill="url(#paint68_linear_633_75)" stroke="#11111B" stroke-width="2"/>
<path d="M24 352V384L15 393V361L24 352Z" fill="url(#paint69_linear_633_75)" stroke="#11111B" stroke-width="2"/>
<path d="M24 352H120V384H24V352Z" fill="url(#paint70_linear_633_75)"/>
<path d="M24 352H56V384H24V352Z" fill="url(#paint71_linear_633_75)"/>
<path d="M88 352H120V384H88V352Z" fill="url(#paint72_linear_633_75)"/>
<path d="M24 352H120M24 352V384M24 352H56V384H24M120 352V384M120 352H88V384H120M120 384H24" stroke="#11111B" stroke-width="2"/>
<rect x="24" y="339" width="97" height="12" fill="#313244"/>
<path d="M24 339L16 347V359L24 351V339Z" fill="#313244"/>
<path d="M122 341H116M122 349H116M28 341H23L21 343M28 341V349M28 341H52M28 349H23L21 351M28 349H52M52 341V349M52 341H60M52 349H60M60 341V349M60 341H84M60 349H84M84 341V349M84 341H92M84 349H92M92 349V341M92 349H116M92 341H116M116 341V349M14.5 357.5L16.5 355.5M21 351V343M21 351L16.5 355.5M21 343L16.5 347.5M14.5 349.5L16.5 347.5M16.5 347.5V355.5" stroke="#6C7086" stroke-width="2"/>
</g>
<defs>
<linearGradient id="paint0_linear_633_75" x1="83" y1="25" x2="83" y2="51" gradientUnits="userSpaceOnUse">
<stop stop-color="#89DCEB"/>
<stop offset="1" stop-color="#89B4FA"/>
</linearGradient>
<linearGradient id="paint1_linear_633_75" x1="83" y1="25" x2="83" y2="51" gradientUnits="userSpaceOnUse">
<stop stop-color="#89DCEB"/>
<stop offset="1" stop-color="#89B4FA"/>
</linearGradient>
<linearGradient id="paint2_linear_633_75" x1="83" y1="25" x2="83" y2="51" gradientUnits="userSpaceOnUse">
<stop stop-color="#89DCEB"/>
<stop offset="1" stop-color="#89B4FA"/>
</linearGradient>
<linearGradient id="paint3_linear_633_75" x1="83" y1="25" x2="83" y2="51" gradientUnits="userSpaceOnUse">
<stop stop-color="#89DCEB"/>
<stop offset="1" stop-color="#89B4FA"/>
</linearGradient>
<linearGradient id="paint4_linear_633_75" x1="83" y1="25" x2="83" y2="51" gradientUnits="userSpaceOnUse">
<stop stop-color="#89DCEB"/>
<stop offset="1" stop-color="#89B4FA"/>
</linearGradient>
<linearGradient id="paint5_linear_633_75" x1="83" y1="25" x2="83" y2="51" gradientUnits="userSpaceOnUse">
<stop stop-color="#89DCEB"/>
<stop offset="1" stop-color="#89B4FA"/>
</linearGradient>
<linearGradient id="paint6_linear_633_75" x1="83" y1="25" x2="83" y2="51" gradientUnits="userSpaceOnUse">
<stop stop-color="#89DCEB"/>
<stop offset="1" stop-color="#89B4FA"/>
</linearGradient>
<linearGradient id="paint7_linear_633_75" x1="83" y1="25" x2="83" y2="51" gradientUnits="userSpaceOnUse">
<stop stop-color="#89DCEB"/>
<stop offset="1" stop-color="#89B4FA"/>
</linearGradient>
<linearGradient id="paint8_linear_633_75" x1="83" y1="25" x2="83" y2="51" gradientUnits="userSpaceOnUse">
<stop stop-color="#89DCEB"/>
<stop offset="1" stop-color="#89B4FA"/>
</linearGradient>
<linearGradient id="paint9_linear_633_75" x1="83" y1="25" x2="83" y2="51" gradientUnits="userSpaceOnUse">
<stop stop-color="#89DCEB"/>
<stop offset="1" stop-color="#89B4FA"/>
</linearGradient>
<linearGradient id="paint10_linear_633_75" x1="83" y1="25" x2="83" y2="51" gradientUnits="userSpaceOnUse">
<stop stop-color="#89DCEB"/>
<stop offset="1" stop-color="#89B4FA"/>
</linearGradient>
<linearGradient id="paint11_linear_633_75" x1="83" y1="25" x2="83" y2="51" gradientUnits="userSpaceOnUse">
<stop stop-color="#89DCEB"/>
<stop offset="1" stop-color="#89B4FA"/>
</linearGradient>
<linearGradient id="paint12_linear_633_75" x1="83" y1="25" x2="83" y2="51" gradientUnits="userSpaceOnUse">
<stop stop-color="#89DCEB"/>
<stop offset="1" stop-color="#89B4FA"/>
</linearGradient>
<linearGradient id="paint13_linear_633_75" x1="83" y1="73" x2="83" y2="99" gradientUnits="userSpaceOnUse">
<stop stop-color="#89DCEB"/>
<stop offset="1" stop-color="#89B4FA"/>
</linearGradient>
<linearGradient id="paint14_linear_633_75" x1="83" y1="73" x2="83" y2="99" gradientUnits="userSpaceOnUse">
<stop stop-color="#89DCEB"/>
<stop offset="1" stop-color="#89B4FA"/>
</linearGradient>
<linearGradient id="paint15_linear_633_75" x1="83" y1="73" x2="83" y2="99" gradientUnits="userSpaceOnUse">
<stop stop-color="#89DCEB"/>
<stop offset="1" stop-color="#89B4FA"/>
</linearGradient>
<linearGradient id="paint16_linear_633_75" x1="83" y1="73" x2="83" y2="99" gradientUnits="userSpaceOnUse">
<stop stop-color="#89DCEB"/>
<stop offset="1" stop-color="#89B4FA"/>
</linearGradient>
<linearGradient id="paint17_linear_633_75" x1="83" y1="73" x2="83" y2="99" gradientUnits="userSpaceOnUse">
<stop stop-color="#89DCEB"/>
<stop offset="1" stop-color="#89B4FA"/>
</linearGradient>
<linearGradient id="paint18_linear_633_75" x1="83" y1="73" x2="83" y2="99" gradientUnits="userSpaceOnUse">
<stop stop-color="#89DCEB"/>
<stop offset="1" stop-color="#89B4FA"/>
</linearGradient>
<linearGradient id="paint19_linear_633_75" x1="83" y1="73" x2="83" y2="99" gradientUnits="userSpaceOnUse">
<stop stop-color="#89DCEB"/>
<stop offset="1" stop-color="#89B4FA"/>
</linearGradient>
<linearGradient id="paint20_linear_633_75" x1="83" y1="73" x2="83" y2="99" gradientUnits="userSpaceOnUse">
<stop stop-color="#89DCEB"/>
<stop offset="1" stop-color="#89B4FA"/>
</linearGradient>
<linearGradient id="paint21_linear_633_75" x1="83" y1="73" x2="83" y2="99" gradientUnits="userSpaceOnUse">
<stop stop-color="#89DCEB"/>
<stop offset="1" stop-color="#89B4FA"/>
</linearGradient>
<linearGradient id="paint22_linear_633_75" x1="83" y1="73" x2="83" y2="99" gradientUnits="userSpaceOnUse">
<stop stop-color="#89DCEB"/>
<stop offset="1" stop-color="#89B4FA"/>
</linearGradient>
<linearGradient id="paint23_linear_633_75" x1="83" y1="73" x2="83" y2="99" gradientUnits="userSpaceOnUse">
<stop stop-color="#89DCEB"/>
<stop offset="1" stop-color="#89B4FA"/>
</linearGradient>
<linearGradient id="paint24_linear_633_75" x1="83" y1="73" x2="83" y2="99" gradientUnits="userSpaceOnUse">
<stop stop-color="#89DCEB"/>
<stop offset="1" stop-color="#89B4FA"/>
</linearGradient>
<linearGradient id="paint25_linear_633_75" x1="83" y1="73" x2="83" y2="99" gradientUnits="userSpaceOnUse">
<stop stop-color="#89DCEB"/>
<stop offset="1" stop-color="#89B4FA"/>
</linearGradient>
<linearGradient id="paint26_linear_633_75" x1="83" y1="121" x2="83" y2="147" gradientUnits="userSpaceOnUse">
<stop stop-color="#89DCEB"/>
<stop offset="1" stop-color="#89B4FA"/>
</linearGradient>
<linearGradient id="paint27_linear_633_75" x1="83" y1="121" x2="83" y2="147" gradientUnits="userSpaceOnUse">
<stop stop-color="#89DCEB"/>
<stop offset="1" stop-color="#89B4FA"/>
</linearGradient>
<linearGradient id="paint28_linear_633_75" x1="83" y1="121" x2="83" y2="147" gradientUnits="userSpaceOnUse">
<stop stop-color="#89DCEB"/>
<stop offset="1" stop-color="#89B4FA"/>
</linearGradient>
<linearGradient id="paint29_linear_633_75" x1="83" y1="121" x2="83" y2="147" gradientUnits="userSpaceOnUse">
<stop stop-color="#89DCEB"/>
<stop offset="1" stop-color="#89B4FA"/>
</linearGradient>
<linearGradient id="paint30_linear_633_75" x1="83" y1="121" x2="83" y2="147" gradientUnits="userSpaceOnUse">
<stop stop-color="#89DCEB"/>
<stop offset="1" stop-color="#89B4FA"/>
</linearGradient>
<linearGradient id="paint31_linear_633_75" x1="83" y1="121" x2="83" y2="147" gradientUnits="userSpaceOnUse">
<stop stop-color="#89DCEB"/>
<stop offset="1" stop-color="#89B4FA"/>
</linearGradient>
<linearGradient id="paint32_linear_633_75" x1="83" y1="121" x2="83" y2="147" gradientUnits="userSpaceOnUse">
<stop stop-color="#89DCEB"/>
<stop offset="1" stop-color="#89B4FA"/>
</linearGradient>
<linearGradient id="paint33_linear_633_75" x1="83" y1="121" x2="83" y2="147" gradientUnits="userSpaceOnUse">
<stop stop-color="#89DCEB"/>
<stop offset="1" stop-color="#89B4FA"/>
</linearGradient>
<linearGradient id="paint34_linear_633_75" x1="83" y1="121" x2="83" y2="147" gradientUnits="userSpaceOnUse">
<stop stop-color="#89DCEB"/>
<stop offset="1" stop-color="#89B4FA"/>
</linearGradient>
<linearGradient id="paint35_linear_633_75" x1="83" y1="121" x2="83" y2="147" gradientUnits="userSpaceOnUse">
<stop stop-color="#89DCEB"/>
<stop offset="1" stop-color="#89B4FA"/>
</linearGradient>
<linearGradient id="paint36_linear_633_75" x1="83" y1="121" x2="83" y2="147" gradientUnits="userSpaceOnUse">
<stop stop-color="#89DCEB"/>
<stop offset="1" stop-color="#89B4FA"/>
</linearGradient>
<linearGradient id="paint37_linear_633_75" x1="83" y1="121" x2="83" y2="147" gradientUnits="userSpaceOnUse">
<stop stop-color="#89DCEB"/>
<stop offset="1" stop-color="#89B4FA"/>
</linearGradient>
<linearGradient id="paint38_linear_633_75" x1="83" y1="121" x2="83" y2="147" gradientUnits="userSpaceOnUse">
<stop stop-color="#89DCEB"/>
<stop offset="1" stop-color="#89B4FA"/>
</linearGradient>
<linearGradient id="paint39_linear_633_75" x1="83" y1="169" x2="83" y2="195" gradientUnits="userSpaceOnUse">
<stop stop-color="#89DCEB"/>
<stop offset="1" stop-color="#89B4FA"/>
</linearGradient>
<linearGradient id="paint40_linear_633_75" x1="83" y1="169" x2="83" y2="195" gradientUnits="userSpaceOnUse">
<stop stop-color="#89DCEB"/>
<stop offset="1" stop-color="#89B4FA"/>
</linearGradient>
<linearGradient id="paint41_linear_633_75" x1="83" y1="169" x2="83" y2="195" gradientUnits="userSpaceOnUse">
<stop stop-color="#89DCEB"/>
<stop offset="1" stop-color="#89B4FA"/>
</linearGradient>
<linearGradient id="paint42_linear_633_75" x1="83" y1="169" x2="83" y2="195" gradientUnits="userSpaceOnUse">
<stop stop-color="#89DCEB"/>
<stop offset="1" stop-color="#89B4FA"/>
</linearGradient>
<linearGradient id="paint43_linear_633_75" x1="83" y1="169" x2="83" y2="195" gradientUnits="userSpaceOnUse">
<stop stop-color="#89DCEB"/>
<stop offset="1" stop-color="#89B4FA"/>
</linearGradient>
<linearGradient id="paint44_linear_633_75" x1="83" y1="169" x2="83" y2="195" gradientUnits="userSpaceOnUse">
<stop stop-color="#89DCEB"/>
<stop offset="1" stop-color="#89B4FA"/>
</linearGradient>
<linearGradient id="paint45_linear_633_75" x1="83" y1="169" x2="83" y2="195" gradientUnits="userSpaceOnUse">
<stop stop-color="#89DCEB"/>
<stop offset="1" stop-color="#89B4FA"/>
</linearGradient>
<linearGradient id="paint46_linear_633_75" x1="83" y1="169" x2="83" y2="195" gradientUnits="userSpaceOnUse">
<stop stop-color="#89DCEB"/>
<stop offset="1" stop-color="#89B4FA"/>
</linearGradient>
<linearGradient id="paint47_linear_633_75" x1="83" y1="169" x2="83" y2="195" gradientUnits="userSpaceOnUse">
<stop stop-color="#89DCEB"/>
<stop offset="1" stop-color="#89B4FA"/>
</linearGradient>
<linearGradient id="paint48_linear_633_75" x1="83" y1="169" x2="83" y2="195" gradientUnits="userSpaceOnUse">
<stop stop-color="#89DCEB"/>
<stop offset="1" stop-color="#89B4FA"/>
</linearGradient>
<linearGradient id="paint49_linear_633_75" x1="83" y1="169" x2="83" y2="195" gradientUnits="userSpaceOnUse">
<stop stop-color="#89DCEB"/>
<stop offset="1" stop-color="#89B4FA"/>
</linearGradient>
<linearGradient id="paint50_linear_633_75" x1="83" y1="169" x2="83" y2="195" gradientUnits="userSpaceOnUse">
<stop stop-color="#89DCEB"/>
<stop offset="1" stop-color="#89B4FA"/>
</linearGradient>
<linearGradient id="paint51_linear_633_75" x1="83" y1="169" x2="83" y2="195" gradientUnits="userSpaceOnUse">
<stop stop-color="#89DCEB"/>
<stop offset="1" stop-color="#89B4FA"/>
</linearGradient>
<linearGradient id="paint52_linear_633_75" x1="83" y1="217" x2="83" y2="243" gradientUnits="userSpaceOnUse">
<stop stop-color="#89DCEB"/>
<stop offset="1" stop-color="#89B4FA"/>
</linearGradient>
<linearGradient id="paint53_linear_633_75" x1="83" y1="217" x2="83" y2="243" gradientUnits="userSpaceOnUse">
<stop stop-color="#89DCEB"/>
<stop offset="1" stop-color="#89B4FA"/>
</linearGradient>
<linearGradient id="paint54_linear_633_75" x1="83" y1="217" x2="83" y2="243" gradientUnits="userSpaceOnUse">
<stop stop-color="#89DCEB"/>
<stop offset="1" stop-color="#89B4FA"/>
</linearGradient>
<linearGradient id="paint55_linear_633_75" x1="83" y1="217" x2="83" y2="243" gradientUnits="userSpaceOnUse">
<stop stop-color="#89DCEB"/>
<stop offset="1" stop-color="#89B4FA"/>
</linearGradient>
<linearGradient id="paint56_linear_633_75" x1="83" y1="217" x2="83" y2="243" gradientUnits="userSpaceOnUse">
<stop stop-color="#89DCEB"/>
<stop offset="1" stop-color="#89B4FA"/>
</linearGradient>
<linearGradient id="paint57_linear_633_75" x1="83" y1="217" x2="83" y2="243" gradientUnits="userSpaceOnUse">
<stop stop-color="#89DCEB"/>
<stop offset="1" stop-color="#89B4FA"/>
</linearGradient>
<linearGradient id="paint58_linear_633_75" x1="83" y1="217" x2="83" y2="243" gradientUnits="userSpaceOnUse">
<stop stop-color="#89DCEB"/>
<stop offset="1" stop-color="#89B4FA"/>
</linearGradient>
<linearGradient id="paint59_linear_633_75" x1="83" y1="217" x2="83" y2="243" gradientUnits="userSpaceOnUse">
<stop stop-color="#89DCEB"/>
<stop offset="1" stop-color="#89B4FA"/>
</linearGradient>
<linearGradient id="paint60_linear_633_75" x1="83" y1="217" x2="83" y2="243" gradientUnits="userSpaceOnUse">
<stop stop-color="#89DCEB"/>
<stop offset="1" stop-color="#89B4FA"/>
</linearGradient>
<linearGradient id="paint61_linear_633_75" x1="83" y1="217" x2="83" y2="243" gradientUnits="userSpaceOnUse">
<stop stop-color="#89DCEB"/>
<stop offset="1" stop-color="#89B4FA"/>
</linearGradient>
<linearGradient id="paint62_linear_633_75" x1="83" y1="217" x2="83" y2="243" gradientUnits="userSpaceOnUse">
<stop stop-color="#89DCEB"/>
<stop offset="1" stop-color="#89B4FA"/>
</linearGradient>
<linearGradient id="paint63_linear_633_75" x1="83" y1="217" x2="83" y2="243" gradientUnits="userSpaceOnUse">
<stop stop-color="#89DCEB"/>
<stop offset="1" stop-color="#89B4FA"/>
</linearGradient>
<linearGradient id="paint64_linear_633_75" x1="83" y1="217" x2="83" y2="243" gradientUnits="userSpaceOnUse">
<stop stop-color="#89DCEB"/>
<stop offset="1" stop-color="#89B4FA"/>
</linearGradient>
<linearGradient id="paint65_linear_633_75" x1="72" y1="276" x2="72" y2="338" gradientUnits="userSpaceOnUse">
<stop stop-color="#89DCEB"/>
<stop offset="1" stop-color="#89B4FA"/>
</linearGradient>
<linearGradient id="paint66_linear_633_75" x1="72" y1="276" x2="72" y2="338" gradientUnits="userSpaceOnUse">
<stop stop-color="#89DCEB"/>
<stop offset="1" stop-color="#89B4FA"/>
</linearGradient>
<linearGradient id="paint67_linear_633_75" x1="72" y1="276" x2="72" y2="338" gradientUnits="userSpaceOnUse">
<stop stop-color="#89DCEB"/>
<stop offset="1" stop-color="#89B4FA"/>
</linearGradient>
<linearGradient id="paint68_linear_633_75" x1="72" y1="276" x2="72" y2="338" gradientUnits="userSpaceOnUse">
<stop stop-color="#89DCEB"/>
<stop offset="1" stop-color="#89B4FA"/>
</linearGradient>
<linearGradient id="paint69_linear_633_75" x1="72" y1="352" x2="72" y2="414" gradientUnits="userSpaceOnUse">
<stop stop-color="#89DCEB"/>
<stop offset="1" stop-color="#89B4FA"/>
</linearGradient>
<linearGradient id="paint70_linear_633_75" x1="72" y1="352" x2="72" y2="384" gradientUnits="userSpaceOnUse">
<stop stop-color="#89DCEB"/>
<stop offset="1" stop-color="#89B4FA"/>
</linearGradient>
<linearGradient id="paint71_linear_633_75" x1="72" y1="352" x2="72" y2="384" gradientUnits="userSpaceOnUse">
<stop stop-color="#89DCEB"/>
<stop offset="1" stop-color="#89B4FA"/>
</linearGradient>
<linearGradient id="paint72_linear_633_75" x1="72" y1="352" x2="72" y2="384" gradientUnits="userSpaceOnUse">
<stop stop-color="#89DCEB"/>
<stop offset="1" stop-color="#89B4FA"/>
</linearGradient>
<clipPath id="clip0_633_75">
<rect width="256" height="376" fill="white"/>
</clipPath>
</defs>
</svg>
