<svg width="184" height="238" viewBox="0 0 184 238" fill="none" xmlns="http://www.w3.org/2000/svg">
<path fill-rule="evenodd" clip-rule="evenodd" d="M16 12C11.5817 12 8 15.5817 8 20V218C8 222.418 11.5817 226 16 226H168C172.418 226 176 222.418 176 218V20C176 15.5817 172.418 12 168 12H121V28C121 32.4183 117.418 36 113 36H71C66.5817 36 63 32.4183 63 28V12H16Z" fill="#6C7086"/>
<rect x="8" y="60" width="168" height="166" rx="8" fill="#585B70"/>
<rect x="8" y="82" width="168" height="140" rx="8" fill="#45475A"/>
<mask id="path-4-inside-1_230_618" fill="white">
<path d="M25 177H153V184.167H25V177Z"/>
</mask>
<path d="M153 187.167H156V181.167H153V187.167ZM25 181.167H22V187.167H25V181.167ZM27.1333 187.167H30.1333V181.167H27.1333V187.167ZM44.2 181.167H41.2V187.167H44.2V181.167ZM48.4667 187.167H51.4667V181.167H48.4667V187.167ZM65.5333 181.167H62.5333V187.167H65.5333V181.167ZM69.8 187.167H72.8V181.167H69.8V187.167ZM86.8667 181.167H83.8667V187.167H86.8667V181.167ZM91.1333 187.167H94.1333V181.167H91.1333V187.167ZM108.2 181.167H105.2V187.167H108.2V181.167ZM112.467 187.167H115.467V181.167H112.467V187.167ZM129.533 181.167H126.533V187.167H129.533V181.167ZM133.8 187.167H136.8V181.167H133.8V187.167ZM150.867 181.167H147.867V187.167H150.867V181.167ZM25 187.167H27.1333V181.167H25V187.167ZM44.2 187.167H48.4667V181.167H44.2V187.167ZM65.5333 187.167H69.8V181.167H65.5333V187.167ZM86.8667 187.167H91.1333V181.167H86.8667V187.167ZM108.2 187.167H112.467V181.167H108.2V187.167ZM129.533 187.167H133.8V181.167H129.533V187.167ZM150.867 187.167H153V181.167H150.867V187.167ZM153 190.167H159V178.167H153V190.167ZM25 178.167H19V190.167H25V178.167ZM27.1333 190.167H33.1333V178.167H27.1333V190.167ZM44.2 178.167H38.2V190.167H44.2V178.167ZM48.4667 190.167H54.4667V178.167H48.4667V190.167ZM65.5333 178.167H59.5333V190.167H65.5333V178.167ZM69.8 190.167H75.8V178.167H69.8V190.167ZM86.8667 178.167H80.8667V190.167H86.8667V178.167ZM91.1333 190.167H97.1333V178.167H91.1333V190.167ZM108.2 178.167H102.2V190.167H108.2V178.167ZM112.467 190.167H118.467V178.167H112.467V190.167ZM129.533 178.167H123.533V190.167H129.533V178.167ZM133.8 190.167H139.8V178.167H133.8V190.167ZM150.867 178.167H144.867V190.167H150.867V178.167ZM25 190.167H27.1333V178.167H25V190.167ZM44.2 190.167H48.4667V178.167H44.2V190.167ZM65.5333 190.167H69.8V178.167H65.5333V190.167ZM86.8667 190.167H91.1333V178.167H86.8667V190.167ZM108.2 190.167H112.467V178.167H108.2V190.167ZM129.533 190.167H133.8V178.167H129.533V190.167ZM150.867 190.167H153V178.167H150.867V190.167Z" fill="#9399B2" mask="url(#path-4-inside-1_230_618)"/>
<mask id="path-6-inside-2_230_618" fill="white">
<path d="M25 177H153V182.375H25V177Z"/>
</mask>
<path d="M153 185.375H156V179.375H153V185.375ZM25 179.375H22V185.375H25V179.375ZM27.1333 185.375H30.1333V179.375H27.1333V185.375ZM44.2 179.375H41.2V185.375H44.2V179.375ZM48.4667 185.375H51.4667V179.375H48.4667V185.375ZM65.5333 179.375H62.5333V185.375H65.5333V179.375ZM69.8 185.375H72.8V179.375H69.8V185.375ZM86.8667 179.375H83.8667V185.375H86.8667V179.375ZM91.1333 185.375H94.1333V179.375H91.1333V185.375ZM108.2 179.375H105.2V185.375H108.2V179.375ZM112.467 185.375H115.467V179.375H112.467V185.375ZM129.533 179.375H126.533V185.375H129.533V179.375ZM133.8 185.375H136.8V179.375H133.8V185.375ZM150.867 179.375H147.867V185.375H150.867V179.375ZM25 185.375H27.1333V179.375H25V185.375ZM44.2 185.375H48.4667V179.375H44.2V185.375ZM65.5333 185.375H69.8V179.375H65.5333V185.375ZM86.8667 185.375H91.1333V179.375H86.8667V185.375ZM108.2 185.375H112.467V179.375H108.2V185.375ZM129.533 185.375H133.8V179.375H129.533V185.375ZM150.867 185.375H153V179.375H150.867V185.375ZM153 188.375H159V176.375H153V188.375ZM25 176.375H19V188.375H25V176.375ZM27.1333 188.375H33.1333V176.375H27.1333V188.375ZM44.2 176.375H38.2V188.375H44.2V176.375ZM48.4667 188.375H54.4667V176.375H48.4667V188.375ZM65.5333 176.375H59.5333V188.375H65.5333V176.375ZM69.8 188.375H75.8V176.375H69.8V188.375ZM86.8667 176.375H80.8667V188.375H86.8667V176.375ZM91.1333 188.375H97.1333V176.375H91.1333V188.375ZM108.2 176.375H102.2V188.375H108.2V176.375ZM112.467 188.375H118.467V176.375H112.467V188.375ZM129.533 176.375H123.533V188.375H129.533V176.375ZM133.8 188.375H139.8V176.375H133.8V188.375ZM150.867 176.375H144.867V188.375H150.867V176.375ZM25 188.375H27.1333V176.375H25V188.375ZM44.2 188.375H48.4667V176.375H44.2V188.375ZM65.5333 188.375H69.8V176.375H65.5333V188.375ZM86.8667 188.375H91.1333V176.375H86.8667V188.375ZM108.2 188.375H112.467V176.375H108.2V188.375ZM129.533 188.375H133.8V176.375H129.533V188.375ZM150.867 188.375H153V176.375H150.867V188.375Z" fill="#A6ADC8" mask="url(#path-6-inside-2_230_618)"/>
<mask id="path-8-inside-3_230_618" fill="white">
<path d="M14 185.958H164V193.125H14V185.958Z"/>
</mask>
<path d="M164 196.125H167V190.125H164V196.125ZM14 190.125H11V196.125H14V190.125ZM15.875 196.125H18.875V190.125H15.875V196.125ZM30.875 190.125H27.875V196.125H30.875V190.125ZM34.625 196.125H37.625V190.125H34.625V196.125ZM49.625 190.125H46.625V196.125H49.625V190.125ZM53.375 196.125H56.375V190.125H53.375V196.125ZM68.375 190.125H65.375V196.125H68.375V190.125ZM72.125 196.125H75.125V190.125H72.125V196.125ZM87.125 190.125H84.125V196.125H87.125V190.125ZM90.875 196.125H93.875V190.125H90.875V196.125ZM105.875 190.125H102.875V196.125H105.875V190.125ZM109.625 196.125H112.625V190.125H109.625V196.125ZM124.625 190.125H121.625V196.125H124.625V190.125ZM128.375 196.125H131.375V190.125H128.375V196.125ZM143.375 190.125H140.375V196.125H143.375V190.125ZM147.125 196.125H150.125V190.125H147.125V196.125ZM162.125 190.125H159.125V196.125H162.125V190.125ZM14 196.125H15.875V190.125H14V196.125ZM30.875 196.125H34.625V190.125H30.875V196.125ZM49.625 196.125H53.375V190.125H49.625V196.125ZM68.375 196.125H72.125V190.125H68.375V196.125ZM87.125 196.125H90.875V190.125H87.125V196.125ZM105.875 196.125H109.625V190.125H105.875V196.125ZM124.625 196.125H128.375V190.125H124.625V196.125ZM143.375 196.125H147.125V190.125H143.375V196.125ZM162.125 196.125H164V190.125H162.125V196.125ZM164 199.125H170V187.125H164V199.125ZM14 187.125H8V199.125H14V187.125ZM15.875 199.125H21.875V187.125H15.875V199.125ZM30.875 187.125H24.875V199.125H30.875V187.125ZM34.625 199.125H40.625V187.125H34.625V199.125ZM49.625 187.125H43.625V199.125H49.625V187.125ZM53.375 199.125H59.375V187.125H53.375V199.125ZM68.375 187.125H62.375V199.125H68.375V187.125ZM72.125 199.125H78.125V187.125H72.125V199.125ZM87.125 187.125H81.125V199.125H87.125V187.125ZM90.875 199.125H96.875V187.125H90.875V199.125ZM105.875 187.125H99.875V199.125H105.875V187.125ZM109.625 199.125H115.625V187.125H109.625V199.125ZM124.625 187.125H118.625V199.125H124.625V187.125ZM128.375 199.125H134.375V187.125H128.375V199.125ZM143.375 187.125H137.375V199.125H143.375V187.125ZM147.125 199.125H153.125V187.125H147.125V199.125ZM162.125 187.125H156.125V199.125H162.125V187.125ZM14 199.125H15.875V187.125H14V199.125ZM30.875 199.125H34.625V187.125H30.875V199.125ZM49.625 199.125H53.375V187.125H49.625V199.125ZM68.375 199.125H72.125V187.125H68.375V199.125ZM87.125 199.125H90.875V187.125H87.125V199.125ZM105.875 199.125H109.625V187.125H105.875V199.125ZM124.625 199.125H128.375V187.125H124.625V199.125ZM143.375 199.125H147.125V187.125H143.375V199.125ZM162.125 199.125H164V187.125H162.125V199.125Z" fill="#9399B2" mask="url(#path-8-inside-3_230_618)"/>
<mask id="path-10-inside-4_230_618" fill="white">
<path d="M14 185.958H164V191.333H14V185.958Z"/>
</mask>
<path d="M164 194.333H167V188.333H164V194.333ZM14 188.333H11V194.333H14V188.333ZM15.875 194.333H18.875V188.333H15.875V194.333ZM30.875 188.333H27.875V194.333H30.875V188.333ZM34.625 194.333H37.625V188.333H34.625V194.333ZM49.625 188.333H46.625V194.333H49.625V188.333ZM53.375 194.333H56.375V188.333H53.375V194.333ZM68.375 188.333H65.375V194.333H68.375V188.333ZM72.125 194.333H75.125V188.333H72.125V194.333ZM87.125 188.333H84.125V194.333H87.125V188.333ZM90.875 194.333H93.875V188.333H90.875V194.333ZM105.875 188.333H102.875V194.333H105.875V188.333ZM109.625 194.333H112.625V188.333H109.625V194.333ZM124.625 188.333H121.625V194.333H124.625V188.333ZM128.375 194.333H131.375V188.333H128.375V194.333ZM143.375 188.333H140.375V194.333H143.375V188.333ZM147.125 194.333H150.125V188.333H147.125V194.333ZM162.125 188.333H159.125V194.333H162.125V188.333ZM14 194.333H15.875V188.333H14V194.333ZM30.875 194.333H34.625V188.333H30.875V194.333ZM49.625 194.333H53.375V188.333H49.625V194.333ZM68.375 194.333H72.125V188.333H68.375V194.333ZM87.125 194.333H90.875V188.333H87.125V194.333ZM105.875 194.333H109.625V188.333H105.875V194.333ZM124.625 194.333H128.375V188.333H124.625V194.333ZM143.375 194.333H147.125V188.333H143.375V194.333ZM162.125 194.333H164V188.333H162.125V194.333ZM164 197.333H170V185.333H164V197.333ZM14 185.333H8V197.333H14V185.333ZM15.875 197.333H21.875V185.333H15.875V197.333ZM30.875 185.333H24.875V197.333H30.875V185.333ZM34.625 197.333H40.625V185.333H34.625V197.333ZM49.625 185.333H43.625V197.333H49.625V185.333ZM53.375 197.333H59.375V185.333H53.375V197.333ZM68.375 185.333H62.375V197.333H68.375V185.333ZM72.125 197.333H78.125V185.333H72.125V197.333ZM87.125 185.333H81.125V197.333H87.125V185.333ZM90.875 197.333H96.875V185.333H90.875V197.333ZM105.875 185.333H99.875V197.333H105.875V185.333ZM109.625 197.333H115.625V185.333H109.625V197.333ZM124.625 185.333H118.625V197.333H124.625V185.333ZM128.375 197.333H134.375V185.333H128.375V197.333ZM143.375 185.333H137.375V197.333H143.375V185.333ZM147.125 197.333H153.125V185.333H147.125V197.333ZM162.125 185.333H156.125V197.333H162.125V185.333ZM14 197.333H15.875V185.333H14V197.333ZM30.875 197.333H34.625V185.333H30.875V197.333ZM49.625 197.333H53.375V185.333H49.625V197.333ZM68.375 197.333H72.125V185.333H68.375V197.333ZM87.125 197.333H90.875V185.333H87.125V197.333ZM105.875 197.333H109.625V185.333H105.875V197.333ZM124.625 197.333H128.375V185.333H124.625V197.333ZM143.375 197.333H147.125V185.333H143.375V197.333ZM162.125 197.333H164V185.333H162.125V197.333Z" fill="#A6ADC8" mask="url(#path-10-inside-4_230_618)"/>
<mask id="path-12-inside-5_230_618" fill="white">
<path d="M20 195H170V202.167H20V195Z"/>
</mask>
<path d="M170 205.167H173V199.167H170V205.167ZM20 199.167H17V205.167H20V199.167ZM21.875 205.167H24.875V199.167H21.875V205.167ZM36.875 199.167H33.875V205.167H36.875V199.167ZM40.625 205.167H43.625V199.167H40.625V205.167ZM55.625 199.167H52.625V205.167H55.625V199.167ZM59.375 205.167H62.375V199.167H59.375V205.167ZM74.375 199.167H71.375V205.167H74.375V199.167ZM78.125 205.167H81.125V199.167H78.125V205.167ZM93.125 199.167H90.125V205.167H93.125V199.167ZM96.875 205.167H99.875V199.167H96.875V205.167ZM111.875 199.167H108.875V205.167H111.875V199.167ZM115.625 205.167H118.625V199.167H115.625V205.167ZM130.625 199.167H127.625V205.167H130.625V199.167ZM134.375 205.167H137.375V199.167H134.375V205.167ZM149.375 199.167H146.375V205.167H149.375V199.167ZM153.125 205.167H156.125V199.167H153.125V205.167ZM168.125 199.167H165.125V205.167H168.125V199.167ZM20 205.167H21.875V199.167H20V205.167ZM36.875 205.167H40.625V199.167H36.875V205.167ZM55.625 205.167H59.375V199.167H55.625V205.167ZM74.375 205.167H78.125V199.167H74.375V205.167ZM93.125 205.167H96.875V199.167H93.125V205.167ZM111.875 205.167H115.625V199.167H111.875V205.167ZM130.625 205.167H134.375V199.167H130.625V205.167ZM149.375 205.167H153.125V199.167H149.375V205.167ZM168.125 205.167H170V199.167H168.125V205.167ZM170 208.167H176V196.167H170V208.167ZM20 196.167H14V208.167H20V196.167ZM21.875 208.167H27.875V196.167H21.875V208.167ZM36.875 196.167H30.875V208.167H36.875V196.167ZM40.625 208.167H46.625V196.167H40.625V208.167ZM55.625 196.167H49.625V208.167H55.625V196.167ZM59.375 208.167H65.375V196.167H59.375V208.167ZM74.375 196.167H68.375V208.167H74.375V196.167ZM78.125 208.167H84.125V196.167H78.125V208.167ZM93.125 196.167H87.125V208.167H93.125V196.167ZM96.875 208.167H102.875V196.167H96.875V208.167ZM111.875 196.167H105.875V208.167H111.875V196.167ZM115.625 208.167H121.625V196.167H115.625V208.167ZM130.625 196.167H124.625V208.167H130.625V196.167ZM134.375 208.167H140.375V196.167H134.375V208.167ZM149.375 196.167H143.375V208.167H149.375V196.167ZM153.125 208.167H159.125V196.167H153.125V208.167ZM168.125 196.167H162.125V208.167H168.125V196.167ZM20 208.167H21.875V196.167H20V208.167ZM36.875 208.167H40.625V196.167H36.875V208.167ZM55.625 208.167H59.375V196.167H55.625V208.167ZM74.375 208.167H78.125V196.167H74.375V208.167ZM93.125 208.167H96.875V196.167H93.125V208.167ZM111.875 208.167H115.625V196.167H111.875V208.167ZM130.625 208.167H134.375V196.167H130.625V208.167ZM149.375 208.167H153.125V196.167H149.375V208.167ZM168.125 208.167H170V196.167H168.125V208.167Z" fill="#9399B2" mask="url(#path-12-inside-5_230_618)"/>
<mask id="path-14-inside-6_230_618" fill="white">
<path d="M20 195H170V200.375H20V195Z"/>
</mask>
<path d="M170 203.375H173V197.375H170V203.375ZM20 197.375H17V203.375H20V197.375ZM21.875 203.375H24.875V197.375H21.875V203.375ZM36.875 197.375H33.875V203.375H36.875V197.375ZM40.625 203.375H43.625V197.375H40.625V203.375ZM55.625 197.375H52.625V203.375H55.625V197.375ZM59.375 203.375H62.375V197.375H59.375V203.375ZM74.375 197.375H71.375V203.375H74.375V197.375ZM78.125 203.375H81.125V197.375H78.125V203.375ZM93.125 197.375H90.125V203.375H93.125V197.375ZM96.875 203.375H99.875V197.375H96.875V203.375ZM111.875 197.375H108.875V203.375H111.875V197.375ZM115.625 203.375H118.625V197.375H115.625V203.375ZM130.625 197.375H127.625V203.375H130.625V197.375ZM134.375 203.375H137.375V197.375H134.375V203.375ZM149.375 197.375H146.375V203.375H149.375V197.375ZM153.125 203.375H156.125V197.375H153.125V203.375ZM168.125 197.375H165.125V203.375H168.125V197.375ZM20 203.375H21.875V197.375H20V203.375ZM36.875 203.375H40.625V197.375H36.875V203.375ZM55.625 203.375H59.375V197.375H55.625V203.375ZM74.375 203.375H78.125V197.375H74.375V203.375ZM93.125 203.375H96.875V197.375H93.125V203.375ZM111.875 203.375H115.625V197.375H111.875V203.375ZM130.625 203.375H134.375V197.375H130.625V203.375ZM149.375 203.375H153.125V197.375H149.375V203.375ZM168.125 203.375H170V197.375H168.125V203.375ZM170 206.375H176V194.375H170V206.375ZM20 194.375H14V206.375H20V194.375ZM21.875 206.375H27.875V194.375H21.875V206.375ZM36.875 194.375H30.875V206.375H36.875V194.375ZM40.625 206.375H46.625V194.375H40.625V206.375ZM55.625 194.375H49.625V206.375H55.625V194.375ZM59.375 206.375H65.375V194.375H59.375V206.375ZM74.375 194.375H68.375V206.375H74.375V194.375ZM78.125 206.375H84.125V194.375H78.125V206.375ZM93.125 194.375H87.125V206.375H93.125V194.375ZM96.875 206.375H102.875V194.375H96.875V206.375ZM111.875 194.375H105.875V206.375H111.875V194.375ZM115.625 206.375H121.625V194.375H115.625V206.375ZM130.625 194.375H124.625V206.375H130.625V194.375ZM134.375 206.375H140.375V194.375H134.375V206.375ZM149.375 194.375H143.375V206.375H149.375V194.375ZM153.125 206.375H159.125V194.375H153.125V206.375ZM168.125 194.375H162.125V206.375H168.125V194.375ZM20 206.375H21.875V194.375H20V206.375ZM36.875 206.375H40.625V194.375H36.875V206.375ZM55.625 206.375H59.375V194.375H55.625V206.375ZM74.375 206.375H78.125V194.375H74.375V206.375ZM93.125 206.375H96.875V194.375H93.125V206.375ZM111.875 206.375H115.625V194.375H111.875V206.375ZM130.625 206.375H134.375V194.375H130.625V206.375ZM149.375 206.375H153.125V194.375H149.375V206.375ZM168.125 206.375H170V194.375H168.125V206.375Z" fill="#A6ADC8" mask="url(#path-14-inside-6_230_618)"/>
<mask id="path-16-inside-7_230_618" fill="white">
<path d="M30 203.875H141V211.042H30V203.875Z"/>
</mask>
<path d="M141 214.042H144V208.042H141V214.042ZM30 208.042H27V214.042H30V208.042ZM31.85 214.042H34.85V208.042H31.85V214.042ZM46.65 208.042H43.65V214.042H46.65V208.042ZM50.35 214.042H53.35V208.042H50.35V214.042ZM65.15 208.042H62.15V214.042H65.15V208.042ZM68.85 214.042H71.85V208.042H68.85V214.042ZM83.65 208.042H80.65V214.042H83.65V208.042ZM87.35 214.042H90.35V208.042H87.35V214.042ZM102.15 208.042H99.15V214.042H102.15V208.042ZM105.85 214.042H108.85V208.042H105.85V214.042ZM120.65 208.042H117.65V214.042H120.65V208.042ZM124.35 214.042H127.35V208.042H124.35V214.042ZM139.15 208.042H136.15V214.042H139.15V208.042ZM30 214.042H31.85V208.042H30V214.042ZM46.65 214.042H50.35V208.042H46.65V214.042ZM65.15 214.042H68.85V208.042H65.15V214.042ZM83.65 214.042H87.35V208.042H83.65V214.042ZM102.15 214.042H105.85V208.042H102.15V214.042ZM120.65 214.042H124.35V208.042H120.65V214.042ZM139.15 214.042H141V208.042H139.15V214.042ZM141 217.042H147V205.042H141V217.042ZM30 205.042H24V217.042H30V205.042ZM31.85 217.042H37.85V205.042H31.85V217.042ZM46.65 205.042H40.65V217.042H46.65V205.042ZM50.35 217.042H56.35V205.042H50.35V217.042ZM65.15 205.042H59.15V217.042H65.15V205.042ZM68.85 217.042H74.85V205.042H68.85V217.042ZM83.65 205.042H77.65V217.042H83.65V205.042ZM87.35 217.042H93.35V205.042H87.35V217.042ZM102.15 205.042H96.15V217.042H102.15V205.042ZM105.85 217.042H111.85V205.042H105.85V217.042ZM120.65 205.042H114.65V217.042H120.65V205.042ZM124.35 217.042H130.35V205.042H124.35V217.042ZM139.15 205.042H133.15V217.042H139.15V205.042ZM30 217.042H31.85V205.042H30V217.042ZM46.65 217.042H50.35V205.042H46.65V217.042ZM65.15 217.042H68.85V205.042H65.15V217.042ZM83.65 217.042H87.35V205.042H83.65V217.042ZM102.15 217.042H105.85V205.042H102.15V217.042ZM120.65 217.042H124.35V205.042H120.65V217.042ZM139.15 217.042H141V205.042H139.15V217.042Z" fill="#9399B2" mask="url(#path-16-inside-7_230_618)"/>
<mask id="path-18-inside-8_230_618" fill="white">
<path d="M30 203.875H141V209.25H30V203.875Z"/>
</mask>
<path d="M141 212.25H144V206.25H141V212.25ZM30 206.25H27V212.25H30V206.25ZM31.85 212.25H34.85V206.25H31.85V212.25ZM46.65 206.25H43.65V212.25H46.65V206.25ZM50.35 212.25H53.35V206.25H50.35V212.25ZM65.15 206.25H62.15V212.25H65.15V206.25ZM68.85 212.25H71.85V206.25H68.85V212.25ZM83.65 206.25H80.65V212.25H83.65V206.25ZM87.35 212.25H90.35V206.25H87.35V212.25ZM102.15 206.25H99.15V212.25H102.15V206.25ZM105.85 212.25H108.85V206.25H105.85V212.25ZM120.65 206.25H117.65V212.25H120.65V206.25ZM124.35 212.25H127.35V206.25H124.35V212.25ZM139.15 206.25H136.15V212.25H139.15V206.25ZM30 212.25H31.85V206.25H30V212.25ZM46.65 212.25H50.35V206.25H46.65V212.25ZM65.15 212.25H68.85V206.25H65.15V212.25ZM83.65 212.25H87.35V206.25H83.65V212.25ZM102.15 212.25H105.85V206.25H102.15V212.25ZM120.65 212.25H124.35V206.25H120.65V212.25ZM139.15 212.25H141V206.25H139.15V212.25ZM141 215.25H147V203.25H141V215.25ZM30 203.25H24V215.25H30V203.25ZM31.85 215.25H37.85V203.25H31.85V215.25ZM46.65 203.25H40.65V215.25H46.65V203.25ZM50.35 215.25H56.35V203.25H50.35V215.25ZM65.15 203.25H59.15V215.25H65.15V203.25ZM68.85 215.25H74.85V203.25H68.85V215.25ZM83.65 203.25H77.65V215.25H83.65V203.25ZM87.35 215.25H93.35V203.25H87.35V215.25ZM102.15 203.25H96.15V215.25H102.15V203.25ZM105.85 215.25H111.85V203.25H105.85V215.25ZM120.65 203.25H114.65V215.25H120.65V203.25ZM124.35 215.25H130.35V203.25H124.35V215.25ZM139.15 203.25H133.15V215.25H139.15V203.25ZM30 215.25H31.85V203.25H30V215.25ZM46.65 215.25H50.35V203.25H46.65V215.25ZM65.15 215.25H68.85V203.25H65.15V215.25ZM83.65 215.25H87.35V203.25H83.65V215.25ZM102.15 215.25H105.85V203.25H102.15V215.25ZM120.65 215.25H124.35V203.25H120.65V215.25ZM139.15 215.25H141V203.25H139.15V215.25Z" fill="#A6ADC8" mask="url(#path-18-inside-8_230_618)"/>
<mask id="path-20-inside-9_230_618" fill="white">
<path d="M14 213H51V220.167H14V213Z"/>
</mask>
<path d="M51 223.167H54V217.167H51V223.167ZM14 217.167H11V223.167H14V217.167ZM15.85 223.167H18.85V217.167H15.85V223.167ZM30.65 217.167H27.65V223.167H30.65V217.167ZM34.35 223.167H37.35V217.167H34.35V223.167ZM49.15 217.167H46.15V223.167H49.15V217.167ZM14 223.167H15.85V217.167H14V223.167ZM30.65 223.167H34.35V217.167H30.65V223.167ZM49.15 223.167H51V217.167H49.15V223.167ZM51 226.167H57V214.167H51V226.167ZM14 214.167H8V226.167H14V214.167ZM15.85 226.167H21.85V214.167H15.85V226.167ZM30.65 214.167H24.65V226.167H30.65V214.167ZM34.35 226.167H40.35V214.167H34.35V226.167ZM49.15 214.167H43.15V226.167H49.15V214.167ZM14 226.167H15.85V214.167H14V226.167ZM30.65 226.167H34.35V214.167H30.65V226.167ZM49.15 226.167H51V214.167H49.15V226.167Z" fill="#9399B2" mask="url(#path-20-inside-9_230_618)"/>
<mask id="path-22-inside-10_230_618" fill="white">
<path d="M14 213H51V218.375H14V213Z"/>
</mask>
<path d="M51 221.375H54V215.375H51V221.375ZM14 215.375H11V221.375H14V215.375ZM15.85 221.375H18.85V215.375H15.85V221.375ZM30.65 215.375H27.65V221.375H30.65V215.375ZM34.35 221.375H37.35V215.375H34.35V221.375ZM49.15 215.375H46.15V221.375H49.15V215.375ZM14 221.375H15.85V215.375H14V221.375ZM30.65 221.375H34.35V215.375H30.65V221.375ZM49.15 221.375H51V215.375H49.15V221.375ZM51 224.375H57V212.375H51V224.375ZM14 212.375H8V224.375H14V212.375ZM15.85 224.375H21.85V212.375H15.85V224.375ZM30.65 212.375H24.65V224.375H30.65V212.375ZM34.35 224.375H40.35V212.375H34.35V224.375ZM49.15 212.375H43.15V224.375H49.15V212.375ZM14 224.375H15.85V212.375H14V224.375ZM30.65 224.375H34.35V212.375H30.65V224.375ZM49.15 224.375H51V212.375H49.15V224.375Z" fill="#A6ADC8" mask="url(#path-22-inside-10_230_618)"/>
<mask id="path-24-inside-11_230_618" fill="white">
<path d="M92 213H129V220.167H92V213Z"/>
</mask>
<path d="M129 223.167H132V217.167H129V223.167ZM92 217.167H89V223.167H92V217.167ZM93.85 223.167H96.85V217.167H93.85V223.167ZM108.65 217.167H105.65V223.167H108.65V217.167ZM112.35 223.167H115.35V217.167H112.35V223.167ZM127.15 217.167H124.15V223.167H127.15V217.167ZM92 223.167H93.85V217.167H92V223.167ZM108.65 223.167H112.35V217.167H108.65V223.167ZM127.15 223.167H129V217.167H127.15V223.167ZM129 226.167H135V214.167H129V226.167ZM92 214.167H86V226.167H92V214.167ZM93.85 226.167H99.85V214.167H93.85V226.167ZM108.65 214.167H102.65V226.167H108.65V214.167ZM112.35 226.167H118.35V214.167H112.35V226.167ZM127.15 214.167H121.15V226.167H127.15V214.167ZM92 226.167H93.85V214.167H92V226.167ZM108.65 226.167H112.35V214.167H108.65V226.167ZM127.15 226.167H129V214.167H127.15V226.167Z" fill="#9399B2" mask="url(#path-24-inside-11_230_618)"/>
<mask id="path-26-inside-12_230_618" fill="white">
<path d="M92 213H129V218.375H92V213Z"/>
</mask>
<path d="M129 221.375H132V215.375H129V221.375ZM92 215.375H89V221.375H92V215.375ZM93.85 221.375H96.85V215.375H93.85V221.375ZM108.65 215.375H105.65V221.375H108.65V215.375ZM112.35 221.375H115.35V215.375H112.35V221.375ZM127.15 215.375H124.15V221.375H127.15V215.375ZM92 221.375H93.85V215.375H92V221.375ZM108.65 221.375H112.35V215.375H108.65V221.375ZM127.15 221.375H129V215.375H127.15V221.375ZM129 224.375H135V212.375H129V224.375ZM92 212.375H86V224.375H92V212.375ZM93.85 224.375H99.85V212.375H93.85V224.375ZM108.65 212.375H102.65V224.375H108.65V212.375ZM112.35 224.375H118.35V212.375H112.35V224.375ZM127.15 212.375H121.15V224.375H127.15V212.375ZM92 224.375H93.85V212.375H92V224.375ZM108.65 224.375H112.35V212.375H108.65V224.375ZM127.15 224.375H129V212.375H127.15V224.375Z" fill="#A6ADC8" mask="url(#path-26-inside-12_230_618)"/>
<mask id="path-28-inside-13_230_618" fill="white">
<path d="M43 213H100V220.167H43V213Z"/>
</mask>
<path d="M100 214.167H43V226.167H100V214.167Z" fill="#9399B2" mask="url(#path-28-inside-13_230_618)"/>
<mask id="path-30-inside-14_230_618" fill="white">
<path d="M43 213H100V218.375H43V213Z"/>
</mask>
<path d="M100 212.375H43V224.375H100V212.375Z" fill="#A6ADC8" mask="url(#path-30-inside-14_230_618)"/>
<mask id="path-32-inside-15_230_618" fill="white">
<path d="M153 213H170V220.167H153V213Z"/>
</mask>
<path d="M170 214.167H153V226.167H170V214.167Z" fill="#9399B2" mask="url(#path-32-inside-15_230_618)"/>
<mask id="path-34-inside-16_230_618" fill="white">
<path d="M153 213H170V218.375H153V213Z"/>
</mask>
<path d="M170 212.375H153V224.375H170V212.375Z" fill="#A6ADC8" mask="url(#path-34-inside-16_230_618)"/>
<path d="M8 80C8 75.5817 11.5817 72 16 72H168C172.418 72 176 75.5817 176 80V152H8V80Z" fill="#11111B"/>
<mask id="path-37-outside-17_230_618" maskUnits="userSpaceOnUse" x="79" y="60" width="26" height="12" fill="black">
<rect fill="white" x="79" y="60" width="26" height="12"/>
<path d="M80 60H104V72H80V60Z"/>
</mask>
<path d="M103 60V72H105V60H103ZM81 72V60H79V72H81Z" fill="#11111B" fill-opacity="0.5" mask="url(#path-37-outside-17_230_618)"/>
<path d="M20 79H164V139C156 147 28 147 20 139V79Z" fill="#11111B"/>
<path d="M20 79H164V139C156 147 28 147 20 139V79Z" fill="#CDD6F4" fill-opacity="0.1"/>
<g filter="url(#filter0_d_230_618)">
<rect x="80" y="80" width="24" height="4" fill="white"/>
</g>
<g filter="url(#filter1_d_230_618)">
<rect x="68" y="132" width="12" height="6" fill="#AAAAAA"/>
</g>
<rect x="68" y="132" width="12" height="4" fill="white"/>
<g filter="url(#filter2_d_230_618)">
<mask id="path-43-inside-18_230_618" fill="white">
<path d="M83 133H106V135H83V133Z"/>
</mask>
<path d="M83 136H87.1818V134H83V136ZM90.3182 136H98.6818V134H90.3182V136ZM101.818 136H106V134H101.818V136ZM83 137H87.1818V133H83V137ZM90.3182 137H98.6818V133H90.3182V137ZM101.818 137H106V133H101.818V137Z" fill="white" mask="url(#path-43-inside-18_230_618)"/>
</g>
<g filter="url(#filter3_d_230_618)">
<mask id="path-45-inside-19_230_618" fill="white">
<path d="M68 94H116V102H68V94Z"/>
</mask>
<path d="M68 107H70V97H68V107ZM72 107H76V97H72V107ZM78 107H82V97H78V107ZM84 107H88V97H84V107ZM90 107H94V97H90V107ZM96 107H100V97H96V107ZM102 107H106V97H102V107ZM108 107H112V97H108V107ZM114 107H116V97H114V107ZM116 89H114V99H116V89ZM112 89H108V99H112V89ZM106 89H102V99H106V89ZM100 89H96V99H100V89ZM94 89H90V99H94V89ZM88 89H84V99H88V89ZM82 89H78V99H82V89ZM76 89H72V99H76V89ZM70 89H68V99H70V89ZM68 112H70V92H68V112ZM72 112H76V92H72V112ZM78 112H82V92H78V112ZM84 112H88V92H84V112ZM90 112H94V92H90V112ZM96 112H100V92H96V112ZM102 112H106V92H102V112ZM108 112H112V92H108V112ZM114 112H116V92H114V112ZM116 84H114V104H116V84ZM112 84H108V104H112V84ZM106 84H102V104H106V84ZM100 84H96V104H100V84ZM94 84H90V104H94V84ZM88 84H84V104H88V84ZM82 84H78V104H82V84ZM76 84H72V104H76V84ZM70 84H68V104H70V84Z" fill="white" mask="url(#path-45-inside-19_230_618)"/>
</g>
<g filter="url(#filter4_d_230_618)">
<path d="M116 108V116H68V112H82.5V108H116Z" fill="white"/>
</g>
<g filter="url(#filter5_d_230_618)">
<path d="M116 120V128H68V124H82.5V120H116Z" fill="white"/>
</g>
<defs>
<filter id="filter0_d_230_618" x="72" y="74" width="40" height="20" filterUnits="userSpaceOnUse" color-interpolation-filters="sRGB">
<feFlood flood-opacity="0" result="BackgroundImageFix"/>
<feColorMatrix in="SourceAlpha" type="matrix" values="0 0 0 0 0 0 0 0 0 0 0 0 0 0 0 0 0 0 127 0" result="hardAlpha"/>
<feOffset dy="2"/>
<feGaussianBlur stdDeviation="4"/>
<feComposite in2="hardAlpha" operator="out"/>
<feColorMatrix type="matrix" values="0 0 0 0 1 0 0 0 0 1 0 0 0 0 1 0 0 0 0.5 0"/>
<feBlend mode="normal" in2="BackgroundImageFix" result="effect1_dropShadow_230_618"/>
<feBlend mode="normal" in="SourceGraphic" in2="effect1_dropShadow_230_618" result="shape"/>
</filter>
<filter id="filter1_d_230_618" x="62" y="128" width="24" height="18" filterUnits="userSpaceOnUse" color-interpolation-filters="sRGB">
<feFlood flood-opacity="0" result="BackgroundImageFix"/>
<feColorMatrix in="SourceAlpha" type="matrix" values="0 0 0 0 0 0 0 0 0 0 0 0 0 0 0 0 0 0 127 0" result="hardAlpha"/>
<feOffset dy="2"/>
<feGaussianBlur stdDeviation="3"/>
<feComposite in2="hardAlpha" operator="out"/>
<feColorMatrix type="matrix" values="0 0 0 0 1 0 0 0 0 1 0 0 0 0 1 0 0 0 0.5 0"/>
<feBlend mode="normal" in2="BackgroundImageFix" result="effect1_dropShadow_230_618"/>
<feBlend mode="normal" in="SourceGraphic" in2="effect1_dropShadow_230_618" result="shape"/>
</filter>
<filter id="filter2_d_230_618" x="79" y="131" width="31" height="10" filterUnits="userSpaceOnUse" color-interpolation-filters="sRGB">
<feFlood flood-opacity="0" result="BackgroundImageFix"/>
<feColorMatrix in="SourceAlpha" type="matrix" values="0 0 0 0 0 0 0 0 0 0 0 0 0 0 0 0 0 0 127 0" result="hardAlpha"/>
<feOffset dy="2"/>
<feGaussianBlur stdDeviation="2"/>
<feColorMatrix type="matrix" values="0 0 0 0 1 0 0 0 0 1 0 0 0 0 1 0 0 0 0.5 0"/>
<feBlend mode="normal" in2="BackgroundImageFix" result="effect1_dropShadow_230_618"/>
<feBlend mode="normal" in="SourceGraphic" in2="effect1_dropShadow_230_618" result="shape"/>
</filter>
<filter id="filter3_d_230_618" x="60" y="88" width="64" height="24" filterUnits="userSpaceOnUse" color-interpolation-filters="sRGB">
<feFlood flood-opacity="0" result="BackgroundImageFix"/>
<feColorMatrix in="SourceAlpha" type="matrix" values="0 0 0 0 0 0 0 0 0 0 0 0 0 0 0 0 0 0 127 0" result="hardAlpha"/>
<feOffset dy="2"/>
<feGaussianBlur stdDeviation="4"/>
<feColorMatrix type="matrix" values="0 0 0 0 1 0 0 0 0 1 0 0 0 0 1 0 0 0 0.5 0"/>
<feBlend mode="normal" in2="BackgroundImageFix" result="effect1_dropShadow_230_618"/>
<feBlend mode="normal" in="SourceGraphic" in2="effect1_dropShadow_230_618" result="shape"/>
</filter>
<filter id="filter4_d_230_618" x="60" y="102" width="64" height="24" filterUnits="userSpaceOnUse" color-interpolation-filters="sRGB">
<feFlood flood-opacity="0" result="BackgroundImageFix"/>
<feColorMatrix in="SourceAlpha" type="matrix" values="0 0 0 0 0 0 0 0 0 0 0 0 0 0 0 0 0 0 127 0" result="hardAlpha"/>
<feOffset dy="2"/>
<feGaussianBlur stdDeviation="4"/>
<feComposite in2="hardAlpha" operator="out"/>
<feColorMatrix type="matrix" values="0 0 0 0 1 0 0 0 0 1 0 0 0 0 1 0 0 0 0.5 0"/>
<feBlend mode="normal" in2="BackgroundImageFix" result="effect1_dropShadow_230_618"/>
<feBlend mode="normal" in="SourceGraphic" in2="effect1_dropShadow_230_618" result="shape"/>
</filter>
<filter id="filter5_d_230_618" x="60" y="114" width="64" height="24" filterUnits="userSpaceOnUse" color-interpolation-filters="sRGB">
<feFlood flood-opacity="0" result="BackgroundImageFix"/>
<feColorMatrix in="SourceAlpha" type="matrix" values="0 0 0 0 0 0 0 0 0 0 0 0 0 0 0 0 0 0 127 0" result="hardAlpha"/>
<feOffset dy="2"/>
<feGaussianBlur stdDeviation="4"/>
<feComposite in2="hardAlpha" operator="out"/>
<feColorMatrix type="matrix" values="0 0 0 0 1 0 0 0 0 1 0 0 0 0 1 0 0 0 0.5 0"/>
<feBlend mode="normal" in2="BackgroundImageFix" result="effect1_dropShadow_230_618"/>
<feBlend mode="normal" in="SourceGraphic" in2="effect1_dropShadow_230_618" result="shape"/>
</filter>
</defs>
</svg>
