<svg width="256" height="86" viewBox="0 0 256 86" fill="none" xmlns="http://www.w3.org/2000/svg">
<path d="M72.6631 62.1302V23.2213H79.5802V62.1302H72.6631ZM96.6996 62.7787C93.3491 62.7787 90.7551 61.7338 88.9178 59.6444C87.1163 57.555 86.2158 54.4924 86.2158 50.4575V35.3263H93.0789V49.8091C93.0789 52.1146 93.5471 53.8802 94.4839 55.105C95.4208 56.3298 96.8976 56.9424 98.9152 56.9424C100.825 56.9424 102.392 56.258 103.617 54.8888C104.878 53.5197 105.508 51.6105 105.508 49.1606V35.3263H112.425V62.1302H106.319L105.778 57.5908C104.95 59.1762 103.743 60.4368 102.158 61.3736C100.609 62.3105 98.789 62.7787 96.6996 62.7787ZM119.526 62.1302V35.3263H125.687L126.335 40.352C127.308 38.6227 128.623 37.2537 130.28 36.245C131.973 35.2002 133.955 34.6778 136.224 34.6778V41.9732H134.279C132.766 41.9732 131.415 42.2074 130.226 42.6757C129.037 43.1441 128.1 43.9547 127.416 45.1076C126.767 46.2604 126.443 47.8636 126.443 49.9171V62.1302H119.526ZM140.952 62.1302V35.3263H147.113L147.761 40.352C148.734 38.6227 150.049 37.2537 151.706 36.245C153.4 35.2002 155.381 34.6778 157.651 34.6778V41.9732H155.705C154.192 41.9732 152.841 42.2074 151.652 42.6757C150.463 43.1441 149.526 43.9547 148.842 45.1076C148.194 46.2604 147.869 47.8636 147.869 49.9171V62.1302H140.952ZM166.107 31.1652C164.846 31.1652 163.801 30.7869 162.973 30.0303C162.18 29.2738 161.784 28.3191 161.784 27.1662C161.784 26.0133 162.18 25.0767 162.973 24.3561C163.801 23.5996 164.846 23.2213 166.107 23.2213C167.368 23.2213 168.395 23.5996 169.187 24.3561C170.016 25.0767 170.43 26.0133 170.43 27.1662C170.43 28.3191 170.016 29.2738 169.187 30.0303C168.395 30.7869 167.368 31.1652 166.107 31.1652ZM162.648 62.1302V35.3263H169.566V62.1302H162.648ZM189.809 62.7787C187.107 62.7787 184.711 62.2024 182.622 61.0494C180.532 59.8964 178.893 58.2752 177.704 56.1858C176.515 54.0964 175.921 51.6823 175.921 48.9444C175.921 46.1703 176.497 43.7025 177.65 41.5409C178.839 39.3793 180.46 37.7041 182.514 36.5152C184.603 35.2903 187.053 34.6778 189.863 34.6778C192.493 34.6778 194.817 35.2542 196.834 36.4071C198.852 37.56 200.419 39.1451 201.536 41.1626C202.689 43.1441 203.265 45.3597 203.265 47.8096C203.265 48.2059 203.247 48.6202 203.211 49.0525C203.211 49.4848 203.193 49.9352 203.157 50.4035H182.784C182.928 52.4929 183.649 54.1323 184.945 55.3211C186.278 56.51 187.882 57.1045 189.755 57.1045C191.16 57.1045 192.331 56.7984 193.268 56.1858C194.24 55.5373 194.961 54.7086 195.429 53.6999H202.454C201.95 55.3933 201.104 56.9424 199.915 58.3474C198.762 59.7166 197.321 60.7974 195.591 61.5898C193.898 62.3823 191.971 62.7787 189.809 62.7787ZM189.863 40.298C188.17 40.298 186.675 40.7843 185.378 41.7571C184.081 42.6938 183.252 44.1348 182.892 46.0803H196.24C196.132 44.315 195.483 42.9099 194.294 41.8651C193.106 40.8204 191.628 40.298 189.863 40.298ZM209.083 62.1302V23.2213H216V62.1302H209.083Z" fill="#4c4f69"/>
<path d="M40 24.3021V62.1302H46.9171V47.4853H53.9964C57.0947 47.4853 59.6346 46.9629 61.6161 45.9181C63.5975 44.8373 65.0566 43.4323 65.9933 41.703C66.93 39.9377 67.3984 38.0102 67.3984 35.9207C67.3984 33.7231 66.912 31.7416 65.9393 29.9763C64.9666 28.211 63.4895 26.8239 61.508 25.8152C59.5265 24.8065 57.0227 24.3021 53.9964 24.3021H40Z" fill="#d20f39"/>
</svg>
