<svg width="192" height="192" viewBox="0 0 192 192" fill="none" xmlns="http://www.w3.org/2000/svg">
<g clip-path="url(#clip0_899_331)">
<g filter="url(#filter0_d_899_331)">
<path d="M27.579 110.124C26.9714 109.392 26.8766 109.212 27.1413 109.422M27.1413 109.422C27.3226 109.565 27.6724 109.89 28.1416 110.345M27.1413 109.422C27.0505 109.223 27.0465 109.007 27.1845 108.771C27.6701 107.941 28.3263 107.314 28.9964 106.644L33.5606 102.08C35.2306 100.41 36.8191 98.4653 38.7143 97.0409C41.0769 95.2652 43.4797 93.7075 45.5845 91.6026C46.9657 90.2214 48.372 88.8779 49.616 87.3707C50.0428 86.8536 52.2963 83.9478 53.1278 84.2025C53.3973 84.2851 53.7246 84.7455 53.9809 84.8959C54.7106 85.3243 55.2565 85.8771 55.9321 86.3814C56.6377 86.9081 57.3721 87.5415 58.0305 88.1206C59.0086 88.9808 60.3692 89.4094 61.4242 90.1969C62.9171 91.3112 64.2437 92.5422 65.4056 94.0053C65.8502 94.5652 66.4955 95.3503 66.6398 96.0645C66.7095 96.4092 66.6563 96.7505 66.7602 97.0897C66.8767 97.4701 65.5078 98.4853 65.2749 98.7182C64.4873 99.5058 63.7504 100.359 62.8179 100.932C62.4426 101.162 62.101 101.377 61.7837 101.694C61.1918 102.286 60.4265 102.536 59.8493 103.113C59.198 103.764 58.5738 104.464 57.8794 105.068C56.7271 106.071 55.5381 106.908 54.4419 108.005L46.4845 115.962C45.5438 116.903 44.6458 118.016 43.5458 118.772C42.4166 119.548 41.68 120.79 40.4936 121.495C39.433 122.125 38.5776 120.883 37.8798 120.185C35.6197 117.925 30.4434 112.576 28.1416 110.345M27.1413 109.422C27.3031 109.776 27.7404 110.077 28.1416 110.345M28.1416 110.345C28.3045 110.454 28.4615 110.558 28.5917 110.657M31.1013 110.747C31.4199 109.268 31.9835 107.892 32.4827 106.474C33.0045 104.992 33.1818 103.269 33.7548 101.838C34.1972 100.733 34.2532 104.24 34.2206 105.445C34.1515 107.993 33.6817 110.586 33.9283 113.146C33.9938 113.825 34.1222 113.641 34.3239 113.167C34.8189 112.004 35.284 110.825 35.7748 109.659C37.0414 106.651 38.3612 103.672 39.7221 100.708C39.9286 100.258 40.0279 99.0691 40.4188 99.3997C40.4918 99.4614 40.4604 99.5861 40.4584 99.6798C40.4458 100.263 40.2976 101.055 40.1974 101.59L40.1899 101.63C39.5317 105.148 38.6617 108.583 38.2768 112.161C38.1312 113.514 37.9688 114.918 38.0373 116.292C38.0399 116.345 38.0594 117.495 38.4535 117.016C39.0522 116.289 39.3704 115.132 39.6739 114.267C40.2325 112.673 40.6974 111.045 41.2422 109.446C42.684 105.215 44.4127 101.119 46.1916 97.0323C46.3545 96.658 46.818 95.0978 47.3067 94.8192C47.933 94.462 47.0939 96.2653 46.8989 96.9644C45.5938 101.643 44.2577 106.309 43.5239 111.139C43.3432 112.329 43.1886 113.524 43.0078 114.713C42.9514 115.085 42.8511 115.499 43.0709 114.803C45.485 107.16 48.0255 99.5772 50.7755 92.0592C50.7838 92.0365 52.0578 88.3497 51.8903 89.485C51.2501 93.8223 49.8008 97.9981 49.1027 102.336C48.7954 104.245 48.5661 106.178 48.3774 108.107C48.3462 108.427 48.0051 110.192 48.2704 110.646C48.5414 111.11 48.5318 109.634 48.6631 109.128C49.0161 107.768 49.4675 106.439 49.9339 105.119C51.2692 101.34 52.7864 97.6358 54.459 94.0051C54.5283 93.8545 56.2542 89.9441 56.6564 90.6957C56.9195 91.1872 56.7825 92.0535 56.7083 92.5221L56.7061 92.5364C56.4236 94.3226 55.8475 96.0404 55.3228 97.756C54.6358 100.002 53.4919 102.585 53.4475 104.997C53.4318 105.847 53.986 104.945 54.077 104.784C54.6323 103.805 54.9965 102.707 55.3579 101.641C56.4231 98.4968 57.3028 95.2877 58.3335 92.1321C58.4376 91.8134 58.5385 91.4926 58.6693 91.1848C58.8306 90.8053 58.8972 90.747 58.9617 91.1564C59.0903 91.9723 58.9983 92.847 58.9493 93.6569C58.8175 95.8386 58.6727 98.0266 58.4914 100.203C58.4449 100.761 58.1497 101.684 58.7474 100.753C60.0291 98.7573 61.1047 96.6204 62.5131 94.7078C63.2897 93.6532 63.172 95.0617 63.2412 95.7032C63.4012 97.1857 63.6893 98.6456 64.0088 100.106" stroke="#1E66F5" stroke-opacity="0.5" stroke-width="3" stroke-linecap="round"/>
</g>
<g filter="url(#filter1_d_899_331)">
<path d="M43.1641 124.095C43.9346 123.929 44.6365 123.051 45.1994 122.571C46.2965 121.635 47.3644 120.667 48.4581 119.727C49.7061 118.655 50.9695 117.582 51.995 116.286C53.0628 114.937 53.9414 113.436 55.1081 112.167C57.4619 109.608 60.0292 107.23 62.4878 104.772L68.145 99.1143C68.2838 98.9755 68.5629 98.5584 68.8077 98.6752C69.7509 99.1253 70.9716 100.235 71.8006 100.919C74.8345 103.426 77.3854 106.495 80.4108 108.979C80.693 109.211 83.0214 111.222 82.9339 111.629C82.5805 113.272 81.1497 114.843 79.8137 115.755C77.4428 117.374 75.596 119.613 73.5454 121.592C72.416 122.683 71.1721 123.838 69.9186 124.788C68.7583 125.667 67.918 126.759 66.6037 127.448C64.9224 128.33 63.4504 129.676 62.129 130.997C60.8514 132.275 59.4555 133.383 58.1785 134.66C57.6333 135.205 56.3974 137.055 55.511 136.753C53.4753 136.059 52.0585 135.532 50.4352 133.909C49.274 132.748 47.9471 131.636 47.1211 130.213C46.5442 129.22 46.0349 128.279 45.4142 127.306C44.6476 126.104 43.4703 125.226 44.5183 124.178M46.7894 126.817C46.9969 125.179 48.5232 123.376 49.3282 122.051C49.9768 120.983 50.5707 119.886 51.2022 118.808C52.1503 117.19 51.4308 119.484 51.2987 119.985C50.2936 123.796 49.3813 128.147 49.8301 132.274C49.8387 132.354 49.9529 132.55 49.9767 132.478C50.0277 132.322 50.2341 131.205 50.235 131.201C50.7713 128.469 51.3905 125.761 51.9896 123.049C52.5707 120.42 53.2122 117.814 53.8747 115.213C54.1547 114.113 54.2628 112.328 54.8349 111.34C55.142 110.81 55.339 112.611 55.3558 113.254C55.4462 116.706 55.0295 120.153 54.8189 123.562C54.638 126.488 54.4072 129.423 54.4911 132.387C54.5128 133.154 54.589 134.15 54.68 134.935C54.7307 135.374 54.6721 136.535 54.964 136.243C55.4145 135.792 55.3566 133.596 55.4297 133.056C55.9458 129.247 56.534 125.453 57.1293 121.665L57.1427 121.58C57.6581 118.3 58.175 115.01 58.9147 111.796C59.2121 110.503 59.4509 108.679 60.208 107.575C60.4812 107.176 60.6352 108.577 60.6386 109.085C60.6579 111.986 59.9828 114.865 59.6609 117.701C59.3342 120.58 59.0441 123.467 58.7451 126.351C58.736 126.439 58.4998 130.81 58.5306 130.798C59.0228 130.611 59.3693 128.071 59.4667 127.698C60.4166 124.065 61.1606 120.371 61.877 116.663C62.4085 113.912 63.0106 111.189 63.6292 108.466C63.9494 107.056 64.1317 105.508 64.6019 104.151C64.7847 103.624 64.7797 105.322 64.7378 105.893C64.4561 109.724 63.7534 113.501 63.111 117.243C62.6073 120.177 62.0332 123.094 61.6719 126.066C61.6561 126.196 61.3473 129.725 61.7649 129.044C62.5533 127.758 62.9491 126.059 63.361 124.599C64.4334 120.799 65.1047 116.859 65.7196 112.916C66.1273 110.301 66.5124 107.685 66.9897 105.089C67.1622 104.152 67.1797 102.228 67.8208 101.458C68.0997 101.123 68.2353 102.358 68.2429 102.818C68.2922 105.811 67.9157 108.781 67.4666 111.678C67.0559 114.328 66.4809 116.928 66.0121 119.561C65.782 120.854 65.0824 122.984 65.5716 124.394C65.793 125.032 66.009 123.212 66.1608 122.595C66.9065 119.566 67.6312 116.531 68.3192 113.483C69.1441 109.828 69.8636 106.153 70.5345 102.452C71.0537 99.5876 70.9264 108.454 70.5566 111.357C70.4214 112.418 68.068 124.653 69.2214 124.945C70.1309 125.176 71.7681 114.095 71.9649 113.163C72.3844 111.177 72.8205 109.198 73.1897 107.196C73.2612 106.808 73.2919 105.076 73.6545 104.79C74.1475 104.401 74.0243 106.115 74.0521 106.779C74.1545 109.232 73.6566 111.609 73.4693 114.014C73.3519 115.523 73.3626 117.05 73.6223 118.587C73.6991 119.041 73.8267 119.859 74.0511 119.001C75.0918 115.024 76.8079 111.32 77.7223 107.294C77.7392 107.22 77.9777 105.785 77.9613 105.941C77.8519 106.975 77.8194 108.023 77.7092 109.058C77.655 109.567 76.5676 118.534 77.2372 118.521C77.4767 118.516 77.684 116.841 77.6951 116.79C78.1434 114.742 78.644 112.709 79.2596 110.722C79.583 109.678 79.9255 108.602 80.4686 107.667C80.8439 107.021 81.4695 108.028 81.8307 108.389" stroke="#DCE0E8" stroke-width="3" stroke-linecap="round"/>
</g>
<g filter="url(#filter2_d_899_331)">
<path d="M59.7336 139.157C61.1158 137.28 62.7669 135.689 64.4508 134.093C66.2149 132.421 67.7286 130.536 69.3618 128.74C71.0961 126.834 72.9803 125.059 74.8021 123.237C76.6343 121.405 78.3552 119.548 80.2597 117.779C81.4694 116.656 82.8386 115.768 84.0165 114.59C85.0672 113.539 87.3351 115.714 88.448 116.527C90.6125 118.108 92.4423 119.812 94.343 121.713C95.1295 122.499 95.5562 123.481 96.0915 124.425C96.5162 125.175 97.2012 125.477 97.1455 126.429C97.0484 128.092 95.8922 128.783 95.0056 130.13C93.6116 132.247 91.2952 133.982 89.5126 135.765C86.9777 138.299 84.0337 140.392 81.4959 142.93C79.3984 145.028 77.0713 146.887 75.2404 149.249C74.1379 150.671 73.2525 152.308 71.9844 153.576C71.1062 154.455 70.7724 152.749 70.0045 151.981C68.6885 150.665 67.132 148.724 65.6618 147.13C65.4648 146.563 64.1413 145.938 63.8119 145.404C63.4645 144.841 62.4021 144.17 61.9604 143.68C61.3387 142.991 61.1749 142.895 60.5005 142.22C60.0465 141.766 59.8414 141.3 59.5499 140.759M62.4918 141.52C61.9656 141.814 62.9652 138.195 63.0453 137.975C63.5137 136.686 64.0598 135.437 64.5727 134.171C64.6023 134.098 65.2773 132.104 65.2127 133.206C65.008 136.697 64.0775 139.964 64.0806 143.524C64.0814 144.352 63.8998 145.73 64.2051 146.587C64.5363 147.516 64.969 144.943 65.2424 144.07C66.5737 139.821 67.8137 135.531 69.1281 131.274C69.2826 130.774 69.6553 129.326 69.786 129.868C70.2927 131.97 69.6476 134.653 69.5153 136.691C69.447 137.744 68.6127 150.221 68.9958 150.202C69.7186 150.167 70.2414 146.818 70.3417 146.418C71.1886 143.033 71.8077 139.57 72.4344 136.114L72.468 135.929C72.9483 133.281 73.4281 130.635 73.8095 127.958C73.9885 126.702 74.0327 125.276 74.3949 124.072C75.6279 119.974 73.383 132.751 72.4731 136.969C71.8388 139.91 71.2123 142.867 70.7639 145.865C70.6299 146.761 70.4958 147.85 70.4758 148.787C70.4669 149.205 70.5035 150.346 70.7609 150.047C71.6708 148.988 71.9864 146.723 72.373 145.411C73.6514 141.071 74.7199 136.648 75.8785 132.263C76.024 131.713 78.2699 122.008 78.9178 122.232C79.9888 122.603 77.9216 131.773 77.8744 132.023C76.9816 136.751 75.5654 141.638 75.455 146.572C75.442 147.158 75.8731 145.521 75.9933 144.961C76.8641 140.907 77.6285 136.816 78.4766 132.754C79.2854 128.881 80.0754 125 80.8975 121.131C81.0102 120.6 81.7681 117.545 81.9632 120.032C82.1427 122.32 81.6683 124.617 81.2145 126.765C80.4652 130.311 79.5609 133.811 78.7658 137.343C78.1804 139.943 76.5435 147.745 77.4843 145.291C77.9395 144.104 78.0984 142.68 78.3837 141.432C79.2666 137.571 80.2291 133.742 81.4026 129.991C82.2524 127.275 83.1299 124.558 84.1228 121.905C84.4977 120.903 84.9214 118.978 85.7497 118.229C85.8408 118.147 85.6146 120.855 85.6115 120.872C85.015 124.071 83.9029 127.088 83.0532 130.194C82.3683 132.697 81.7151 135.229 81.2324 137.803C81.0526 138.762 80.4485 140.678 80.864 141.749C81.1754 142.551 81.7589 140.454 82.0148 139.704C83.0583 136.642 83.7461 133.414 84.5736 130.267C85.2693 127.621 85.9483 124.972 86.5855 122.304C86.7802 121.489 87.0161 120.481 87.2417 119.664C87.3751 119.181 87.4604 117.843 87.7945 118.282C88.2675 118.904 87.7391 121.233 87.6735 121.801C87.3464 124.637 86.7978 127.413 86.5543 130.27C86.4107 131.956 86.3258 133.666 86.297 135.373C86.2956 135.461 86.1502 137.012 86.6139 136.291C88.8713 132.785 89.7245 127.986 90.5362 123.833C90.7164 122.911 90.7508 121.529 91.1994 120.698C91.329 120.458 91.9557 122.804 91.9725 122.933C92.3608 125.915 91.9408 128.755 91.5054 131.595C91.2263 133.415 92.6711 128.172 93.2223 126.447C93.71 124.921 93.3856 124.916 93.9055 123.404C94.1254 122.765 90.4402 123.89 90.7477 124.561C90.9978 125.106 93.5239 124.938 93.5413 125.463L94.4556 126.061C94.5142 127.824 95.7743 125.724 95.8857 127.491C96.0343 129.85 96.5736 127.073 96.7683 126.267" stroke="#D20F39" stroke-opacity="0.5" stroke-width="3" stroke-linecap="round"/>
</g>
<g filter="url(#filter3_d_899_331)">
<path d="M89.7207 124.919C89.3029 125.337 91.0146 127.128 91.3532 127.649C91.6244 128.066 92.4408 129.978 93.07 129.919C93.5938 129.87 94.3278 129.119 94.7523 128.844C95.8984 128.102 96.8845 127.297 97.8491 126.332C101.329 122.853 104.808 119.374 108.287 115.894C112.194 111.988 115.767 107.818 119.665 103.92C123.02 100.566 126.28 97.1063 129.638 93.7482C130.29 93.096 130.725 92.264 131.371 91.6175C131.689 91.2996 131.776 90.9398 132.028 90.5857C132.458 89.9811 133.061 89.5076 133.483 88.8988C133.957 88.2151 134.739 87.5759 134.951 86.7566C135.016 86.5046 135.33 86.4132 135.38 86.1729C135.45 85.8406 134.91 85.224 134.684 84.9699C134.101 84.3146 133.753 83.5554 132.843 83.6736C132.361 83.7363 131.863 83.7852 131.378 83.8686C130.342 84.0469 129.658 85.0951 128.881 85.6479C126.602 87.2709 124.748 89.4942 122.778 91.4643C120.764 93.4776 118.751 95.4908 116.738 97.504C115.732 98.5099 114.955 99.6848 113.945 100.695C113.023 101.617 112.101 102.539 111.178 103.461C109.236 105.404 107.238 107.293 105.476 109.407C104.709 110.327 103.98 111.272 103.223 112.19C102.452 113.125 101.51 113.897 100.746 114.843C99.7838 116.036 98.546 116.981 97.574 118.17C96.6231 119.333 95.6693 120.482 94.6525 121.588C93.2931 123.067 91.9149 124.514 90.4933 125.935C90.0779 126.351 90.8622 125.567 90.9528 125.476C91.4572 124.972 91.4222 124.705 91.6693 125.555C91.7689 125.897 92.0963 128.05 92.3997 127.795C93.0499 127.249 93.4438 126.464 93.7474 125.663C94.3974 123.948 94.8293 122.149 95.7148 120.559C95.7402 120.514 96.1142 119.678 96.0841 120.113C96.0199 121.039 96.2979 122.065 96.3661 123.011C96.3751 123.136 96.372 124.686 96.7291 124.228C97.5235 123.208 97.6245 121.68 97.9087 120.409C97.9861 120.062 99.8026 114.113 100.278 114.45C100.558 114.648 100.745 115.503 100.838 115.779C101.012 116.295 101.153 117.02 101.538 117.464C102.646 118.741 104.064 113.459 104.183 113.085C104.377 112.478 106.585 106.062 107.78 107.5C108.292 108.116 108.517 109.007 108.667 109.728C108.689 109.836 108.791 110.979 109.17 110.793C109.629 110.567 109.945 109.962 110.146 109.519C110.716 108.262 111.044 106.875 111.565 105.592C111.926 104.703 112.358 103.751 112.926 102.995C113.444 102.305 113.95 103.083 114.221 103.709C114.68 104.768 115.144 105.673 116.023 104.536C116.817 103.509 117.071 102.154 117.53 100.931C118.024 99.6127 118.679 98.4272 119.617 97.4193C120.71 96.2441 120.71 98.0396 121.455 98.7509C122.438 99.6899 123.768 95.8715 123.908 95.5023C124.1 94.9991 125.967 90.4038 127.068 91.3932C127.457 91.7436 127.994 93.4205 128.438 92.9606C129.812 91.5368 129.973 89.1903 130.694 87.3578C130.791 87.1118 130.972 86.3238 131.233 86.1897C131.352 86.1283 131.341 86.4721 131.394 86.6136C131.551 87.0313 131.687 87.4632 131.867 87.8745C132.278 88.8101 132.823 86.9264 132.917 86.6922C133.183 86.0288 133.472 85.3944 133.827 84.7884" stroke="#7287FD" stroke-opacity="0.5" stroke-width="3" stroke-linecap="round"/>
</g>
<g filter="url(#filter4_d_899_331)">
<path d="M94.4556 131.623C94.1547 132.028 96.0186 133.955 96.4234 134.271C97.1268 134.82 98.1435 135.339 98.9463 135.304C99.3394 135.287 99.459 135.058 99.7351 134.833C100.282 134.388 100.97 134.126 101.536 133.704C103.282 132.401 104.733 130.671 106.267 129.137C107.635 127.769 109.185 126.485 110.243 124.843C111.325 123.164 112.953 121.942 113.999 120.251C114.968 118.686 116.43 117.409 117.652 116.045C118.657 114.924 119.665 113.832 120.732 112.765C121.655 111.842 122.226 110.635 123.153 109.707L126.188 106.673C128.178 104.683 130.037 102.303 132.32 100.647C133.393 99.8681 134.275 98.7982 135.208 97.8649C135.642 97.4303 136.1 97.3969 136.555 96.942L141.089 92.4076C141.433 92.0632 142.208 91.5779 142.085 90.964C141.931 90.1922 141.761 89.4008 140.977 88.9163C138.951 87.6631 137.499 89.2153 136.328 90.3863C135.02 91.695 133.673 92.9746 132.422 94.3394C129.972 97.0131 127.695 99.8395 125.249 102.514C122.983 104.99 120.493 107.281 118.12 109.654L105.742 122.032C102.316 125.458 98.6998 128.651 95.2714 132.079M98.9088 130.137C98.1879 131.605 98.3621 133.337 98.4336 135.051C98.4383 135.163 98.3942 136.677 98.5912 136.719C99.0081 136.807 99.464 134.746 99.517 134.545C100.164 132.087 100.6 129.498 101.826 127.315C102.069 126.881 102.332 128.155 102.356 128.245C102.662 129.419 102.896 130.617 103.089 131.797C103.13 132.053 103.11 132.999 103.347 133.235C103.406 133.294 103.453 133.132 103.473 133.062C103.659 132.411 103.698 131.672 103.758 130.987C103.951 128.787 104.013 126.534 104.543 124.433C104.756 123.587 105.065 122.092 105.824 121.574C106.097 121.387 107.042 125.281 107.132 125.682C107.16 125.809 107.369 127.097 107.721 126.8C108.38 126.243 108.65 125.205 108.83 124.36C109.296 122.179 109.329 119.495 110.703 117.754C111.061 117.3 111.123 118.73 111.152 118.883C111.319 119.788 111.442 120.678 111.55 121.581C111.592 121.934 111.701 122.032 111.924 121.725C112.577 120.829 112.676 119.546 112.889 118.441C113.156 117.06 113.547 115.821 114.218 114.64C114.353 114.402 114.794 113.273 115.207 113.98C115.368 114.254 116.173 116.98 116.434 116.827C118.019 115.9 117.864 112.687 118.432 111.085C118.673 110.406 118.981 109.762 119.368 109.172C119.737 108.609 119.822 108.899 119.992 109.484L120.002 109.515C120.09 109.817 120.488 112.437 120.736 112.29C121.892 111.603 121.668 109.299 121.91 108.114C121.982 107.76 123.203 103.406 123.923 103.898C124.656 104.398 124.731 105.748 125.276 106.431C126.191 107.576 126.772 104.031 126.824 103.799C126.949 103.245 127.619 100.404 128.458 100.423C128.831 100.432 129.447 102.467 129.579 102.835C129.854 103.602 130.773 101.151 130.813 100.989C131.165 99.5496 131.525 97.6871 132.591 96.6673C133.436 95.858 134.336 101.079 134.969 97.5155C135.224 96.0752 135.233 94.5228 135.901 93.2389C136.255 92.5594 137.338 95.4713 137.426 95.764C137.788 96.962 137.855 95.1937 137.897 94.8345C138.008 93.8773 138.214 92.9565 138.509 92.0674C138.576 91.8664 138.731 91.0413 138.976 90.9646C139.319 90.8575 139.942 92.9785 140.342 93.0604C140.691 93.1318 140.827 91.5502 140.848 91.3768C140.933 90.6764 141.032 90.1848 141.347 89.6061" stroke="#EA76CB" stroke-opacity="0.5" stroke-width="3" stroke-linecap="round"/>
</g>
<g filter="url(#filter5_d_899_331)">
<path d="M101.428 137.52C101.333 137.672 100.799 138.711 101.352 138.18C101.907 137.648 102.362 137.051 102.87 136.478C104.245 134.926 105.818 133.519 107.284 132.053C109.109 130.228 110.831 128.311 112.655 126.488C113.81 125.332 114.713 124.039 115.863 122.889C118.707 120.046 121.584 117.203 124.304 114.242C125.991 112.407 127.405 110.372 129.168 108.61L141.361 96.417C141.75 96.0277 142.127 95.6211 142.531 95.2468C143.564 94.289 145.403 94.7465 146.523 95.4574C147.139 95.8482 147.784 96.7798 147.822 97.4513C147.847 97.8975 148.012 98.2029 147.804 98.6392C147.566 99.136 147.038 99.5758 146.697 100.006C144.576 102.684 141.723 104.828 139.314 107.237L111.045 135.506C109.654 136.897 107.889 137.883 106.495 139.276C106.047 139.724 104.934 140.755 104.405 141.038C103.728 141.4 103.874 140.887 103.031 140.595C102.349 140.359 101.512 140.035 101.519 139.226C101.529 138.212 102.661 137.456 103.3 136.817M103.858 136.455C103.926 137.484 104.35 138.491 104.734 139.456C105.054 140.263 105.331 140.041 105.601 139.261C105.935 138.294 105.841 137.23 105.975 136.222C106.119 135.147 106.681 136.228 107.011 136.746C107.335 137.256 107.712 138.41 108.277 138.707C108.988 139.082 108.995 135.975 108.996 135.952C109.119 134.39 109.293 127.602 112.232 130.745C112.465 130.995 113.53 132.748 114.043 132.27C114.789 131.575 114.655 129.981 114.706 129.05C114.734 128.555 115.105 124.067 116.16 124.412C116.639 124.569 117.298 126.511 117.503 126.471C118.379 126.297 118.329 124.101 118.436 123.479C118.501 123.099 118.939 121.374 119.653 121.937C119.872 122.11 121.289 124.032 121.312 124.026C122.191 123.794 122.024 120.991 122.173 120.328C122.375 119.426 122.522 117.585 123.583 118.917C123.69 119.052 124.65 120.781 124.899 120.396C125.334 119.721 125.217 118.517 125.316 117.748C125.473 116.519 125.751 115.359 126.528 114.402C127.239 113.525 127.829 114.203 128.483 114.916C129.194 115.69 129.335 115.407 129.523 114.331C129.815 112.666 129.944 110.941 130.791 109.467C131.34 108.512 131.857 109.015 132.457 109.783C132.934 110.393 133.241 111.186 133.703 110.14C134.3 108.789 134.155 107.227 134.862 105.872C135.329 104.977 135.5 104.98 136.05 105.833C136.223 106.103 136.917 107.817 137.3 106.9C137.623 106.131 137.61 105.19 137.827 104.381C138.07 103.473 138.442 102.629 138.968 101.864C139.329 101.34 139.739 100.726 140.233 100.318C140.818 99.8334 141.269 100.881 141.486 101.295C141.876 102.038 142.153 102.794 142.321 103.602C142.361 103.795 142.426 104.317 142.532 104.16C142.718 103.886 142.574 103.298 142.546 102.998C142.48 102.315 142.469 101.654 142.587 100.986C142.642 100.676 142.672 99.5388 143.146 99.9606C143.38 100.168 144.262 101.466 144.547 101.3C145.453 100.774 144.566 97.0906 146.171 97.456" stroke="#DCE0E8" stroke-width="3" stroke-linecap="round"/>
</g>
<g filter="url(#filter6_d_899_331)">
<path d="M112.111 140.46C111.773 140.798 111.302 141.118 111.234 141.643C111.157 142.244 111.248 142.883 111.283 143.502C111.318 144.117 111.155 144.79 111.265 145.403C111.547 146.969 112.085 142.545 112.3 141.049C112.429 140.148 112.729 139.317 113.049 138.498C113.301 137.853 113.472 138.225 113.739 138.808C114.174 139.759 114.512 140.761 114.704 141.753C114.734 141.907 114.706 142.994 115.004 142.653C115.551 142.03 115.55 141.074 115.591 140.23C115.656 138.895 115.639 137.521 116.098 136.308C116.111 136.275 116.399 135.493 116.429 135.859C116.513 136.884 117.074 137.975 117.345 138.994C117.366 139.075 117.713 140.519 117.733 140.513C118.328 140.327 118.14 138.146 118.167 137.677C118.244 136.362 118.277 135.025 118.495 133.746C118.511 133.653 118.823 132.245 118.915 132.396C119.356 133.119 119.606 134.105 119.832 134.882C120.158 136.004 120.155 137.347 120.575 138.425C120.856 139.147 120.976 137.071 121.016 136.347C121.119 134.501 121.067 132.61 121.304 130.796C121.315 130.713 121.626 129.162 121.74 129.371C122.361 130.513 122.553 132.078 122.87 133.281C122.895 133.375 123.261 134.985 123.363 134.884C124.077 134.169 124.006 132.49 124.136 131.508C124.322 130.118 124.451 128.724 124.59 127.322C124.617 127.043 124.661 125.405 125.111 126.424C125.696 127.745 126.007 129.133 126.228 130.5C126.308 130.995 126.261 132.392 126.473 131.985C126.841 131.28 126.684 130.163 126.702 129.354C126.731 128.064 126.923 126.905 127.484 125.817C127.529 125.73 128.106 124.876 128.121 124.944L128.138 125.02C128.281 125.663 128.426 126.317 128.486 126.958C128.512 127.241 128.369 128.221 128.62 128.473C128.744 128.596 129.066 125.61 129.086 125.369C129.154 124.555 129.334 123.81 129.568 123.058M129.568 123.058C129.57 123.054 129.571 123.05 129.572 123.046C129.749 122.482 129.572 122.656 129.568 123.058ZM129.568 123.058C129.568 123.099 129.569 123.142 129.573 123.186C129.637 123.972 129.868 124.798 130.023 125.586C130.117 126.062 130.272 126.825 130.596 126.049C130.961 125.175 130.939 124.105 131.184 123.177C131.477 122.067 131.984 121.042 132.44 120.014C132.611 119.626 132.574 119.986 132.616 120.25C132.823 121.547 132.805 122.769 132.844 124.048C132.897 125.768 133.605 120.829 134.053 119.248C134.247 118.564 134.46 117.64 134.9 117.094C134.962 117.017 135.28 118.707 135.314 118.929C135.325 118.998 135.489 120.375 135.55 120.365C135.998 120.292 136.173 119.256 136.255 118.93C136.517 117.89 136.884 116.897 137.14 115.855C137.364 114.943 137.541 113.992 137.993 113.189C138.046 113.094 138.305 112.579 138.431 112.927C138.807 113.961 138.87 115.129 139.032 116.177C139.357 118.29 140.761 113.206 140.797 113.093C141.305 111.502 141.835 109.868 142.909 108.626C142.981 108.542 143.587 107.754 143.566 108.063C143.521 108.718 143.161 110.207 143.544 110.841C143.772 111.219 144.199 110.398 144.361 110.047C144.905 108.865 145.184 107.54 145.562 106.279C145.662 105.944 146.563 102.44 147.214 102.602C147.998 102.797 148.323 105.596 148.893 106.221C149.434 106.814 150.027 105.195 150.096 104.995C150.564 103.638 150.872 102.203 151.314 100.833M108.262 142.19C107.803 142.649 107.007 143.378 107.07 144.147C107.161 145.262 108.268 146.155 109.037 146.925C109.621 147.509 110.131 147.528 110.763 147.201C113.663 145.697 115.24 142.815 117.817 140.947C119.132 139.994 120.216 138.713 121.359 137.57L132.523 126.406C133.915 125.015 134.937 123.387 136.227 121.902C138.006 119.853 140.104 118.092 141.799 115.965C143.875 113.359 146.191 111.042 148.547 108.687L151.868 105.366C152.354 104.88 152.929 104.432 153.129 103.728C153.289 103.166 152.686 102.416 152.33 101.949C151.667 101.079 150.961 101.003 150.007 100.845C149.067 100.69 148.356 101.884 147.791 102.449L141.682 108.558C137.598 112.642 133.381 116.647 129.287 120.741C125.184 124.843 121.311 129.141 117.206 133.246L108.262 142.19Z" stroke="#EA76CB" stroke-opacity="0.5" stroke-width="3" stroke-linecap="round"/>
</g>
<g filter="url(#filter7_d_899_331)">
<path d="M115.038 147.706C115.002 147.832 114.711 148.245 114.914 148.042L117.303 145.653M117.303 145.653L119.643 143.313C122.578 140.378 125.313 137.219 128.245 134.287C129.419 133.113 130.695 132 131.697 130.67C132.853 129.137 133.813 127.447 135.173 126.087L142.102 119.158C146.239 115.022 150.507 110.965 154.627 106.846C155.381 106.092 156.043 105.6 157.264 106.433C157.842 106.828 158.408 107.535 158.888 108.047C159.33 108.518 159.075 109.61 159.002 110.101C158.716 112.023 156.497 113.453 155.246 114.704L149.602 120.348C142.812 127.138 135.917 133.821 129.123 140.615L123.074 146.664C121.781 147.957 120.453 149.866 118.785 150.694C117.8 151.183 116.707 153.155 115.32 151.768C114.611 151.059 113.733 149.763 114.084 148.872C114.621 147.507 116.03 146.307 117.303 145.653ZM117.441 146.15C117.135 147.468 117.191 148.847 117.142 150.23C117.132 150.496 117.004 151.012 117.152 151.291C117.282 151.532 118.013 150.669 118.065 150.613C119.209 149.384 119.358 147.556 119.892 145.961C120.136 145.231 121.109 148.048 121.207 148.366C121.214 148.389 121.41 149.401 121.599 149.128C122.133 148.358 122.108 147.04 122.206 146.096C122.399 144.232 122.575 141.693 124.117 140.558C124.702 140.127 125.678 141.705 125.876 142.167C125.905 142.234 126.122 142.941 126.2 142.891C126.574 142.649 126.894 142.193 127.044 141.775C127.66 140.063 127.539 138.003 128.605 136.506C129.155 135.734 129.785 136.973 130.129 137.561C130.734 138.593 131.109 137.621 131.314 136.846C131.654 135.567 131.693 134.182 132.053 132.905C132.214 132.332 132.504 131.025 133.116 130.759C133.87 130.429 134.862 133.611 135.164 134.056C135.32 134.287 135.802 132.944 135.806 132.919C136.015 131.839 136.031 130.697 136.24 129.613C136.305 129.271 136.942 126.256 137.704 127.018C138.373 127.687 138.399 128.753 139.003 129.357C139.694 130.048 140.232 126.351 140.26 126.134C140.3 125.818 140.846 122.722 141.563 123.148C142.299 123.585 142.234 125.343 142.643 125.518C143.467 125.869 144.055 122.208 144.171 121.846C144.418 121.075 144.938 119.095 145.779 120.615C145.938 120.903 146.529 122.824 146.877 121.872C147.423 120.379 147.052 118.576 147.771 117.128C148.31 116.043 148.639 116.637 149.08 117.656C149.519 118.673 149.954 116.971 150.02 116.657C150.299 115.335 150.496 114.156 151.432 113.22C151.807 112.845 152.383 113.83 152.553 114.171C152.615 114.295 152.747 114.884 152.943 114.64C153.386 114.091 153.379 113.157 153.429 112.447C153.532 110.998 153.563 108.378 155.071 107.72C155.872 107.371 156.439 110.035 156.52 110.439C156.644 111.049 156.822 111.657 157.039 110.697C157.256 109.736 156.808 108.525 156.724 107.503" stroke="#7287FD" stroke-opacity="0.5" stroke-width="3" stroke-linecap="round"/>
</g>
<g filter="url(#filter8_d_899_331)">
<path d="M109.387 63.9386C108.657 62.674 110.21 64.4646 110.386 64.629C118.073 71.8051 126.472 78.1832 134.388 85.1021C140.313 90.2806 145.985 95.75 152.086 100.728C154.935 103.053 157.93 105.179 160.722 107.569" stroke="#4C4F69" stroke-opacity="0.5" stroke-width="3" stroke-linecap="round"/>
</g>
<g filter="url(#filter9_d_899_331)">
<path d="M74.4545 63.4805C75.1539 62.2689 73.6806 63.9928 73.5141 64.1516C66.248 71.084 58.3326 77.2707 50.8579 83.9626C45.2634 88.9713 39.8986 94.252 34.1437 99.0733C31.4555 101.325 28.6359 103.391 25.9998 105.703" stroke="#4C4F69" stroke-opacity="0.5" stroke-width="3" stroke-linecap="round"/>
</g>
<g filter="url(#filter10_d_899_331)">
<path d="M100.16 39.4448C94.6756 39.7876 89.104 44.2014 87.1745 49.2851C85.8357 52.8125 87.2518 57.3128 91.7334 56.9788C96.5499 56.6198 100.082 51.6683 102.838 48.2437M96.3601 41.262C95.8848 39.6776 92.4738 39.8006 91.3303 39.7486C88.6668 39.6275 85.5613 39.4475 82.8195 40.149M82.8195 40.149C81.1611 40.5732 79.6358 41.32 78.4219 42.5973C75.158 46.0317 73.6666 51.9006 75.1725 56.4405C77.0867 62.2113 84.6105 64.7518 90.0839 64.9422C97.1389 65.1876 107.971 62.3036 111.85 55.7283C115.247 49.9706 110.283 44.3533 105.841 41.1284C98.4891 35.7907 89.0289 34.7715 82.8195 40.149ZM82.8195 40.149C81.207 41.5454 79.8137 43.3731 78.7335 45.6686M83.5407 50.4759C83.5407 54.8892 83.1401 59.2803 83.1401 63.6959M90.9297 58.8663C90.7151 60.889 90.351 62.8597 90.351 64.8977M99.1643 57.1081V66.0995M82.7395 37.2559C81.8699 29.6776 82.5681 -20.0432 83.5407 -27.5M98.3631 41.262C98.4609 31.775 98.3631 -18.0076 98.3631 -27.5" stroke="#4C4F69" stroke-opacity="0.5" stroke-width="3" stroke-linecap="round"/>
</g>
<g filter="url(#filter11_d_899_331)">
<path d="M54.7236 82.757C55.9828 82.9298 56.9517 83.723 57.9469 84.4749C62.2813 87.7495 65.3031 92.0538 69.5 95.5C75.2712 100.239 80.0997 105.923 86 110.5C87.6827 111.805 91.2342 113.812 92.5 115.5" stroke="#4C4F69" stroke-opacity="0.5" stroke-width="3" stroke-linecap="round"/>
</g>
<g filter="url(#filter12_d_899_331)">
<path d="M26 109C29.1861 113.631 33.4754 117.149 37 121.5C41.5127 127.071 48 133 51.5 137C54 139.5 56.5614 142.902 59.484 145.276C61.683 147.063 64.0284 148.71 66.079 150.69C67.4081 151.974 70 153.787 70 156" stroke="#4C4F69" stroke-opacity="0.5" stroke-width="3" stroke-linecap="round"/>
</g>
<g filter="url(#filter13_d_899_331)">
<path d="M90 136C88.6787 138.01 87.0736 139.876 85.7431 141.896C83.3543 145.522 79.6965 147.847 76.7523 151.021C76.4618 151.334 72.5069 155.432 72 154.963" stroke="#4C4F69" stroke-opacity="0.5" stroke-width="3" stroke-linecap="round"/>
</g>
<g filter="url(#filter14_d_899_331)">
<path d="M86.4429 127.068C89.6534 130.279 92.9239 133.435 96.1658 136.614C100.753 141.112 105.661 145.14 110.529 149.312C112.144 150.697 113.503 152.553 115.231 153.775C115.88 154.235 116.999 154.773 117.206 155.599" stroke="#4C4F69" stroke-opacity="0.5" stroke-width="3" stroke-linecap="round"/>
</g>
<g filter="url(#filter15_d_899_331)">
<path d="M160.401 108.897C159.6 109.446 159.198 110.589 158.701 111.386C157.685 113.016 156.54 115.022 155 116.5C152.04 119.341 150.329 121.324 148 124C143.884 128.729 139.591 132.311 134.748 136.145C132.705 137.762 130.833 139.651 128.921 141.422C127.277 142.946 126.159 144.933 124.502 146.426C123.519 147.312 122.479 148.08 121.447 148.905C120.593 149.589 119.964 150.433 119.198 151.198C118.785 151.612 118.368 151.914 118.003 152.376C117.805 152.627 117.624 153.079 117.365 153.209" stroke="#4C4F69" stroke-opacity="0.5" stroke-width="3" stroke-linecap="round"/>
</g>
<g filter="url(#filter16_d_899_331)">
<path d="M87.5586 125.952C89.0915 123.835 91.2203 122.009 93.1019 120.214C95.6523 117.781 97.8155 114.969 100.31 112.475C102 110.785 103.897 109.276 105.659 107.658C107.631 105.845 109.532 103.967 111.538 102.194C112.942 100.954 113.986 99.3348 115.373 98.0498C117.481 96.0954 119.127 93.6426 121.128 91.5767C123.1 89.5416 124.549 87.2034 126.805 85.4223C127.653 84.7527 128.398 83.9972 129.16 83.2351" stroke="#4C4F69" stroke-opacity="0.5" stroke-width="3" stroke-linecap="round"/>
</g>
</g>
<defs>
<filter id="filter0_d_899_331" x="17.502" y="74.6866" width="58.7656" height="56.4811" filterUnits="userSpaceOnUse" color-interpolation-filters="sRGB">
<feFlood flood-opacity="0" result="BackgroundImageFix"/>
<feColorMatrix in="SourceAlpha" type="matrix" values="0 0 0 0 0 0 0 0 0 0 0 0 0 0 0 0 0 0 127 0" result="hardAlpha"/>
<feOffset/>
<feGaussianBlur stdDeviation="4"/>
<feColorMatrix type="matrix" values="0 0 0 0 0.537255 0 0 0 0 0.705882 0 0 0 0 0.980392 0 0 0 0.5 0"/>
<feBlend mode="normal" in2="BackgroundImageFix" result="effect1_dropShadow_899_331"/>
<feBlend mode="normal" in="SourceGraphic" in2="effect1_dropShadow_899_331" result="shape"/>
</filter>
<filter id="filter1_d_899_331" x="33.6641" y="89.1547" width="58.7725" height="57.1321" filterUnits="userSpaceOnUse" color-interpolation-filters="sRGB">
<feFlood flood-opacity="0" result="BackgroundImageFix"/>
<feColorMatrix in="SourceAlpha" type="matrix" values="0 0 0 0 0 0 0 0 0 0 0 0 0 0 0 0 0 0 127 0" result="hardAlpha"/>
<feOffset/>
<feGaussianBlur stdDeviation="4"/>
<feColorMatrix type="matrix" values="0 0 0 0 0.803922 0 0 0 0 0.839216 0 0 0 0 0.956863 0 0 0 0.5 0"/>
<feBlend mode="normal" in2="BackgroundImageFix" result="effect1_dropShadow_899_331"/>
<feBlend mode="normal" in="SourceGraphic" in2="effect1_dropShadow_899_331" result="shape"/>
</filter>
<filter id="filter2_d_899_331" x="50.0493" y="104.81" width="56.5996" height="58.5141" filterUnits="userSpaceOnUse" color-interpolation-filters="sRGB">
<feFlood flood-opacity="0" result="BackgroundImageFix"/>
<feColorMatrix in="SourceAlpha" type="matrix" values="0 0 0 0 0 0 0 0 0 0 0 0 0 0 0 0 0 0 127 0" result="hardAlpha"/>
<feOffset/>
<feGaussianBlur stdDeviation="4"/>
<feColorMatrix type="matrix" values="0 0 0 0 0.952941 0 0 0 0 0.545098 0 0 0 0 0.658824 0 0 0 0.5 0"/>
<feBlend mode="normal" in2="BackgroundImageFix" result="effect1_dropShadow_899_331"/>
<feBlend mode="normal" in="SourceGraphic" in2="effect1_dropShadow_899_331" result="shape"/>
</filter>
<filter id="filter3_d_899_331" x="80.1558" y="74.1611" width="64.7305" height="65.2594" filterUnits="userSpaceOnUse" color-interpolation-filters="sRGB">
<feFlood flood-opacity="0" result="BackgroundImageFix"/>
<feColorMatrix in="SourceAlpha" type="matrix" values="0 0 0 0 0 0 0 0 0 0 0 0 0 0 0 0 0 0 127 0" result="hardAlpha"/>
<feOffset/>
<feGaussianBlur stdDeviation="4"/>
<feColorMatrix type="matrix" values="0 0 0 0 0.454902 0 0 0 0 0.780392 0 0 0 0 0.92549 0 0 0 0.5 0"/>
<feBlend mode="normal" in2="BackgroundImageFix" result="effect1_dropShadow_899_331"/>
<feBlend mode="normal" in="SourceGraphic" in2="effect1_dropShadow_899_331" result="shape"/>
</filter>
<filter id="filter4_d_899_331" x="84.9233" y="78.9517" width="66.6763" height="67.2711" filterUnits="userSpaceOnUse" color-interpolation-filters="sRGB">
<feFlood flood-opacity="0" result="BackgroundImageFix"/>
<feColorMatrix in="SourceAlpha" type="matrix" values="0 0 0 0 0 0 0 0 0 0 0 0 0 0 0 0 0 0 127 0" result="hardAlpha"/>
<feOffset/>
<feGaussianBlur stdDeviation="4"/>
<feColorMatrix type="matrix" values="0 0 0 0 0.960784 0 0 0 0 0.760784 0 0 0 0 0.905882 0 0 0 0.5 0"/>
<feBlend mode="normal" in2="BackgroundImageFix" result="effect1_dropShadow_899_331"/>
<feBlend mode="normal" in="SourceGraphic" in2="effect1_dropShadow_899_331" result="shape"/>
</filter>
<filter id="filter5_d_899_331" x="91.6045" y="85.2028" width="65.8032" height="65.4601" filterUnits="userSpaceOnUse" color-interpolation-filters="sRGB">
<feFlood flood-opacity="0" result="BackgroundImageFix"/>
<feColorMatrix in="SourceAlpha" type="matrix" values="0 0 0 0 0 0 0 0 0 0 0 0 0 0 0 0 0 0 127 0" result="hardAlpha"/>
<feOffset/>
<feGaussianBlur stdDeviation="4"/>
<feColorMatrix type="matrix" values="0 0 0 0 0.803922 0 0 0 0 0.839216 0 0 0 0 0.956863 0 0 0 0.5 0"/>
<feBlend mode="normal" in2="BackgroundImageFix" result="effect1_dropShadow_899_331"/>
<feBlend mode="normal" in="SourceGraphic" in2="effect1_dropShadow_899_331" result="shape"/>
</filter>
<filter id="filter6_d_899_331" x="97.5659" y="91.3307" width="65.0898" height="65.5832" filterUnits="userSpaceOnUse" color-interpolation-filters="sRGB">
<feFlood flood-opacity="0" result="BackgroundImageFix"/>
<feColorMatrix in="SourceAlpha" type="matrix" values="0 0 0 0 0 0 0 0 0 0 0 0 0 0 0 0 0 0 127 0" result="hardAlpha"/>
<feOffset/>
<feGaussianBlur stdDeviation="4"/>
<feColorMatrix type="matrix" values="0 0 0 0 0.960784 0 0 0 0 0.760784 0 0 0 0 0.905882 0 0 0 0.5 0"/>
<feBlend mode="normal" in2="BackgroundImageFix" result="effect1_dropShadow_899_331"/>
<feBlend mode="normal" in="SourceGraphic" in2="effect1_dropShadow_899_331" result="shape"/>
</filter>
<filter id="filter7_d_899_331" x="104.503" y="96.4978" width="64.1387" height="65.2564" filterUnits="userSpaceOnUse" color-interpolation-filters="sRGB">
<feFlood flood-opacity="0" result="BackgroundImageFix"/>
<feColorMatrix in="SourceAlpha" type="matrix" values="0 0 0 0 0 0 0 0 0 0 0 0 0 0 0 0 0 0 127 0" result="hardAlpha"/>
<feOffset/>
<feGaussianBlur stdDeviation="4"/>
<feColorMatrix type="matrix" values="0 0 0 0 0.454902 0 0 0 0 0.780392 0 0 0 0 0.92549 0 0 0 0.5 0"/>
<feBlend mode="normal" in2="BackgroundImageFix" result="effect1_dropShadow_899_331"/>
<feBlend mode="normal" in="SourceGraphic" in2="effect1_dropShadow_899_331" result="shape"/>
</filter>
<filter id="filter8_d_899_331" x="99.6929" y="53.9895" width="70.5293" height="63.0797" filterUnits="userSpaceOnUse" color-interpolation-filters="sRGB">
<feFlood flood-opacity="0" result="BackgroundImageFix"/>
<feColorMatrix in="SourceAlpha" type="matrix" values="0 0 0 0 0 0 0 0 0 0 0 0 0 0 0 0 0 0 127 0" result="hardAlpha"/>
<feOffset/>
<feGaussianBlur stdDeviation="4"/>
<feColorMatrix type="matrix" values="0 0 0 0 0.298039 0 0 0 0 0.309804 0 0 0 0 0.411765 0 0 0 0.5 0"/>
<feBlend mode="normal" in2="BackgroundImageFix" result="effect1_dropShadow_899_331"/>
<feBlend mode="normal" in="SourceGraphic" in2="effect1_dropShadow_899_331" result="shape"/>
</filter>
<filter id="filter9_d_899_331" x="16.5" y="53.5516" width="67.6416" height="61.6516" filterUnits="userSpaceOnUse" color-interpolation-filters="sRGB">
<feFlood flood-opacity="0" result="BackgroundImageFix"/>
<feColorMatrix in="SourceAlpha" type="matrix" values="0 0 0 0 0 0 0 0 0 0 0 0 0 0 0 0 0 0 127 0" result="hardAlpha"/>
<feOffset/>
<feGaussianBlur stdDeviation="4"/>
<feColorMatrix type="matrix" values="0 0 0 0 0.298039 0 0 0 0 0.309804 0 0 0 0 0.411765 0 0 0 0.5 0"/>
<feBlend mode="normal" in2="BackgroundImageFix" result="effect1_dropShadow_899_331"/>
<feBlend mode="normal" in="SourceGraphic" in2="effect1_dropShadow_899_331" result="shape"/>
</filter>
<filter id="filter10_d_899_331" x="65.0835" y="-37.0002" width="57.3921" height="112.6" filterUnits="userSpaceOnUse" color-interpolation-filters="sRGB">
<feFlood flood-opacity="0" result="BackgroundImageFix"/>
<feColorMatrix in="SourceAlpha" type="matrix" values="0 0 0 0 0 0 0 0 0 0 0 0 0 0 0 0 0 0 127 0" result="hardAlpha"/>
<feOffset/>
<feGaussianBlur stdDeviation="4"/>
<feColorMatrix type="matrix" values="0 0 0 0 0.803922 0 0 0 0 0.839216 0 0 0 0 0.956863 0 0 0 0.5 0"/>
<feBlend mode="normal" in2="BackgroundImageFix" result="effect1_dropShadow_899_331"/>
<feBlend mode="normal" in="SourceGraphic" in2="effect1_dropShadow_899_331" result="shape"/>
</filter>
<filter id="filter11_d_899_331" x="45.2236" y="73.2568" width="56.7764" height="51.7433" filterUnits="userSpaceOnUse" color-interpolation-filters="sRGB">
<feFlood flood-opacity="0" result="BackgroundImageFix"/>
<feColorMatrix in="SourceAlpha" type="matrix" values="0 0 0 0 0 0 0 0 0 0 0 0 0 0 0 0 0 0 127 0" result="hardAlpha"/>
<feOffset/>
<feGaussianBlur stdDeviation="4"/>
<feColorMatrix type="matrix" values="0 0 0 0 0.298039 0 0 0 0 0.309804 0 0 0 0 0.411765 0 0 0 0.5 0"/>
<feBlend mode="normal" in2="BackgroundImageFix" result="effect1_dropShadow_899_331"/>
<feBlend mode="normal" in="SourceGraphic" in2="effect1_dropShadow_899_331" result="shape"/>
</filter>
<filter id="filter12_d_899_331" x="16.5" y="99.4998" width="63" height="66.0002" filterUnits="userSpaceOnUse" color-interpolation-filters="sRGB">
<feFlood flood-opacity="0" result="BackgroundImageFix"/>
<feColorMatrix in="SourceAlpha" type="matrix" values="0 0 0 0 0 0 0 0 0 0 0 0 0 0 0 0 0 0 127 0" result="hardAlpha"/>
<feOffset/>
<feGaussianBlur stdDeviation="4"/>
<feColorMatrix type="matrix" values="0 0 0 0 0.298039 0 0 0 0 0.309804 0 0 0 0 0.411765 0 0 0 0.5 0"/>
<feBlend mode="normal" in2="BackgroundImageFix" result="effect1_dropShadow_899_331"/>
<feBlend mode="normal" in="SourceGraphic" in2="effect1_dropShadow_899_331" result="shape"/>
</filter>
<filter id="filter13_d_899_331" x="62.5" y="126.5" width="37" height="37.9999" filterUnits="userSpaceOnUse" color-interpolation-filters="sRGB">
<feFlood flood-opacity="0" result="BackgroundImageFix"/>
<feColorMatrix in="SourceAlpha" type="matrix" values="0 0 0 0 0 0 0 0 0 0 0 0 0 0 0 0 0 0 127 0" result="hardAlpha"/>
<feOffset/>
<feGaussianBlur stdDeviation="4"/>
<feColorMatrix type="matrix" values="0 0 0 0 0.298039 0 0 0 0 0.309804 0 0 0 0 0.411765 0 0 0 0.5 0"/>
<feBlend mode="normal" in2="BackgroundImageFix" result="effect1_dropShadow_899_331"/>
<feBlend mode="normal" in="SourceGraphic" in2="effect1_dropShadow_899_331" result="shape"/>
</filter>
<filter id="filter14_d_899_331" x="76.9429" y="117.568" width="49.7632" height="47.5317" filterUnits="userSpaceOnUse" color-interpolation-filters="sRGB">
<feFlood flood-opacity="0" result="BackgroundImageFix"/>
<feColorMatrix in="SourceAlpha" type="matrix" values="0 0 0 0 0 0 0 0 0 0 0 0 0 0 0 0 0 0 127 0" result="hardAlpha"/>
<feOffset/>
<feGaussianBlur stdDeviation="4"/>
<feColorMatrix type="matrix" values="0 0 0 0 0.298039 0 0 0 0 0.309804 0 0 0 0 0.411765 0 0 0 0.5 0"/>
<feBlend mode="normal" in2="BackgroundImageFix" result="effect1_dropShadow_899_331"/>
<feBlend mode="normal" in="SourceGraphic" in2="effect1_dropShadow_899_331" result="shape"/>
</filter>
<filter id="filter15_d_899_331" x="107.865" y="99.3972" width="62.0366" height="63.3117" filterUnits="userSpaceOnUse" color-interpolation-filters="sRGB">
<feFlood flood-opacity="0" result="BackgroundImageFix"/>
<feColorMatrix in="SourceAlpha" type="matrix" values="0 0 0 0 0 0 0 0 0 0 0 0 0 0 0 0 0 0 127 0" result="hardAlpha"/>
<feOffset/>
<feGaussianBlur stdDeviation="4"/>
<feColorMatrix type="matrix" values="0 0 0 0 0.298039 0 0 0 0 0.309804 0 0 0 0 0.411765 0 0 0 0.5 0"/>
<feBlend mode="normal" in2="BackgroundImageFix" result="effect1_dropShadow_899_331"/>
<feBlend mode="normal" in="SourceGraphic" in2="effect1_dropShadow_899_331" result="shape"/>
</filter>
<filter id="filter16_d_899_331" x="78.0586" y="73.7351" width="60.6016" height="61.7174" filterUnits="userSpaceOnUse" color-interpolation-filters="sRGB">
<feFlood flood-opacity="0" result="BackgroundImageFix"/>
<feColorMatrix in="SourceAlpha" type="matrix" values="0 0 0 0 0 0 0 0 0 0 0 0 0 0 0 0 0 0 127 0" result="hardAlpha"/>
<feOffset/>
<feGaussianBlur stdDeviation="4"/>
<feColorMatrix type="matrix" values="0 0 0 0 0.298039 0 0 0 0 0.309804 0 0 0 0 0.411765 0 0 0 0.5 0"/>
<feBlend mode="normal" in2="BackgroundImageFix" result="effect1_dropShadow_899_331"/>
<feBlend mode="normal" in="SourceGraphic" in2="effect1_dropShadow_899_331" result="shape"/>
</filter>
<clipPath id="clip0_899_331">
<rect width="192" height="192" fill="white"/>
</clipPath>
</defs>
</svg>
