<svg width="384" height="192" viewBox="0 0 384 192" fill="none" xmlns="http://www.w3.org/2000/svg">
<g clip-path="url(#clip0_1082_227)">
<g filter="url(#filter0_d_1082_227)">
<path d="M103.653 57.0327C103.737 56.1277 103.794 55.9424 103.832 56.2626M103.832 56.2626C103.857 56.4819 103.874 56.938 103.883 57.5623M103.832 56.2626C103.904 56.0669 104.047 55.9186 104.3 55.8525C105.189 55.6199 106.056 55.6396 106.961 55.6396L113.128 55.6396C115.384 55.6396 117.771 55.399 120.014 55.717C122.809 56.1135 125.485 56.6844 128.329 56.6844C130.195 56.6844 132.053 56.7268 133.911 56.549C134.549 56.488 138.034 56.0473 138.424 56.7811C138.55 57.019 138.461 57.5511 138.532 57.8259C138.736 58.6083 138.731 59.3505 138.847 60.1476C138.968 60.98 139.036 61.9041 139.089 62.7401C139.169 63.982 139.799 65.1908 139.979 66.4355C140.235 68.1968 140.3 69.9246 140.096 71.698C140.018 72.3766 139.924 73.343 139.539 73.9229C139.353 74.2028 139.087 74.3974 138.928 74.6968C138.749 75.0325 137.139 74.7936 136.824 74.7936C135.76 74.7936 134.686 74.8723 133.669 74.6291C133.26 74.5313 132.884 74.4453 132.455 74.4453C131.655 74.4453 130.97 74.0971 130.19 74.0971C129.31 74.0971 128.415 74.1483 127.538 74.0874C126.082 73.9863 124.713 73.7488 123.232 73.7488L112.481 73.7488C111.209 73.7488 109.851 73.8944 108.597 73.6618C107.31 73.423 105.973 73.7648 104.696 73.4393C103.554 73.1482 103.815 71.7315 103.815 70.7887C103.815 67.7349 103.931 60.6247 103.883 57.5623M103.832 56.2626C103.702 56.6111 103.794 57.1098 103.883 57.5623M103.883 57.5623C103.92 57.746 103.956 57.9221 103.976 58.0774M105.612 59.833C106.826 59.0492 108.136 58.5006 109.431 57.8798C110.785 57.231 112.069 56.1871 113.422 55.6074C114.468 55.1598 112.136 57.5671 111.3 58.3587C109.532 60.0334 107.463 61.4678 105.901 63.3637C105.486 63.8669 105.697 63.8294 106.153 63.6454C107.274 63.1938 108.384 62.7116 109.503 62.2557C112.392 61.0789 115.296 59.9582 118.217 58.8752C118.66 58.7109 119.531 57.9746 119.572 58.462C119.579 58.5531 119.474 58.6161 119.409 58.678C119.007 59.0635 118.372 59.4984 117.942 59.7922L117.91 59.8142C115.089 61.7463 112.181 63.4787 109.503 65.6361C108.491 66.4519 107.433 67.2908 106.551 68.2654C106.517 68.3026 105.754 69.0924 106.343 69.0354C107.239 68.9487 108.235 68.3821 109.025 68.0024C110.479 67.3034 111.893 66.5172 113.341 65.8051C117.174 63.9207 121.108 62.3218 125.071 60.7626C125.434 60.6198 126.801 59.8789 127.319 60.0208C127.984 60.2026 126.199 60.854 125.595 61.1946C121.552 63.4738 117.498 65.7229 113.738 68.4907C112.813 69.1724 111.901 69.8749 110.975 70.5566C110.686 70.7695 110.339 70.9815 110.957 70.6599C117.752 67.127 124.591 63.7208 131.527 60.4997C131.548 60.49 134.9 58.86 134.019 59.5137C130.657 62.0114 126.857 63.8533 123.455 66.3122C121.957 67.3945 120.497 68.545 119.066 69.7208C118.829 69.9158 117.406 70.8783 117.278 71.3641C117.148 71.8604 118.139 70.8566 118.569 70.6035C119.726 69.9236 120.929 69.3302 122.136 68.7536C125.591 67.1029 129.118 65.6255 132.701 64.3027C132.85 64.2478 136.657 62.772 136.421 63.5515C136.267 64.0613 135.589 64.554 135.223 64.8204L135.211 64.8286C133.814 65.8445 132.264 66.6157 130.751 67.4202C128.769 68.4736 126.252 69.4455 124.592 71.0448C124.007 71.6088 124.991 71.3735 125.161 71.3266C126.198 71.0399 127.185 70.5447 128.15 70.0683C130.994 68.664 133.756 67.0904 136.584 65.6549C136.87 65.5099 137.155 65.3613 137.451 65.2417C137.816 65.0943 137.901 65.1 137.668 65.4201C137.203 66.0582 136.55 66.5869 135.97 67.101C134.407 68.4858 132.831 69.8661 131.238 71.2139C130.83 71.5594 130.007 71.9835 131.04 71.7585C133.254 71.2761 135.424 70.5591 137.668 70.2185C138.905 70.0307 137.874 70.9027 137.487 71.3829C136.594 72.4924 135.802 73.6734 135.031 74.876" stroke="#1E66F5" stroke-opacity="0.5" stroke-width="3" stroke-linecap="round"/>
</g>
<g filter="url(#filter1_d_1082_227)">
<path d="M104.743 77.0003C105.376 77.4088 106.443 77.2895 107.148 77.3455C108.521 77.4546 109.897 77.5217 111.27 77.626C112.838 77.7449 114.416 77.8733 115.985 77.6907C117.618 77.5005 119.225 77.08 120.87 77.0111C124.19 76.8721 127.53 77.0003 130.852 77.0003L138.496 77.0003C138.683 77.0003 139.154 76.907 139.24 77.1513C139.573 78.0926 139.648 79.6666 139.746 80.6894C140.102 84.4325 139.752 88.2289 140.118 91.9508C140.152 92.2979 140.366 95.2301 140.032 95.4457C138.683 96.3168 136.656 96.4114 135.137 96.1253C132.441 95.6174 129.681 95.8821 126.959 95.834C125.459 95.8076 123.838 95.748 122.349 95.5428C120.972 95.3529 119.667 95.5226 118.313 95.1005C116.581 94.5605 114.678 94.4749 112.893 94.4749C111.166 94.4749 109.475 94.2807 107.749 94.2807C107.013 94.2807 104.928 94.6954 104.533 93.8924C103.627 92.0483 103.026 90.7354 103.026 88.5422C103.026 86.9732 102.88 85.3259 103.283 83.8068C103.565 82.7456 103.856 81.7662 104.094 80.6894C104.389 79.3594 104.186 77.9711 105.602 77.9711M105.353 81.2884C106.6 80.3218 108.85 80.1346 110.289 79.7834C111.448 79.5004 112.591 79.1601 113.745 78.8588C115.479 78.4065 113.443 79.4697 113.016 79.7188C109.762 81.6148 106.206 83.9379 103.721 87.0291C103.673 87.0887 103.617 87.2987 103.683 87.2656C103.822 87.1948 104.716 86.5799 104.72 86.5776C106.927 85.0945 109.175 83.6831 111.412 82.2559C113.581 80.8719 115.774 79.5454 117.98 78.2353C118.912 77.6816 120.19 76.5489 121.244 76.268C121.81 76.1172 120.727 77.4666 120.303 77.9128C118.032 80.306 115.422 82.3531 112.977 84.5135C110.878 86.3683 108.739 88.1951 106.794 90.2542C106.29 90.7867 105.669 91.5112 105.2 92.1033C104.938 92.4336 104.114 93.1783 104.508 93.1783C105.117 93.1783 106.562 91.6553 106.976 91.34C109.898 89.1157 112.858 86.9501 115.819 84.793L115.886 84.7443C118.45 82.8767 121.021 81.0037 123.693 79.3318C124.767 78.6596 126.161 77.5884 127.418 77.3538C127.872 77.2691 127.03 78.3197 126.689 78.6653C124.742 80.6382 122.341 82.1266 120.207 83.8255C118.042 85.5493 115.896 87.3037 113.745 89.0502C113.68 89.1035 110.567 91.8969 110.596 91.9098C111.055 92.1155 113.005 90.6336 113.323 90.4477C116.419 88.6353 119.417 86.6425 122.406 84.621C124.624 83.1215 126.87 81.6889 129.127 80.2671C130.296 79.5311 131.465 78.6082 132.699 78.0095C133.179 77.7768 132.028 78.9207 131.614 79.2781C128.836 81.6757 125.81 83.7523 122.848 85.8466C120.525 87.4886 118.167 89.0709 115.915 90.8347C115.817 90.9119 113.224 93.0876 113.966 92.9095C115.368 92.5733 116.783 91.693 118.047 90.9852C121.339 89.1425 124.454 86.9339 127.533 84.6855C129.575 83.1948 131.603 81.6873 133.679 80.2564C134.429 79.7393 135.74 78.4514 136.694 78.3643C137.108 78.3264 136.366 79.2524 136.06 79.5683C134.071 81.624 131.81 83.3757 129.55 85.0295C127.482 86.5421 125.337 87.9106 123.241 89.3727C122.213 90.0903 120.301 91.0566 119.679 92.3398C119.398 92.9205 120.773 91.8368 121.292 91.5228C123.842 89.9802 126.382 88.4196 128.907 86.8248C131.933 84.9128 134.902 82.9163 137.855 80.8691C140.141 79.285 134.065 85.1887 131.854 86.9001C131.046 87.5258 121.191 94.2012 121.772 95.1779C122.231 95.9481 130.823 89.568 131.585 89.0717C133.211 88.0134 134.842 86.9709 136.444 85.8681C136.754 85.6544 137.945 84.5049 138.384 84.5565C138.979 84.6267 137.738 85.7018 137.308 86.1691C135.72 87.8955 133.778 89.1645 132.027 90.6627C130.928 91.6029 129.904 92.6417 129.041 93.8556C128.786 94.2144 128.319 94.8533 129.051 94.4254C132.441 92.4413 136.103 91.0981 139.44 88.9964C139.501 88.9575 140.632 88.1498 140.515 88.2439C139.743 88.8683 139.013 89.5547 138.239 90.179C137.859 90.4861 131.066 95.8098 131.528 96.2529C131.693 96.4114 132.965 95.4197 133.007 95.3929C134.692 94.3127 136.405 93.2768 138.163 92.3505C139.086 91.8639 140.045 91.3683 141.043 91.1035C141.733 90.9205 141.475 92.0238 141.475 92.5118" stroke="#DCE0E8" stroke-opacity="0.5" stroke-width="3" stroke-linecap="round"/>
</g>
<g filter="url(#filter2_d_1082_227)">
<path d="M105.762 98.369C107.963 98.0352 110.154 98.0753 112.37 98.1347C114.691 98.1969 116.987 97.9458 119.303 97.8365C121.763 97.7204 124.235 97.7939 126.696 97.7939C129.172 97.7939 131.589 97.702 134.07 97.7939C135.646 97.8523 137.171 98.1773 138.763 98.1773C140.183 98.1773 140.246 101.178 140.448 102.479C140.842 105.01 140.927 107.397 140.927 109.965C140.927 111.028 140.553 111.979 140.276 112.979C140.056 113.772 140.315 114.439 139.634 115.045C138.445 116.102 137.197 115.788 135.689 116.099C133.317 116.587 130.58 116.195 128.171 116.195C124.746 116.195 121.344 115.62 117.915 115.62C115.081 115.62 112.253 115.304 109.42 115.662C107.714 115.879 106.01 116.387 104.297 116.387C103.11 116.387 104.037 115.009 104.037 113.971C104.037 112.193 104.297 109.83 104.381 107.76C104.631 107.244 104.159 105.928 104.297 105.344C104.442 104.73 104.178 103.558 104.21 102.929C104.256 102.044 104.21 101.868 104.21 100.957C104.21 100.343 104.387 99.8898 104.555 99.3273M106.029 101.829C105.475 101.672 108.595 99.9023 108.798 99.8076C109.985 99.2535 111.197 98.7788 112.399 98.2698C112.469 98.2405 114.271 97.3497 113.484 98.0501C110.987 100.271 108.151 101.849 105.748 104.256C105.189 104.816 104.136 105.624 103.763 106.409C103.359 107.261 105.39 105.814 106.164 105.41C109.934 103.438 113.67 101.378 117.434 99.3902C117.876 99.1566 119.106 98.4302 118.828 98.8849C117.75 100.648 115.502 102.024 114.036 103.312C113.278 103.976 104.286 111.842 104.557 112.088C105.069 112.553 107.685 110.643 108.023 110.441C110.882 108.726 113.64 106.805 116.398 104.893L116.546 104.791C118.659 103.327 120.771 101.863 122.836 100.313C123.806 99.5853 124.799 98.6516 125.857 98.083C129.459 96.1476 119.31 103.263 115.846 105.498C113.431 107.056 111.01 108.63 108.682 110.353C107.986 110.867 107.16 111.512 106.513 112.132C106.225 112.408 105.478 113.204 105.854 113.176C107.185 113.075 108.928 111.758 110.076 111.133C113.871 109.065 117.581 106.799 121.326 104.619C121.796 104.345 129.87 99.3062 130.156 99.8955C130.629 100.869 123.037 105.668 122.836 105.805C119.039 108.396 114.781 110.741 111.373 113.999C110.969 114.386 112.366 113.572 112.825 113.274C116.152 111.124 119.432 108.877 122.749 106.706C125.912 104.635 129.068 102.547 132.237 100.489C132.672 100.206 135.248 98.6543 133.699 100.467C132.275 102.133 130.403 103.365 128.645 104.509C125.743 106.398 122.768 108.152 119.845 110.001C117.693 111.362 111.316 115.527 113.61 114.505C114.719 114.01 115.788 113.156 116.824 112.506C120.029 110.493 123.266 108.557 126.593 106.816C129.002 105.555 131.43 104.312 133.893 103.191C134.823 102.767 136.41 101.753 137.475 101.807C137.592 101.813 135.61 103.489 135.597 103.498C133.033 105.256 130.243 106.544 127.571 108.068C125.417 109.296 123.265 110.565 121.2 111.978C120.431 112.505 118.728 113.391 118.286 114.395C117.954 115.147 119.765 114.125 120.445 113.791C123.218 112.427 125.863 110.712 128.549 109.144C130.806 107.827 133.055 106.496 135.287 105.124C135.969 104.705 136.809 104.184 137.514 103.784C137.93 103.548 138.892 102.702 138.821 103.224C138.721 103.963 136.79 105.18 136.362 105.519C134.225 107.214 131.979 108.719 129.885 110.484C128.649 111.526 127.436 112.624 126.264 113.758C126.203 113.816 125.057 114.766 125.857 114.593C129.751 113.749 133.569 111.083 136.923 108.826C137.668 108.325 138.625 107.414 139.489 107.156C139.739 107.082 138.577 109.09 138.501 109.188C136.749 111.465 134.547 113.1 132.334 114.724C130.916 115.766 135.434 113.2 136.972 112.407C138.332 111.705 138.116 111.483 139.489 110.812C140.069 110.529 136.82 108.8 136.575 109.46C136.375 109.998 138.195 111.591 137.852 111.957L138.066 112.979C136.915 114.209 139.184 113.642 138.066 114.911C136.573 116.605 138.813 115.093 139.489 114.68" stroke="#D20F39" stroke-opacity="0.5" stroke-width="3" stroke-linecap="round"/>
</g>
<g filter="url(#filter3_d_1082_227)">
<path d="M241.675 114.021C241.675 114.611 244.152 114.667 244.76 114.797C245.247 114.9 247.176 115.674 247.579 115.188C247.915 114.783 247.903 113.733 248.008 113.238C248.294 111.903 248.422 110.637 248.422 109.272C248.422 104.352 248.422 99.4312 248.422 94.5106C248.422 88.986 248.001 83.5107 248.001 77.9981C248.001 73.2541 247.86 68.5026 247.86 63.7535C247.86 62.8312 247.579 61.9357 247.579 61.0213C247.579 60.5719 247.386 60.2564 247.313 59.8277C247.19 59.0959 247.282 58.335 247.149 57.6061C247.001 56.7875 247.102 55.7822 246.673 55.053C246.541 54.8286 246.698 54.5422 246.564 54.3368C246.378 54.0527 245.56 53.9985 245.221 53.9787C244.345 53.9274 243.562 53.6367 243.003 54.3633C242.706 54.7487 242.388 55.1356 242.105 55.5371C241.498 56.3964 241.755 57.6211 241.597 58.5611C241.133 61.3205 241.394 64.2036 241.394 66.9897C241.394 69.8369 241.394 72.684 241.394 75.5312C241.394 76.9537 241.675 78.3341 241.675 79.7621C241.675 81.0663 241.675 82.3705 241.675 83.6747C241.675 86.4219 241.599 89.1703 241.847 91.9111C241.955 93.1044 242.108 94.2877 242.222 95.4722C242.338 96.6789 242.217 97.8906 242.347 99.0996C242.51 100.624 242.302 102.167 242.456 103.695C242.606 105.19 242.744 106.677 242.807 108.178C242.892 110.185 242.94 112.183 242.94 114.193C242.94 114.781 242.94 113.671 242.94 113.543C242.94 112.83 242.727 112.666 243.503 113.092C243.815 113.264 245.569 114.555 245.603 114.16C245.677 113.314 245.401 112.481 245.049 111.7C244.295 110.027 243.329 108.45 242.831 106.699C242.817 106.649 242.49 105.794 242.776 106.122C243.386 106.823 244.308 107.351 245.025 107.973C245.12 108.054 246.214 109.153 246.142 108.576C245.983 107.294 244.974 106.142 244.276 105.042C244.085 104.742 241.163 99.2503 241.738 99.1527C242.076 99.0953 242.812 99.5672 243.073 99.6965C243.562 99.9385 244.173 100.351 244.76 100.393C246.446 100.512 243.714 95.7751 243.534 95.4258C243.241 94.8598 240.266 88.7616 242.128 88.9335C242.926 89.0071 243.715 89.478 244.33 89.8818C244.423 89.9426 245.303 90.6791 245.439 90.2797C245.605 89.7948 245.4 89.1441 245.228 88.6881C244.742 87.3962 243.995 86.1838 243.456 84.9082C243.082 84.024 242.714 83.0462 242.581 82.1096C242.46 81.2556 243.368 81.4476 244.002 81.6985C245.075 82.1231 246.043 82.4343 245.861 81.0088C245.696 79.7214 244.918 78.5836 244.377 77.3946C243.795 76.1128 243.42 74.8112 243.37 73.4356C243.312 71.8318 244.582 73.1011 245.611 73.0775C246.97 73.0463 245.21 69.406 245.049 69.0455C244.828 68.5543 242.899 63.9845 244.377 63.9061C244.9 63.8783 246.466 64.6844 246.454 64.0453C246.419 62.0671 244.874 60.2943 244.088 58.4881C243.983 58.2456 243.553 57.5605 243.643 57.2812C243.684 57.1533 243.919 57.4042 244.057 57.4668C244.463 57.6517 244.865 57.8608 245.283 58.0239C246.235 58.3949 245.289 56.6775 245.189 56.4456C244.908 55.7887 244.664 55.1354 244.486 54.4561" stroke="#7287FD" stroke-opacity="0.5" stroke-width="3" stroke-linecap="round"/>
</g>
<g filter="url(#filter4_d_1082_227)">
<path d="M249.764 115.413C249.837 115.912 252.518 115.957 253.027 115.894C253.913 115.785 254.999 115.433 255.542 114.84C255.808 114.55 255.73 114.304 255.767 113.95C255.838 113.249 256.14 112.576 256.241 111.878C256.555 109.722 256.358 107.473 256.358 105.303C256.358 103.369 256.546 101.365 256.133 99.4558C255.711 97.5033 255.998 95.4882 255.542 93.5522C255.12 91.7612 255.251 89.8239 255.15 87.995C255.068 86.4924 255.009 85.0069 255.009 83.4984C255.009 82.193 254.559 80.9359 254.559 79.624L254.559 75.3324C254.559 72.5184 254.191 69.5205 254.634 66.735C254.843 65.4258 254.709 64.0461 254.709 62.7262C254.709 62.1117 255.009 61.7646 255.009 61.1213L255.009 54.7087C255.009 54.2217 255.213 53.331 254.693 52.9835C254.038 52.5467 253.358 52.1074 252.461 52.319C250.142 52.8661 250.213 54.9899 250.213 56.6459C250.213 58.4966 250.166 60.3536 250.247 62.2031C250.405 65.8263 250.793 69.4346 250.954 73.0558C251.103 76.4087 250.963 79.7893 250.963 83.1449L250.963 100.651C250.963 105.495 250.663 110.31 250.663 115.159M251.862 111.213C252.39 112.761 253.738 113.863 255.001 115.024C255.083 115.1 256.122 116.202 256.291 116.092C256.649 115.86 255.514 114.08 255.409 113.9C254.128 111.705 252.606 109.565 251.928 107.155C251.794 106.677 252.881 107.391 252.961 107.438C254.008 108.052 255.021 108.734 255.991 109.432C256.202 109.583 256.856 110.266 257.19 110.266C257.274 110.266 257.193 110.118 257.157 110.054C256.829 109.462 256.334 108.913 255.891 108.385C254.473 106.693 252.924 105.056 251.812 103.196C251.365 102.448 250.526 101.172 250.696 100.269C250.757 99.9436 254.179 102.028 254.526 102.249C254.636 102.318 255.695 103.082 255.733 102.623C255.806 101.763 255.262 100.838 254.792 100.113C253.579 98.2413 251.705 96.3202 251.445 94.1178C251.378 93.543 252.433 94.5104 252.561 94.5986C253.32 95.12 254.036 95.6625 254.751 96.2247C255.03 96.4442 255.176 96.4363 255.117 96.0621C254.945 94.9667 254.108 93.9893 253.477 93.0573C252.689 91.8922 252.089 90.7397 251.729 89.4303C251.656 89.1665 251.17 88.0568 251.962 88.2637C252.269 88.344 254.766 89.7024 254.842 89.4091C255.307 87.6331 252.926 85.4708 252.195 83.9368C251.885 83.2859 251.647 82.6132 251.504 81.9218C251.367 81.2628 251.632 81.408 252.166 81.7011L252.195 81.7167C252.471 81.868 254.605 83.4389 254.676 83.159C255.008 81.8563 253.22 80.3855 252.553 79.3765C252.354 79.0753 250.139 75.1336 250.996 74.9718C251.867 74.8073 252.875 75.7087 253.743 75.8061C255.2 75.9694 253.104 73.051 252.977 72.8507C252.674 72.3706 251.139 69.8881 251.745 69.3086C252.016 69.0503 253.889 70.0538 254.243 70.2206C254.981 70.5687 253.897 68.1861 253.81 68.043C253.042 66.7763 251.979 65.2045 252.012 63.7302C252.037 62.5601 256.365 65.6153 254.293 62.6485C253.455 61.4492 252.364 60.3452 251.928 58.9649C251.698 58.2344 254.523 59.5274 254.792 59.6719C255.895 60.2634 254.692 58.9656 254.468 58.6821C253.87 57.9265 253.364 57.1298 252.944 56.2924C252.849 56.1031 252.375 55.4102 252.495 55.1824C252.661 54.8646 254.601 55.9236 254.942 55.6985C255.24 55.502 254.218 54.2875 254.11 54.1501C253.674 53.5952 253.397 53.1775 253.211 52.5452" stroke="#EA76CB" stroke-opacity="0.5" stroke-width="3" stroke-linecap="round"/>
</g>
<g filter="url(#filter5_d_1082_227)">
<path d="M258.863 114.653C258.904 114.828 259.261 115.939 259.277 115.173C259.293 114.404 259.193 113.661 259.147 112.897C259.021 110.826 259.139 108.719 259.139 106.645C259.139 104.065 259.001 101.492 259.001 98.9128C259.001 97.2787 258.725 95.7258 258.725 94.0998C258.725 90.0784 258.75 86.0337 258.58 82.0167C258.474 79.5263 258.036 77.0871 258.036 74.5948L258.036 57.3517C258.036 56.8011 258.015 56.2469 258.036 55.6968C258.089 54.2889 259.713 53.3122 261.008 53.0229C261.72 52.8639 262.835 53.066 263.336 53.5143C263.669 53.8121 264.002 53.911 264.163 54.3671C264.347 54.8862 264.284 55.571 264.347 56.1159C264.741 59.5097 264.24 63.0432 264.24 66.4502L264.24 106.429C264.24 108.395 263.689 110.341 263.689 112.311C263.689 112.945 263.63 114.461 263.456 115.036C263.234 115.77 262.974 115.304 262.172 115.693C261.522 116.009 260.701 116.372 260.135 115.795C259.425 115.071 259.69 113.735 259.69 112.832M259.828 112.181C260.604 112.861 261.617 113.273 262.57 113.684C263.368 114.028 263.406 113.676 263.045 112.933C262.598 112.013 261.779 111.327 261.161 110.519C260.503 109.658 261.665 110.024 262.264 110.158C262.854 110.289 263.937 110.838 264.546 110.649C265.314 110.411 263.121 108.209 263.107 108.192C262.089 107.001 257.413 102.078 261.713 102.223C262.054 102.234 264.047 102.721 264.072 102.02C264.108 101.001 262.886 99.9686 262.264 99.2742C261.933 98.9051 259.022 95.4686 260.012 94.967C260.462 94.7392 262.301 95.646 262.417 95.4729C262.914 94.7309 261.326 93.2126 260.962 92.6978C260.739 92.3824 259.829 90.8531 260.732 90.7466C261.009 90.7139 263.37 91.0709 263.382 91.0501C263.84 90.2653 261.74 88.4018 261.376 87.827C260.881 87.0465 259.683 85.6408 261.376 85.8324C261.546 85.8517 263.448 86.3955 263.352 85.948C263.182 85.1627 262.248 84.3939 261.774 83.78C261.017 82.7998 260.393 81.7833 260.265 80.5568C260.148 79.4338 261.044 79.4964 262.011 79.5379C263.061 79.5829 262.961 79.2834 262.333 78.3888C261.362 77.0056 260.234 75.6947 259.79 74.0528C259.503 72.9901 260.224 72.9805 261.192 73.0988C261.96 73.1929 262.738 73.5366 262.325 72.4701C261.792 71.0926 260.585 70.0908 260.127 68.6327C259.825 67.6696 259.947 67.5509 260.939 67.7655C261.253 67.8334 262.955 68.5548 262.578 67.6354C262.262 66.864 261.587 66.2074 261.169 65.4818C260.699 64.668 260.365 63.8079 260.196 62.8946C260.08 62.2697 259.937 61.5453 259.997 60.9073C260.068 60.1513 261.128 60.5731 261.575 60.7122C262.375 60.9616 263.106 61.3006 263.796 61.7528C263.961 61.861 264.376 62.1851 264.34 61.9985C264.277 61.6735 263.76 61.3589 263.528 61.1675C262.998 60.7302 262.523 60.2714 262.134 59.7149C261.954 59.4573 261.171 58.6321 261.804 58.5947C262.116 58.5763 263.658 58.8702 263.742 58.5514C264.011 57.5383 260.779 55.5612 262.172 54.685" stroke="#DCE0E8" stroke-width="3" stroke-linecap="round"/>
</g>
<g filter="url(#filter6_d_1082_227)">
<path d="M268.497 109.177C268.497 109.656 268.39 110.214 268.713 110.634C269.083 111.113 269.6 111.501 270.062 111.913C270.522 112.324 270.882 112.915 271.394 113.271C272.701 114.179 269.953 110.67 269.046 109.46C268.501 108.732 268.126 107.933 267.773 107.127C267.495 106.493 267.879 106.634 268.48 106.858C269.46 107.223 270.407 107.692 271.244 108.258C271.374 108.346 272.123 109.134 272.094 108.682C272.04 107.855 271.362 107.18 270.795 106.554C269.897 105.564 268.914 104.605 268.38 103.422C268.366 103.39 268.017 102.633 268.297 102.871C269.081 103.536 270.249 103.911 271.161 104.44C271.233 104.482 272.5 105.258 272.51 105.239C272.799 104.687 271.124 103.278 270.812 102.927C269.936 101.943 269.013 100.974 268.264 99.9153C268.21 99.8387 267.434 98.6221 267.606 98.6639C268.429 98.8635 269.303 99.3841 270.012 99.7739C271.036 100.336 271.984 101.288 273.043 101.754C273.752 102.065 272.369 100.512 271.886 99.9719C270.653 98.5946 269.279 97.2938 268.164 95.8429C268.113 95.777 267.236 94.4604 267.465 94.5279C268.711 94.896 269.953 95.8663 271.028 96.4934C271.112 96.5427 272.51 97.4216 272.51 97.2782C272.51 96.2677 271.272 95.1307 270.67 94.344C269.818 93.2304 268.923 92.1528 268.031 91.0635C267.853 90.8463 266.725 89.6578 267.764 90.0595C269.112 90.5805 270.314 91.3422 271.436 92.1523C271.843 92.4458 272.797 93.4669 272.66 93.029C272.421 92.2699 271.52 91.5912 270.961 91.0069C270.069 90.0743 269.386 89.1191 269.013 87.9526C268.983 87.8592 268.788 86.8475 268.847 86.885L268.912 86.9269C269.467 87.2802 270.033 87.6402 270.528 88.0516C270.747 88.233 271.339 89.0273 271.694 89.0273C271.869 89.0273 269.985 86.6883 269.829 86.5032C269.302 85.8795 268.902 85.226 268.536 84.5282M268.536 84.5282C268.534 84.5243 268.532 84.5204 268.53 84.5165C268.256 83.9927 268.255 84.2409 268.536 84.5282ZM268.536 84.5282C268.565 84.5571 268.596 84.5865 268.63 84.6155C269.231 85.1259 269.979 85.5467 270.645 85.9942C271.048 86.2647 271.697 86.694 271.378 85.9164C271.018 85.04 270.245 84.2997 269.762 83.4701C269.185 82.4778 268.819 81.3948 268.414 80.3451C268.261 79.9496 268.489 80.2311 268.705 80.3875C269.769 81.1579 270.62 82.0347 271.553 82.9116C272.806 84.0903 269.814 80.0979 269.013 78.6624C268.667 78.042 268.164 77.2381 268.089 76.5414C268.078 76.4422 269.498 77.4128 269.679 77.5453C269.735 77.5863 270.825 78.4439 270.862 78.3937C271.126 78.0255 270.518 77.1698 270.345 76.8807C269.795 75.96 269.353 74.9986 268.797 74.0809C268.31 73.2775 267.763 72.4801 267.515 71.5922C267.485 71.4875 267.304 70.9407 267.639 71.0973C268.636 71.563 269.507 72.3437 270.362 72.9709C272.086 74.2352 269.484 69.6469 269.429 69.5419C268.664 68.0573 267.883 66.5274 267.764 64.8897C267.756 64.7797 267.627 63.7935 267.831 64.0271C268.262 64.5218 269.06 65.8292 269.779 66.0068C270.208 66.1128 269.929 65.2306 269.796 64.8685C269.345 63.6478 268.605 62.513 267.981 61.3546C267.815 61.0467 265.974 57.9319 266.549 57.5862C267.241 57.1699 269.45 58.919 270.295 58.9578C271.097 58.9946 270.372 57.4304 270.279 57.2398C269.65 55.9504 268.853 54.7173 268.197 53.436M266.998 113.122C266.998 113.771 266.951 114.85 267.54 115.35C268.392 116.074 269.807 115.922 270.895 115.922C271.72 115.922 272.095 115.575 272.31 114.897C273.298 111.783 272.374 108.63 272.876 105.487C273.132 103.883 272.993 102.211 272.993 100.594L272.993 84.8064C272.993 82.8383 272.565 80.9648 272.427 79.0018C272.237 76.2956 272.475 73.5664 272.169 70.864C271.794 67.5535 271.794 64.2774 271.794 60.9461L271.794 56.25C271.794 55.5622 271.884 54.8388 271.528 54.1996C271.243 53.6896 270.286 53.5854 269.704 53.5067C268.621 53.3604 268.068 53.8063 267.281 54.3693C266.507 54.9237 266.848 56.2709 266.848 57.0701L266.848 65.7099C266.848 71.4846 266.699 77.2983 266.699 83.0883C266.699 88.8904 266.998 94.6685 266.998 100.474L266.998 113.122Z" stroke="#EA76CB" stroke-opacity="0.5" stroke-width="3" stroke-linecap="round"/>
</g>
<g filter="url(#filter7_d_1082_227)">
<path d="M275.69 112.232C275.754 112.346 275.84 112.843 275.84 112.557L275.84 109.177M275.84 109.177L275.84 105.868C275.84 101.718 275.54 97.5504 275.54 93.4037C275.54 91.744 275.655 90.0544 275.424 88.4051C275.157 86.5034 274.641 84.6303 274.641 82.7065L274.641 72.9073C274.641 67.0574 274.791 61.1712 274.791 55.345C274.791 54.2791 274.911 53.4628 276.365 53.1886C277.052 53.0588 277.952 53.1594 278.654 53.1815C279.299 53.2018 279.891 54.1545 280.186 54.5531C281.343 56.114 280.786 58.6952 280.786 60.4638L280.786 68.446C280.786 78.0483 280.636 87.6491 280.636 97.257L280.636 105.812C280.636 107.641 281.046 109.929 280.453 111.694C280.102 112.737 280.723 114.904 278.762 114.904C277.76 114.904 276.222 114.608 275.84 113.73C275.255 112.385 275.402 110.541 275.84 109.177ZM276.29 109.432C277.004 110.58 278.019 111.516 278.962 112.529C279.144 112.723 279.418 113.179 279.72 113.271C279.982 113.35 279.889 112.222 279.886 112.147C279.826 110.469 278.638 109.071 277.888 107.565C277.545 106.877 280.225 108.18 280.519 108.336C280.54 108.347 281.394 108.924 281.335 108.598C281.168 107.675 280.218 106.761 279.62 106.024C278.439 104.57 276.768 102.65 277.056 100.757C277.165 100.039 278.97 100.464 279.437 100.651C279.505 100.678 280.158 101.024 280.178 100.933C280.271 100.498 280.175 99.9493 279.986 99.5477C279.211 97.9018 277.669 96.5309 277.364 94.7188C277.206 93.7835 278.528 94.2143 279.187 94.3865C280.345 94.689 279.923 93.7365 279.52 93.0431C278.855 91.8986 277.904 90.8916 277.255 89.7343C276.964 89.2146 276.246 88.0857 276.489 87.4648C276.79 86.6983 279.741 88.2467 280.269 88.3485C280.543 88.4013 279.934 87.1105 279.92 87.0901C279.304 86.1785 278.507 85.3598 277.888 84.4458C277.693 84.1571 276.012 81.5753 277.089 81.5753C278.035 81.5753 278.807 82.3106 279.662 82.3106C280.638 82.3106 278.405 79.3159 278.271 79.1432C278.076 78.8907 276.272 76.316 277.081 76.1101C277.91 75.8987 279.108 77.1879 279.52 77.0221C280.352 76.6876 278.179 73.6834 278.005 73.3456C277.634 72.6261 276.602 70.8575 278.271 71.3377C278.587 71.4286 280.363 72.3697 279.936 71.4508C279.266 70.0083 277.729 68.9953 277.214 67.4633C276.828 66.3153 277.48 66.5026 278.513 66.9118C279.542 67.3198 278.646 65.8092 278.471 65.5402C277.734 64.4077 277.039 63.4351 277.039 62.1111C277.039 61.5814 278.143 61.8701 278.504 61.9909C278.636 62.0351 279.145 62.3585 279.112 62.0475C279.037 61.346 278.372 60.6905 277.905 60.1527C276.953 59.0558 275.122 57.1803 275.723 55.649C276.043 54.8362 278.327 56.3189 278.671 56.5469C279.19 56.8911 279.745 57.1947 279.22 56.3631C278.694 55.5292 277.52 54.9903 276.739 54.3269" stroke="#7287FD" stroke-opacity="0.5" stroke-width="3" stroke-linecap="round"/>
</g>
<g filter="url(#filter8_d_1082_227)">
<path d="M212.462 56.9946C211.052 56.6167 213.416 56.7847 213.657 56.7764C224.167 56.4151 234.615 54.9861 245.105 54.2812C252.956 53.7536 260.835 53.6098 268.669 52.8161C272.328 52.4453 275.949 51.8314 279.613 51.5466" stroke="#4C4F69" stroke-opacity="0.5" stroke-width="3" stroke-linecap="round"/>
</g>
<g filter="url(#filter9_d_1082_227)">
<path d="M166.831 57.1898C168.122 56.8438 165.962 57.0131 165.742 57.0079C156.15 56.7824 146.623 55.6146 137.053 55.0858C129.89 54.69 122.698 54.6332 115.553 54.0025C112.216 53.7079 108.916 53.1984 105.573 52.9797" stroke="#4C4F69" stroke-opacity="0.5" stroke-width="3" stroke-linecap="round"/>
</g>
<g filter="url(#filter10_d_1082_227)">
<path d="M196.16 39.4448C190.676 39.7876 185.104 44.2014 183.175 49.2851C181.836 52.8125 183.252 57.3128 187.733 56.9788C192.55 56.6198 196.082 51.6683 198.838 48.2437M192.36 41.262C191.885 39.6776 188.474 39.8006 187.33 39.7486C184.667 39.6275 181.561 39.4475 178.819 40.149M178.819 40.149C177.161 40.5732 175.636 41.32 174.422 42.5973C171.158 46.0317 169.667 51.9006 171.173 56.4405C173.087 62.2113 180.61 64.7518 186.084 64.9422C193.139 65.1876 203.971 62.3036 207.85 55.7283C211.247 49.9706 206.283 44.3533 201.841 41.1284C194.489 35.7907 185.029 34.7715 178.819 40.149ZM178.819 40.149C177.207 41.5454 175.814 43.3731 174.733 45.6686M179.541 50.4759C179.541 54.8892 179.14 59.2803 179.14 63.6959M186.93 58.8663C186.715 60.889 186.351 62.8597 186.351 64.8977M195.164 57.1081V66.0995M178.74 37.2559C177.87 29.6776 178.568 -20.0432 179.541 -27.5M194.363 41.262C194.461 31.775 194.363 -18.0076 194.363 -27.5" stroke="#4C4F69" stroke-opacity="0.5" stroke-width="3" stroke-linecap="round"/>
</g>
<g filter="url(#filter11_d_1082_227)">
<path d="M172.04 87.0027C171.507 88.3956 170.883 89.7318 170.164 91.0359C169.833 91.6362 169.858 92.5041 169.71 93.1752C169.592 93.7098 169.411 94.2275 169.305 94.7648C169.195 95.3267 169.174 95.9049 169.051 96.4635C168.837 97.4355 168.335 98.3352 168.025 99.275C167.81 99.9242 167.689 100.616 167.48 101.273C167.147 102.32 166.862 103.367 166.562 104.426C166.321 105.278 166.235 106.147 165.99 106.996C165.623 108.265 165.226 109.439 165.045 110.757C164.947 111.471 164.927 112.163 164.927 112.883C164.927 113.577 164.944 114.273 164.841 114.963C164.779 115.377 164.624 115.768 164.564 116.185C164.512 116.54 164.536 116.898 164.477 117.252C164.357 117.972 164.333 118.656 164.255 119.378C164.251 119.416 164.205 119.968 164.173 119.977C164.1 119.997 163.642 118.977 163.583 118.887C163.263 118.403 162.83 118.006 162.574 117.479C162.423 117.166 162.32 116.838 162.193 116.516C161.899 115.774 161.533 115.096 161.166 114.39C160.549 113.204 160.032 112.027 159.113 111.025C158.166 109.992 157.551 108.716 156.838 107.528C156.661 107.233 156.638 106.883 156.733 106.56C156.831 106.23 157.86 107.881 157.969 108.041C158.039 108.144 158.785 109.39 158.895 109.095C159.073 108.621 159.206 108.112 159.368 107.623C159.703 106.606 159.764 105.444 159.867 104.385C159.918 103.861 160.248 103.191 160.431 102.695C160.944 101.302 161.107 99.7981 161.621 98.4029C162.052 97.2319 162.822 96.3262 163.374 95.2236C163.8 94.3715 164.555 93.6816 165.072 92.8708C165.772 91.7754 166.867 91.1596 167.82 90.3183C168.518 89.7022 169.082 89.0984 169.632 88.3471C169.908 87.972 169.996 87.5539 169.996 88.2653C169.996 89.2659 170.042 90.2502 169.85 91.2358C169.79 91.5493 169.087 95.4204 168.406 95.16C167.991 95.0011 168.195 93.9488 167.902 93.8837C167.725 93.8444 167.068 96.7322 166.976 97.1374L166.971 97.1584C166.92 97.384 166.572 99.1492 166.194 98.2939C165.945 97.7295 165.962 97.085 165.745 96.5044C165.526 95.9209 165.499 95.8855 165.499 96.5271C165.499 97.9872 165.717 99.6711 165.299 101.092L165.294 101.112C165.126 101.681 164.826 102.703 164.173 102.036C163.278 101.122 163.21 99.9484 163.21 98.7481V98.7663C163.21 99.6654 163.22 100.561 163.328 101.455C163.507 102.932 163.785 104.468 163.578 105.961C163.567 106.039 163.518 106.609 163.415 106.265C163.391 106.187 163.372 106.108 163.356 106.027M163.356 106.027C163.287 105.684 163.279 105.321 163.283 104.963M163.356 106.027C163.337 105.672 163.311 105.317 163.283 104.963M163.356 106.027C163.361 106.126 163.365 106.225 163.369 106.324C163.371 106.376 163.347 106.751 163.296 107.205M163.283 104.963C163.285 104.742 163.292 104.523 163.292 104.312C163.292 103.318 163.249 102.347 163.097 101.364C163.053 101.083 163.047 100.876 163.047 101.292C163.047 102.526 163.183 103.742 163.283 104.963ZM163.296 107.205C163.205 108.025 163.028 109.104 162.765 109.022C162.078 108.806 161.804 107.312 161.593 106.742C161.523 106.552 161.16 106.156 161.166 105.988C161.18 105.591 161.625 105.381 161.934 105.239C162.476 104.988 163.187 106.825 163.278 107.142C163.284 107.163 163.29 107.184 163.296 107.205ZM163.296 107.205C163.596 108.302 163.486 109.577 163.533 110.707C163.548 111.076 163.537 111.446 163.537 111.815C163.537 112.466 163.175 113.711 162.602 112.574C162.299 111.974 162.02 111.479 161.884 110.811C161.773 110.269 161.619 109.729 161.475 109.195C161.358 108.759 161.145 108.482 160.839 108.177" stroke="#DCE0E8" stroke-width="3" stroke-linecap="round"/>
</g>
<g filter="url(#filter12_d_1082_227)">
<path d="M163.292 120.849C163.675 124.677 163.455 128.609 163.455 132.458C163.455 133.861 163.647 135.425 163.419 136.809C163.195 138.17 163.29 139.573 163.228 140.952C163.169 142.272 162.846 143.576 162.806 144.889C162.74 147.044 162.719 149.194 162.719 151.353C162.719 152.478 161.924 153.488 161.375 154.423C160.856 155.307 160.31 156.009 159.658 156.785C159.246 157.275 158.758 157.87 158.427 158.42C158.353 158.543 158.141 159.176 158.141 159.047C158.141 158.221 158.223 157.402 158.223 156.576C158.223 154.944 158.284 153.366 158.45 151.743C158.563 150.638 158.543 149.534 158.641 148.432C158.744 147.277 158.918 146.151 158.954 144.98C158.981 144.135 158.959 143.287 158.959 142.441C158.959 140.903 159.041 139.375 159.041 137.836C159.041 134.735 159.041 131.635 159.041 128.534C159.041 125.479 159.173 122.385 158.963 119.341C158.863 117.882 158.287 116.501 157.941 115.085C157.743 114.274 157.575 113.399 157.242 112.633C157.139 112.396 157.13 111.662 157.015 111.892C156.884 112.155 157.314 112.969 157.424 113.219C157.581 113.578 157.73 113.913 157.832 114.291C157.92 114.613 158.159 114.915 158.277 115.235C158.541 115.948 158.811 116.658 159.122 117.352C159.406 117.983 159.67 118.572 160.058 119.15C160.551 119.886 161.238 120.527 161.661 121.303C161.826 121.605 162.271 121.653 162.515 121.876C162.675 122.022 162.858 122.181 162.992 122.352C163 122.363 162.342 122.029 162.229 121.944C162.088 121.837 160.704 120.673 160.653 121.063C160.553 121.822 160.919 122.741 161.121 123.456C161.319 124.161 161.498 124.904 161.62 125.627C161.694 126.06 161.746 126.508 161.802 126.944C161.868 127.46 161.74 127.005 161.638 126.79C161.412 126.312 161.042 125.917 160.748 125.482C160.742 125.473 160.338 124.913 160.321 124.973C160.262 125.191 160.535 125.37 160.635 125.573C160.824 125.956 160.957 126.343 161.075 126.754C161.396 127.867 161.719 128.983 161.929 130.124C161.974 130.365 162.467 132.046 161.843 131.945C161.417 131.876 161.2 131.505 160.857 131.296C160.678 131.186 160.757 131.93 160.757 131.995C160.757 132.851 160.823 133.658 161.084 134.479C161.307 135.178 161.465 135.822 161.489 136.56C161.511 137.26 161.717 138.02 160.875 138.14C160.112 138.249 160.246 138.454 160.267 139.235C160.296 140.331 160.586 141.403 160.676 142.496C160.741 143.286 160.757 144.075 160.757 144.867C160.757 145.463 160.786 145.904 160.512 146.438C160.347 146.761 159.898 147.034 159.794 147.356C159.691 147.679 160.239 147.973 160.349 148.237C161.084 150.002 160.932 152.01 159.776 153.551" stroke="#04A5E5" stroke-opacity="0.5" stroke-width="3" stroke-linecap="round"/>
</g>
<g filter="url(#filter13_d_1082_227)">
<path d="M165.172 122.566C165.172 124.216 165.172 125.866 165.172 127.517C165.172 128.379 165.009 129.216 165.009 130.083C165.009 130.946 165.009 131.809 165.009 132.672C165.009 134.729 165.009 136.787 165.009 138.844C165.009 141.012 165.096 143.185 164.827 145.339C164.71 146.272 165.11 146.184 165.11 147.137C165.11 147.831 165.028 148.533 165.028 149.235C165.028 149.435 165.028 149.635 165.028 149.835C165.028 149.965 164.898 150.225 165.028 150.225C165.166 150.225 165.739 149.626 165.85 149.526C166.609 148.843 166.443 149.291 167.189 148.591C167.698 148.114 167.384 147.975 167.902 147.5C167.297 147.138 168.629 146.471 168.914 146.011C169.436 145.17 169.405 144.426 169.405 143.445C169.405 142.835 169.336 142.256 169.259 141.651C169.165 140.904 169.3 140.051 169.109 139.33C168.998 138.908 168.876 138.53 168.814 138.09C168.671 137.074 169.068 136.006 168.814 135C168.408 133.391 169.342 131.608 169.342 129.96C169.342 128.662 169.26 127.361 169.26 126.072C169.26 124.583 168.896 123.159 168.647 121.712C168.5 120.86 168.443 119.951 168.443 119.087C168.443 118.296 168.279 117.52 168.279 116.716C168.279 114.172 168.279 111.629 168.279 109.086C168.279 108.727 168.314 108.27 168.179 107.932C167.948 107.354 167.415 109.348 167.371 109.494C166.939 110.906 166.659 112.347 166.499 113.818C166.389 114.828 166.31 115.708 166.008 116.68C165.488 118.35 164.977 120.053 164.782 121.785C164.72 122.336 164.764 122.91 164.764 123.465C164.764 123.704 164.764 123.944 164.764 124.183C164.764 124.296 164.677 125.07 164.873 124.76C165.288 124.098 165.867 123.052 165.908 122.239C165.923 121.942 165.581 121.83 165.581 121.503C165.581 121.233 165.46 120.618 165.681 120.413C165.902 120.208 166.67 120.072 166.971 120.131C167.927 120.319 167.707 121.98 167.707 122.711C167.707 124.649 167.562 126.522 167.253 128.425C166.954 130.257 167.134 132.222 167.134 134.075C167.134 135.562 167.053 137.042 167.053 138.526C167.053 140.176 167.053 141.827 167.053 143.477C167.053 144.011 167.053 144.546 167.053 145.08C167.053 145.338 166.988 145.679 167.094 145.911C167.204 146.153 167.279 146.511 167.298 146.774C167.31 146.941 167.414 146.462 167.461 146.302C167.587 145.879 167.776 145.482 167.902 145.062C168.137 144.28 168.499 143.495 168.524 142.659C168.542 142.083 168.612 141.512 168.77 140.961" stroke="#D20F39" stroke-opacity="0.5" stroke-width="3" stroke-linecap="round"/>
</g>
<g filter="url(#filter14_d_1082_227)">
<path d="M163.21 108.586C163.375 108.812 163.217 109.775 162.824 109.544C162.112 109.125 162.28 107.835 162.783 107.332C163.755 106.361 164.004 109.835 163.21 109.24" stroke="#DF8E1D" stroke-opacity="0.5" stroke-width="3" stroke-linecap="round"/>
</g>
<g filter="url(#filter15_d_1082_227)">
<path d="M170.248 106.809V119.514C170.248 121.372 170.311 123.212 170.628 125.045C170.704 125.483 170.805 125.872 170.972 126.283C171.075 126.535 171.096 126.812 171.166 127.074C171.277 127.491 171.409 127.899 171.51 128.318C171.675 129.006 171.73 129.7 171.848 130.396C171.99 131.238 171.992 132.15 172.231 132.968C172.386 133.499 172.367 134.013 172.367 134.562V137.177C172.367 137.934 172.422 138.699 172.422 139.447C172.422 139.88 172.585 140.289 172.585 140.703C172.585 141.193 172.538 141.668 172.693 142.135M172.611 142C172.629 141.748 172.796 141.529 172.857 141.288C172.993 140.749 173.413 140.319 173.653 139.861C173.919 139.353 174.261 138.777 174.38 138.189C174.564 137.274 174.53 136.366 174.53 135.407V134.435M174.53 134.435V133.013M174.53 134.435C174.704 134.153 174.856 133.848 174.956 133.525C175.113 133.018 174.821 133.015 174.53 133.013M174.53 134.435C174.339 134.743 174.122 135.023 173.917 135.269C173.534 135.728 173.169 136.138 173.044 136.83C172.918 137.525 172.85 138.06 172.85 138.777M174.53 133.013V130.366C174.53 128.861 174.544 127.356 174.593 125.853C174.619 125.044 174.724 124.173 174.643 123.36C174.4 120.939 174.08 118.508 173.78 116.106C173.678 115.294 173.75 114.414 173.75 113.59V106.387C173.75 105.343 173.836 104.226 173.69 103.201C173.486 101.767 173.328 100.297 173.224 98.8437C173.175 98.1638 173.21 97.4606 173.21 96.7777C173.21 96.2619 173.32 95.8966 173.377 95.4095C173.443 94.84 173.51 94.2509 173.51 93.6741C173.51 93.2194 173.47 92.7258 173.537 92.2784C173.681 91.3086 173.657 90.2489 173.63 89.2575C173.609 88.4923 173.263 89.6574 173.224 89.8543C173.023 90.8687 172.743 91.8372 172.581 92.8661C172.353 94.3101 172.16 95.7793 172.041 97.2598C171.907 98.9168 170.989 99.52 170.558 101.094C170.475 101.396 170.413 101.715 170.365 102.031C170.315 102.356 170.174 102.627 170.125 102.949C170.043 103.482 170.158 105.148 170.092 105.684C169.953 106.809 170.426 107.812 170.242 108.921C170.173 109.336 170.308 109.725 170.242 110.142C170.227 110.232 170.217 110.329 170.205 110.428M174.53 133.013C174.487 133.013 174.444 133.013 174.403 133.011C173.619 132.975 172.832 132.949 172.057 133.139C172.032 133.145 171.608 133.337 171.711 133.158C171.801 133 171.794 132.731 171.831 132.542C171.935 132.007 172.119 131.506 172.264 130.991C172.43 130.398 172.585 129.821 172.81 129.264C172.947 128.927 173.057 128.607 173.017 128.208C172.982 127.861 172.263 128.663 172.131 128.7C172.015 128.732 172.312 127.834 172.337 127.74C172.485 127.186 172.533 126.593 172.577 126.009C172.694 124.464 173.15 123.019 173.15 121.45C173.15 120.537 173.058 121.07 172.704 121.331C172.304 121.624 171.938 122.049 171.544 122.378C171.468 122.441 170.705 123.233 170.778 122.818C170.869 122.298 170.962 121.779 171.051 121.257C171.167 120.58 171.195 119.886 171.305 119.21C171.425 118.469 171.64 117.796 171.864 117.107C172.081 116.442 172.253 115.725 172.297 114.995C172.341 114.28 172.321 114.371 172.071 114.949C171.761 115.666 171.304 116.376 171.078 117.153C171.023 117.343 171.166 116.763 171.215 116.57C171.703 114.628 172.004 112.647 172.251 110.611C172.361 109.695 172.542 108.82 172.697 107.92C172.778 107.454 172.933 106.984 172.964 106.506C172.983 106.21 173.045 105.59 172.9 105.34C172.765 105.107 172.335 105.581 172.224 105.684C171.617 106.249 171.315 107.196 171.018 108.086C170.842 108.613 170.448 109.714 170.205 110.428M170.205 110.428C170.183 110.603 170.156 110.781 170.092 110.923C169.916 111.31 170.014 110.989 170.205 110.428Z" stroke="#8839EF" stroke-opacity="0.5" stroke-width="3" stroke-linecap="round"/>
</g>
<g filter="url(#filter16_d_1082_227)">
<path d="M194.174 68.7754C196.382 70.247 198.269 72.6571 200.167 74.5028C202.817 77.0804 205.458 79.6541 208.142 82.1965C211.296 85.1847 215.145 87.8667 217.88 91.2323C219.726 93.5049 221.965 96.1806 224.512 97.7087" stroke="#4C4F69" stroke-opacity="0.5" stroke-width="3" stroke-linecap="round"/>
</g>
<g filter="url(#filter17_d_1082_227)">
<path d="M224.289 102.328C224.289 105.367 224.197 109.025 224.53 112.01C225.15 117.566 224.888 123.403 224.888 129.093C224.888 135.992 225.27 143.449 224.622 150.268C224.442 152.154 224.139 153.414 224.139 155.343C224.139 157.324 224.219 160.429 222.808 158.263C221.392 156.087 220.314 153.126 218.965 150.799C218.537 150.06 218.15 150.26 218.15 148.94V144.084C218.15 130.781 218 117.52 218 104.233V94.4735C218 93.2223 218.757 94.8066 218.973 95.1606C219.93 96.7239 221.011 97.9001 222.159 98.8927C222.988 99.609 223.504 101.136 224.139 102.328M219.471 99.1354C220.086 101.166 220.357 103.384 221.201 105.349M221.201 105.349C221.299 105.577 221.405 105.802 221.519 106.022C222.089 107.116 221.53 105.808 221.201 105.349ZM221.201 105.349C221.183 105.324 221.166 105.301 221.149 105.282C220.966 105.064 219.756 103.663 219.73 103.899C219.541 105.603 220.691 107.724 221.149 109.305C221.737 111.334 222.226 113.307 222.47 115.402C222.523 115.858 222.733 116.618 222.531 117.08C222.29 117.636 221.178 115.767 221.075 115.624C220.878 115.349 219.907 113.783 220.051 114.908C220.274 116.646 220.28 118.461 220.804 120.141C221.003 120.781 221.546 122.706 221.458 122.042C221.412 121.7 220.954 119.312 221.149 120.092C221.9 123.093 222.477 126.32 222.877 129.385C222.939 129.86 222.144 129.122 221.655 128.62M221.655 128.62C221.477 128.438 221.339 128.287 221.297 128.237C220.633 127.443 220.118 126.606 219.693 125.67C219.434 125.102 220.898 126.853 221.013 127.065C221.281 127.555 221.489 128.078 221.655 128.62ZM221.655 128.62C222.122 130.143 222.262 131.817 222.482 133.347C222.519 133.6 223.037 135.85 222.531 135.149C221.599 133.853 221.392 132.515 220.68 131.175C219.842 129.597 220.144 132.11 220.187 132.656C220.32 134.368 220.81 136.18 221.248 137.839C221.291 138.001 221.908 139.302 221.816 139.518C221.652 139.899 220.093 137.408 220.014 137.173C219.772 136.459 219.063 135.14 219.73 136.741C220.675 139.01 221.65 141.203 222.359 143.566C222.445 143.852 223.518 146.526 222.877 145.824C221.684 144.517 221.755 142.754 221.149 141.196C220.764 140.206 221.246 143.319 221.297 144.38C221.404 146.576 221.899 149.265 221.433 151.44C221.35 151.827 219.143 148.558 219.693 148.009" stroke="#7287FD" stroke-opacity="0.5" stroke-width="3" stroke-linecap="round"/>
</g>
<g filter="url(#filter18_d_1082_227)">
<path d="M203.698 82.4741C204.866 82.5909 206.62 84.2476 207.302 85.1399C208.474 86.6723 208.607 87.8443 208.228 89.8668C207.729 92.5263 206.646 95.2103 206.586 97.9259C206.552 99.4601 206.388 100.996 206.364 102.517C206.301 106.578 205.92 110.613 205.92 114.686V133.84C205.92 134.319 206.252 137.62 205.451 137.531C203.573 137.322 201.333 134.943 200.02 133.668C199.441 133.105 199.537 132.864 199.465 132.113C199.388 131.302 199.811 130.554 199.811 129.792C199.811 129.15 199.699 128.729 199.478 128.114C199.091 127.04 199.144 126.044 199.144 124.917V108.577C199.144 106.734 199.742 105.22 200.082 103.455C200.311 102.269 200.356 101.005 200.465 99.8019C200.566 98.6876 200.067 95.597 200.144 94.519C200.236 93.2295 200.098 92.1281 200.687 90.9152C201.618 88.997 200.754 87.0931 200.933 85.0282C201.001 84.2544 201.365 83.6919 201.365 82.8684V81.1405M204.587 87.5836C204.84 87.7198 205.087 88.0174 205.303 88.3555M205.303 88.3555C205.405 88.515 205.5 88.6834 205.585 88.8482M205.303 88.3555C205.275 88.1587 205.247 87.9627 205.22 87.7679M205.303 88.3555C205.761 91.5849 206.248 95.0678 205.475 98.1975C204.762 101.09 202.739 94.7651 202.378 94.2234C202.204 93.9631 202.39 94.8494 202.415 95.1614C202.497 96.2113 202.617 97.2575 202.686 98.3085C202.804 100.087 202.825 101.87 202.823 103.654M205.585 88.8482C206.066 89.7768 206.244 90.5887 205.648 89.0152C205.627 88.9587 205.606 88.9031 205.585 88.8482ZM205.585 88.8482C205.444 88.4743 205.318 88.1335 205.22 87.7679M205.22 87.7679C205.164 87.5614 205.117 87.3471 205.08 87.1146C205.043 86.8775 204.934 85.6298 205.068 86.6579C205.116 87.0233 205.167 87.3936 205.22 87.7679ZM202.823 103.654C202.822 104.88 202.81 106.106 202.81 107.33V108.947C202.81 106.843 202.717 104.805 202.464 102.715C202.272 101.13 202.504 100.974 202.711 102.715C202.748 103.028 202.786 103.341 202.823 103.654ZM202.823 103.654C203.291 107.549 203.78 111.431 204.142 115.34C204.301 117.046 204.587 118.769 204.587 120.487C204.587 120.698 204.512 120.068 204.439 119.87C204.068 118.873 203.406 118.012 202.908 117.08C202.607 116.516 202.295 115.936 201.997 115.347M201.997 115.347C201.663 114.688 201.346 114.02 201.082 113.353C200.811 112.672 200.355 111.145 201.082 112.81C201.441 113.634 201.727 114.487 201.997 115.347ZM201.997 115.347C202.384 116.581 202.737 117.83 203.229 119.03L203.236 119.048C203.428 119.515 204.682 122.572 203.538 121.844C203.038 121.526 200.377 118.481 200.835 120.709C201.189 122.435 201.765 124.154 202.267 125.843C202.621 127.037 203.175 128.152 203.538 129.311C203.611 129.545 199.252 128.27 198.737 128.151C196.314 127.592 198.869 130.756 199.255 131.644C199.691 132.646 201.309 133.145 201.489 134.137C201.638 134.958 202.573 135.4 203.032 136.013" stroke="#EA76CB" stroke-opacity="0.5" stroke-width="3" stroke-linecap="round"/>
</g>
<g filter="url(#filter19_d_1082_227)">
<path d="M211.251 88.6943C212.383 89.4416 213.224 90.1694 214.139 91.138C214.588 91.6139 214.823 92.176 215.361 92.5943C215.916 93.0263 215.916 93.5891 215.916 94.2339V144.59C215.916 145.802 215.951 147.019 215.916 148.231C215.881 149.469 214.245 146.969 214.016 146.663C212.963 145.259 212.081 143.859 211.078 142.455C210.552 141.719 210.392 141.076 209.684 140.456C208.683 139.58 208.141 139.61 208.141 138.111V103.702C208.141 101.867 207.994 99.9661 208.153 98.1357C208.255 96.9621 208.843 95.9698 208.98 94.7911C209.299 92.0385 209.688 89.4063 210.14 86.6949M209.918 136.013C209.841 135.315 210.35 136.464 210.585 136.815C211.242 137.802 212.021 138.747 212.584 139.789C213.587 141.644 212.808 138.645 212.695 138.098C212.456 136.942 212.227 135.784 212.041 134.618C211.942 133.998 211.374 132.477 211.595 132.412M211.595 132.412C211.627 132.402 211.675 132.423 211.745 132.483C211.909 132.624 211.917 133.101 211.917 133.297C211.917 133.368 211.759 132.907 211.595 132.412ZM211.595 132.412C211.428 131.908 211.256 131.368 211.239 131.31C210.456 128.66 209.553 125.837 209.474 123.054C209.426 121.394 210.933 124.916 211.029 125.189C211.377 126.175 211.943 127.597 212.695 128.348C213.346 128.999 212.662 125.624 212.584 125.176C212.232 123.166 211.306 121.214 210.399 119.401C210.266 119.134 209.546 117.449 210.017 117.895C211.236 119.048 212.098 120.153 213.028 121.523C213.643 122.43 212.35 119.964 212.251 119.536C211.673 117.048 211.626 114.417 210.93 111.971C210.875 111.779 209.778 108.994 210.622 109.416C210.702 109.456 210.779 109.501 210.852 109.55M210.852 109.55C211.742 110.142 212.099 111.323 212.489 112.444M210.852 109.55C211.345 110.517 211.952 111.554 212.489 112.444M210.852 109.55C210.407 108.677 210.055 107.86 209.93 107.256C209.836 106.799 209.224 106.032 209.622 106.022C210.798 105.993 211.733 106.211 212.695 106.923C213.039 107.178 213.956 108.189 213.917 108.145C213.174 107.309 212.812 105.654 212.325 104.64C211.317 102.541 210.446 100.5 210.362 98.1234C210.296 96.2202 211.036 98.8272 211.374 99.555C212.041 100.991 212.549 102.838 213.559 104.072C214.475 105.192 212.603 101.327 212.362 99.9006C212.115 98.444 211.825 97.0587 211.498 95.6674C211.333 94.9671 211.287 93.1604 212.041 94.6183C212.056 94.6469 212.072 94.6776 212.09 94.7104M212.489 112.444C212.742 113.173 213.01 113.877 213.448 114.377C214.335 115.391 213.547 114.2 212.489 112.444ZM212.09 94.7104C212.474 95.4021 213.575 97.0067 213.497 97.7038C213.47 97.9443 212.795 97.5942 212.732 97.531C212.45 97.2487 212.429 96.6177 212.362 96.2475C212.265 95.7153 212.169 95.2122 212.09 94.7104ZM212.09 94.7104C211.988 94.056 211.917 93.4039 211.917 92.693" stroke="#DF8E1D" stroke-opacity="0.5" stroke-width="3" stroke-linecap="round"/>
</g>
<g filter="url(#filter20_d_1082_227)">
<path d="M184.61 67.7352C184.858 68.1064 182.384 71.2957 182.087 71.9041C181.134 73.8576 179.577 75.4834 178.28 77.2164C177.11 78.7808 175.934 80.3896 174.697 81.9012C172.856 84.1516 171.164 86.6145 169.51 89.0121C168.71 90.1723 167.921 91.3671 167.042 92.4699C166.079 93.6779 164.685 94.2994 163.794 95.6071C161.805 98.5232 159.334 101.473 157.756 104.628C157.247 105.647 156.869 106.907 156.25 107.835C155.671 108.704 154.817 109.683 154.494 110.652" stroke="#4C4F69" stroke-opacity="0.5" stroke-width="3" stroke-linecap="round"/>
</g>
<g filter="url(#filter21_d_1082_227)">
<path d="M101.789 53.6807C101.467 56.385 101.372 59.2278 101.566 61.9489C101.811 65.3683 102.913 68.6697 103.03 72.1272C103.168 76.1749 103.044 80.2497 103.044 84.2994C103.044 93.6876 103.044 103.076 103.044 112.464C103.044 113.691 103.044 114.918 103.044 116.145C103.044 117.386 103.501 117.428 104.703 117.428C106.628 117.428 108.608 118.008 110.518 118.306C111.83 118.511 113.164 118.432 114.491 118.432C121.408 118.432 128.329 118.683 135.225 118.683C137.513 118.683 139.799 118.432 142.071 118.432C144.004 118.432 142.949 114.959 142.949 113.635C142.949 110.41 141.737 107.341 141.694 104.126C141.648 100.698 141.694 97.265 141.694 93.8364C141.694 86.4184 142.228 78.7972 141.68 71.4022C141.312 66.4335 139.937 61.7168 139.937 56.6924" stroke="#4C4F69" stroke-opacity="0.5" stroke-width="3" stroke-linecap="round"/>
</g>
<g filter="url(#filter22_d_1082_227)">
<path d="M174.321 84.0484C176.898 86.196 176.141 91.6532 176.077 94.5335C176.031 96.6249 175.575 98.7126 175.575 100.836C175.575 102.146 175.575 103.457 175.575 104.768C175.575 114.002 175.575 123.237 175.575 132.472C175.575 133.498 175.438 134.625 175.701 135.623C175.92 136.455 176.285 137.685 176.328 138.51C176.378 139.455 176.867 140.502 176.524 141.465C176.049 142.794 174.248 143.193 173.219 143.905C170.583 145.73 168.662 148.43 166.652 150.863C164.469 153.505 161.764 155.891 159.987 158.852C159.699 159.332 157.505 162.19 157.505 161.711C157.505 160.518 156.752 159.823 156.752 158.713C156.752 156.537 157.181 154.484 157.254 152.369C157.339 149.914 158.517 147.736 158.244 145.286C157.961 142.732 157.505 140.094 157.505 137.506C157.505 136.251 157.505 134.996 157.505 133.741C157.505 132.335 157.003 131.128 157.003 129.739C157.003 127.522 157.003 125.306 157.003 123.089C157.003 119.424 157.777 114.939 154.996 112.157" stroke="#4C4F69" stroke-opacity="0.5" stroke-width="3" stroke-linecap="round"/>
</g>
<g filter="url(#filter23_d_1082_227)">
<path d="M202.931 78.527C201.908 78.6407 201.56 80.4712 201.063 81.1483C200.538 81.8637 199.959 83.1181 199.92 83.9926C199.836 85.8291 199.374 87.9562 198.567 89.5698C197.813 91.0788 198.504 92.8124 198.01 94.3522C197.339 96.4368 197.289 98.5677 196.964 100.724C196.759 102.079 196.201 103.748 196.155 105.074C196.053 108.024 196.657 110.895 196.657 113.803C196.657 118.369 196.908 122.902 196.908 127.467C196.908 129.14 196.908 130.813 196.908 132.486C196.908 133.764 196.994 134.128 198.163 134.884C199.132 135.511 200.516 136.025 201.579 136.516C202.311 136.853 202.787 137.484 203.461 137.896C204.383 138.459 205.369 138.918 206.278 139.499C209.801 141.755 213.334 144.064 214.978 147.991C215.219 148.566 215.647 149.238 216.219 149.524C217.059 149.944 217.32 150.76 217.85 151.518C218.833 152.922 219.562 154.42 220.444 155.91C221.296 157.35 222.256 158.678 223.121 160.093C223.364 160.49 223.886 162.453 224.543 161.975C225.2 161.498 225.77 160.521 225.77 159.703C225.77 157.419 225.268 155.392 225.268 153.122C225.268 149.748 225.268 146.373 225.268 142.999C225.268 128.784 224.766 114.563 224.766 100.362" stroke="#4C4F69" stroke-opacity="0.5" stroke-width="3" stroke-linecap="round"/>
</g>
<g filter="url(#filter24_d_1082_227)">
<path d="M239.574 57.1943C239.692 58.3793 240.076 59.4221 240.076 60.6661C240.076 61.6452 240.048 62.6294 240.076 63.6081C240.116 65.0209 240.359 66.722 240.606 68.1395C241.327 72.2885 241.582 76.3398 241.582 80.5906C241.582 87.813 241.582 95.0355 241.582 102.258C241.582 105.683 241.582 109.109 241.582 112.534C241.582 113.502 241.377 114.747 241.707 115.671C242.422 117.673 243.259 117.679 245.151 117.679C252.966 117.679 260.919 117.428 268.798 117.428C270.522 117.428 271.876 117.111 273.553 116.8C275.899 116.366 278.352 116.424 280.733 116.424C281.914 116.424 282.239 116.604 282.239 115.364C282.239 113.789 282.239 112.213 282.239 110.638C282.239 109.194 281.486 107.922 281.486 106.524C281.486 104.572 281.486 102.62 281.486 100.668C281.486 97.2164 281.988 93.7941 281.988 90.3227C281.988 83.6925 282.239 76.9312 282.239 70.2449C282.239 66.5454 282.239 62.8459 282.239 59.1463C282.239 56.4959 281.235 54.2733 281.235 51.6729" stroke="#4C4F69" stroke-opacity="0.5" stroke-width="3" stroke-linecap="round"/>
</g>
<g filter="url(#filter25_d_1082_227)">
<path d="M296.712 156.494C295.565 164.198 294.81 172.197 294.81 180M293.542 159.035C294.627 158.242 299.149 155.598 300.358 157.482C301.705 159.581 302.872 162.193 302.348 164.753C301.967 166.614 300.488 166.659 298.896 166.659C297.882 166.659 295.051 167.142 294.493 166.024M307.491 160.035C307.491 157.252 310.468 155.906 313.022 155.906C316.119 155.906 316.051 158.452 316.051 160.988V166.706C316.051 169.251 315.7 165.538 315.417 164.659C314.582 162.067 307.174 163.254 307.174 166.547C307.174 167.569 307.54 169.565 308.777 169.565C310.57 169.565 312.646 169.298 314.149 168.294M319.221 156.859C319.277 159.748 319.538 162.607 319.538 165.506C319.538 165.869 319.534 166.332 319.529 166.691M319.529 166.691C319.522 167.287 319.515 167.597 319.529 166.691ZM319.529 166.691C319.532 166.542 319.535 166.36 319.538 166.141C319.58 163.542 320.672 156.224 324.047 156.224C327.258 156.224 328.606 159.026 329.296 161.941C329.807 164.104 330 167.052 330 169.247M72.477 158.176C72.4236 164.452 72.1816 170.724 72.1816 177M71 158.176C71.4 156.583 77.0062 157.017 78.3193 157.49C80.7859 158.379 83.2811 159.381 82.4549 162.425C81.8358 164.706 80.3214 164.941 78.3193 164.941C77.0645 164.941 76.4599 164.656 75.3653 164.059C74.6969 163.694 73.086 163.507 72.7724 162.882M91.6779 159.941C91.4082 158.867 86.633 159.312 86.0654 159.958C85.1727 160.973 84.9573 162.623 85.1956 163.928C85.5188 165.698 86.6065 165.399 87.8378 165.889C90.3264 166.88 93.1549 166.055 93.1549 163.144C93.1549 160.623 92.7174 160.148 90.201 159.647M98.1767 147C98.1767 151.947 97.7152 156.819 97.0608 161.706C96.7632 163.928 96.4043 166.228 96.4043 168.471M102.608 161.412C102.608 162.723 101.779 167.454 103.56 167.817C107.442 168.608 108.516 165.521 108.516 162.212C108.516 160.134 109.034 166.338 109.254 168.405C109.423 169.991 110.665 174.014 108.926 175.219C107.785 176.009 106.36 175.946 105.102 175.497C103.382 174.882 101.618 174.907 99.9491 174.353" stroke="#4C4F69" stroke-opacity="0.5" stroke-width="3" stroke-linecap="round"/>
</g>
<g filter="url(#filter26_d_1082_227)">
<path d="M284.274 166.517C278.409 164.144 272.013 162.903 265.915 161.269L254.279 158.151C251.024 157.279 247.874 156.106 244.63 155.237M249.478 150.617C246.439 150.016 243.545 150.148 240.485 150.29C239.76 150.323 239.07 150.398 238.845 151.239C238.539 152.38 239.711 153.29 240.375 153.969C242.733 156.38 244.703 158.74 247.377 160.906" stroke="#4C4F69" stroke-opacity="0.5" stroke-width="3" stroke-linecap="round"/>
</g>
<g filter="url(#filter27_d_1082_227)">
<path d="M114.756 163.291C116.611 162.22 118.441 161.035 120.423 160.208C123.425 158.956 126.698 158.588 129.606 157.076C133.537 155.033 137.503 153.029 141.553 151.216M140.082 148.669C140.731 149.202 149.277 148.11 147.909 151.132C147.656 151.691 146.563 152.037 146.092 152.35C145.151 152.977 144.301 153.705 143.318 154.273" stroke="#4C4F69" stroke-opacity="0.5" stroke-width="3" stroke-linecap="round"/>
</g>
<g filter="url(#filter28_d_1082_227)">
<path d="M303.066 121C303.066 127.541 302.478 134.048 302.478 140.609M296 129.913C299.648 129.913 303.278 130.21 306.894 130.21M308.072 130.507C308.652 132.2 308.545 134.265 308.595 136.02C308.615 136.709 308.647 137.42 308.66 138.135M308.66 138.135C308.683 139.398 308.648 140.677 308.383 141.88C308.1 143.164 308.388 140.064 308.66 138.135ZM308.66 138.135C308.711 137.773 308.762 137.452 308.808 137.209C309.282 134.709 310.365 132.587 313.077 132.587M316.022 132.37C316.26 130.805 317.506 129.181 319.113 128.821C320.129 128.593 321.487 131.292 321.763 131.957C323.205 135.426 323.088 139.361 323.088 143.065M320.733 141.58H317.085C315.551 141.58 315.433 139.909 315.433 138.46C315.433 135.581 317.934 135.935 320.144 135.935M327.21 129.399V136.43M327.21 136.43V140.094C327.21 141.976 327.206 136.853 327.21 136.43ZM327.21 136.43C327.225 134.74 327.094 132.223 328.404 130.901C329.482 129.813 330.795 130.028 332.183 129.844C333.849 129.623 334.283 129.811 334.996 131.511C335.779 133.378 335.61 135.337 335.765 137.288C335.808 137.829 335.9 139.873 336.338 140.094M348.41 131.181C349.203 131.081 348.524 129.62 347.984 129.465C346.748 129.108 344.472 128.081 343.257 129.019C341.804 130.14 341.343 131.262 341.343 132.964C341.343 134.095 342.115 135.043 343.241 135.043C345.487 135.043 348.861 136.13 348.998 138.906C349.135 141.661 340.354 141.283 338.693 141.283M33.4783 147.024C33.4783 142.162 31.2617 136.969 32.4638 132.114C32.6959 131.176 34.1526 128.388 35.5072 129.756C36.2224 130.478 36.8671 132.638 37.5362 132.976M30 139.122C30.1539 140.365 35.8504 139.823 37.2464 140.293M42.1739 138.829V141.899M42.1739 141.899C41.9697 142.428 41.8632 143.068 41.8841 143.805C41.9098 144.715 42.1739 147.431 42.1739 146.52V141.899ZM42.1739 141.899C42.95 139.887 45.1368 139.48 47.1014 141.463M49.7101 134.732C52.2208 134.489 54.7579 134.272 57.2464 133.854M53.4783 128C52.8052 129.845 54.058 132.467 54.058 134.439M50.8696 139.707C51.2813 138.183 53.4486 136.225 54.6377 135.024M57.8261 139.415C56.941 136.957 53.1884 136.337 53.1884 133.268M60.1449 139.707C60.6476 141.833 60.7144 143.798 60.7233 145.916M60.7233 145.916C60.7246 146.223 60.7246 146.532 60.7246 146.846V147.382C60.7246 146.958 60.7185 146.458 60.7233 145.916ZM60.7233 145.916C60.7456 143.405 61.0039 139.986 63.2045 138.976C64.6337 138.32 68.6444 138.868 69.1304 140.585C69.6533 142.433 69.4203 144.504 69.4203 146.439M78.9855 139.415C78.5592 138.554 74.4791 139.13 73.7359 139.463C72.2249 140.142 70.2887 141.065 71.1594 142.927C71.8879 144.484 72.8851 145.909 74.6538 146.276C75.8558 146.526 78.212 146.862 79.2754 146.146M81.0145 128.293C82.715 132.49 82.1739 137.862 82.1739 142.341V144.553C82.1739 143.201 83.2105 140.742 84.6699 140.569C85.3768 140.485 86.5683 139.864 87.2464 140.016C87.9619 140.177 89.5386 141.665 89.7101 142.358C89.9757 143.43 90 144.464 90 145.561" stroke="#4C4F69" stroke-opacity="0.5" stroke-width="3" stroke-linecap="round"/>
</g>
<g filter="url(#filter29_d_1082_227)">
<path d="M63.5625 120.775C61.6226 119.992 61.9982 115.022 62.0903 113.348C62.1458 112.34 71.9747 113.348 73.3443 113.348C76.6853 113.348 80.4044 113.229 83.5841 112.159M79.7565 118.696C80.754 118.595 88.6723 112.726 86.6594 111.565C85.9687 111.167 85.075 111.149 84.3202 110.955C82.6535 110.525 81.0386 109.899 79.3966 109.386C78.6157 109.143 77.6723 108.821 77.401 108M317.484 117.463C316.535 119.079 317.025 114.077 317.21 113.301C317.573 111.774 318.656 109.682 316.694 109.415C313.614 108.994 310.286 109.258 307.21 109.626C306.086 109.76 305.117 109.853 304.15 110.439M305.02 116C301.823 114.386 297.895 114.614 294.649 112.976C293.295 112.292 297.22 110.306 297.773 109.984C300.758 108.247 302.581 107.168 304.15 104" stroke="#4C4F69" stroke-opacity="0.5" stroke-width="3" stroke-linecap="round"/>
</g>
</g>
<defs>
<filter id="filter0_d_1082_227" x="94.1528" y="46.0524" width="55.564" height="38.3238" filterUnits="userSpaceOnUse" color-interpolation-filters="sRGB">
<feFlood flood-opacity="0" result="BackgroundImageFix"/>
<feColorMatrix in="SourceAlpha" type="matrix" values="0 0 0 0 0 0 0 0 0 0 0 0 0 0 0 0 0 0 127 0" result="hardAlpha"/>
<feOffset/>
<feGaussianBlur stdDeviation="4"/>
<feColorMatrix type="matrix" values="0 0 0 0 0.117647 0 0 0 0 0.4 0 0 0 0 0.960784 0 0 0 0.5 0"/>
<feBlend mode="normal" in2="BackgroundImageFix" result="effect1_dropShadow_1082_227"/>
<feBlend mode="normal" in="SourceGraphic" in2="effect1_dropShadow_1082_227" result="shape"/>
</filter>
<filter id="filter1_d_1082_227" x="93.4985" y="66.7563" width="57.5239" height="39.0137" filterUnits="userSpaceOnUse" color-interpolation-filters="sRGB">
<feFlood flood-opacity="0" result="BackgroundImageFix"/>
<feColorMatrix in="SourceAlpha" type="matrix" values="0 0 0 0 0 0 0 0 0 0 0 0 0 0 0 0 0 0 127 0" result="hardAlpha"/>
<feOffset/>
<feGaussianBlur stdDeviation="4"/>
<feColorMatrix type="matrix" values="0 0 0 0 0.862745 0 0 0 0 0.878431 0 0 0 0 0.909804 0 0 0 0.5 0"/>
<feBlend mode="normal" in2="BackgroundImageFix" result="effect1_dropShadow_1082_227"/>
<feBlend mode="normal" in="SourceGraphic" in2="effect1_dropShadow_1082_227" result="shape"/>
</filter>
<filter id="filter2_d_1082_227" x="94.1919" y="88.2531" width="56.2354" height="37.6335" filterUnits="userSpaceOnUse" color-interpolation-filters="sRGB">
<feFlood flood-opacity="0" result="BackgroundImageFix"/>
<feColorMatrix in="SourceAlpha" type="matrix" values="0 0 0 0 0 0 0 0 0 0 0 0 0 0 0 0 0 0 127 0" result="hardAlpha"/>
<feOffset/>
<feGaussianBlur stdDeviation="4"/>
<feColorMatrix type="matrix" values="0 0 0 0 0.823529 0 0 0 0 0.0588235 0 0 0 0 0.223529 0 0 0 0.5 0"/>
<feBlend mode="normal" in2="BackgroundImageFix" result="effect1_dropShadow_1082_227"/>
<feBlend mode="normal" in="SourceGraphic" in2="effect1_dropShadow_1082_227" result="shape"/>
</filter>
<filter id="filter3_d_1082_227" x="231.821" y="44.3782" width="26.1011" height="80.4689" filterUnits="userSpaceOnUse" color-interpolation-filters="sRGB">
<feFlood flood-opacity="0" result="BackgroundImageFix"/>
<feColorMatrix in="SourceAlpha" type="matrix" values="0 0 0 0 0 0 0 0 0 0 0 0 0 0 0 0 0 0 127 0" result="hardAlpha"/>
<feOffset/>
<feGaussianBlur stdDeviation="4"/>
<feColorMatrix type="matrix" values="0 0 0 0 0.447059 0 0 0 0 0.529412 0 0 0 0 0.992157 0 0 0 0.5 0"/>
<feBlend mode="normal" in2="BackgroundImageFix" result="effect1_dropShadow_1082_227"/>
<feBlend mode="normal" in="SourceGraphic" in2="effect1_dropShadow_1082_227" result="shape"/>
</filter>
<filter id="filter4_d_1082_227" x="240.264" y="42.7644" width="26.4629" height="82.8349" filterUnits="userSpaceOnUse" color-interpolation-filters="sRGB">
<feFlood flood-opacity="0" result="BackgroundImageFix"/>
<feColorMatrix in="SourceAlpha" type="matrix" values="0 0 0 0 0 0 0 0 0 0 0 0 0 0 0 0 0 0 127 0" result="hardAlpha"/>
<feOffset/>
<feGaussianBlur stdDeviation="4"/>
<feColorMatrix type="matrix" values="0 0 0 0 0.917647 0 0 0 0 0.462745 0 0 0 0 0.796078 0 0 0 0.5 0"/>
<feBlend mode="normal" in2="BackgroundImageFix" result="effect1_dropShadow_1082_227"/>
<feBlend mode="normal" in="SourceGraphic" in2="effect1_dropShadow_1082_227" result="shape"/>
</filter>
<filter id="filter5_d_1082_227" x="248.527" y="43.4691" width="25.6826" height="82.1296" filterUnits="userSpaceOnUse" color-interpolation-filters="sRGB">
<feFlood flood-opacity="0" result="BackgroundImageFix"/>
<feColorMatrix in="SourceAlpha" type="matrix" values="0 0 0 0 0 0 0 0 0 0 0 0 0 0 0 0 0 0 127 0" result="hardAlpha"/>
<feOffset/>
<feGaussianBlur stdDeviation="4"/>
<feColorMatrix type="matrix" values="0 0 0 0 0.862745 0 0 0 0 0.878431 0 0 0 0 0.909804 0 0 0 0.5 0"/>
<feBlend mode="normal" in2="BackgroundImageFix" result="effect1_dropShadow_1082_227"/>
<feBlend mode="normal" in="SourceGraphic" in2="effect1_dropShadow_1082_227" result="shape"/>
</filter>
<filter id="filter6_d_1082_227" x="256.938" y="43.9357" width="25.8032" height="81.4992" filterUnits="userSpaceOnUse" color-interpolation-filters="sRGB">
<feFlood flood-opacity="0" result="BackgroundImageFix"/>
<feColorMatrix in="SourceAlpha" type="matrix" values="0 0 0 0 0 0 0 0 0 0 0 0 0 0 0 0 0 0 127 0" result="hardAlpha"/>
<feOffset/>
<feGaussianBlur stdDeviation="4"/>
<feColorMatrix type="matrix" values="0 0 0 0 0.917647 0 0 0 0 0.462745 0 0 0 0 0.796078 0 0 0 0.5 0"/>
<feBlend mode="normal" in2="BackgroundImageFix" result="effect1_dropShadow_1082_227"/>
<feBlend mode="normal" in="SourceGraphic" in2="effect1_dropShadow_1082_227" result="shape"/>
</filter>
<filter id="filter7_d_1082_227" x="265.141" y="43.6234" width="25.6953" height="80.7807" filterUnits="userSpaceOnUse" color-interpolation-filters="sRGB">
<feFlood flood-opacity="0" result="BackgroundImageFix"/>
<feColorMatrix in="SourceAlpha" type="matrix" values="0 0 0 0 0 0 0 0 0 0 0 0 0 0 0 0 0 0 127 0" result="hardAlpha"/>
<feOffset/>
<feGaussianBlur stdDeviation="4"/>
<feColorMatrix type="matrix" values="0 0 0 0 0.447059 0 0 0 0 0.529412 0 0 0 0 0.992157 0 0 0 0.5 0"/>
<feBlend mode="normal" in2="BackgroundImageFix" result="effect1_dropShadow_1082_227"/>
<feBlend mode="normal" in="SourceGraphic" in2="effect1_dropShadow_1082_227" result="shape"/>
</filter>
<filter id="filter8_d_1082_227" x="202.516" y="42.0465" width="86.5977" height="24.4484" filterUnits="userSpaceOnUse" color-interpolation-filters="sRGB">
<feFlood flood-opacity="0" result="BackgroundImageFix"/>
<feColorMatrix in="SourceAlpha" type="matrix" values="0 0 0 0 0 0 0 0 0 0 0 0 0 0 0 0 0 0 127 0" result="hardAlpha"/>
<feOffset/>
<feGaussianBlur stdDeviation="4"/>
<feColorMatrix type="matrix" values="0 0 0 0 0.298039 0 0 0 0 0.309804 0 0 0 0 0.411765 0 0 0 0.5 0"/>
<feBlend mode="normal" in2="BackgroundImageFix" result="effect1_dropShadow_1082_227"/>
<feBlend mode="normal" in="SourceGraphic" in2="effect1_dropShadow_1082_227" result="shape"/>
</filter>
<filter id="filter9_d_1082_227" x="96.0723" y="43.4796" width="80.668" height="23.2105" filterUnits="userSpaceOnUse" color-interpolation-filters="sRGB">
<feFlood flood-opacity="0" result="BackgroundImageFix"/>
<feColorMatrix in="SourceAlpha" type="matrix" values="0 0 0 0 0 0 0 0 0 0 0 0 0 0 0 0 0 0 127 0" result="hardAlpha"/>
<feOffset/>
<feGaussianBlur stdDeviation="4"/>
<feColorMatrix type="matrix" values="0 0 0 0 0.298039 0 0 0 0 0.309804 0 0 0 0 0.411765 0 0 0 0.5 0"/>
<feBlend mode="normal" in2="BackgroundImageFix" result="effect1_dropShadow_1082_227"/>
<feBlend mode="normal" in="SourceGraphic" in2="effect1_dropShadow_1082_227" result="shape"/>
</filter>
<filter id="filter10_d_1082_227" x="161.083" y="-37.0002" width="57.3921" height="112.6" filterUnits="userSpaceOnUse" color-interpolation-filters="sRGB">
<feFlood flood-opacity="0" result="BackgroundImageFix"/>
<feColorMatrix in="SourceAlpha" type="matrix" values="0 0 0 0 0 0 0 0 0 0 0 0 0 0 0 0 0 0 127 0" result="hardAlpha"/>
<feOffset/>
<feGaussianBlur stdDeviation="4"/>
<feColorMatrix type="matrix" values="0 0 0 0 0.298039 0 0 0 0 0.309804 0 0 0 0 0.411765 0 0 0 0.5 0"/>
<feBlend mode="normal" in2="BackgroundImageFix" result="effect1_dropShadow_1082_227"/>
<feBlend mode="normal" in="SourceGraphic" in2="effect1_dropShadow_1082_227" result="shape"/>
</filter>
<filter id="filter11_d_1082_227" x="147.178" y="77.5023" width="34.3623" height="51.9753" filterUnits="userSpaceOnUse" color-interpolation-filters="sRGB">
<feFlood flood-opacity="0" result="BackgroundImageFix"/>
<feColorMatrix in="SourceAlpha" type="matrix" values="0 0 0 0 0 0 0 0 0 0 0 0 0 0 0 0 0 0 127 0" result="hardAlpha"/>
<feOffset/>
<feGaussianBlur stdDeviation="4"/>
<feColorMatrix type="matrix" values="0 0 0 0 0.862745 0 0 0 0 0.878431 0 0 0 0 0.909804 0 0 0 0.5 0"/>
<feBlend mode="normal" in2="BackgroundImageFix" result="effect1_dropShadow_1082_227"/>
<feBlend mode="normal" in="SourceGraphic" in2="effect1_dropShadow_1082_227" result="shape"/>
</filter>
<filter id="filter12_d_1082_227" x="147.49" y="102.348" width="25.5405" height="66.2166" filterUnits="userSpaceOnUse" color-interpolation-filters="sRGB">
<feFlood flood-opacity="0" result="BackgroundImageFix"/>
<feColorMatrix in="SourceAlpha" type="matrix" values="0 0 0 0 0 0 0 0 0 0 0 0 0 0 0 0 0 0 127 0" result="hardAlpha"/>
<feOffset/>
<feGaussianBlur stdDeviation="4"/>
<feColorMatrix type="matrix" values="0 0 0 0 0.0156863 0 0 0 0 0.647059 0 0 0 0 0.898039 0 0 0 0.5 0"/>
<feBlend mode="normal" in2="BackgroundImageFix" result="effect1_dropShadow_1082_227"/>
<feBlend mode="normal" in="SourceGraphic" in2="effect1_dropShadow_1082_227" result="shape"/>
</filter>
<filter id="filter13_d_1082_227" x="155.245" y="98.327" width="23.6616" height="61.3985" filterUnits="userSpaceOnUse" color-interpolation-filters="sRGB">
<feFlood flood-opacity="0" result="BackgroundImageFix"/>
<feColorMatrix in="SourceAlpha" type="matrix" values="0 0 0 0 0 0 0 0 0 0 0 0 0 0 0 0 0 0 127 0" result="hardAlpha"/>
<feOffset/>
<feGaussianBlur stdDeviation="4"/>
<feColorMatrix type="matrix" values="0 0 0 0 0.823529 0 0 0 0 0.0588235 0 0 0 0 0.223529 0 0 0 0.5 0"/>
<feBlend mode="normal" in2="BackgroundImageFix" result="effect1_dropShadow_1082_227"/>
<feBlend mode="normal" in="SourceGraphic" in2="effect1_dropShadow_1082_227" result="shape"/>
</filter>
<filter id="filter14_d_1082_227" x="152.847" y="97.6597" width="20.3359" height="21.4201" filterUnits="userSpaceOnUse" color-interpolation-filters="sRGB">
<feFlood flood-opacity="0" result="BackgroundImageFix"/>
<feColorMatrix in="SourceAlpha" type="matrix" values="0 0 0 0 0 0 0 0 0 0 0 0 0 0 0 0 0 0 127 0" result="hardAlpha"/>
<feOffset/>
<feGaussianBlur stdDeviation="4"/>
<feColorMatrix type="matrix" values="0 0 0 0 0.87451 0 0 0 0 0.556863 0 0 0 0 0.113725 0 0 0 0.5 0"/>
<feBlend mode="normal" in2="BackgroundImageFix" result="effect1_dropShadow_1082_227"/>
<feBlend mode="normal" in="SourceGraphic" in2="effect1_dropShadow_1082_227" result="shape"/>
</filter>
<filter id="filter15_d_1082_227" x="160.5" y="79.4995" width="24" height="72.1354" filterUnits="userSpaceOnUse" color-interpolation-filters="sRGB">
<feFlood flood-opacity="0" result="BackgroundImageFix"/>
<feColorMatrix in="SourceAlpha" type="matrix" values="0 0 0 0 0 0 0 0 0 0 0 0 0 0 0 0 0 0 127 0" result="hardAlpha"/>
<feOffset/>
<feGaussianBlur stdDeviation="4"/>
<feColorMatrix type="matrix" values="0 0 0 0 0.533333 0 0 0 0 0.223529 0 0 0 0 0.937255 0 0 0 0.5 0"/>
<feBlend mode="normal" in2="BackgroundImageFix" result="effect1_dropShadow_1082_227"/>
<feBlend mode="normal" in="SourceGraphic" in2="effect1_dropShadow_1082_227" result="shape"/>
</filter>
<filter id="filter16_d_1082_227" x="184.674" y="59.2753" width="49.3379" height="47.9337" filterUnits="userSpaceOnUse" color-interpolation-filters="sRGB">
<feFlood flood-opacity="0" result="BackgroundImageFix"/>
<feColorMatrix in="SourceAlpha" type="matrix" values="0 0 0 0 0 0 0 0 0 0 0 0 0 0 0 0 0 0 127 0" result="hardAlpha"/>
<feOffset/>
<feGaussianBlur stdDeviation="4"/>
<feColorMatrix type="matrix" values="0 0 0 0 0.298039 0 0 0 0 0.309804 0 0 0 0 0.411765 0 0 0 0.5 0"/>
<feBlend mode="normal" in2="BackgroundImageFix" result="effect1_dropShadow_1082_227"/>
<feBlend mode="normal" in="SourceGraphic" in2="effect1_dropShadow_1082_227" result="shape"/>
</filter>
<filter id="filter17_d_1082_227" x="208.5" y="84.4983" width="26" height="84.002" filterUnits="userSpaceOnUse" color-interpolation-filters="sRGB">
<feFlood flood-opacity="0" result="BackgroundImageFix"/>
<feColorMatrix in="SourceAlpha" type="matrix" values="0 0 0 0 0 0 0 0 0 0 0 0 0 0 0 0 0 0 127 0" result="hardAlpha"/>
<feOffset/>
<feGaussianBlur stdDeviation="4"/>
<feColorMatrix type="matrix" values="0 0 0 0 0.447059 0 0 0 0 0.529412 0 0 0 0 0.992157 0 0 0 0.5 0"/>
<feBlend mode="normal" in2="BackgroundImageFix" result="effect1_dropShadow_1082_227"/>
<feBlend mode="normal" in="SourceGraphic" in2="effect1_dropShadow_1082_227" result="shape"/>
</filter>
<filter id="filter18_d_1082_227" x="188.206" y="71.6405" width="29.7114" height="75.3922" filterUnits="userSpaceOnUse" color-interpolation-filters="sRGB">
<feFlood flood-opacity="0" result="BackgroundImageFix"/>
<feColorMatrix in="SourceAlpha" type="matrix" values="0 0 0 0 0 0 0 0 0 0 0 0 0 0 0 0 0 0 127 0" result="hardAlpha"/>
<feOffset/>
<feGaussianBlur stdDeviation="4"/>
<feColorMatrix type="matrix" values="0 0 0 0 0.917647 0 0 0 0 0.462745 0 0 0 0 0.796078 0 0 0 0.5 0"/>
<feBlend mode="normal" in2="BackgroundImageFix" result="effect1_dropShadow_1082_227"/>
<feBlend mode="normal" in="SourceGraphic" in2="effect1_dropShadow_1082_227" result="shape"/>
</filter>
<filter id="filter19_d_1082_227" x="198.58" y="77.1947" width="26.8511" height="80.8766" filterUnits="userSpaceOnUse" color-interpolation-filters="sRGB">
<feFlood flood-opacity="0" result="BackgroundImageFix"/>
<feColorMatrix in="SourceAlpha" type="matrix" values="0 0 0 0 0 0 0 0 0 0 0 0 0 0 0 0 0 0 127 0" result="hardAlpha"/>
<feOffset/>
<feGaussianBlur stdDeviation="4"/>
<feColorMatrix type="matrix" values="0 0 0 0 0.87451 0 0 0 0 0.556863 0 0 0 0 0.113725 0 0 0 0.5 0"/>
<feBlend mode="normal" in2="BackgroundImageFix" result="effect1_dropShadow_1082_227"/>
<feBlend mode="normal" in="SourceGraphic" in2="effect1_dropShadow_1082_227" result="shape"/>
</filter>
<filter id="filter20_d_1082_227" x="144.993" y="58.235" width="49.1348" height="61.9169" filterUnits="userSpaceOnUse" color-interpolation-filters="sRGB">
<feFlood flood-opacity="0" result="BackgroundImageFix"/>
<feColorMatrix in="SourceAlpha" type="matrix" values="0 0 0 0 0 0 0 0 0 0 0 0 0 0 0 0 0 0 127 0" result="hardAlpha"/>
<feOffset/>
<feGaussianBlur stdDeviation="4"/>
<feColorMatrix type="matrix" values="0 0 0 0 0.298039 0 0 0 0 0.309804 0 0 0 0 0.411765 0 0 0 0.5 0"/>
<feBlend mode="normal" in2="BackgroundImageFix" result="effect1_dropShadow_1082_227"/>
<feBlend mode="normal" in="SourceGraphic" in2="effect1_dropShadow_1082_227" result="shape"/>
</filter>
<filter id="filter21_d_1082_227" x="91.9658" y="44.1805" width="60.7705" height="84.0021" filterUnits="userSpaceOnUse" color-interpolation-filters="sRGB">
<feFlood flood-opacity="0" result="BackgroundImageFix"/>
<feColorMatrix in="SourceAlpha" type="matrix" values="0 0 0 0 0 0 0 0 0 0 0 0 0 0 0 0 0 0 127 0" result="hardAlpha"/>
<feOffset/>
<feGaussianBlur stdDeviation="4"/>
<feColorMatrix type="matrix" values="0 0 0 0 0.298039 0 0 0 0 0.309804 0 0 0 0 0.411765 0 0 0 0.5 0"/>
<feBlend mode="normal" in2="BackgroundImageFix" result="effect1_dropShadow_1082_227"/>
<feBlend mode="normal" in="SourceGraphic" in2="effect1_dropShadow_1082_227" result="shape"/>
</filter>
<filter id="filter22_d_1082_227" x="145.496" y="74.5484" width="40.6494" height="96.7162" filterUnits="userSpaceOnUse" color-interpolation-filters="sRGB">
<feFlood flood-opacity="0" result="BackgroundImageFix"/>
<feColorMatrix in="SourceAlpha" type="matrix" values="0 0 0 0 0 0 0 0 0 0 0 0 0 0 0 0 0 0 127 0" result="hardAlpha"/>
<feOffset/>
<feGaussianBlur stdDeviation="4"/>
<feColorMatrix type="matrix" values="0 0 0 0 0.298039 0 0 0 0 0.309804 0 0 0 0 0.411765 0 0 0 0.5 0"/>
<feBlend mode="normal" in2="BackgroundImageFix" result="effect1_dropShadow_1082_227"/>
<feBlend mode="normal" in="SourceGraphic" in2="effect1_dropShadow_1082_227" result="shape"/>
</filter>
<filter id="filter23_d_1082_227" x="186.644" y="69.0269" width="48.6265" height="102.523" filterUnits="userSpaceOnUse" color-interpolation-filters="sRGB">
<feFlood flood-opacity="0" result="BackgroundImageFix"/>
<feColorMatrix in="SourceAlpha" type="matrix" values="0 0 0 0 0 0 0 0 0 0 0 0 0 0 0 0 0 0 127 0" result="hardAlpha"/>
<feOffset/>
<feGaussianBlur stdDeviation="4"/>
<feColorMatrix type="matrix" values="0 0 0 0 0.298039 0 0 0 0 0.309804 0 0 0 0 0.411765 0 0 0 0.5 0"/>
<feBlend mode="normal" in2="BackgroundImageFix" result="effect1_dropShadow_1082_227"/>
<feBlend mode="normal" in="SourceGraphic" in2="effect1_dropShadow_1082_227" result="shape"/>
</filter>
<filter id="filter24_d_1082_227" x="230.074" y="42.1729" width="61.6655" height="85.0063" filterUnits="userSpaceOnUse" color-interpolation-filters="sRGB">
<feFlood flood-opacity="0" result="BackgroundImageFix"/>
<feColorMatrix in="SourceAlpha" type="matrix" values="0 0 0 0 0 0 0 0 0 0 0 0 0 0 0 0 0 0 127 0" result="hardAlpha"/>
<feOffset/>
<feGaussianBlur stdDeviation="4"/>
<feColorMatrix type="matrix" values="0 0 0 0 0.298039 0 0 0 0 0.309804 0 0 0 0 0.411765 0 0 0 0.5 0"/>
<feBlend mode="normal" in2="BackgroundImageFix" result="effect1_dropShadow_1082_227"/>
<feBlend mode="normal" in="SourceGraphic" in2="effect1_dropShadow_1082_227" result="shape"/>
</filter>
<filter id="filter25_d_1082_227" x="61.4995" y="137.5" width="278" height="52" filterUnits="userSpaceOnUse" color-interpolation-filters="sRGB">
<feFlood flood-opacity="0" result="BackgroundImageFix"/>
<feColorMatrix in="SourceAlpha" type="matrix" values="0 0 0 0 0 0 0 0 0 0 0 0 0 0 0 0 0 0 127 0" result="hardAlpha"/>
<feOffset/>
<feGaussianBlur stdDeviation="4"/>
<feColorMatrix type="matrix" values="0 0 0 0 0.298039 0 0 0 0 0.309804 0 0 0 0 0.411765 0 0 0 0.5 0"/>
<feBlend mode="normal" in2="BackgroundImageFix" result="effect1_dropShadow_1082_227"/>
<feBlend mode="normal" in="SourceGraphic" in2="effect1_dropShadow_1082_227" result="shape"/>
</filter>
<filter id="filter26_d_1082_227" x="229.294" y="140.669" width="64.481" height="35.3482" filterUnits="userSpaceOnUse" color-interpolation-filters="sRGB">
<feFlood flood-opacity="0" result="BackgroundImageFix"/>
<feColorMatrix in="SourceAlpha" type="matrix" values="0 0 0 0 0 0 0 0 0 0 0 0 0 0 0 0 0 0 127 0" result="hardAlpha"/>
<feOffset/>
<feGaussianBlur stdDeviation="4"/>
<feColorMatrix type="matrix" values="0 0 0 0 0.298039 0 0 0 0 0.309804 0 0 0 0 0.411765 0 0 0 0.5 0"/>
<feBlend mode="normal" in2="BackgroundImageFix" result="effect1_dropShadow_1082_227"/>
<feBlend mode="normal" in="SourceGraphic" in2="effect1_dropShadow_1082_227" result="shape"/>
</filter>
<filter id="filter27_d_1082_227" x="105.255" y="139.169" width="52.3022" height="33.6226" filterUnits="userSpaceOnUse" color-interpolation-filters="sRGB">
<feFlood flood-opacity="0" result="BackgroundImageFix"/>
<feColorMatrix in="SourceAlpha" type="matrix" values="0 0 0 0 0 0 0 0 0 0 0 0 0 0 0 0 0 0 127 0" result="hardAlpha"/>
<feOffset/>
<feGaussianBlur stdDeviation="4"/>
<feColorMatrix type="matrix" values="0 0 0 0 0.298039 0 0 0 0 0.309804 0 0 0 0 0.411765 0 0 0 0.5 0"/>
<feBlend mode="normal" in2="BackgroundImageFix" result="effect1_dropShadow_1082_227"/>
<feBlend mode="normal" in="SourceGraphic" in2="effect1_dropShadow_1082_227" result="shape"/>
</filter>
<filter id="filter28_d_1082_227" x="20.5" y="111.5" width="338" height="45.0244" filterUnits="userSpaceOnUse" color-interpolation-filters="sRGB">
<feFlood flood-opacity="0" result="BackgroundImageFix"/>
<feColorMatrix in="SourceAlpha" type="matrix" values="0 0 0 0 0 0 0 0 0 0 0 0 0 0 0 0 0 0 127 0" result="hardAlpha"/>
<feOffset/>
<feGaussianBlur stdDeviation="4"/>
<feColorMatrix type="matrix" values="0 0 0 0 0.298039 0 0 0 0 0.309804 0 0 0 0 0.411765 0 0 0 0.5 0"/>
<feBlend mode="normal" in2="BackgroundImageFix" result="effect1_dropShadow_1082_227"/>
<feBlend mode="normal" in="SourceGraphic" in2="effect1_dropShadow_1082_227" result="shape"/>
</filter>
<filter id="filter29_d_1082_227" x="52.5" y="94.4997" width="274.836" height="35.7761" filterUnits="userSpaceOnUse" color-interpolation-filters="sRGB">
<feFlood flood-opacity="0" result="BackgroundImageFix"/>
<feColorMatrix in="SourceAlpha" type="matrix" values="0 0 0 0 0 0 0 0 0 0 0 0 0 0 0 0 0 0 127 0" result="hardAlpha"/>
<feOffset/>
<feGaussianBlur stdDeviation="4"/>
<feColorMatrix type="matrix" values="0 0 0 0 0.298039 0 0 0 0 0.309804 0 0 0 0 0.411765 0 0 0 0.5 0"/>
<feBlend mode="normal" in2="BackgroundImageFix" result="effect1_dropShadow_1082_227"/>
<feBlend mode="normal" in="SourceGraphic" in2="effect1_dropShadow_1082_227" result="shape"/>
</filter>
<clipPath id="clip0_1082_227">
<rect width="384" height="192" fill="white"/>
</clipPath>
</defs>
</svg>
