<svg width="256" height="256" viewBox="0 0 256 256" fill="none" xmlns="http://www.w3.org/2000/svg">
<g filter="url(#filter0_d_806_51)">
<path d="M81.6035 109.692C80.5363 110.698 79.1597 110.631 77.7449 110.631M117.896 95.3002C118.851 95.2471 119.356 93.1628 119.356 92.3801M102.497 106.171C101.47 106.027 104.086 109.621 104.425 109.88C105.69 110.847 107.012 111.428 108.527 111.837C109.718 112.158 107.559 113.878 107.139 114.179C106.08 114.941 104.96 115.498 103.712 115.853M82.2233 110.925C81.4848 111.272 81.9772 110.358 82.1585 109.985C83.4196 107.389 84.402 104.634 85.8039 102.111C86.2311 101.342 87.5912 101.976 88.2017 102.192C90.6424 103.056 93.1976 103.598 95.6383 104.412M104.29 101.592C104.29 101.324 104.319 101.109 104.414 100.853C104.848 99.6817 105.333 98.5311 105.748 97.3531C106.126 96.2809 106.5 95.2092 106.915 94.1505C107.146 93.5603 107.447 92.9346 107.552 92.3035C107.627 91.8556 110.269 92.8584 110.393 92.9084C113.051 93.9837 115.632 95.0472 118.385 95.8571M196.582 63.8073C200.581 60.5271 205.843 58.3517 210.879 57.3623C215.046 56.5434 219.26 56.3806 223.496 56.4999C226.94 56.5969 229.917 58.6796 232.226 61.1295C236.619 65.7919 239.114 72.1116 239.442 78.5128C239.673 83.0031 239.452 87.9568 236.961 91.8869C235.969 93.4528 233.89 94.6272 232.392 95.6692C229.987 97.3422 227.466 97.7054 224.616 97.9386C222.563 98.1065 220.414 98.5679 218.352 98.3924C215.548 98.1537 212.96 96.4814 210.228 95.8356C206.422 94.936 202.669 91.3341 202.452 87.212C202.315 84.6086 202.326 81.9618 203.193 79.481C203.728 77.9503 204.944 76.7388 205.432 75.2752M213.874 79.6323C213.332 79.6323 213.057 79.5772 213.057 80.2375C213.057 84.2108 213.329 88.183 213.329 92.1592M222.861 82.0833V94.3378M230.214 80.4493C230.264 81.4515 230.688 82.3174 231.091 83.2331C232.127 85.5864 233.225 87.9166 234.298 90.253M197.807 65.1992C193.524 63.8812 182.674 68.9705 181.5 71.1992C180.326 73.4279 181 73.8119 182.5 75C184 76.1881 191.814 73.3245 195.5 73.5M90 134.5C93.1917 136 98 137.208 101.372 137.611M123.868 89.1736C122 92.3801 121 98.5 123.868 104.481M123.868 105C123.868 115 120.241 121.676 118.096 124.874C114.924 129.604 110.212 134.208 103.712 137.208M89.5105 137.208C87.5791 137.684 92.9998 149.979 93.1917 150.528M116.915 127.52C116.915 132.508 120.868 137.416 123.05 141.648M123.459 143.262C123.349 143.262 124.188 142.893 124.459 142.59C128.817 137.696 133.405 133.199 138.184 128.731M138.593 129.135C139.85 129.135 141 131.5 145 131.5C149 131.5 144 131.5 151.5 131.5M94.4187 152.546C88.8672 152.546 83.587 155.259 78.4854 157.859M78.4854 157.859C77.6187 158.301 76.7571 158.739 75.9002 159.16C74.8402 159.682 73.7873 160.177 72.7408 160.619M78.4854 157.859C77.4458 156.827 76.4166 155.792 75.3983 154.753C64.5048 143.633 65.3325 123.052 52.6963 115.853C40.0601 108.654 35.2139 92.9031 37.8074 79.687C39.4494 71.3197 45.556 64.5257 52.6963 60.1128C55.8814 58.1442 61.3768 57.3986 64.9577 59.0451C68.2377 60.5532 72.4336 63.1181 75.0554 65.7054M78.4854 157.859C78.7325 158.104 78.9801 158.349 79.2284 158.594M71.9227 163.445C71.9227 177.846 69.4686 187 63 200M42.0645 174.343C51.7535 185.644 60.6421 197.887 69.4686 209.864M34.2931 159.005C28.7808 159.005 23.5692 157.571 19.2731 162.212C12.1906 169.862 15.0421 183.457 26.749 183.852C37.7605 184.223 49.7692 168.407 41.8372 158.78C39.1227 155.486 34.4948 153.814 30.1778 154.134M30.1778 154.134C29.0619 154.217 27.9667 154.433 26.9308 154.789C22.4647 156.322 19.661 159.772 17.1144 163.445M30.1778 154.134C30.1869 154.278 30.1953 154.421 30.2029 154.565M30.1778 154.134C30.077 152.55 29.8905 150.977 29.695 149.408M28.9759 188.875C33.4178 197.642 40.2997 205.393 46.1774 213.228C54.6238 224.488 60.5 230.5 71.6046 235.5M72.7408 233.68C78.1858 223.218 86.8869 208.968 91.5556 198.159M92.3736 199.37C98.3127 211.092 104.685 222.492 111.597 233.68M29.695 149.408C29.1565 145.086 28.5495 140.796 29.4758 136.4C30.2022 132.954 32.0862 126.643 35.8383 125.188C38.1962 124.274 38.7794 134.887 38.7923 135.952C38.8594 141.482 38.7923 147.016 38.7923 152.546M29.695 149.408C30.2427 150.208 30.8112 150.993 31.43 151.739M29.695 149.408C27.3951 146.047 25.461 142.414 21.7045 140.213C19.9572 139.189 18.1963 138.193 16.4781 137.118C15.2403 136.344 13.9228 135.038 12.4107 134.808C10.6484 134.541 10.0559 135.064 10.002 136.871C9.91521 139.785 12.6134 142.663 14.3649 144.743C17.2085 148.119 20.3704 151.211 23.6587 154.161M34.7021 166.27C32.1115 166.27 28.9445 165.779 26.6127 166.943C25.9736 167.262 22.9777 169.355 24.1131 170.329C26.6817 172.534 31.5564 172.196 34.7021 172.325M71.1047 77.0642C72.2903 77.0642 70.3896 78.2995 69.8095 79.0152C64.2805 85.8357 69.1004 97.0367 71.6046 104.109C73.3281 108.976 75.3708 113.745 76.7401 118.73C78.1094 123.714 84.506 126.707 87 130.32C89.494 133.933 89.9187 139.954 94.4187 145M74.3768 95.2284C75.4024 95.1159 75.8204 94.4245 76.6946 93.9726C80.0067 92.2604 82.7921 92.9976 86.2384 93.2101M100.554 90.3846C100.554 86.8987 105.53 83.4105 110.552 84.0056M87.5744 71.1964C85.4919 70.6826 89.7749 67.4513 91.4383 66.1122C95.529 62.8188 103.625 58.0671 108.697 62.3498C113.786 66.6465 114.55 73.6087 116.322 79.5345C118.138 85.6089 132.888 112 134.444 120.836M92.6747 124.276C92.5983 123.672 93.5661 124.996 94.684 125.216C99.0648 126.081 102.179 126.371 106.121 124.276M71.6144 51.8868C73.8031 49.4869 75.2726 46.5687 77.7229 44.2957C81.9289 40.394 86.9571 39.454 92.4629 38.4248L92.6223 38.395C102.221 36.6002 112.616 35.4858 120.724 41.8876C123.986 44.4624 126.559 47.7222 129.725 50.3877C131.557 51.9296 132.764 53.3595 134.444 55.491C141.71 64.7069 141.22 72.5872 143.93 84.0056C147.158 97.6037 146.877 116.569 148.5 119.5" stroke="#4C4F69" stroke-opacity="0.5" stroke-width="3" stroke-linecap="round"/>
</g>
<defs>
<filter id="filter0_d_806_51" x="0.5" y="27.4994" width="248.513" height="217.501" filterUnits="userSpaceOnUse" color-interpolation-filters="sRGB">
<feFlood flood-opacity="0" result="BackgroundImageFix"/>
<feColorMatrix in="SourceAlpha" type="matrix" values="0 0 0 0 0 0 0 0 0 0 0 0 0 0 0 0 0 0 127 0" result="hardAlpha"/>
<feOffset/>
<feGaussianBlur stdDeviation="4"/>
<feColorMatrix type="matrix" values="0 0 0 0 0.298039 0 0 0 0 0.309804 0 0 0 0 0.411765 0 0 0 0.5 0"/>
<feBlend mode="normal" in2="BackgroundImageFix" result="effect1_dropShadow_806_51"/>
<feBlend mode="normal" in="SourceGraphic" in2="effect1_dropShadow_806_51" result="shape"/>
</filter>
</defs>
</svg>
