<svg width="258" height="256" viewBox="0 0 258 256" fill="none" xmlns="http://www.w3.org/2000/svg">
<g filter="url(#filter0_d_806_131)">
<path d="M156.279 99.1056C156.818 99.5372 157.424 99.899 158.124 100.001C160.104 100.288 160.404 98.7296 160.764 97.1123M191.826 86.149C192.472 86.149 193.038 86.3801 193.681 86.4535C195.257 86.6336 195.798 85.8062 196.643 84.654M140.126 219.994C132.415 219.394 123.875 216.308 119.171 208.471C115.336 202.081 114.842 194.863 117.717 188.396C121.866 179.065 130.703 172.23 139.669 169.874C151.842 166.675 150.437 169.692 156.847 170.381M139.677 171L148.577 195.037M128.641 179.641C131.339 186.927 132.684 194.993 136.799 201.675M147.338 86C145.545 86.505 151.447 96.6066 151.846 97.9694C153.59 103.921 152.839 110.814 152.839 117M156 123C162.25 136.5 178.37 141.612 189 143M198.334 66C194.387 74.2117 200.045 85.4196 204.324 92.2171C209.14 99.8682 212.989 104.986 218 113.5C221.212 118.958 222.798 122.141 225.872 127.677M149.151 53.2483C148.94 51.3348 145.867 49.1474 144.479 48.2012C136.584 42.8194 127.643 44.3575 121.582 51.8063C110.855 64.9889 113.519 87.5809 117.415 102.617C123.892 127.615 138.782 151.154 159 167M154.514 55.8704C152.25 55.586 158.188 44.9743 158.296 44.7696C165.836 30.4426 171.5 26.5 181.066 23.9998C199.362 18.0209 214.891 24.2681 224.575 40.651C233.568 55.8637 237.993 102 248 115.591M158.296 64C156.987 70.7322 148.5 77 141.5 80M156 59C160.272 59 163.434 60.2415 167.624 61.4211C179.349 64.7221 192.298 65.5512 203 59.6917M149.326 81C147.906 81 151.581 81.0906 151.657 81.101C159.794 82.2102 167.836 83.9565 176 85M176 81C176.146 79.4928 177.307 77.8645 177.931 76.7948C179.708 73.7433 181.83 71.3867 184 69M162.886 99.7078C162.876 99.7073 162.866 99.7067 162.856 99.7061M162.856 99.7061C161.007 99.5906 160.242 98.3423 161.96 97.1967M162.856 99.7061C163.813 101.69 166.754 101.246 168.12 99.3715C169.754 97.1307 168.893 96.2101 167.328 96.0112M162.856 99.7061C162.673 99.3252 162.562 98.8549 162.55 98.288C162.548 98.2319 162.551 98.1763 162.557 98.1211M161.96 97.1967C162.05 97.1367 162.147 97.0769 162.25 97.0176C162.772 96.7198 163.528 96.4455 164.348 96.2521M161.96 97.1967C162.053 97.4718 162.244 97.7789 162.557 98.1211M161.96 97.1967C161.377 95.4686 164.696 95 166.363 95C167.255 95 167.421 95.4429 167.211 95.9684M164.348 96.2521C164.428 96.2332 164.509 96.2151 164.59 96.1978M164.348 96.2521C164.32 96.2788 164.293 96.3059 164.267 96.3334M164.348 96.2521C164.649 95.9664 165.082 95.7344 165.578 95.6725M164.59 96.1978C165.476 96.0087 166.416 95.9183 167.199 95.9966M164.59 96.1978C164.48 96.2397 164.372 96.285 164.267 96.3334M164.59 96.1978C165.489 95.8536 166.5 95.7358 167.211 95.9684M167.199 95.9966C167.243 96.0009 167.286 96.0058 167.328 96.0112M167.199 95.9966C167.203 95.9872 167.207 95.9778 167.211 95.9684M167.199 95.9966C166.892 96.7241 165.884 97.5961 165.092 97.6715C163.717 97.8023 163.672 96.9683 164.267 96.3334M167.328 96.0112C167.29 95.9958 167.251 95.9815 167.211 95.9684M167.328 96.0112C167.683 96.1546 167.948 96.3968 168.064 96.7561C169.354 100.768 164.74 100.25 162.793 98.3627C162.708 98.2803 162.629 98.1998 162.557 98.1211M162.557 98.1211C162.64 97.3897 163.366 96.7471 164.267 96.3334M190.597 88.0128C190.597 86.7541 192.025 86.8644 192.882 86.9581C193.085 86.9803 193.272 87.0278 193.444 87.0976M193.444 87.0976C195.969 88.1229 195.182 93.9514 192.794 94.81C189.572 95.9683 188.699 91.5571 189.085 88.9308C189.459 86.3848 192.49 84.8322 193.444 87.0976ZM193.444 87.0976C193.559 87.3713 193.644 87.7008 193.69 88.0909C193.901 89.8725 193.3 92.5868 191.054 91.3724C189.545 90.5565 190.293 87.7167 191.704 87.3682C193.255 86.9851 193.762 89.7807 192.917 90.8059C191.439 92.5968 191.229 89.6447 191.229 88.716M178.636 102C178.636 106.553 178.2 111.993 175.015 115.648C174.771 115.929 177.517 116.46 177.668 116.481C180.707 116.924 183.928 116.827 187 117M138 169C139.784 169 140.968 168.921 142.696 168.154C150.41 164.731 158.333 160.283 166.673 158.485C169.282 157.923 171.981 157.955 174.613 157.549C175.884 157.353 177.026 156.56 178.29 156.491C179.631 156.418 180.993 155.947 182.245 155.947C185.012 155.947 187.744 152.838 189.753 151.294C194.878 147.356 200.752 141.581 207.241 140.024C213.062 138.628 219.896 139.765 225.872 139.36C231.272 138.993 236.587 138 242 138M184 194C186.175 194 186.511 193.411 187.796 191.487C190.657 187.2 193.032 182.123 198 180M169.847 169.552C165.439 169.307 161.398 169.784 159.237 174.296M159.237 174.296C159.23 174.311 159.223 174.326 159.216 174.341C157.588 177.779 158.085 182.656 159.706 186.002C161.808 190.339 167.81 191.62 172.11 190.288C180.488 187.694 185.084 173.791 177.067 168.223C173.604 165.818 168.335 165.168 164.555 167.205C161.593 168.802 160.055 171.386 159.237 174.296ZM159.237 174.296C158.79 175.886 158.558 177.573 158.425 179.25M192.73 188.269C192.73 204.251 200.903 219.383 200.903 235.384M167.441 201.405C166.487 201.405 165.565 201.221 164.601 201.242C162.554 201.287 160.757 202.522 158.995 203.403C158.123 203.839 157.302 204.041 156.526 204.669C155.647 205.381 154.694 205.995 153.841 206.74C152.543 207.873 151.882 209.24 151.327 210.827C150.495 213.205 149.16 216.308 151.852 218.043C155.41 220.336 159.963 220.272 164.077 219.924C165.161 219.832 166.195 219.452 167.278 219.345C168.332 219.24 169.368 219.18 170.407 218.947C172.68 218.437 175.377 218.227 177.432 217.102C178.988 216.251 180.401 215.163 181.637 213.901C182.845 212.668 183.703 211.128 184.784 209.787C187.728 206.136 186.487 201.718 185.507 197.589C184.816 194.676 183.88 191.78 183.057 188.899C182.559 187.158 181.793 186.238 180.462 185.128M178.895 130.024C179.669 130.024 180.316 130.257 181.066 130.462C182.507 130.857 184.095 130.698 185.577 130.698C186.361 130.698 186.655 130.316 186.764 129.522C186.964 128.067 187.473 126.722 187.801 125.315C188.169 123.739 189.905 123.673 191.233 123.673C191.938 123.673 192.658 123.713 193.361 123.652C194.277 123.572 195.026 123.024 195.82 122.61C196.614 122.195 196.578 121.401 196.707 120.616C196.993 118.882 197.448 117.24 198.043 115.591" stroke="#40A02B" stroke-opacity="0.5" stroke-width="3" stroke-linecap="round"/>
</g>
<defs>
<filter id="filter0_d_806_131" x="104.5" y="12.2754" width="153" height="232.609" filterUnits="userSpaceOnUse" color-interpolation-filters="sRGB">
<feFlood flood-opacity="0" result="BackgroundImageFix"/>
<feColorMatrix in="SourceAlpha" type="matrix" values="0 0 0 0 0 0 0 0 0 0 0 0 0 0 0 0 0 0 127 0" result="hardAlpha"/>
<feOffset/>
<feGaussianBlur stdDeviation="4"/>
<feColorMatrix type="matrix" values="0 0 0 0 0.25098 0 0 0 0 0.627451 0 0 0 0 0.168627 0 0 0 0.5 0"/>
<feBlend mode="normal" in2="BackgroundImageFix" result="effect1_dropShadow_806_131"/>
<feBlend mode="normal" in="SourceGraphic" in2="effect1_dropShadow_806_131" result="shape"/>
</filter>
</defs>
</svg>
