<svg width="256" height="256" viewBox="0 0 256 256" fill="none" xmlns="http://www.w3.org/2000/svg">
<g filter="url(#filter0_d_806_125)">
<path d="M73.2156 97.9343C72.5687 97.4168 71.6248 97.5216 71.1073 98.1685C70.5897 98.8154 70.6946 99.7594 71.3415 100.277L73.2156 97.9343ZM74.1242 100.001L73.9087 101.485L73.9087 101.485L74.1242 100.001ZM78.2278 97.4377C78.4075 96.629 77.8976 95.8277 77.0889 95.648C76.2802 95.4683 75.4789 95.9782 75.2992 96.7869L78.2278 97.4377ZM107.826 84.649C106.998 84.649 106.326 85.3206 106.326 86.149C106.326 86.9774 106.998 87.649 107.826 87.649V84.649ZM109.681 86.4535L109.851 84.9632L109.851 84.9632L109.681 86.4535ZM113.853 85.5411C114.343 84.873 114.198 83.9343 113.53 83.4444C112.862 82.9545 111.923 83.0989 111.434 83.767L113.853 85.5411ZM172.57 127.002C171.972 127.576 171.953 128.526 172.526 129.123C173.1 129.721 174.049 129.741 174.647 129.167L172.57 127.002ZM177.741 123.6L178.837 124.624L177.741 123.6ZM194.5 118.5L194.515 120L194.5 118.5ZM211.808 126.324L210.517 127.087L210.517 127.087L211.808 126.324ZM218.483 146.542L216.99 146.688L216.99 146.688L218.483 146.542ZM217.46 170.095L216.013 169.701L216.013 169.701L217.46 170.095ZM203.032 185.457L202.622 184.014L202.521 184.043L202.425 184.086L203.032 185.457ZM184.557 187.903L184.777 186.419L184.557 187.903ZM188.692 139.517C189.52 139.517 190.192 138.846 190.192 138.017C190.192 137.189 189.52 136.517 188.692 136.517V139.517ZM214.617 141.45C215.418 141.662 216.239 141.184 216.45 140.383C216.662 139.582 216.184 138.761 215.383 138.55L214.617 141.45ZM185.931 152.502C185.104 152.54 184.464 153.241 184.502 154.069C184.54 154.896 185.241 155.536 186.069 155.498L185.931 152.502ZM198.598 153.25L198.57 151.75L198.598 153.25ZM216 154.5C216.828 154.5 217.5 153.828 217.5 153C217.5 152.172 216.828 151.5 216 151.5V154.5ZM186.931 167.502C186.104 167.54 185.464 168.241 185.502 169.069C185.54 169.896 186.241 170.536 187.069 170.498L186.931 167.502ZM199.598 168.25L199.57 166.75L199.598 168.25ZM217 169.5C217.828 169.5 218.5 168.828 218.5 168C218.5 167.172 217.828 166.5 217 166.5V169.5ZM175.026 131.588C175.855 131.588 176.526 130.916 176.526 130.088C176.526 129.26 175.855 128.588 175.026 128.588V131.588ZM165 155.5L166.491 155.66L166.491 155.66L165 155.5ZM175.026 194L176.308 193.221L176.308 193.221L175.026 194ZM56.0095 221.489C56.8355 221.554 57.5571 220.936 57.6213 220.11C57.6855 219.284 57.068 218.563 56.2421 218.498L56.0095 221.489ZM35.1714 208.471L36.4576 207.699L36.4576 207.699L35.1714 208.471ZM33.7167 188.396L35.0873 189.006L35.0873 189.006L33.7167 188.396ZM55.6691 169.874L56.0504 171.325L55.6691 169.874ZM72.6863 171.872C73.51 171.961 74.2495 171.364 74.3379 170.541C74.4264 169.717 73.8304 168.978 73.0067 168.889L72.6863 171.872ZM57.0841 170.479C56.7965 169.702 55.9335 169.306 55.1566 169.593C54.3797 169.881 53.9831 170.744 54.2707 171.521L57.0841 170.479ZM63.17 195.558C63.4576 196.334 64.3206 196.731 65.0975 196.443C65.8743 196.156 66.271 195.293 65.9833 194.516L63.17 195.558ZM46.0482 179.121C45.7605 178.344 44.8976 177.947 44.1207 178.235C43.3438 178.522 42.9472 179.385 43.2348 180.162L46.0482 179.121ZM51.5219 202.462C51.9563 203.167 52.8803 203.387 53.5857 202.952C54.2911 202.518 54.5107 201.594 54.0763 200.888L51.5219 202.462ZM63.7449 87.4438C64.5422 87.2191 65.0065 86.3906 64.7819 85.5932C64.5572 84.7958 63.7287 84.3315 62.9313 84.5562L63.7449 87.4438ZM67.8461 97.9694L66.4066 98.3911L66.4066 98.3911L67.8461 97.9694ZM67.3394 117C67.3394 117.828 68.011 118.5 68.8394 118.5C69.6678 118.5 70.3394 117.828 70.3394 117H67.3394ZM73.3612 122.37C73.0131 121.618 72.1215 121.291 71.3698 121.639C70.618 121.987 70.2908 122.878 70.6388 123.63L73.3612 122.37ZM104.806 144.487C105.627 144.595 106.38 144.016 106.487 143.194C106.595 142.373 106.016 141.62 105.194 141.513L104.806 144.487ZM115.686 66.6499C116.045 65.9032 115.731 65.007 114.984 64.6481C114.238 64.2891 113.341 64.6034 112.982 65.3501L115.686 66.6499ZM120.324 92.2171L121.593 91.418L121.593 91.418L120.324 92.2171ZM134 113.5L135.293 112.739L134 113.5ZM140.56 128.405C140.962 129.13 141.876 129.391 142.6 128.989C143.324 128.586 143.585 127.673 143.183 126.949L140.56 128.405ZM63.66 53.4127C63.7508 54.2362 64.4919 54.8301 65.3153 54.7393C66.1388 54.6485 66.7327 53.9074 66.6419 53.0839L63.66 53.4127ZM60.4789 48.2012L61.3238 46.9618L61.3238 46.9618L60.4789 48.2012ZM37.5819 51.8063L36.4185 50.8595L36.4185 50.8595L37.5819 51.8063ZM33.415 102.617L34.8671 102.241L34.8671 102.241L33.415 102.617ZM74.0747 168.181C74.7267 168.692 75.6696 168.577 76.1806 167.925C76.6916 167.273 76.5773 166.33 75.9253 165.819L74.0747 168.181ZM70.3275 57.3587C71.1495 57.4619 71.8995 56.8793 72.0028 56.0573C72.106 55.2354 71.5234 54.4853 70.7014 54.3821L70.3275 57.3587ZM74.2961 44.7696L72.9687 44.071L72.9687 44.071L74.2961 44.7696ZM97.0657 23.9998L97.445 25.4511L97.4887 25.4397L97.5316 25.4257L97.0657 23.9998ZM140.575 40.651L141.867 39.8877L141.867 39.8877L140.575 40.651ZM162.792 116.48C163.283 117.147 164.222 117.29 164.889 116.799C165.556 116.307 165.699 115.368 165.208 114.701L162.792 116.48ZM75.7685 64.2863C75.9266 63.4731 75.3956 62.6857 74.5824 62.5275C73.7692 62.3694 72.9818 62.9005 72.8236 63.7137L75.7685 64.2863ZM56.9091 78.6212C56.1477 78.9476 55.7949 79.8294 56.1213 80.5908C56.4476 81.3523 57.3294 81.705 58.0909 81.3787L56.9091 78.6212ZM72 57.5C71.1716 57.5 70.5 58.1715 70.5 59C70.5 59.8284 71.1716 60.5 72 60.5V57.5ZM83.6237 61.4211L83.2172 62.865L83.2172 62.865L83.6237 61.4211ZM119.72 61.0074C120.447 60.6096 120.714 59.698 120.316 58.9713C119.918 58.2447 119.006 57.9782 118.28 58.376L119.72 61.0074ZM65.3256 82.5C66.154 82.5 66.8256 81.8284 66.8256 81C66.8256 80.1715 66.154 79.5 65.3256 79.5V82.5ZM67.6572 81.101L67.4545 82.5872L67.4545 82.5872L67.6572 81.101ZM91.8098 86.4879C92.6316 86.5929 93.3829 86.0119 93.4879 85.1901C93.5929 84.3684 93.0119 83.6171 92.1902 83.5121L91.8098 86.4879ZM90.507 80.8555C90.4272 81.6801 91.031 82.4132 91.8556 82.493C92.6802 82.5728 93.4133 81.969 93.493 81.1444L90.507 80.8555ZM93.9306 76.7948L92.6344 76.0398L92.6344 76.0398L93.9306 76.7948ZM101.11 70.0091C101.667 69.3961 101.622 68.4474 101.009 67.8901C100.396 67.3328 99.4475 67.3779 98.8902 67.9909L101.11 70.0091ZM78.8028 101.206C79.63 101.251 80.3378 100.618 80.3837 99.791C80.4296 98.9638 79.7963 98.2561 78.9692 98.2101L78.8028 101.206ZM78.2504 97.0176L77.5066 95.7151L77.5066 95.7151L78.2504 97.0176ZM84.1201 99.3715L82.908 98.4879L82.908 98.4879L84.1201 99.3715ZM78.5495 98.288L80.0492 98.2554L80.0492 98.2554L78.5495 98.288ZM84.064 96.7561L85.492 96.2968L85.492 96.2968L84.064 96.7561ZM78.7925 98.3627L79.8364 97.2855L79.8364 97.2855L78.7925 98.3627ZM81.0918 97.6715L81.2339 99.1647L81.2339 99.1647L81.0918 97.6715ZM81.7638 97.1609C82.5858 97.0582 83.169 96.3086 83.0663 95.4866C82.9636 94.6645 82.2139 94.0814 81.3919 94.1841L81.7638 97.1609ZM105.097 88.0128C105.097 88.8412 105.768 89.5128 106.597 89.5128C107.425 89.5128 108.097 88.8412 108.097 88.0128H105.097ZM108.882 86.9581L108.719 88.4492L108.719 88.4492L108.882 86.9581ZM108.794 94.81L108.286 93.3985L108.286 93.3985L108.794 94.81ZM105.085 88.9308L103.601 88.7128L103.601 88.7128L105.085 88.9308ZM109.69 88.0909L108.2 88.2673L108.2 88.2673L109.69 88.0909ZM107.054 91.3724L106.34 92.6919L106.34 92.6919L107.054 91.3724ZM107.704 87.3682L108.064 88.8245L107.704 87.3682ZM108.917 90.8059L110.074 91.7604L110.074 91.7604L108.917 90.8059ZM108.729 88.716C108.729 87.8875 108.058 87.216 107.229 87.216C106.401 87.216 105.729 87.8875 105.729 88.716H108.729ZM96.136 102C96.136 101.172 95.4644 100.5 94.636 100.5C93.8075 100.5 93.136 101.172 93.136 102H96.136ZM91.0154 115.648L92.1464 116.633L92.1464 116.633L91.0154 115.648ZM93.6679 116.481L93.4518 117.966L93.4518 117.966L93.6679 116.481ZM102.916 118.498C103.743 118.544 104.451 117.911 104.498 117.084C104.544 116.257 103.911 115.549 103.084 115.502L102.916 118.498ZM54 167.5C53.1716 167.5 52.5 168.172 52.5 169C52.5 169.828 53.1716 170.5 54 170.5V167.5ZM58.6964 168.154L58.0879 166.783L58.0879 166.783L58.6964 168.154ZM82.6726 158.485L82.9887 159.952L82.9887 159.952L82.6726 158.485ZM90.6132 157.549L90.8421 159.031L90.8421 159.031L90.6132 157.549ZM94.29 156.491L94.2086 154.993L94.2086 154.993L94.29 156.491ZM105.753 151.294L106.667 152.484L106.667 152.484L105.753 151.294ZM123.241 140.024L123.591 141.483L123.591 141.483L123.241 140.024ZM141.872 139.36L141.77 137.863L141.872 139.36ZM158 139.5C158.828 139.5 159.5 138.828 159.5 138C159.5 137.172 158.828 136.5 158 136.5V139.5ZM100 192.5C99.1716 192.5 98.5 193.172 98.5 194C98.5 194.828 99.1716 195.5 100 195.5V192.5ZM103.796 191.487L102.548 190.654L102.548 190.654L103.796 191.487ZM114.589 181.379C115.351 181.054 115.705 180.172 115.379 179.411C115.054 178.649 114.172 178.295 113.411 178.621L114.589 181.379ZM85.7641 171.049C86.5913 171.095 87.2991 170.462 87.345 169.635C87.391 168.808 86.7577 168.1 85.9306 168.054L85.7641 171.049ZM75.2156 174.341L76.5714 174.983L76.5714 174.983L75.2156 174.341ZM75.7065 186.002L77.0563 185.348L77.0563 185.348L75.7065 186.002ZM88.1102 190.288L87.6665 188.856L87.6665 188.856L88.1102 190.288ZM93.0669 168.223L93.9225 166.991L93.9225 166.991L93.0669 168.223ZM80.5554 167.205L81.2672 168.525L80.5554 167.205ZM72.9301 179.132C72.8649 179.957 73.4815 180.68 74.3074 180.745C75.1332 180.81 75.8556 180.194 75.9208 179.368L72.9301 179.132ZM110.23 188.269C110.23 187.44 109.558 186.769 108.73 186.769C107.901 186.769 107.23 187.44 107.23 188.269H110.23ZM115.403 235.384C115.403 236.213 116.074 236.884 116.903 236.884C117.731 236.884 118.403 236.213 118.403 235.384H115.403ZM83.4406 202.905C84.2691 202.905 84.9406 202.233 84.9406 201.405C84.9406 200.576 84.2691 199.905 83.4406 199.905V202.905ZM80.6013 201.242L80.568 199.742L80.568 199.742L80.6013 201.242ZM74.995 203.403L74.3242 202.061L74.3242 202.061L74.995 203.403ZM72.5264 204.669L73.4702 205.835L73.4702 205.835L72.5264 204.669ZM69.8409 206.74L70.8275 207.87L70.8275 207.87L69.8409 206.74ZM67.3271 210.827L65.9113 210.331L65.9113 210.331L67.3271 210.827ZM67.8515 218.043L67.039 219.304L67.039 219.304L67.8515 218.043ZM80.0769 219.924L80.2035 221.418L80.2035 221.418L80.0769 219.924ZM83.2779 219.345L83.1299 217.852L83.1299 217.852L83.2779 219.345ZM86.4065 218.947L86.7346 220.411L86.7346 220.411L86.4065 218.947ZM93.4325 217.102L92.7125 215.786L92.7125 215.786L93.4325 217.102ZM97.6372 213.901L96.5657 212.852L96.5657 212.852L97.6372 213.901ZM100.784 209.787L101.952 210.729L101.952 210.729L100.784 209.787ZM101.507 197.589L102.967 197.243L102.967 197.243L101.507 197.589ZM99.0569 188.899L100.499 188.487L100.499 188.487L99.0569 188.899ZM97.422 183.976C96.7855 183.446 95.8397 183.532 95.3094 184.168C94.779 184.805 94.865 185.75 95.5014 186.281L97.422 183.976ZM94.8953 128.524C94.0669 128.524 93.3953 129.196 93.3953 130.024C93.3953 130.852 94.0669 131.524 94.8953 131.524V128.524ZM97.0657 130.462L96.67 131.909L96.67 131.909L97.0657 130.462ZM102.764 129.522L101.278 129.317L101.278 129.317L102.764 129.522ZM103.801 125.315L102.34 124.974L102.34 124.974L103.801 125.315ZM109.361 123.652L109.231 122.158L109.231 122.158L109.361 123.652ZM111.82 122.61L112.514 123.94L111.82 122.61ZM112.707 120.616L114.187 120.859L114.187 120.859L112.707 120.616ZM115.454 116.1C115.736 115.321 115.332 114.461 114.553 114.18C113.774 113.899 112.914 114.302 112.633 115.081L115.454 116.1ZM175.108 173.5C175.108 172.672 174.437 172 173.608 172C172.78 172 172.108 172.672 172.108 173.5H175.108ZM71.3415 100.277C71.973 100.782 72.8278 101.328 73.9087 101.485L74.3397 98.5163C74.0196 98.4698 73.6633 98.2924 73.2156 97.9343L71.3415 100.277ZM73.9087 101.485C74.5975 101.585 75.2761 101.544 75.9016 101.281C76.5388 101.014 76.989 100.573 77.3029 100.098C77.8589 99.2566 78.0731 98.1338 78.2278 97.4377L75.2992 96.7869C75.2045 97.213 75.1311 97.5526 75.04 97.8593C74.9493 98.1647 74.867 98.3425 74.8002 98.4437C74.7704 98.4887 74.7511 98.5069 74.7457 98.5117C74.7422 98.5148 74.7426 98.5142 74.741 98.5149C74.7383 98.516 74.7137 98.5263 74.6538 98.5318C74.5916 98.5375 74.4903 98.5381 74.3397 98.5163L73.9087 101.485ZM107.826 87.649C107.976 87.649 108.146 87.6754 108.43 87.7383C108.677 87.7928 109.089 87.8956 109.511 87.9438L109.851 84.9632C109.63 84.938 109.437 84.8885 109.078 84.8091C108.758 84.7382 108.321 84.649 107.826 84.649V87.649ZM109.511 87.9438C110.627 88.0715 111.552 87.8413 112.336 87.2535C112.995 86.7592 113.489 86.0368 113.853 85.5411L111.434 83.767C110.952 84.4234 110.753 84.6908 110.536 84.8532C110.444 84.9222 110.31 85.0157 109.851 84.9632L109.511 87.9438ZM174.647 129.167C176.114 127.759 177.569 125.981 178.837 124.624L176.645 122.576C175.146 124.18 173.988 125.642 172.57 127.002L174.647 129.167ZM178.837 124.624C183.335 119.809 187.661 120.067 194.515 120L194.485 117C187.869 117.064 182.153 116.679 176.645 122.576L178.837 124.624ZM194.515 120C197.999 119.966 201.068 120.185 203.731 121.178C206.334 122.149 208.63 123.892 210.517 127.087L213.1 125.561C210.87 121.786 208.038 119.583 204.779 118.367C201.58 117.174 198.053 116.965 194.485 117L194.515 120ZM210.517 127.087C213.851 132.732 216.297 139.621 216.99 146.688L219.976 146.395C219.236 138.856 216.637 131.55 213.1 125.561L210.517 127.087ZM216.99 146.688C217.716 154.087 217.885 162.822 216.013 169.701L218.908 170.489C220.928 163.065 220.71 153.882 219.976 146.395L216.99 146.688ZM216.013 169.701C213.867 177.586 208.581 182.318 202.622 184.014L203.443 186.9C210.431 184.911 216.491 179.37 218.908 170.489L216.013 169.701ZM203.032 185.457C202.425 184.086 202.425 184.085 202.426 184.085C202.426 184.085 202.426 184.085 202.426 184.085C202.426 184.085 202.426 184.085 202.426 184.085C202.426 184.085 202.426 184.085 202.425 184.086C202.422 184.087 202.418 184.089 202.411 184.092C202.399 184.097 202.378 184.106 202.349 184.118C202.29 184.143 202.2 184.18 202.08 184.228C201.84 184.324 201.479 184.463 201.014 184.626C200.083 184.953 198.737 185.377 197.095 185.758C193.802 186.523 189.383 187.101 184.777 186.419L184.338 189.387C189.438 190.142 194.257 189.497 197.774 188.68C199.539 188.27 200.991 187.813 202.007 187.457C202.516 187.278 202.916 187.125 203.193 187.014C203.332 186.959 203.439 186.914 203.515 186.882C203.552 186.867 203.581 186.854 203.602 186.845C203.613 186.84 203.621 186.837 203.627 186.834C203.631 186.833 203.633 186.832 203.635 186.831C203.636 186.83 203.637 186.83 203.638 186.83C203.638 186.829 203.639 186.829 203.639 186.829C203.639 186.829 203.64 186.829 203.032 185.457ZM188.692 136.517H188.146V139.517H188.692V136.517ZM188.146 139.517C197.224 139.517 206.051 139.191 214.617 141.45L215.383 138.55C206.346 136.166 197.04 136.517 188.146 136.517V139.517ZM186.069 155.498C188.197 155.401 190.315 155.23 192.395 155.078C194.485 154.925 196.549 154.788 198.626 154.75L198.57 151.75C196.406 151.79 194.272 151.932 192.175 152.086C190.066 152.241 188.006 152.406 185.931 152.502L186.069 155.498ZM198.626 154.75C204.441 154.642 210.214 154.5 216 154.5V151.5C210.178 151.5 204.36 151.643 198.57 151.75L198.626 154.75ZM187.069 170.498C189.197 170.401 191.315 170.23 193.395 170.078C195.485 169.925 197.549 169.788 199.626 169.75L199.57 166.75C197.406 166.79 195.272 166.932 193.175 167.086C191.066 167.241 189.006 167.406 186.931 167.502L187.069 170.498ZM199.626 169.75C205.441 169.642 211.214 169.5 217 169.5V166.5C211.178 166.5 205.36 166.643 199.57 166.75L199.626 169.75ZM175.026 128.588C171.777 128.588 169.349 129.682 167.634 131.631C165.978 133.514 165.12 136.046 164.634 138.692C164.145 141.353 164.003 144.312 163.911 147.171C163.817 150.075 163.774 152.858 163.509 155.34L166.491 155.66C166.773 153.034 166.818 150.087 166.909 147.268C167.002 144.405 167.141 141.649 167.585 139.234C168.031 136.804 168.755 134.899 169.886 133.613C170.959 132.393 172.524 131.588 175.026 131.588V128.588ZM163.509 155.34C162.068 168.795 167.141 183.911 173.745 194.779L176.308 193.221C169.92 182.706 165.144 168.252 166.491 155.66L163.509 155.34ZM173.745 194.779C176.082 198.626 178.63 201.342 181.665 203.079C184.705 204.819 188.101 205.5 192 205.5V202.5C188.456 202.5 185.616 201.884 183.155 200.475C180.688 199.064 178.471 196.78 176.308 193.221L173.745 194.779ZM56.2421 218.498C48.7855 217.919 40.8121 214.955 36.4576 207.699L33.8853 209.243C38.9371 217.661 48.0445 220.87 56.0095 221.489L56.2421 218.498ZM36.4576 207.699C32.8622 201.708 32.4201 195.005 35.0873 189.006L32.3461 187.787C29.2631 194.721 29.8107 202.453 33.8853 209.243L36.4576 207.699ZM35.0873 189.006C39.0374 180.122 47.4899 173.574 56.0504 171.325L55.2879 168.423C45.9153 170.886 36.6941 178.008 32.3461 187.787L35.0873 189.006ZM56.0504 171.325C62.0752 169.741 64.4804 169.773 66.0921 170.133C66.9696 170.329 67.607 170.61 68.6831 170.98C69.7203 171.336 70.9461 171.685 72.6863 171.872L73.0067 168.889C71.5423 168.732 70.5401 168.446 69.6577 168.143C68.8142 167.853 67.8404 167.45 66.7463 167.206C64.415 166.685 61.4362 166.807 55.2879 168.423L56.0504 171.325ZM54.2707 171.521L63.17 195.558L65.9833 194.516L57.0841 170.479L54.2707 171.521ZM43.2348 180.162C44.5688 183.765 45.5391 187.474 46.7583 191.336C47.957 195.133 49.3661 198.961 51.5219 202.462L54.0763 200.888C52.1169 197.707 50.796 194.161 49.6191 190.433C48.4627 186.77 47.4117 182.804 46.0482 179.121L43.2348 180.162ZM62.9313 84.5562C62.4036 84.7048 62.0046 85.054 61.7692 85.4895C61.5605 85.8758 61.5097 86.2709 61.5013 86.5602C61.4849 87.1317 61.6265 87.7587 61.7916 88.3171C62.134 89.4745 62.7591 90.9155 63.4134 92.3029C64.0753 93.7063 64.8059 95.1348 65.3834 96.2737C65.675 96.8487 65.9243 97.3435 66.1125 97.7348C66.2066 97.9303 66.2803 98.0896 66.3342 98.2136C66.3938 98.3507 66.4091 98.3996 66.4066 98.3911L69.2856 97.5477C69.1948 97.2377 69.0001 96.817 68.816 96.4343C68.6121 96.0104 68.3488 95.4884 68.059 94.9169C67.4737 93.7626 66.7661 92.3787 66.1268 91.0232C65.4799 89.6517 64.9409 88.3874 64.6684 87.4662C64.5262 86.9852 64.4977 86.7295 64.5001 86.6465C64.5012 86.6087 64.507 86.7336 64.4085 86.9158C64.2835 87.1472 64.0484 87.3582 63.7449 87.4438L62.9313 84.5562ZM66.4066 98.3911C67.2215 101.173 67.4669 104.224 67.4967 107.411C67.5116 109.001 67.4731 110.604 67.43 112.214C67.3871 113.815 67.3394 115.429 67.3394 117H70.3394C70.3394 115.478 70.3856 113.911 70.4289 112.294C70.472 110.686 70.5121 109.033 70.4966 107.383C70.4658 104.089 70.2145 100.718 69.2856 97.5477L66.4066 98.3911ZM70.6388 123.63C73.947 130.775 79.8396 135.639 86.1747 138.878C92.5069 142.115 99.3704 143.778 104.806 144.487L105.194 141.513C99.9992 140.834 93.4879 139.247 87.5403 136.207C81.5956 133.167 76.3034 128.725 73.3612 122.37L70.6388 123.63ZM112.982 65.3501C110.769 69.9542 111.308 75.2534 112.812 80.0846C114.324 84.9426 116.886 89.5706 119.055 93.0162L121.593 91.418C119.483 88.066 117.076 83.6913 115.676 79.1931C114.268 74.6681 113.952 70.2575 115.686 66.6499L112.982 65.3501ZM119.055 93.0162C123.959 100.808 127.691 105.739 132.707 114.261L135.293 112.739C130.286 104.233 126.322 98.9289 121.593 91.418L119.055 93.0162ZM132.707 114.261C135.909 119.701 137.456 122.814 140.56 128.405L143.183 126.949C140.139 121.467 138.515 118.214 135.293 112.739L132.707 114.261ZM66.6419 53.0839C66.5509 52.2591 66.1716 51.524 65.7593 50.9301C65.3379 50.3232 64.8091 49.7598 64.2803 49.2658C63.2233 48.2786 62.0279 47.4417 61.3238 46.9618L59.6341 49.4406C60.3181 49.9069 61.3531 50.6368 62.2324 51.4582C62.6717 51.8685 63.0374 52.2699 63.2949 52.6409C63.5615 53.0249 63.6454 53.2808 63.66 53.4127L66.6419 53.0839ZM61.3238 46.9618C57.094 44.0785 52.502 43.0009 48.1036 43.7115C43.7112 44.421 39.6476 46.8913 36.4185 50.8595L38.7454 52.7531C41.5778 49.2724 45.0151 47.2493 48.582 46.6731C52.143 46.0978 55.9687 46.9421 59.6341 49.4406L61.3238 46.9618ZM36.4185 50.8595C30.7553 57.8189 28.7061 67.1503 28.515 76.4859C28.3235 85.8434 29.994 95.3945 31.963 102.993L34.8671 102.241C32.94 94.8035 31.3303 85.5404 31.5144 76.5473C31.6989 67.5321 33.6812 58.9763 38.7454 52.7531L36.4185 50.8595ZM31.963 102.993C38.5181 128.292 53.5832 152.12 74.0747 168.181L75.9253 165.819C55.9809 150.188 41.2665 126.939 34.8671 102.241L31.963 102.993ZM70.7014 54.3821C70.8941 54.4063 71.134 54.5084 71.3165 54.7192C71.4727 54.8996 71.4995 55.0593 71.5011 55.0683C71.5032 55.0809 71.4943 55.032 71.5069 54.8965C71.5189 54.7674 71.5467 54.5969 71.5963 54.3825C71.8017 53.494 72.2839 52.2451 72.8847 50.903C74.0739 48.2466 75.5463 45.6148 75.6234 45.4682L72.9687 44.071C73.0075 43.9972 72.5088 44.9035 72.0115 45.8565C71.4677 46.8986 70.7711 48.2823 70.1466 49.6772C69.5324 51.0492 68.9479 52.5193 68.6734 53.7069C68.5423 54.2737 68.4379 54.9513 68.5437 55.572C68.5993 55.8988 68.7306 56.3158 69.0486 56.683C69.3929 57.0806 69.8518 57.299 70.3275 57.3587L70.7014 54.3821ZM75.6234 45.4682C79.3571 38.3741 82.5546 33.994 85.9054 31.0818C89.2247 28.1968 92.7924 26.6671 97.445 25.4511L96.6863 22.5486C91.7733 23.8327 87.7263 25.5244 83.9374 28.8175C80.1798 32.0833 76.7754 36.8381 72.9687 44.071L75.6234 45.4682ZM97.5316 25.4257C106.407 22.5254 114.502 22.621 121.508 25.3382C128.517 28.057 134.58 33.4559 139.284 41.4143L141.867 39.8877C136.887 31.4633 130.342 25.5471 122.593 22.5413C114.839 19.5339 106.021 19.4954 96.5997 22.574L97.5316 25.4257ZM139.284 41.4143C141.422 45.0311 143.342 50.5972 145.176 57.2647C147.001 63.903 148.701 71.4815 150.445 79.0653C152.185 86.6276 153.967 94.192 155.947 100.722C157.914 107.211 160.126 112.86 162.792 116.48L165.208 114.701C162.87 111.526 160.776 106.311 158.818 99.8519C156.872 93.4338 155.111 85.9651 153.369 78.3929C151.632 70.8422 149.915 63.1848 148.068 56.4693C146.23 49.783 144.225 43.8773 141.867 39.8877L139.284 41.4143ZM72.8236 63.7137C72.2616 66.6039 70.0995 69.5799 67.0407 72.2739C64.0131 74.9404 60.2805 77.1763 56.9091 78.6212L58.0909 81.3787C61.7195 79.8236 65.7304 77.4256 69.0235 74.5252C72.2855 71.6522 75.0214 68.1282 75.7685 64.2863L72.8236 63.7137ZM72 60.5C76.003 60.5 78.8762 61.6429 83.2172 62.865L84.0301 59.9772C79.9913 58.8402 76.5406 57.5 72 57.5V60.5ZM83.2172 62.865C95.1013 66.2107 108.516 67.1421 119.72 61.0074L118.28 58.376C108.08 63.9603 95.5969 63.2336 84.0301 59.9772L83.2172 62.865ZM65.3256 79.5C65.1717 79.5 65.0101 79.5005 64.909 79.5076C64.8913 79.5089 64.8492 79.5121 64.7975 79.5193C64.773 79.5227 64.7219 79.5303 64.6586 79.5452C64.6401 79.5496 64.4372 79.5922 64.2182 79.726C64.1231 79.7841 63.8024 79.9895 63.6196 80.4193C63.3756 80.9931 63.538 81.5467 63.7873 81.8893C63.9798 82.1537 64.207 82.2825 64.2802 82.3226C64.3795 82.377 64.4641 82.4085 64.5084 82.4239C64.6546 82.4747 64.7806 82.4912 64.7835 82.4916C64.8754 82.5055 64.9727 82.5105 64.9918 82.5117C65.1631 82.5218 65.5154 82.5341 65.8829 82.5458C66.2603 82.5579 66.6851 82.5703 67.0164 82.5802C67.1831 82.5851 67.3251 82.5895 67.4274 82.5928C67.479 82.5945 67.5174 82.5959 67.5428 82.5969C67.6244 82.6002 67.5415 82.5991 67.4545 82.5872L67.8598 79.6147C67.8033 79.607 67.7557 79.6041 67.754 79.604C67.7393 79.603 67.7263 79.6022 67.7177 79.6018C67.6998 79.6009 67.6805 79.6 67.663 79.5993C67.6268 79.5979 67.5799 79.5962 67.5265 79.5945C67.4189 79.5909 67.2724 79.5865 67.1061 79.5815C66.7714 79.5715 66.352 79.5593 65.9786 79.5473C65.5952 79.5351 65.2903 79.5241 65.1693 79.5169C65.1153 79.5137 65.1624 79.5148 65.2311 79.5252C65.2464 79.5275 65.2736 79.5318 65.3075 79.5389C65.333 79.5441 65.4049 79.5594 65.4939 79.5904C65.5377 79.6056 65.6218 79.6369 65.7207 79.6911C65.7935 79.7309 66.0205 79.8596 66.2128 80.1238C66.462 80.4662 66.6243 81.0195 66.3804 81.5932C66.1978 82.0228 65.8773 82.228 65.7824 82.2859C65.5641 82.4193 65.3623 82.4616 65.3453 82.4656C65.2835 82.4801 65.2344 82.4874 65.2124 82.4905C65.1656 82.497 65.1303 82.4995 65.1215 82.5001C65.0907 82.5023 65.1247 82.5 65.3256 82.5V79.5ZM67.4545 82.5872C71.4897 83.1373 75.5048 83.8458 79.5606 84.5529C83.6062 85.2581 87.6893 85.9612 91.8098 86.4879L92.1902 83.5121C88.1464 82.9953 84.1264 82.3035 80.0758 81.5974C76.0355 80.8931 71.9613 80.1739 67.8598 79.6147L67.4545 82.5872ZM93.493 81.1444C93.5373 80.6864 93.7535 80.1114 94.1116 79.4359C94.4881 78.7256 94.8467 78.2021 95.2267 77.5498L92.6344 76.0398C92.3913 76.4572 91.8575 77.2828 91.461 78.0308C91.046 78.8136 90.6084 79.8064 90.507 80.8555L93.493 81.1444ZM95.2267 77.5498C96.9146 74.6521 98.9343 72.4018 101.11 70.0091L98.8902 67.9909C96.7255 70.3716 94.5015 72.8346 92.6344 76.0398L95.2267 77.5498ZM78.9692 98.2101C78.9627 98.2098 78.9563 98.2094 78.9497 98.209L78.7628 101.203C78.776 101.204 78.7894 101.205 78.8028 101.206L78.9692 98.2101ZM78.9497 98.209C78.6388 98.1896 78.4483 98.1259 78.3606 98.0824C78.2651 98.0351 78.3634 98.0525 78.4424 98.2314C78.4837 98.3248 78.5045 98.4324 78.4992 98.5387C78.494 98.6418 78.4663 98.708 78.455 98.7305C78.445 98.7504 78.4516 98.7292 78.5055 98.6737C78.559 98.6186 78.6494 98.5398 78.7922 98.4445L77.1274 95.9488C76.5689 96.3215 76.0725 96.7916 75.7756 97.3812C75.4582 98.0114 75.3916 98.7498 75.6984 99.444C76.255 100.704 77.6661 101.135 78.7628 101.203L78.9497 98.209ZM78.7922 98.4445C78.8515 98.405 78.9186 98.3634 78.9943 98.3202L77.5066 95.7151C77.3746 95.7904 77.2482 95.8683 77.1274 95.9488L78.7922 98.4445ZM78.9943 98.3202C79.3495 98.1173 79.9573 97.8855 80.6923 97.712L80.0032 94.7922C79.0993 95.0056 78.1943 95.3223 77.5066 95.7151L78.9943 98.3202ZM80.6923 97.712C80.7618 97.6956 80.832 97.6798 80.9025 97.6648L80.2768 94.7308C80.1851 94.7503 80.0938 94.7708 80.0032 94.7922L80.6923 97.712ZM80.9025 97.6648C81.695 97.4958 82.4704 97.4312 83.0498 97.4891L83.3482 94.504C82.3615 94.4054 81.2578 94.5216 80.2768 94.7308L80.9025 97.6648ZM83.0498 97.4891C83.0804 97.4922 83.1102 97.4956 83.1389 97.4992L83.5172 94.5232C83.461 94.516 83.4046 94.5097 83.3482 94.504L83.0498 97.4891ZM83.1389 97.4992C83.4194 97.5349 83.5691 97.5925 83.6264 97.6235C83.667 97.6456 83.5781 97.6057 83.5241 97.466C83.4735 97.335 83.5278 97.3063 83.4719 97.4877C83.4131 97.6787 83.2594 98.0059 82.908 98.4879L85.3322 100.255C86.1904 99.078 86.829 97.6965 86.3227 96.3853C85.7974 95.0249 84.4075 94.6363 83.5172 94.5232L83.1389 97.4992ZM82.908 98.4879C82.4796 99.0756 81.7937 99.4351 81.1931 99.4921C80.6293 99.5456 80.3483 99.3466 80.2072 99.0542L77.5053 100.358C78.3213 102.049 79.9892 102.62 81.4765 102.479C82.927 102.341 84.3945 101.541 85.3322 100.255L82.908 98.4879ZM80.2072 99.0542C80.1322 98.8988 80.0577 98.6462 80.0492 98.2554L77.0499 98.3206C77.066 99.0635 77.2128 99.7517 77.5053 100.358L80.2072 99.0542ZM80.0492 98.2554C80.0494 98.2678 80.0488 98.2797 80.0476 98.2907L77.0668 97.9515C77.053 98.0728 77.0472 98.196 77.0499 98.3206L80.0492 98.2554ZM80.0476 98.2907C80.0386 98.3698 80.0115 98.3229 80.165 98.1697C80.3136 98.0214 80.5596 97.8495 80.8927 97.6966L79.6411 94.9701C79.073 95.2309 78.5058 95.5872 78.0456 96.0464C77.5904 96.5009 77.1591 97.141 77.0668 97.9515L80.0476 98.2907ZM80.8927 97.6966C80.9681 97.662 81.046 97.6292 81.1258 97.5987L80.0535 94.7969C79.9143 94.8502 79.7766 94.908 79.6411 94.9701L80.8927 97.6966ZM81.1258 97.5987C81.8576 97.3186 82.489 97.3105 82.7438 97.3939L83.6774 94.5429C82.5114 94.1611 81.1202 94.3886 80.0535 94.7969L81.1258 97.5987ZM82.7438 97.3939C82.7533 97.397 82.7608 97.3998 82.7664 97.4021L83.8897 94.6203C83.8191 94.5918 83.7482 94.566 83.6774 94.5429L82.7438 97.3939ZM82.7664 97.4021C82.7935 97.413 82.7719 97.4094 82.7328 97.3709C82.7132 97.3516 82.6927 97.3268 82.6745 97.2973C82.6561 97.2676 82.6437 97.2391 82.6361 97.2153L85.492 96.2968C85.2122 95.4269 84.5644 94.8928 83.8897 94.6203L82.7664 97.4021ZM82.6361 97.2153C82.8944 98.0186 82.7416 98.2459 82.7606 98.2131C82.7973 98.1496 82.8054 98.2445 82.4782 98.2805C82.1473 98.317 81.6652 98.2576 81.1349 98.0634C80.6105 97.8714 80.1474 97.5869 79.8364 97.2855L77.7486 99.4399C78.4113 100.082 79.2553 100.57 80.1035 100.881C80.9457 101.189 81.9017 101.362 82.8065 101.263C83.7151 101.162 84.7565 100.753 85.3565 99.7169C85.9387 98.7119 85.8788 97.4995 85.492 96.2968L82.6361 97.2153ZM79.8364 97.2855C79.7712 97.2224 79.7141 97.1634 79.6641 97.1088L77.4503 99.1335C77.5443 99.2362 77.6438 99.3382 77.7487 99.4399L79.8364 97.2855ZM79.6641 97.1088C79.4366 96.8601 79.3854 96.7299 79.3813 96.7176L76.5384 97.6758C76.7197 98.2137 77.0518 98.6977 77.4503 99.1335L79.6641 97.1088ZM79.3813 96.7176C79.381 96.7169 79.388 96.7375 79.3909 96.7765C79.3939 96.8166 79.3917 96.8664 79.38 96.9211C79.355 97.0373 79.3029 97.1052 79.2884 97.1214C79.28 97.1309 79.3061 97.0994 79.4029 97.0439C79.4973 96.9899 79.6307 96.9292 79.8074 96.8682C80.5556 96.61 81.6186 96.5 82.3629 96.5V93.5C81.4408 93.5 80.011 93.6243 78.8286 94.0324C78.2531 94.231 77.5545 94.557 77.0471 95.1273C76.4501 95.7983 76.213 96.7105 76.5384 97.6758L79.3813 96.7176ZM82.3629 96.5C82.4725 96.5 82.4658 96.515 82.3916 96.4882C82.3063 96.4573 82.1298 96.3685 81.9815 96.1619C81.6658 95.7222 81.8469 95.3387 81.8177 95.4118L84.6035 96.5249C84.7843 96.0726 84.9875 95.2048 84.4185 94.4123C83.8642 93.6402 82.9709 93.5 82.3629 93.5V96.5ZM81.8177 95.4119L81.8173 95.4127L84.5807 96.5804C84.5886 96.5618 84.5962 96.5433 84.6035 96.5249L81.8177 95.4119ZM81.8173 95.4127C81.8087 95.433 81.7722 95.5039 81.686 95.6103C81.6034 95.7123 81.497 95.8198 81.3777 95.9173C81.2575 96.0156 81.1429 96.0885 81.0494 96.1345C80.9498 96.1836 80.9167 96.1814 80.9497 96.1782L81.2339 99.1647C82.0506 99.087 82.778 98.6475 83.2766 98.2398C83.789 97.8209 84.3037 97.2361 84.5807 96.5804L81.8173 95.4127ZM80.9497 96.1782C80.7359 96.1986 80.7227 96.1641 80.8203 96.2002C80.9503 96.2484 81.2011 96.4021 81.3331 96.7315C81.4514 97.0266 81.3909 97.2568 81.3672 97.3245C81.3421 97.3961 81.3233 97.3997 81.3614 97.3591L79.1725 95.3076C78.7491 95.7593 78.1059 96.7435 78.5485 97.8476C79.0598 99.1233 80.4222 99.242 81.2339 99.1647L80.9497 96.1782ZM81.3614 97.3591C81.3667 97.3534 81.3728 97.3472 81.3797 97.3407L79.3157 95.1636C79.2664 95.2103 79.2186 95.2583 79.1725 95.3076L81.3614 97.3591ZM81.3797 97.3407C81.4684 97.2566 81.611 97.18 81.7638 97.1609L81.3919 94.1841C80.553 94.2889 79.8298 94.6762 79.3157 95.1636L81.3797 97.3407ZM108.097 88.0128C108.097 87.9973 108.099 88.0308 108.077 88.0943C108.053 88.1614 108.012 88.2353 107.953 88.3019C107.837 88.4323 107.734 88.4455 107.788 88.432C107.841 88.4184 107.954 88.4034 108.14 88.4062C108.321 88.4089 108.512 88.4266 108.719 88.4492L109.045 85.467C108.65 85.4238 107.814 85.3297 107.048 85.5246C106.637 85.6292 106.124 85.845 105.713 86.3057C105.28 86.7914 105.097 87.3963 105.097 88.0128H108.097ZM108.719 88.4492C108.789 88.4569 108.841 88.4718 108.879 88.4874L110.008 85.7078C109.703 85.5838 109.38 85.5036 109.045 85.467L108.719 88.4492ZM108.879 88.4874C108.986 88.5308 109.173 88.6639 109.326 89.1057C109.48 89.5511 109.542 90.1713 109.47 90.858C109.397 91.5398 109.202 92.1865 108.939 92.6723C108.664 93.1805 108.404 93.356 108.286 93.3985L109.301 96.2216C110.377 95.8348 111.112 94.9597 111.577 94.1015C112.054 93.221 112.346 92.1854 112.453 91.1746C112.56 90.1687 112.494 89.0858 112.161 88.1233C111.826 87.157 111.164 86.1771 110.008 85.7078L108.879 88.4874ZM108.286 93.3985C107.812 93.5688 107.613 93.4842 107.525 93.4359C107.384 93.3579 107.167 93.1506 106.957 92.6795C106.528 91.7154 106.406 90.2571 106.569 89.1489L103.601 88.7128C103.378 90.2308 103.5 92.2912 104.216 93.8997C104.579 94.715 105.16 95.5574 106.076 96.0628C107.047 96.5979 108.164 96.6304 109.301 96.2216L108.286 93.3985ZM106.569 89.1489C106.682 88.3802 107.209 87.7858 107.672 87.5736C107.891 87.4733 107.981 87.507 107.963 87.5013C107.904 87.4826 107.966 87.4544 108.061 87.6795L110.826 86.5157C110.444 85.6081 109.77 84.9245 108.863 84.6393C107.996 84.3671 107.127 84.5233 106.422 84.8463C105.038 85.4805 103.862 86.9355 103.601 88.7128L106.569 89.1489ZM108.061 87.6795C108.112 87.8009 108.168 87.9898 108.2 88.2673L111.18 87.9146C111.12 87.4117 111.006 86.9417 110.826 86.5157L108.061 87.6795ZM108.2 88.2673C108.239 88.5946 108.241 88.9755 108.195 89.3369C108.148 89.7087 108.06 89.9822 107.973 90.1425C107.889 90.2989 107.877 90.2265 108.009 90.1867C108.145 90.1454 108.109 90.2376 107.767 90.0529L106.34 92.6919C107.122 93.1144 108.002 93.3227 108.877 93.0584C109.746 92.7955 110.293 92.1608 110.613 91.5678C111.22 90.4431 111.305 88.9699 111.18 87.9146L108.2 88.2673ZM107.767 90.0529C107.766 90.0524 107.772 90.0568 107.776 90.0615C107.778 90.0636 107.766 90.0495 107.753 90.0066C107.723 89.9103 107.705 89.7309 107.753 89.4954C107.801 89.2626 107.896 89.0582 107.996 88.9239C108.102 88.7826 108.144 88.8047 108.064 88.8245L107.344 85.912C106.559 86.106 105.978 86.6138 105.593 87.1285C105.203 87.6501 104.941 88.272 104.814 88.8947C104.58 90.0376 104.735 91.8241 106.34 92.6919L107.767 90.0529ZM108.064 88.8245C108.035 88.8315 107.959 88.8416 107.859 88.8156C107.762 88.7905 107.699 88.7459 107.671 88.7211C107.635 88.6897 107.703 88.7388 107.763 88.9579C107.819 89.1598 107.837 89.3983 107.812 89.6069C107.786 89.8344 107.726 89.8916 107.76 89.8515L110.074 91.7604C110.53 91.2076 110.724 90.531 110.792 89.9579C110.862 89.3659 110.814 88.7372 110.655 88.16C110.501 87.6 110.203 86.9579 109.663 86.478C109.062 85.9446 108.238 85.6912 107.344 85.912L108.064 88.8245ZM107.76 89.8515C107.633 90.0042 107.593 90.0156 107.645 89.9844C107.709 89.9458 107.945 89.8284 108.286 89.8876C108.625 89.9463 108.82 90.1363 108.888 90.2192C108.949 90.2929 108.95 90.3246 108.923 90.2525C108.869 90.1088 108.813 89.8518 108.776 89.5181C108.74 89.2026 108.729 88.9008 108.729 88.716H105.729C105.729 89.1977 105.775 90.4052 106.115 91.3091C106.207 91.5521 106.349 91.8565 106.579 92.1339C106.816 92.4205 107.208 92.7453 107.774 92.8435C108.342 92.942 108.837 92.7687 109.196 92.5524C109.541 92.3435 109.831 92.0553 110.074 91.7604L107.76 89.8515ZM93.136 102C93.136 106.57 92.6641 111.472 89.8844 114.663L92.1464 116.633C95.7354 112.514 96.136 106.535 96.136 102H93.136ZM89.8844 114.663C89.5454 115.052 89.3885 115.627 89.5865 116.196C89.7324 116.616 90.0142 116.854 90.1183 116.937C90.3546 117.125 90.6194 117.235 90.7517 117.288C91.0734 117.416 91.4783 117.528 91.8261 117.616C92.5313 117.794 93.3089 117.945 93.4518 117.966L93.8839 114.997C93.8992 114.999 93.7444 114.972 93.4613 114.913C93.1989 114.858 92.8711 114.786 92.5609 114.708C92.2338 114.625 91.9885 114.551 91.8594 114.5C91.7662 114.463 91.8554 114.485 91.9877 114.59C92.0398 114.632 92.2875 114.83 92.42 115.211C92.4958 115.429 92.5298 115.699 92.468 115.988C92.4074 116.272 92.2735 116.488 92.1464 116.633L89.8844 114.663ZM93.4518 117.966C96.5668 118.419 100.034 118.335 102.916 118.498L103.084 115.502C99.8223 115.319 96.8469 115.428 93.8839 114.997L93.4518 117.966ZM54 170.5C55.8719 170.5 57.2987 170.415 59.3049 169.525L58.0879 166.783C56.6376 167.427 55.6955 167.5 54 167.5V170.5ZM59.3049 169.525C67.2028 166.02 74.8508 161.706 82.9887 159.952L82.3565 157.019C73.8156 158.86 65.617 163.441 58.0879 166.783L59.3049 169.525ZM82.9887 159.952C84.1923 159.692 85.4366 159.566 86.7613 159.453C88.0589 159.343 89.4609 159.244 90.8421 159.031L90.3843 156.066C89.1329 156.26 87.8695 156.348 86.5073 156.464C85.1722 156.577 83.7624 156.716 82.3565 157.019L82.9887 159.952ZM90.8421 159.031C91.673 158.903 92.4492 158.581 92.9917 158.372C93.6036 158.138 94.003 158.009 94.3713 157.989L94.2086 154.993C93.3128 155.042 92.5091 155.344 91.9164 155.572C91.2541 155.826 90.824 155.998 90.3843 156.066L90.8421 159.031ZM94.3713 157.989C95.1644 157.946 95.9508 157.786 96.5818 157.665C97.2615 157.536 97.7812 157.447 98.2448 157.447V154.447C97.4562 154.447 96.6688 154.595 96.0193 154.719C95.3212 154.852 94.7563 154.964 94.2086 154.993L94.3713 157.989ZM98.2448 157.447C100.152 157.447 101.868 156.396 103.189 155.395C103.876 154.875 104.528 154.309 105.109 153.802C105.707 153.278 106.212 152.833 106.667 152.484L104.839 150.105C104.29 150.527 103.699 151.049 103.134 151.543C102.552 152.052 101.971 152.554 101.377 153.004C100.138 153.943 99.1045 154.447 98.2448 154.447V157.447ZM106.667 152.484C107.97 151.482 109.323 150.362 110.683 149.253C112.053 148.136 113.444 147.018 114.87 145.978C117.736 143.887 120.635 142.192 123.591 141.483L122.891 138.566C119.358 139.413 116.076 141.384 113.101 143.555C111.606 144.645 110.162 145.807 108.787 146.929C107.401 148.059 106.098 149.138 104.839 150.105L106.667 152.484ZM123.591 141.483C126.303 140.832 129.303 140.762 132.47 140.82C135.571 140.878 138.899 141.065 141.973 140.856L141.77 137.863C138.869 138.06 135.792 137.881 132.526 137.821C129.327 137.761 126 137.82 122.891 138.566L123.591 141.483ZM141.973 140.856C144.715 140.67 147.448 140.324 150.095 140.033C152.764 139.74 155.379 139.5 158 139.5V136.5C155.208 136.5 152.458 136.756 149.768 137.051C147.053 137.349 144.429 137.682 141.77 137.863L141.973 140.856ZM100 195.5C101.203 195.5 102.228 195.344 103.132 194.665C103.906 194.084 104.472 193.176 105.043 192.32L102.548 190.654C101.835 191.723 101.591 192.071 101.331 192.266C101.203 192.362 100.972 192.5 100 192.5V195.5ZM105.043 192.32C106.575 190.025 107.754 187.878 109.302 185.839C110.792 183.878 112.437 182.299 114.589 181.379L113.411 178.621C110.595 179.824 108.568 181.845 106.913 184.025C105.316 186.128 103.878 188.662 102.548 190.654L105.043 192.32ZM85.9306 168.054C83.6815 167.929 81.3204 167.97 79.1959 168.727C76.994 169.512 75.137 171.032 73.8842 173.648L76.5899 174.944C77.4984 173.047 78.7422 172.073 80.203 171.553C81.7412 171.005 83.6045 170.929 85.7641 171.049L85.9306 168.054ZM73.8842 173.648C73.8761 173.665 73.868 173.682 73.8599 173.699L76.5714 174.983C76.5775 174.97 76.5837 174.957 76.5899 174.944L73.8842 173.648ZM73.8599 173.699C71.9886 177.652 72.5932 183.018 74.3566 186.656L77.0563 185.348C75.5765 182.294 75.1874 177.906 76.5714 174.983L73.8599 173.699ZM74.3566 186.656C75.6374 189.299 78.065 190.925 80.6498 191.707C83.2293 192.487 86.1107 192.478 88.5539 191.721L87.6665 188.856C85.81 189.43 83.5403 189.447 81.5183 188.835C79.5016 188.225 77.8773 187.042 77.0563 185.348L74.3566 186.656ZM88.5539 191.721C93.3666 190.231 96.8993 185.603 98.1867 180.756C99.4814 175.881 98.6225 170.255 93.9225 166.991L92.2113 169.455C95.5288 171.759 96.3807 175.868 95.2872 179.986C94.1865 184.13 91.2321 187.751 87.6665 188.856L88.5539 191.721ZM93.9225 166.991C90.0692 164.315 84.195 163.539 79.8437 165.885L81.2672 168.525C84.4747 166.796 89.1384 167.321 92.2113 169.455L93.9225 166.991ZM79.8437 165.885C76.419 167.731 74.6844 170.72 73.7931 173.89L76.6811 174.702C77.4261 172.052 78.7672 169.873 81.2672 168.525L79.8437 165.885ZM73.7931 173.89C73.3096 175.609 73.0665 177.403 72.9301 179.132L75.9208 179.368C76.049 177.743 76.2705 176.162 76.6811 174.702L73.7931 173.89ZM107.23 188.269C107.23 196.486 109.331 204.453 111.365 212.2C113.417 220.015 115.403 227.61 115.403 235.384H118.403C118.403 227.158 116.301 219.186 114.267 211.438C112.215 203.624 110.23 196.033 110.23 188.269H107.23ZM83.4406 199.905C83.0471 199.905 82.6526 199.867 82.1624 199.822C81.6968 199.779 81.1461 199.729 80.568 199.742L80.6346 202.742C81.0198 202.733 81.4121 202.765 81.8869 202.809C82.3373 202.85 82.8808 202.905 83.4406 202.905V199.905ZM80.568 199.742C79.2535 199.772 78.0785 200.181 77.0658 200.646C76.5581 200.879 76.0697 201.136 75.6177 201.378C75.1531 201.627 74.7397 201.854 74.3242 202.061L75.6658 204.745C76.1316 204.512 76.6035 204.254 77.0354 204.022C77.4798 203.784 77.899 203.564 78.3166 203.373C79.1545 202.988 79.9014 202.758 80.6346 202.742L80.568 199.742ZM74.3242 202.061C73.9151 202.266 73.6413 202.359 73.1133 202.594C72.647 202.802 72.1148 203.072 71.5826 203.503L73.4702 205.835C73.7134 205.638 73.9796 205.493 74.3359 205.334C74.6304 205.202 75.2032 204.976 75.6658 204.745L74.3242 202.061ZM71.5827 203.503C71.1765 203.832 70.7547 204.137 70.2832 204.485C69.8257 204.823 69.3309 205.194 68.8542 205.61L70.8275 207.87C71.2036 207.541 71.612 207.233 72.0643 206.899C72.5027 206.576 72.9973 206.218 73.4702 205.835L71.5827 203.503ZM68.8542 205.61C67.2692 206.994 66.5002 208.649 65.9113 210.331L68.7429 211.322C69.2647 209.832 69.8173 208.752 70.8275 207.87L68.8542 205.61ZM65.9113 210.331C65.5331 211.412 64.8931 213.022 64.7724 214.559C64.7092 215.365 64.7751 216.245 65.1342 217.099C65.501 217.972 66.1326 218.72 67.039 219.304L68.6641 216.782C68.2247 216.499 68.0138 216.208 67.8999 215.937C67.7783 215.647 67.7253 215.278 67.7632 214.794C67.8451 213.751 68.2886 212.62 68.7429 211.322L65.9113 210.331ZM67.039 219.304C71.069 221.901 76.1023 221.766 80.2035 221.418L79.9502 218.429C75.824 218.779 71.7513 218.771 68.6641 216.782L67.039 219.304ZM80.2035 221.418C80.8641 221.362 81.4911 221.22 82.0087 221.103C82.5583 220.979 82.9937 220.88 83.4258 220.838L83.1299 217.852C82.4787 217.917 81.8556 218.062 81.3466 218.177C80.8055 218.299 80.3736 218.393 79.9502 218.429L80.2035 221.418ZM83.4258 220.838C84.4005 220.741 85.5787 220.67 86.7346 220.411L86.0785 217.483C85.1567 217.69 84.2645 217.74 83.1299 217.852L83.4258 220.838ZM86.7346 220.411C87.2678 220.291 87.833 220.188 88.4403 220.078C89.0376 219.971 89.6769 219.857 90.3113 219.723C91.5723 219.456 92.9311 219.087 94.1525 218.418L92.7125 215.786C91.8784 216.243 90.8608 216.541 89.691 216.788C89.11 216.911 88.5203 217.015 87.9083 217.126C87.3062 217.234 86.6819 217.348 86.0785 217.483L86.7346 220.411ZM94.1525 218.418C95.8448 217.492 97.3749 216.313 98.7087 214.951L96.5657 212.852C95.4275 214.014 94.1319 215.01 92.7125 215.786L94.1525 218.418ZM98.7087 214.951C99.4008 214.245 99.9739 213.469 100.482 212.751C101.011 212.005 101.45 211.351 101.952 210.729L99.6163 208.845C99.0368 209.564 98.5065 210.35 98.0341 211.017C97.5416 211.713 97.0819 212.325 96.5657 212.852L98.7087 214.951ZM101.952 210.729C103.707 208.552 104.189 206.151 104.116 203.82C104.046 201.555 103.441 199.243 102.967 197.243L100.048 197.935C100.553 200.064 101.059 202.025 101.118 203.914C101.175 205.738 100.805 207.371 99.6163 208.845L101.952 210.729ZM102.967 197.243C102.266 194.287 101.302 191.299 100.499 188.487L97.6146 189.311C98.4572 192.26 99.367 195.065 100.048 197.935L102.967 197.243ZM100.499 188.487C99.8952 186.373 98.9076 185.214 97.422 183.976L95.5014 186.281C96.6782 187.261 97.2236 187.943 97.6146 189.311L100.499 188.487ZM94.8953 131.524C95.4083 131.524 95.7804 131.666 96.67 131.909L97.4613 129.016C96.8511 128.849 95.9289 128.524 94.8953 128.524V131.524ZM96.67 131.909C98.3694 132.374 100.315 132.198 101.577 132.198V129.198C99.8753 129.198 98.645 129.339 97.4613 129.016L96.67 131.909ZM101.577 132.198C102.209 132.198 102.943 132.039 103.511 131.441C104.025 130.9 104.182 130.22 104.25 129.726L101.278 129.317C101.26 129.449 101.242 129.505 101.238 129.515C101.236 129.52 101.26 129.455 101.337 129.374C101.375 129.334 101.419 129.298 101.467 129.267C101.514 129.237 101.557 129.219 101.589 129.208C101.648 129.187 101.657 129.198 101.577 129.198V132.198ZM104.25 129.726C104.336 129.101 104.491 128.48 104.68 127.803C104.86 127.154 105.088 126.4 105.262 125.655L102.34 124.974C102.186 125.636 101.995 126.258 101.789 126.998C101.592 127.709 101.392 128.487 101.278 129.317L104.25 129.726ZM105.262 125.655C105.291 125.53 105.33 125.49 105.349 125.471C105.381 125.441 105.457 125.384 105.627 125.327C106.013 125.2 106.547 125.173 107.233 125.173V122.173C106.591 122.173 105.593 122.179 104.687 122.479C103.684 122.81 102.673 123.548 102.34 124.974L105.262 125.655ZM107.233 125.173C107.825 125.173 108.702 125.215 109.491 125.146L109.231 122.158C108.613 122.211 108.052 122.173 107.233 122.173V125.173ZM109.491 125.146C110.212 125.084 110.82 124.84 111.303 124.6C111.543 124.481 111.771 124.353 111.968 124.242C112.175 124.125 112.343 124.028 112.514 123.94L111.126 121.28C110.899 121.398 110.676 121.525 110.491 121.63C110.295 121.741 110.13 121.833 109.97 121.912C109.651 122.071 109.426 122.141 109.231 122.158L109.491 125.146ZM112.514 123.94C113.345 123.506 113.752 122.83 113.947 122.19C114.035 121.902 114.08 121.624 114.111 121.411C114.147 121.152 114.157 121.042 114.187 120.859L111.227 120.372C111.207 120.494 111.191 120.611 111.177 120.713C111.163 120.822 111.153 120.903 111.14 120.989C111.116 121.159 111.097 121.253 111.078 121.314C111.062 121.366 111.057 121.357 111.081 121.326C111.11 121.288 111.137 121.274 111.126 121.28L112.514 123.94ZM114.187 120.859C114.455 119.231 114.884 117.679 115.454 116.1L112.633 115.081C112.011 116.802 111.53 118.533 111.227 120.372L114.187 120.859ZM172.108 173.5C172.108 176.803 173.19 180.44 175.224 183.411C177.268 186.396 180.341 188.796 184.338 189.387L184.777 186.419C181.784 185.976 179.383 184.175 177.7 181.716C176.007 179.244 175.108 176.197 175.108 173.5H172.108Z" fill="#40A02B" fill-opacity="0.5"/>
</g>
<defs>
<filter id="filter0_d_806_125" x="20.5" y="12.2754" width="208" height="232.609" filterUnits="userSpaceOnUse" color-interpolation-filters="sRGB">
<feFlood flood-opacity="0" result="BackgroundImageFix"/>
<feColorMatrix in="SourceAlpha" type="matrix" values="0 0 0 0 0 0 0 0 0 0 0 0 0 0 0 0 0 0 127 0" result="hardAlpha"/>
<feOffset/>
<feGaussianBlur stdDeviation="4"/>
<feColorMatrix type="matrix" values="0 0 0 0 0.25098 0 0 0 0 0.627451 0 0 0 0 0.168627 0 0 0 0.5 0"/>
<feBlend mode="normal" in2="BackgroundImageFix" result="effect1_dropShadow_806_125"/>
<feBlend mode="normal" in="SourceGraphic" in2="effect1_dropShadow_806_125" result="shape"/>
</filter>
</defs>
</svg>
