<svg width="320" height="322" viewBox="0 0 320 322" fill="none" xmlns="http://www.w3.org/2000/svg">
<g filter="url(#filter0_d_806_142)">
<path d="M161.84 78.7237C161.746 78.3383 160.902 78.1847 160.57 78.1636C157.725 77.9821 155.575 78.098 153.558 80.3242C149.795 84.4774 153.283 88.4155 157.887 88.8069M168.536 80.516C168.481 80.1216 167.882 80.2615 167.551 80.2615C166.377 80.2615 165.571 82.3765 165.285 83.1743C164.729 84.7243 164.428 87.2478 165.675 88.5898C167.011 90.0264 170.34 89.9838 172.131 89.3958C174.776 88.5272 177.144 85.4774 176.57 82.8773C176.118 80.836 173.063 80.2241 171.13 80.0635C168.216 79.8214 166.848 83.0332 166.848 85.3518M178.632 78.0262C178.632 80.7577 178.887 83.4698 178.913 86.1961C178.921 87.0238 178.913 87.852 178.913 88.6797C178.913 89.3131 178.93 87.4074 179.038 86.7843C179.528 83.9698 180.437 80.296 182.071 77.9282C183.676 75.6013 184.869 78.9836 185.259 80.3138C185.844 82.3055 185.947 88.6064 185.947 86.5229C185.947 83.1827 186.777 80.4475 189.136 78.0589C191.484 75.6808 192.909 80.0474 193.137 81.7844C193.339 83.3193 194.003 86.8856 192.418 87.4379M196.415 81.0674V88.4974M196.415 88.4974V88.6173C196.415 90.9154 196.406 89.9445 196.415 88.4974ZM196.415 88.4974C196.422 87.4052 196.439 86.0419 196.479 85.6074C196.669 83.5192 198.061 79.5067 200.391 79.016C201.831 78.7127 202.108 84.7793 202.148 85.7251C202.154 85.8749 202.16 86.0261 202.164 86.1756M202.164 86.1756C202.213 87.8012 202.164 89.2283 202.164 86.3809C202.164 86.3131 202.164 86.2446 202.164 86.1756ZM202.164 86.1756C202.172 83.3437 202.361 79.514 205.294 78.2593C208.085 77.0655 208.877 83.1247 208.999 84.834C209.091 86.1284 209.747 90.0895 208.488 90.7528M214.791 85.0017C212.194 85.0017 219.986 85.0778 222.582 85.0017C223.255 84.982 222.976 83.8128 222.976 83.2928C222.976 81.486 223.018 79.6046 221.278 78.6919C216.782 76.3336 213.432 81.5566 213.214 85.889C213.065 88.8548 214.311 91.7693 217.125 92.4946C219.795 93.1826 221.834 92.023 224.067 90.6214M246.259 81.3266C244.005 81.0828 241.147 80.1988 240.315 83.3135C239.604 85.9734 239.606 89.632 241.38 91.8119C243.175 94.0168 246.319 93.6485 248.761 93.6485M244.81 93.6931C243.899 93.6931 243.029 93.4856 242.584 94.3596C241.949 95.6033 242.136 97.4402 243.273 98.3866C244.766 99.6284 241.861 99.4419 241.141 99.4419C239.593 99.4419 237.238 99.9462 236.908 98.1922M251.39 85.0021C251.39 83.7914 253.234 83.6352 254.259 83.4347C256.305 83.0345 257.841 82.2701 258.381 84.4216C258.868 86.3649 258.513 88.6265 258.513 90.6043V91.7651M258.513 91.7651V92.5781C258.513 92.2691 258.524 92.0019 258.513 91.7651ZM258.513 91.7651C258.485 91.1547 258.31 90.7462 257.425 90.343C256.01 89.699 253.612 88.5884 251.984 89.3561C250.247 90.1749 248.635 93.0237 248.768 94.726C248.919 96.6408 255.624 94.9118 256.732 94.668M264.564 73.5954C266.269 73.0128 268.229 73.3222 269.987 73.3222C270.537 73.3222 272.041 73.0517 272.35 73.8231C272.652 74.579 272.305 75.7886 271.995 76.4637C270.709 79.263 267.082 82.3543 268.99 85.8882M271.479 90.7528V92.6986M149 10.9729C149.323 20.2212 152.626 29.0614 153.939 38.2148M150.975 13.9329C151.134 12.4275 153.998 11.292 155.114 10.8084C159.292 8.99723 164.153 10.2021 165.34 14.6998C166.313 18.389 165.866 23.0326 162.476 25.5362C160.571 26.9432 157.574 26.4594 155.294 26.4594M149 180.386C149 180.166 149.01 179.98 149.102 179.778C149.882 178.059 150.231 176.083 150.746 174.256C151.916 170.102 153.676 166.182 154.778 162.018C154.955 161.35 155.046 162.25 155.105 162.502C155.64 164.793 155.91 167.176 156.167 169.52C156.626 173.717 156.902 177.979 156.902 182.208M149.988 175.397C152.615 175.397 155.308 174.988 157.89 174.424M162.828 162.749C164.074 167.099 163.612 171.979 163.612 176.442V177.479M163.612 177.479V180.586C163.612 179.56 163.569 178.514 163.612 177.479ZM163.612 177.479C163.632 176.995 163.671 176.513 163.742 176.037C164.247 172.667 168.098 171.727 169.358 175.226C170.335 177.939 169.199 179.654 168.705 182.208M192.709 174.966C191.664 174.966 190.505 174.853 189.673 175.422M189.673 175.422C189.406 175.604 189.173 175.855 188.989 176.203C187.502 178.997 189.655 183.292 192.953 183.178C195.185 183.101 197.162 181.136 198.041 179.2C198.928 177.246 198.02 175.353 196.302 174.257C194.65 173.203 192.575 173.169 190.901 174.24C190.351 174.592 189.957 174.985 189.673 175.422ZM189.673 175.422C189.182 176.176 189.021 177.064 188.954 178.102M201.035 173.465C200.934 173.465 200.731 173.428 200.645 173.482C200.412 173.63 200.442 174.387 200.429 174.565C200.368 175.377 200.338 176.203 200.386 177.017C200.455 178.194 200.703 180.694 202.054 181.266C203.453 181.857 204.934 180.621 205.663 179.615C206.941 177.85 207.676 175.673 208.017 173.57C208.025 173.516 208.032 173.409 208.037 173.283M208.037 173.283C208.055 172.801 208.049 172.034 208.041 172.81C208.04 172.967 208.038 173.125 208.037 173.283ZM208.037 173.283C208.018 175.199 208.001 177.122 208.066 179.036C208.102 180.094 208.264 181.15 208.264 182.208M211.227 173.597C211.301 174.198 212.594 173.446 212.755 173.372C213.981 172.804 215.789 172.144 217.155 172.671C218.371 173.141 219.068 174.369 219.115 175.623C219.211 178.169 218.772 180.663 218.511 183.181M218.141 178.059C216.942 177.076 215.124 177.107 213.922 178.143C212.878 179.042 212.095 180.379 212.23 181.717C212.476 184.159 216.111 182.892 217.724 182.524M223.08 172.478C223.276 172.528 223.252 172.879 223.264 173.042C223.365 174.39 223.498 175.735 223.599 177.084C223.726 178.802 223.899 180.498 224.067 182.208M224.067 166.641H222.092M232.957 173.517C231.809 173.517 230.356 173.23 229.337 173.857C227.378 175.063 230.525 176.577 231.379 177.32C232.366 178.179 233.017 179.641 232.71 181.007C232.476 182.048 231.072 182.136 230.263 182.179C229.288 182.232 228.304 182.196 227.328 182.196H227.37M245.873 160.803H246.141C246.591 160.803 246.64 161.817 246.666 162.214C247.14 169.54 246.051 176.835 246.051 184.154M256.124 175.181C253.995 175.181 252.32 175.333 250.94 177.422C250.07 178.74 249.882 180.386 250.426 181.929C251.14 183.951 253.498 184.321 255.196 184.095C257.458 183.794 258.469 180.891 258.626 178.655C258.791 176.317 257.251 174.438 255.33 173.725C253.598 173.081 251.689 173.571 250.571 175.231C249.376 177.007 249.735 179.022 250.091 181.008M266.327 175.407C265.077 175.407 263.699 175.302 262.577 175.783M262.577 175.783C262.195 175.946 261.844 176.177 261.537 176.503C260.354 177.759 259.867 179.95 260.026 181.562C260.232 183.664 262.882 184.261 264.828 184.138C267.422 183.976 269.471 181.515 269.503 179.196C269.528 177.373 267.138 176.427 265.52 176.083C264.708 175.91 263.604 175.726 262.577 175.783ZM262.577 175.783C261.685 175.832 260.853 176.063 260.32 176.643C259.614 177.411 259.413 178.769 259.872 179.604M267.636 177.343C267.202 177.398 267.514 178.216 267.578 178.45C268.384 181.414 268.48 184.103 268.48 187.165C268.48 188.925 268.899 191.62 266.863 192.416C264.724 193.253 261.876 192.773 259.626 192.773M272.466 174.424V185.127M271.479 168.587H272.466M282.224 176.24C280.448 176.24 278.925 176.901 277.629 178.034C275.299 180.071 274.465 185.127 279.048 185.127C283.05 185.127 286.389 178.361 282.771 176.055C279.684 174.088 276.096 176.906 275.429 179.573M283.331 178.316V196.551M288.153 176.66C287.913 176.936 287.961 177.182 287.933 177.512C287.783 179.299 287.176 180.978 287.298 182.8C287.389 184.151 287.804 185.736 289.471 186.049C291.877 186.501 293.241 183.817 294.157 182.273C295.277 180.387 296.17 178.477 296.269 176.313C296.303 175.548 296.472 174.821 296.5 176.078C296.57 179.088 296.833 182.135 297.16 185.13M299.76 180.819H305.676C305.998 180.819 307.132 181.004 307.446 180.773C308.358 180.1 307.587 178.13 306.89 177.575C303.514 174.889 299.452 177.042 298.457 180.621C297.784 183.044 298.082 185.889 300.594 187.261C303.399 188.793 307.149 187.753 310 186.911M150.975 45.9982C150.975 53.299 152.62 60.5981 152.62 67.889M158.376 48.4305C158.164 50.2549 157.483 52.3761 156.731 54.1059M159.198 60.4126C159.341 59.4277 165.001 59.7618 165.721 60.2916C168.081 62.0284 167.295 70.8679 167.295 68.195C167.295 66.5998 167.104 65.2724 165.327 64.3824C163.942 63.6886 161.079 63.0819 160.238 64.685C157.935 69.0771 164.15 68.6912 167.295 68.6912M176.423 58.9706C175.061 58.9706 173.454 59.1851 172.576 60.3659C170.633 62.9784 174.538 65.5702 175.99 67.2057C177.684 69.1139 174.42 69.4542 172.984 69.4981C172.598 69.5099 168.381 69.5106 170.461 69.5106M190.644 63.5351C192.596 63.5351 194.722 63.8629 196.645 63.508C197.774 63.2995 196.54 60.3687 196.197 59.7892C195.712 58.9688 194.618 58.5399 193.821 58.3099C190.99 57.4937 189.777 60.1334 189.632 63.1551C189.536 65.1524 190.141 67.3697 191.844 68.231C193.873 69.2573 195.901 68.3781 197.845 67.6881M187.978 55.7275C189.193 55.598 190.664 54.2478 191.568 53.5992C192.939 52.6158 194.698 51.5722 195.378 50.0521M206.675 60.4876C205.923 59.7949 203.747 59.5293 202.938 60.0684C201.304 61.1564 201.054 63.4629 201.152 65.2966C201.307 68.1706 204.825 68.2989 206.89 68.6998M211.919 60.5814C210.415 60.5814 211.212 67.3679 211.212 68.6056C211.212 69.0692 211.388 67.6944 211.5 67.2445C211.925 65.5468 212.314 63.7763 213.006 62.1629C214.563 58.5305 216.875 59.6011 219.224 61.7481M221.691 60.5921V68.6998M227.446 50.0521C227.729 50.1252 228.036 55.552 228.067 56.0534C228.157 57.5587 228.209 59.0733 228.237 60.5921M228.237 60.5921C228.298 63.8326 228.252 67.0922 228.252 70.3214M228.237 60.5921H223.335M228.237 60.5921H233.202M222.017 54.5469C221.483 54.5469 220.698 54.8643 220.473 55.308M235.717 64.4411H242.621C243.257 64.4411 243.822 64.6831 243.822 63.9548C243.822 62.9039 243.148 61.9748 242.461 61.217C241.614 60.2845 240.692 59.8344 239.427 59.7266C237.638 59.5742 236.47 61.6227 235.76 62.9612C234.854 64.6689 233.996 67.5138 236.103 68.7539C237.911 69.8174 240.534 69.6001 242.471 69.1979M169.718 29.5057C167.38 29.8303 166.094 33.5484 165.904 35.0287C165.431 38.7022 172.408 37.3478 174.074 35.3184C176.423 32.4568 174.816 29.1777 170.281 29.2841C165.178 29.4039 165.817 32.939 165.817 35.9491M178.879 29.2816C178.879 31.6827 177.732 38.5517 180.663 38.4796C183.32 38.4142 185.107 33.3042 185.462 30.6253C185.805 28.0431 186.189 32.7687 186.293 33.3318C186.616 35.0861 186.683 36.9789 188.015 37.7983M192.709 28.2784V35.6785C192.709 36.1524 192.675 40.1711 192.709 37.6621C192.775 32.7907 195.08 24.0924 202.052 27.9351M209.779 30.1621C208.439 30.1621 207.673 30.024 206.733 31.0853C205.686 32.2673 204.412 34.709 204.507 36.5885M204.507 36.5885C204.572 37.8778 205.28 38.9026 207.148 39.0745C211.172 39.4448 214.825 36.4272 214.666 32.7009C214.655 32.4414 214.626 32.1988 214.581 31.9724M204.507 36.5885C203.098 35.7858 202.655 34.241 204.161 32.257C206.348 29.3745 213.684 27.4582 214.581 31.9724M204.507 36.5885C205.526 37.1692 207.051 37.3615 208.711 37.0505C210.78 36.6629 212.16 35.0486 213.34 33.6063C213.771 33.0795 214.202 32.5367 214.581 31.9724M214.581 31.9724C214.679 31.8261 214.773 31.6784 214.864 31.5291C214.975 31.3446 215.047 30.7441 215.121 30.9433C215.51 31.9906 215.112 33.7638 215.121 34.8491C215.149 38.2298 215.545 41.6002 215.833 44.9687C216.089 47.9712 216.294 50.9913 216.624 53.9876C216.692 54.5996 216.636 55.4487 217.257 55.7275M219.763 26.982C217.79 27.3503 218.534 33.0771 218.715 34.2676C219.146 37.1012 222.651 38.7961 224.574 35.925C225.666 34.2934 226.462 32.4914 227.308 30.7629C227.517 30.3352 228.611 27.9508 228.623 28.0351C229.154 31.6009 229.016 34.9439 230.124 38.4802M235.98 30.1047C232.309 32.0793 233.966 36.5991 237.566 38.017C242.026 39.774 244.574 36.1791 244.105 33.1526C243.567 29.6831 238.468 28.2687 234.732 30.0585C231.846 31.4412 232.209 34.616 233.127 36.7547M248.839 30.4314V44.2293M248.839 17.7834C246.667 17.7834 246.499 17.7988 246.499 18.9332M280.42 18.9332C280.42 26.6104 281.607 34.2692 282.759 41.9296M275.741 30.4314H287.438M290.706 30.4314C288.701 30.4314 288.837 33.8788 288.757 35.184C288.643 37.0591 288.267 39.7509 289.432 41.3931C290.786 43.3012 293.238 42.1696 294.564 40.8756C296.156 39.3229 297.425 37.1577 297.899 34.9541C297.997 34.4986 298.123 31.6645 298.123 32.3286C298.123 36.21 298.663 40.366 299.135 44.2293M239.087 307.418C239.335 309.621 240.355 311.503 240.355 307.835C240.355 300.542 240.98 293.136 236.103 287.195C231.387 281.449 224.121 276.723 216.676 275.186C210.286 273.866 201.726 273.4 196.145 277.291C187.745 283.149 190.883 293.952 190.883 302.467V312M268.42 196.487C268.42 202.869 266.63 209.698 265.496 215.951C264.365 222.188 263.137 229.129 259.725 234.62C257.481 238.23 253.836 239.988 250.273 242.068M189.505 234.947C189.471 235.543 189.372 236.156 189.232 236.777M189.232 236.777C188.738 238.973 187.733 241.281 187.297 243.37C186.186 248.69 185.276 253.667 185.276 259.104M189.232 236.777C189.744 236.38 190.384 236.057 190.881 235.699C192.334 234.653 193.794 233.57 194.916 232.168C196.364 230.36 197.422 228.313 198.248 226.169C198.635 225.163 199.183 224.084 199.224 222.989M189.232 236.777C188.969 236.981 188.74 237.206 188.582 237.465M200.107 216.26C201.789 213.594 203.319 210.044 204.277 206.368C204.398 205.903 205.498 200.612 205.634 200.694C205.921 200.869 205.5 206.098 205.534 206.659C205.788 210.873 207.93 212.372 209.984 212.66M203.549 222.098C203.737 223.02 208.833 224.939 209.496 225.483C211.925 227.477 214.307 229.06 217.177 230.365C218.319 230.884 220.795 231.754 220.795 233.281C220.795 236.987 219.274 240.028 218.258 243.532C217.288 246.874 216.54 250.104 216.567 253.597C216.603 258.253 218.114 259.397 222.486 260.354M208.96 218.844C209.865 216.878 211.577 215.581 212.904 213.983C213.541 213.216 215.383 209.586 216.438 209.385C217.346 209.212 216.676 214.667 216.742 215.372C217.331 221.655 220.691 224.729 224.894 227.834M221.641 217.87C225.842 217.87 229.481 215.181 232.541 212.502C232.896 212.191 235.287 207.496 236.346 208.8C236.579 209.087 236.017 210.599 236.017 211.044C236.017 213.565 235.972 216.091 236.041 218.611C236.136 222.12 236.106 226.45 237.474 229.764C238.406 232.023 240.601 233.087 242.36 234.531M239.4 232.864C239.521 234.06 240.337 234.926 240.856 235.965C242.336 238.922 242.73 242.074 242.313 245.359C241.985 247.945 239.591 251.143 237.897 253.042C236.698 254.386 233.894 256.224 233.48 257.855M202.068 230.854C203.274 233.299 205.957 231.735 207.52 233.974M201.42 238.629C201.152 238.909 200.806 239.406 200.312 239.091C200.002 238.894 200.399 238.121 200.556 237.964C201.08 237.437 201.808 237.288 202.527 237.298C203.758 237.316 202.761 238.463 201.926 238.463C201.152 238.463 201.392 237.631 202.095 237.631M193.143 249.777C193.544 249.777 193.814 249.806 194.175 250.027C196.033 251.166 197.827 252.366 199.731 253.438M187.231 262.09C187.341 263.109 188.404 263.744 189.136 264.345C191.15 266.001 193.234 267.552 195.325 269.109L195.508 269.244M259.626 103.401C262.17 105.451 262.532 111.832 263.425 114.764C265.463 121.457 267.196 127.892 268 134.867C268.846 142.209 268.61 149.616 268.61 156.992" stroke="#04A5E5" stroke-opacity="0.5" stroke-width="3" stroke-linecap="round"/>
</g>
<g filter="url(#filter1_d_806_142)">
<path d="M145.03 310.774C147.06 314.382 147.229 309.015 146.981 307.605C144.852 295.509 140.45 280.247 129.757 273.045C123.264 268.672 114.205 266.786 106.436 267.681C99.3628 268.495 93.9744 274.151 90.2483 279.81C84.6223 288.355 84.1208 299.185 84.1208 309.129M118.774 204.88C118.828 204.391 119.418 204.101 119.709 203.72C121.088 201.914 122.158 199.798 123.998 198.4C128.835 194.727 137.092 196.923 141.574 200.109C146.862 203.867 149.323 210.202 149.411 216.584C149.555 227.051 148.941 231.917 148.557 241.739C148.265 249.228 148.085 253.427 147.734 260.914M115.001 205.751C115.777 205.557 114.486 204.249 114.307 204.042C111.076 200.307 106.9 197.288 102.214 195.676C97.8461 194.172 92.6164 193.624 88.0403 194.402C82.8266 195.289 78.6646 199.424 76.3016 203.945C71.2743 213.564 74.6657 222.626 74.7213 234.622C74.7832 247.966 75.288 255.483 77.0111 268.716M136.405 226.929C134.563 231.072 133.745 234.811 136.405 238.8M136.104 242.852C136.788 242.829 136.671 246.135 136.678 246.467C136.772 250.765 134.784 253.401 131.859 256.281M130.389 211.576C132.292 211.365 133.447 212.015 134.374 214.106C136.455 218.8 136.942 224.271 137.753 229.287C138.261 232.427 138.628 235.529 138.628 238.708M111.939 213.456C112.091 213.321 112.263 213.21 112.145 212.966C111.814 212.281 110.535 211.533 109.891 211.163C108.863 210.573 107.926 209.732 106.812 209.309C105.754 208.906 104.386 208.686 103.256 208.703C101.12 208.735 99.2212 210.719 98.7469 212.683C98.1544 215.137 98.5058 217.941 98.7211 220.424C98.8641 222.071 99.068 223.704 99.2751 225.343C99.4931 227.069 99.4168 228.824 99.4168 230.56C99.4168 232.501 99.4788 234.454 99.3911 236.394C99.3099 238.188 98.9868 239.952 98.8371 241.739C98.6134 244.41 98.426 246.965 97.8837 249.595C97.5694 251.12 97.3298 252.578 97.3298 254.142M133.26 223.689C131.61 223.78 130.038 224.052 128.344 223.876C125.685 223.6 123.649 221.708 121.929 219.832M112.526 219.35C110.766 219.35 110.372 220.925 109.151 222.135C106.55 224.714 103.285 225.536 99.7486 225.858M130.126 233.571C126.782 233.571 122.522 235.207 119.518 233.33M113.008 234.293C112.197 234.293 111.519 234.629 110.732 234.829C108.354 235.434 106.043 235.646 103.606 235.74M118.071 240.56C118.071 242.286 119.325 243.545 120.804 244.389C121.218 244.626 119.882 244.666 119.464 244.898C118.217 245.591 117.055 246.276 115.66 246.585M121.267 250.598C120.621 250.598 120.178 250.672 119.553 250.866C117.195 251.6 114.787 251.849 112.347 252.045M39.8931 154.367C39.8931 170.731 34.7357 201.608 34.3293 217.959C34.1028 227.074 32.4065 237.404 34.1343 246.424C34.7941 249.869 36.8215 251.892 39.3442 254.167C41.4392 256.056 43.9899 258.292 46.755 259.18C49.0858 259.929 52.238 259.207 54.6673 259.32C57.2783 259.441 59.871 259.984 62.4961 259.765C64.5752 259.592 66.4187 258.691 68.4303 258.289M30.1998 86.2062C29.9337 86.2394 29.826 87.4016 29.7979 88.9318M29.7979 88.9318C29.7732 90.2739 29.8098 91.8992 29.8546 93.2941M29.7979 88.9318C27.4038 92.6704 27.8078 98.7051 28.3039 102.726C28.3797 103.34 29.1006 106.584 29.6032 104.3C30.1679 101.734 29.9612 98.9686 29.9612 96.3641C29.9612 96.0472 29.9031 94.8059 29.8546 93.2941M29.7979 88.9318C30.8235 87.3302 32.3626 86.15 34.6281 85.73C36.3728 85.4066 38.6485 86.7554 38.5127 88.7192C38.4039 90.2939 36.5187 91.4632 35.291 92.1052C33.5509 93.015 31.7421 93.1723 29.8546 93.2941M29.8546 93.2941C29.5737 93.3122 29.291 93.3295 29.0066 93.3484M45.6028 85.4875C44.2469 85.4875 43.3462 86.383 42.8476 87.5763M42.8476 87.5763C42.5065 88.3928 42.3535 89.3487 42.3718 90.2524C42.4529 94.2589 48.5377 94.5026 49.7057 90.9769C50.6292 88.1892 49.8786 84.1668 46.7439 83.7737C44.2418 83.46 43.2406 85.3746 42.8476 87.5763ZM42.8476 87.5763C42.6411 88.7338 42.6026 89.9706 42.6026 91.0048M55.4522 85.5295C53.1405 85.5295 53.0041 87.9566 52.969 89.8008L52.9687 89.8217C52.9447 91.0774 52.927 92.0079 54.4589 92.3637C56.0386 92.7305 57.4092 91.9652 58.3767 90.8363C58.9157 90.2074 59.2494 89.5049 59.4653 88.7647M59.4653 88.7647C59.7031 87.949 59.7979 87.0875 59.8666 86.2284C59.9214 85.5428 59.8838 83.6472 59.7286 85.5036C59.653 86.4085 59.5059 87.578 59.4653 88.7647ZM59.4653 88.7647C59.403 90.5826 59.5904 92.4411 60.6667 93.4509M65.4827 85.7445C65.4827 86.5367 65.4922 87.3233 65.4878 88.1057M65.4878 88.1057C65.4765 90.1088 65.3747 92.0841 64.7925 94.056C64.2341 95.9473 64.5682 89.9817 65.4413 88.199C65.4567 88.1676 65.4722 88.1365 65.4878 88.1057ZM65.4878 88.1057C67.0494 85.0182 69.8513 84.4404 73.1852 84.8094M83.7778 89.6447C83.9959 89.6447 84.2134 89.6377 84.4305 89.6259M84.4305 89.6259C85.4799 89.5693 86.5206 89.4034 87.5875 89.3967C90.0024 89.3816 92.6193 89.7016 95.0135 89.3829C96.1801 89.2277 93.7884 86.0474 93.6747 85.9244C91.0504 83.0864 86.9038 82.6762 85.0753 86.7236C84.6978 87.5591 84.4822 88.5733 84.4305 89.6259ZM84.4305 89.6259C84.3392 91.4826 84.7577 93.4586 85.6964 94.7843C87.5914 97.4603 91.4283 96.0877 93.9645 95.3492M83.7778 78.8844C83.9329 78.502 84.7328 78.4084 85.1201 78.285C86.5973 77.8143 88.0593 77.352 89.5556 76.9422M98.2378 84.711C98.2378 86.1 98.1483 87.5295 98.398 88.9018C98.5925 89.9705 99.0847 90.9436 99.4124 91.9733C99.6535 92.7308 99.6909 93.6238 100.04 94.342C100.345 94.9699 101.733 91.7051 101.842 91.4527C102.85 89.0994 104.089 87.2049 105.926 85.4138M108.815 85.6821V92.4798M108.815 78.8844H109.778M115.556 75C115.556 77.8818 115.75 80.7512 115.796 83.632C115.838 86.2243 116.229 88.7862 116.278 91.3787C116.297 92.4064 116.323 93.4133 116.519 94.422M111.704 83.7399H120.37M121.756 88.3879C121.067 88.3879 121.282 88.4348 121.957 88.4822M121.957 88.4822C123.352 88.5802 126.708 88.6804 128.098 88.3735C128.476 88.2902 128.336 85.1245 128.141 84.8302C127.633 84.0598 126.245 83.7399 125.397 83.7399C123.438 83.7399 122.556 85.8401 122.175 87.4985C122.113 87.7687 122.035 88.1054 121.957 88.4822ZM121.957 88.4822C121.619 90.1198 121.28 92.5155 122.247 93.5093C123.832 95.1368 127.277 94.2247 129.037 93.5523M134.08 86.0059C134.08 87.055 134 88.1054 133.935 89.1591M133.935 89.1591C133.891 89.879 133.854 90.6005 133.854 91.3242V92.1434M133.935 89.1591C133.832 90.1525 133.854 91.1821 133.854 92.1434M133.935 89.1591C134.095 87.6255 134.551 86.1779 135.842 85.2001C137.475 83.9637 139.963 85.3877 141.556 86.0059M133.854 92.1434V94.2788M32.7407 104.133V123.555M39.0175 116.417C40.4272 116.417 41.7896 116.581 43.1917 116.67C43.8945 116.714 44.4667 117.176 45.193 117.176C46.1468 117.176 45.9649 116.853 45.9649 115.967C45.9649 115.083 46.3255 113.451 45.5361 112.859C43.7409 111.514 40.8775 109.49 39.6751 112.479C38.7427 114.798 38.0253 118.872 38.9461 121.31C39.9134 123.872 44.7269 121.888 46.2222 121.226M52.963 114.179C52.8191 113.596 49.9597 113.912 49.5468 114.101C47.2751 115.14 50.0525 119.028 50.7026 120.217C51.2223 121.167 52.0121 122.96 50.4971 123.314C49.1935 123.619 45.1522 123.548 46.4901 123.548M76.0741 114.96C74.6237 114.96 72.3244 114.501 71.0787 115.218C68.3736 116.774 71.8437 120.394 72.9958 121.545C73.6306 122.179 74.3889 122.879 74.3729 123.826C74.3505 125.152 72.6802 125.227 71.6322 125.373C69.7307 125.637 63.9456 125.398 65.8673 125.398M80.8889 115.786V133.266M79.5815 114.842C79.9632 113.58 83.7973 113.874 84.6146 113.874C87.217 113.874 88.3052 114.575 88.5683 117.442C89.0776 122.992 81.4558 123.011 78 123.555M92.4444 115.561C92.4444 113.709 94.7285 112.986 96.5782 112.891C99.3144 112.752 100.352 113.374 100.654 115.992C100.927 118.357 100.712 120.84 100.712 123.219V120.994C100.712 119.385 100.458 118.643 98.5445 118.487C96.9243 118.354 95.8895 118.423 94.6548 119.444C93.4712 120.422 93.2461 122.626 94.5544 123.65C97.2341 125.748 100.658 123.603 102.979 122.15L103.037 122.113M103.615 112.929C102.728 112.929 103.126 115.33 103.126 115.865C103.126 118.268 103.371 125.475 103.371 123.071C103.371 121.825 103.342 120.575 103.371 119.329C103.418 117.273 104.163 115.579 104.919 113.708C105.521 112.218 107.896 109.325 108.967 112.067C109.582 113.643 109.899 115.085 110.06 116.571M110.06 116.571C110.189 117.769 110.217 118.996 110.217 120.344C110.217 120.834 109.999 118.132 109.999 117.673C109.999 117.298 110.018 116.93 110.06 116.571ZM110.06 116.571C110.233 115.077 110.801 113.749 112.037 112.749C114.178 111.014 115.644 112.332 116.166 114.738C116.49 116.231 117.114 121.283 115.107 121.694M127.111 113.269C125.75 112.703 122.563 112.618 121.624 113.861C119.73 116.366 121.89 119.002 123.819 120.76C125.693 122.469 124.172 122.519 122.148 122.572C121.768 122.582 116.767 122.584 119.03 122.584M32.7407 129.382C29.7766 129.382 27.7452 132.855 26.929 135.451C26.2157 137.72 25.4052 141.452 26.6371 143.678C27.8611 145.89 29.816 145.89 32.0108 145.89H32.0242M38.1971 129.382C38.1971 135.169 39.2455 141.105 37.5556 146.861M42.3704 143.568C42.4438 143.568 42.5202 143.569 42.5993 143.571M42.5993 143.571C44.5096 143.629 48.0008 144.323 49.2984 142.688C49.7867 142.072 48.9391 139.515 48.4825 139.076C46.6208 137.289 44.6098 138.189 43.4804 140.305C43.0219 141.165 42.7142 142.376 42.5993 143.571ZM42.5993 143.571C42.5171 144.427 42.5337 145.275 42.6646 145.98C43.2599 149.188 48.4363 147.366 50.0741 146.845M55.8519 140.424C55.6856 139.638 53.5964 140.328 53.2985 140.712C52.3319 141.96 53.342 143.929 54.101 144.827C54.8236 145.682 55.9186 146.888 55.3169 148.28C54.8552 149.348 51.9413 148.452 51.037 148.452M72.513 132.295C72.074 132.404 72.2625 133.615 72.2625 133.949C72.2625 137.183 72.6033 140.387 73.0141 143.595C73.1834 144.917 73.5152 148.896 73.5152 147.563V143.705C73.5152 142.038 73.5597 141.165 75.4639 140.728C77.1486 140.342 79.7533 139.924 80.4747 141.913C80.9048 143.099 81.3325 145.871 79.918 146.571C78.2867 147.378 75.7978 146.929 74.0163 146.929M86.0356 143.09C84.865 143.09 84.108 144.097 83.8638 145.265M83.8638 145.265C83.4577 147.208 84.4688 149.597 87.3522 148.547C89.2954 147.84 90.8162 145.647 90.4689 143.339C90.197 141.533 88.1728 141.073 86.7611 141.036C84.8963 140.987 84.1458 142.546 83.9265 144.366C83.8851 144.71 83.864 145.005 83.8638 145.265ZM83.8638 145.265C83.8629 146.387 84.2505 146.861 85.0684 147.843M93.4074 129.382C93.5739 132.32 94.6596 135.117 94.7984 138.122C94.947 141.341 95.3333 144.616 95.3333 147.833M89.2353 141.035C86.0017 140.246 95.852 140.064 99.1852 140.064M105.926 138.181C104.34 138.181 101.898 137.756 100.836 139.174C99.4991 140.959 101.437 142.6 102.755 143.529C103.36 143.955 103.832 144.349 103.91 145.114C104.009 146.096 102.308 145.864 101.726 145.872C101.396 145.877 96.7996 145.872 98.667 145.872M115.125 143.617C116.261 143.617 124.222 144.105 124.222 143.234C124.222 142.209 123.163 139.738 122.44 139.087C119.244 136.209 115.738 140.376 114.926 143.617C114.114 146.857 114.321 147.863 116.03 149.406C118.423 151.567 123.983 147.184 123.983 147.184M127.111 133.266V148.804M124.222 141.035C124.222 139.379 130.732 140.321 131.926 140.419M137.476 140.552C137.476 140.003 137.063 140 136.558 140.143C135.048 140.571 133.39 141.816 133.035 143.397C132.031 147.874 136.41 148.586 139.63 147.19M141.556 146.861H143.481M145.407 146.861H146.37M148.296 145.89H150.222M151.261 129.382C150.897 129.433 151.959 130.283 152.108 130.407C153.68 131.72 154.376 133.699 154.936 135.599C156.14 139.683 156.966 145.6 153.72 148.804" stroke="#EA76CB" stroke-opacity="0.5" stroke-width="3" stroke-linecap="round"/>
</g>
<defs>
<filter id="filter0_d_806_142" x="139.5" y="0.499756" width="180" height="321" filterUnits="userSpaceOnUse" color-interpolation-filters="sRGB">
<feFlood flood-opacity="0" result="BackgroundImageFix"/>
<feColorMatrix in="SourceAlpha" type="matrix" values="0 0 0 0 0 0 0 0 0 0 0 0 0 0 0 0 0 0 127 0" result="hardAlpha"/>
<feOffset/>
<feGaussianBlur stdDeviation="4"/>
<feColorMatrix type="matrix" values="0 0 0 0 0.0156863 0 0 0 0 0.647059 0 0 0 0 0.898039 0 0 0 0.5 0"/>
<feBlend mode="normal" in2="BackgroundImageFix" result="effect1_dropShadow_806_142"/>
<feBlend mode="normal" in="SourceGraphic" in2="effect1_dropShadow_806_142" result="shape"/>
</filter>
<filter id="filter1_d_806_142" x="16.5" y="65.5" width="149" height="256" filterUnits="userSpaceOnUse" color-interpolation-filters="sRGB">
<feFlood flood-opacity="0" result="BackgroundImageFix"/>
<feColorMatrix in="SourceAlpha" type="matrix" values="0 0 0 0 0 0 0 0 0 0 0 0 0 0 0 0 0 0 127 0" result="hardAlpha"/>
<feOffset/>
<feGaussianBlur stdDeviation="4"/>
<feColorMatrix type="matrix" values="0 0 0 0 0.917647 0 0 0 0 0.462745 0 0 0 0 0.796078 0 0 0 0.5 0"/>
<feBlend mode="normal" in2="BackgroundImageFix" result="effect1_dropShadow_806_142"/>
<feBlend mode="normal" in="SourceGraphic" in2="effect1_dropShadow_806_142" result="shape"/>
</filter>
</defs>
</svg>
