<svg width="256" height="196" viewBox="0 0 256 196" fill="none" xmlns="http://www.w3.org/2000/svg">
<g filter="url(#filter0_d_806_137)">
<path d="M58.5079 10.579C58.5079 12.6706 57.5494 28.8848 58.955 29.0735C68.8102 30.3969 79.294 29.6846 89.2637 29.6846C90.2992 29.6846 94.6269 30.2622 94.7251 28.977C95.2121 22.6004 96.8565 15.3549 92.4256 10M171.183 10.772C171.183 15.7983 172.041 20.5601 172.301 25.5355C172.446 28.3042 171.687 29.1057 174.633 29.1057H188.078L203.875 28.8495C205.381 28.5835 210.831 28.9242 212.065 27.9088C213.754 26.5192 212.633 19.8886 212.557 18.1567C212.463 16.0262 213.244 9.6617 212.921 11.7694M68.2619 44.2222C67.9165 49.8311 68.3096 55.6088 67.9599 61.2867M64.0681 58.8889C57.9314 58.8889 58.8983 63.0978 58.5036 66.7866L58.5022 66.7996C58.0515 71.0125 57.4656 76.4889 63.6264 76.4889M72.416 58.8889C78.2113 58.8889 76.4048 63.6017 76.4818 67.2326C76.5678 71.2846 77.7208 76.4889 71.8352 76.4889M67.4505 71.5788C67.4505 78.1831 69.1751 84.6066 69.1751 91.2635M64.198 84.3111C60.2574 84.3111 60.5588 89.6289 60.2574 91.6596C60.0852 92.8204 60.2132 94.5778 60.6986 96.5333C61.1841 98.4889 62.9433 98.9778 64.0967 98.9778M73.7769 83.3333C79.1168 83.3333 80.5731 99.9556 74.1926 99.9556M69.5329 96.4741C69.5329 101.708 70.1078 106.873 70.1078 112.106M176.106 30.5333C174.783 30.8665 171.044 34.6747 170.865 38.3556C170.612 43.5627 174.464 46.951 180.13 47.9021M193.911 29.5556C196.593 31.5111 198.131 34.2366 198.049 37.8667C197.935 42.9617 194.327 47.5033 189.312 47.5033M60.5833 30.5333C59.2599 30.8665 55.5207 34.6747 55.342 38.3556C55.0891 43.5627 58.9409 46.951 64.6074 47.9021M78.3877 29.5556C81.0702 31.5111 82.6081 34.2366 82.5266 37.8667C82.4121 42.9617 78.8042 47.5033 73.7886 47.5033M184.457 44.2222C184.457 46.4661 184.919 48.5583 185.077 50.7687C185.36 54.7159 185.428 58.8088 185.428 62.8M180.232 60.8472C174.487 60.716 176.111 65.3223 175.807 69.5093C175.52 73.4776 175.689 78.9125 180.198 78.688M190.342 79.2141C196.718 78.868 196.031 73.6653 195.744 68.9449C195.481 64.6244 195.735 59.1185 189.312 59.9509M180.232 89.2027C174.487 89.0715 176.111 93.6779 175.807 97.8649C175.52 101.833 175.689 107.268 180.198 107.044M190.342 107.57C196.718 107.224 196.031 102.021 195.744 97.3004C195.481 92.98 195.735 87.474 189.312 88.3065M185.428 77.4667V92.5196M185.428 101.911V118.122M52.8972 116.505C52.7433 120.138 54.0936 123.776 54.2222 127.443C54.6246 138.914 55.102 150.483 54.617 161.933C54.3827 167.464 53.1577 173.464 54.0286 179.01C54.3641 181.146 54.9417 182.944 54.8506 185.095M52.5666 116.063C51.6881 116.063 54.9695 114.995 55.2358 114.977C66.8038 114.217 78.6758 114.913 90.265 114.913C107.299 114.913 124.162 114.682 141.046 117.212C153.036 119.009 164.627 119.511 176.734 119.511H206.787M207.758 118.533C209.684 118.839 209.446 121.519 209.579 122.431C210.433 128.301 210.185 134.215 210.185 140.101C210.185 147.352 209.543 154.59 209.579 161.841C209.6 166.278 211.058 170.493 211.365 174.884C211.496 176.756 211.399 178.644 211.399 180.517C211.399 182.386 212.613 184.092 212.613 186M59.3063 186C58.7129 185.973 61.1557 185.822 61.4164 185.811C70.7476 185.421 80.4628 185.537 89.8709 185.537C111.764 185.537 132.673 184.398 154.32 183.753C170.212 183.279 186.022 183.417 201.982 183.375C204.889 183.368 207.753 183.067 210.671 183.067M41.7379 11.3478C43.245 12.0907 42.191 23.7734 42.191 26.1063C42.191 30.9353 53.1007 29.8124 55.3302 29.8124M155.943 10.37C155.943 15.3012 155.939 20.1961 155.476 25.1143C155.195 28.0933 154.957 28.9478 158.478 28.9478H167.952M50.4758 115.6C50.3273 117.8 35.6058 115.6 33 115.6M33 118.533C33 131.031 34.8408 142.969 35.3463 155.421C35.7278 164.819 35.9126 174.631 35.9126 184.044M37.8544 184.044C37.9749 185.312 47.6803 185.439 48.8026 185.484C49.7624 185.523 54.7966 184.597 55.3302 186M73.3571 121.316C71.8425 121.316 68.1836 119.597 67.4556 121.65C66.7746 123.57 67.3682 124.725 68.5396 126.29C69.6268 127.741 71.1322 128.815 72.3334 130.171C73.6699 131.68 74.9819 133.246 76.609 134.416M68.2083 127.321C67.0481 128.619 65.5811 130.573 65.4985 132.445C65.4623 133.265 65.0536 135.861 66.191 136.069C68.8227 136.551 71.1453 136.482 73.056 134.295C74.113 133.085 74.525 131.554 75.525 130.323C76.0073 129.729 76.5525 129.072 76.88 128.412M84.4677 120.771C84.4677 122.626 85.3865 124.367 85.5065 126.259C85.7143 129.538 85.632 132.799 86.0936 136.054M86.3646 129.777C86.3646 129.142 86.9928 128.606 87.569 128.412C89.8269 127.654 90.8432 129.135 91.2274 131.263C91.4629 132.567 92.0794 134.679 90.5499 135.356C89.1237 135.988 87.7602 135.797 86.3646 135.235M94.2233 128.412C94.2233 130.536 93.7838 133.038 94.2384 135.099C94.5915 136.699 99.3721 135.101 99.3721 133.052M99.1011 129.231C99.1011 133.468 99.9141 137.669 99.9141 141.937C99.9141 143.773 99.6068 143.423 97.7311 143.423C96.5709 143.423 93.4028 143.961 92.5974 143.15M107.502 121.862C107.85 122.608 107.773 123.301 107.773 124.121C107.773 126.842 107.852 129.575 107.758 132.294C107.724 133.262 107.466 134.205 107.502 135.174C107.537 136.141 109.539 135.992 110.212 136.054M108.315 127.866H112.38M114.547 121.316C114.996 121.881 114.818 122.833 114.818 123.5V135.624M114.818 135.624V136.478C114.818 136.193 114.818 135.908 114.818 135.624ZM114.818 135.624C114.821 134.623 114.838 133.628 114.954 132.627C115.185 130.627 116.758 124.435 119.756 127.866C121.926 130.35 121.371 133.896 120.78 136.873M124.032 129.231C124.032 126.829 127.701 126.619 129.045 127.973C130.972 129.913 130.265 133.122 130.265 135.781M128.91 132.506C128.024 132.394 125.952 131.586 125.267 132.567C124.589 133.536 124.449 134.67 124.574 135.842C124.729 137.293 128.54 136.494 129.452 136.327M132.704 121.043C134.675 123.277 133.788 128.035 133.788 130.717C133.788 132.467 133.623 134.309 133.788 136.054C133.9 137.244 136.229 136.873 137.04 136.873M134.33 128.139C135.8 128.139 137.201 128.538 138.666 128.685M145.169 122.135C145.169 127.388 145.711 132.681 145.711 137.964M156.551 130.596C156.647 133.108 157.864 135.491 157.906 138.055C157.908 138.191 157.909 138.423 157.909 138.65M157.909 138.65C157.908 139.063 157.906 139.456 157.906 139.207C157.906 139.021 157.907 138.835 157.909 138.65ZM157.909 138.65C157.924 137.191 158.012 135.765 158.357 134.325C158.637 133.159 160.252 128.174 162.513 129.959C163.736 130.925 164.176 132.458 164.331 134.027M164.331 134.027C164.437 135.102 164.409 136.193 164.409 137.13V137.525C164.409 136.511 164.278 135.248 164.331 134.027ZM164.331 134.027C164.392 132.601 164.703 131.232 165.764 130.383C169.482 127.41 169.016 136.856 169.016 138.783M173.894 134.143C175.243 134.143 180.398 135.167 180.398 133.81C180.398 131.94 180.021 130.516 177.808 130.338C174.885 130.102 173.352 131.64 173.352 134.689C173.352 136.012 173.073 137.441 174.346 138.237C176.134 139.355 178.387 139.056 180.398 139.056M184.828 132.059C184.358 132 185.285 130.743 185.47 130.622C186.317 130.069 188.288 129.408 189.13 130.155C190.486 131.356 190.241 133.88 190.241 135.514C190.241 136.269 190.244 137.015 190.17 137.767C190.152 137.948 190.226 138.257 190.058 138.342M188.773 135.016C188.751 134.84 187.163 134.702 186.938 134.759C186.317 134.915 185.507 135.743 185.287 136.33C185.135 136.735 185.1 137.468 185.236 137.88C185.396 138.363 186.037 138.562 186.48 138.67C187.63 138.952 189.074 138.414 189.966 137.695M193.911 130.396C193.911 131.046 194.135 131.657 194.176 132.311C194.249 133.488 194.186 134.688 194.186 135.868C194.186 136.757 194.134 137.667 194.232 138.552C194.293 139.104 194.242 139.486 194.283 138.696C194.389 136.657 194.631 134.606 195.287 132.67C195.456 132.171 195.543 131.693 195.746 131.207C195.908 130.816 196.162 130.693 196.459 130.416C196.876 130.028 197.956 130.38 198.314 130.653C199.217 131.341 199.282 132.347 199.461 133.394C199.797 135.354 199.691 141.348 199.691 139.358M204.278 132.336H204.461M203.911 138.711C203.793 138.723 203.727 138.758 203.727 138.804M60.3175 159.6C60.0642 159.631 60.6166 160.618 60.3175 162.533C60.0185 164.449 60.3175 166.465 60.3175 168.4M60.1846 153.734V154.711M64.2316 159.841C64.0294 159.891 64.1153 160.35 64.1153 160.499C64.1153 161.548 64.1467 162.593 64.1783 163.639M64.1783 163.639C64.1955 164.209 64.2128 164.779 64.2251 165.35C64.2447 166.262 64.2316 167.176 64.2316 168.088C64.2316 168.583 64.1492 167.238 64.1411 167.131C64.0552 165.995 64.0201 164.796 64.1783 163.639ZM64.1783 163.639C64.3423 162.44 64.7142 161.286 65.4525 160.295C66.8422 158.428 68.6652 160.777 69.2962 162.024C69.6062 162.637 69.7303 163.276 69.78 163.929M69.78 163.929C69.8147 164.386 69.813 164.85 69.813 165.318C69.813 166.357 70.0318 169.433 69.7484 168.433C69.3622 167.07 69.5572 165.33 69.7743 163.965C69.7761 163.953 69.7781 163.941 69.78 163.929ZM69.78 163.929C69.9772 162.693 70.4381 160.065 71.9061 159.663C73.8129 159.139 74.4995 162.138 74.5676 163.416C74.6452 164.873 74.6881 166.348 74.6968 167.808C74.6991 168.188 74.8671 169.095 74.5805 169.378M78.6313 160.155C78.6313 161.137 79.5546 162.187 79.8456 163.117C80.2052 164.267 80.2822 165.514 80.2889 166.754M80.2889 166.754C80.2929 167.513 80.2706 168.269 80.2706 168.998V170.217C80.2706 169.075 80.2085 167.903 80.2889 166.754ZM80.2889 166.754C80.3128 166.411 80.3494 166.071 80.4041 165.734C80.6733 164.077 81.2338 162.19 82.353 160.913C82.8885 160.302 84.2622 159.424 85.0123 160.242C85.6089 160.891 85.7181 162.42 85.844 163.271C85.9848 164.223 86.0034 165.203 85.9918 166.182M85.9918 166.182C85.9824 166.974 85.9533 167.766 85.9533 168.542C85.9533 169.001 85.894 170.077 85.8501 168.942C85.8142 168.014 85.8652 167.094 85.9918 166.182ZM85.9918 166.182C86.0862 165.503 86.2227 164.828 86.3965 164.158C86.7181 162.919 87.1782 161.625 87.7868 160.5C88.2503 159.644 88.8028 159.59 89.6932 159.601C90.3688 159.609 91.2688 159.596 91.5207 160.346C92.0037 161.785 92.1422 163.568 92.1764 165.075C92.2076 166.452 92.3375 168.03 91.9639 169.367C91.8955 169.612 91.8546 169.763 91.8546 170.02M97.3631 159.6C97.3631 161.899 97.8682 164.174 97.9652 166.471C98.0598 168.711 98.1628 171.207 97.7336 173.406C97.55 174.347 97.243 175.514 96.4779 175.934C95.4015 176.524 94.2924 176.053 93.1945 175.882M97.078 152.756V151.778M108.299 161C108.054 161 107.978 160.743 107.827 160.552C107.383 159.991 106.846 159.603 106.151 159.603C105.23 159.603 103.85 159.489 103.403 160.594C103.029 161.517 103.003 162.433 103.003 163.422C103.003 164.4 103.327 164.43 104.113 164.759C104.744 165.022 105.483 165.081 106.156 165.081C106.62 165.081 107.263 164.968 107.705 165.147C108.774 165.577 109.49 166.857 109.676 168.005C109.916 169.493 108.271 169.747 107.25 170.081C106.63 170.284 105.848 170.344 105.201 170.344C104.826 170.344 104.405 170.408 104.058 170.236C103.828 170.123 103.538 170.089 103.325 169.95C103.153 169.838 103.093 169.66 102.903 169.592M121.426 162.91C121.391 162.596 120.623 162.539 120.444 162.535C119.304 162.514 118.6 162.655 118.026 163.852C117.677 164.58 116.955 166.833 118.044 167.201C118.913 167.493 119.921 167.418 120.817 167.402C121.428 167.391 121.936 167.314 122.321 166.778M116.746 159.467C117.49 158.817 118.329 158.376 119.352 158.376C120.487 158.376 120.934 158.526 121.472 159.467C121.886 160.192 121.708 161.178 121.708 161.976C121.708 163.003 121.472 164 121.472 165.031C121.472 165.567 121.766 165.998 122.417 166.013C124.004 166.049 125.413 165.593 126.309 164.31C126.967 163.368 126.863 162.222 127.051 161.164C127.226 160.177 127.249 159.107 126.906 158.157C126.473 156.958 126.167 155.74 125.659 154.593C124.989 153.082 123.629 152.532 122.01 151.993C120.304 151.426 118.386 150.848 116.569 150.848C116.129 150.848 115.382 150.713 114.974 150.896C114.018 151.325 113.424 152.472 113.11 153.333C112.4 155.275 112.277 157.194 111.994 159.2C111.796 160.6 111.666 161.926 111.666 163.34C111.666 164.044 111.542 164.825 111.849 165.473C112.263 166.346 112.404 167.13 112.965 167.952C113.471 168.695 114.049 169.76 114.882 170.244C116.36 171.101 118.282 171.25 119.995 171.25C121.287 171.25 122.966 171.497 124.202 171.141C124.984 170.915 125.969 171.031 126.788 171.031M133.001 161.556V170.356M132.03 155.689H133.001M136.242 162.347C136.242 164.212 136.275 166.076 136.167 167.936M136.167 167.936C136.137 168.44 136.098 168.945 136.044 169.448C136.011 169.753 135.957 170.05 135.914 170.353C135.906 170.413 135.969 169.33 135.982 169.222C136.034 168.793 136.096 168.364 136.167 167.936ZM136.167 167.936C136.337 166.904 136.554 165.877 136.786 164.861C136.942 164.173 137.116 163.273 137.583 162.718C138.328 161.835 140.615 162.013 141.009 163.164C141.392 164.282 141.15 165.782 141.139 166.968M141.139 166.968C141.139 166.995 141.139 167.021 141.139 167.048V168.883C141.139 169.207 141.24 170.112 141.052 169.85C140.888 169.62 141.028 168.821 141.028 168.562C141.028 168.015 141.049 167.491 141.139 166.968ZM141.139 166.968C141.178 166.739 141.231 166.511 141.3 166.281C141.623 165.202 142.101 164.242 142.722 163.315C142.99 162.916 143.48 161.556 144.033 161.556C144.778 161.556 145.109 161.737 145.585 162.341C146.637 163.677 146.593 165.111 146.593 166.765C146.593 167.816 146.259 168.794 146.259 169.813M149.968 161.767C149.968 162.604 150.07 163.436 150.07 164.272C150.07 164.283 150.07 164.294 150.07 164.304M150.07 164.304C150.065 165.818 149.739 167.308 149.739 168.835C149.739 169.327 149.523 170.343 149.51 169.198C149.495 167.925 149.501 166.672 149.765 165.417C149.843 165.042 149.942 164.668 150.07 164.304ZM150.07 164.304C150.388 163.397 150.882 162.557 151.679 161.934C152.27 161.472 152.748 161.389 153.518 161.344C154.794 161.269 154.663 163.204 154.663 163.986C154.663 164.914 154.593 165.837 154.53 166.759M154.53 166.759C154.479 167.502 154.434 168.245 154.434 168.99C154.434 169.111 154.202 170.201 154.116 169.652C153.948 168.585 154.177 167.68 154.53 166.759ZM154.53 166.759C154.674 166.382 154.839 166.002 155.006 165.608C155.549 164.326 155.742 162.646 156.609 161.517C156.843 161.212 157.71 160.67 158.092 160.598C159.829 160.272 160.058 163.967 160.134 164.94C160.271 166.69 160.124 168.624 159.816 170.356M165.04 161.556C165.04 163.555 164.924 165.55 164.924 167.549C164.924 168.956 165.015 170.397 164.859 171.798C164.72 173.046 164.399 174.271 164.254 175.519C164.183 176.125 164.022 176.911 163.629 177.417L163.627 177.419C163.259 177.893 162.494 178.878 161.91 179.081C161.161 179.341 160.458 178.867 159.862 178.516C159.054 178.041 158.215 177.695 157.273 177.583M165.04 153.733C164.528 153.733 163.431 154.711 164.562 154.711M173.153 162.67C173.529 162.627 172.909 162.221 172.826 162.156C172.197 161.661 171.616 161.556 170.821 161.556C169.811 161.556 169.459 162.143 169.163 162.948C168.974 163.464 168.672 164.959 169.306 165.319C170.477 165.983 172.152 165.794 173.297 166.563C173.863 166.944 173.777 167.998 173.767 168.55C173.753 169.339 173.247 170.3 172.273 170.352C171.189 170.41 170.295 169.801 169.225 169.801M177.661 171.333H178.632M186.585 162.004C186.585 160.949 186.171 160.578 184.919 160.578C183.141 160.578 182.454 163.541 182.174 164.758C181.852 166.157 181.238 168.288 181.727 169.711C182.009 170.533 182.338 171.586 183.296 171.901C184.778 172.387 186.039 172.538 187.37 171.811M186.891 152.756C187.722 152.97 187.218 159.26 187.218 160.224C187.218 162.429 186.919 164.494 186.736 166.67C186.674 167.403 186.399 168.147 186.399 168.875C186.399 169.701 186.563 170.496 186.563 171.333M191.854 167.796C192.531 167.796 196.009 168.179 196.023 167.507C196.069 165.325 196.681 161.556 193.779 161.556C191.47 161.556 191.42 167.331 191.382 168.721C191.345 170.128 190.824 172.252 192.184 172.987C193.197 173.534 194.883 173.17 196.023 173.17M200.146 161.556C199.778 161.65 200.173 162.35 200.236 162.555C200.769 164.301 200.632 166.23 200.632 168.034C200.632 169.181 200.616 170.33 200.632 171.477C200.639 172.028 200.926 172.45 200.956 172.958C201.003 173.76 201.195 172.888 201.307 172.606C201.829 171.297 202.503 170.045 203.071 168.756C203.796 167.111 204.39 165.408 205.222 163.814C205.401 163.472 205.436 163.221 205.816 163.221" stroke="#4C4F69" stroke-opacity="0.5" stroke-width="3" stroke-linecap="round" stroke-linejoin="round"/>
</g>
<defs>
<filter id="filter0_d_806_137" x="23.5" y="0.5" width="199" height="195" filterUnits="userSpaceOnUse" color-interpolation-filters="sRGB">
<feFlood flood-opacity="0" result="BackgroundImageFix"/>
<feColorMatrix in="SourceAlpha" type="matrix" values="0 0 0 0 0 0 0 0 0 0 0 0 0 0 0 0 0 0 127 0" result="hardAlpha"/>
<feOffset/>
<feGaussianBlur stdDeviation="4"/>
<feColorMatrix type="matrix" values="0 0 0 0 0.298039 0 0 0 0 0.309804 0 0 0 0 0.411765 0 0 0 0.5 0"/>
<feBlend mode="normal" in2="BackgroundImageFix" result="effect1_dropShadow_806_137"/>
<feBlend mode="normal" in="SourceGraphic" in2="effect1_dropShadow_806_137" result="shape"/>
</filter>
</defs>
</svg>
