<svg width="192" height="196" viewBox="0 0 192 196" fill="none" xmlns="http://www.w3.org/2000/svg">
<path d="M62.2927 59.9115C57.8545 59.9115 52.6795 59.0429 48.5159 60.6902C40.0525 64.0387 40.4275 78.4243 40.0418 85.6598C39.2058 101.345 39.8932 117.773 33.8552 132.614C31.5027 138.397 28.1181 143.243 23.0417 146.916M66.0358 57.5755C66.127 55.1171 67.3935 52.9766 68.5573 50.8529C71.4925 45.4964 75.1942 40.5497 80.8784 37.9009C93.2314 32.1446 105.457 41.9923 114.229 49.9445C117.51 52.9189 120.912 56.4088 121.871 60.8979C123.598 68.9853 119.625 77.2003 116.204 84.2582C109.712 97.6538 101.191 112.611 106.742 127.657M64.1643 66.4525C60.5771 66.4525 71.3401 66.3494 74.9258 66.4525C83.4445 66.6976 89.3757 74.0275 91.458 81.9482C93.8917 91.2061 92.3592 101.379 91.614 110.733C90.7367 121.745 101.188 125.596 109.55 129.525M93.6415 115.042C92.8196 116.068 92.5657 117.479 91.7179 118.598C89.73 121.221 87.6957 123.759 85.3754 126.099C78.508 133.026 71.3721 139.989 63.2285 145.41M39.366 130.46C39.0594 130.46 41.8707 131.191 42.3293 131.368C51.7587 135.017 61.679 136.273 71.6505 137.468M45.4486 90.28C48.7742 90.28 52.7641 86.2907 55.2743 84.6735M69.779 84.2063C74.1907 84.2063 79.6418 86.658 83.3478 88.8783M53.8706 99.1569H53.4027M72.5863 96.8209H73.5221M62.2927 103.829C62.2927 106.507 64.8399 109.265 67.9074 109.436C69.3969 109.518 67.7358 110.121 67.1276 110.474C65.3269 111.519 63.364 112.205 61.3569 112.706M60.4211 123.452C60.545 122.463 64.5547 122.985 65.1001 122.985M51.5312 139.804C47.6475 139.804 46.0508 144.284 44.4088 147.383C39.6598 156.345 37.9623 168.07 37.9623 178.115M79.6047 132.329C80.7893 132.329 81.8863 132.102 82.88 132.874C89.5199 138.031 95.2388 145.781 97.8785 153.742C101.541 164.788 100.641 177.194 98.3204 188.394M82.88 147.279C80.0945 147.279 81.3201 146.929 83.6598 145.982C87.1548 144.567 91.4767 144.26 95.1231 143.801C101.871 142.952 108.626 142.433 115.424 142.244C122.196 142.055 128.978 142.14 135.752 142.14M71.1827 166.902C74.6822 166.902 78.1381 167.277 81.6063 167.785C89.367 168.92 96.9082 170.967 104.611 172.379C112.584 173.84 120.663 174.279 128.733 174.845M119.843 122.517C119.843 132.121 116.868 142.16 114.905 151.51C112.727 161.88 109.788 172.236 108.614 182.787M106.742 184.189C111.402 184.189 115.735 186.015 120.155 187.355C132.184 191.002 143.378 192.806 155.871 193.066M121.247 114.108C124.754 114.108 127.992 115.467 131.255 116.677C140.273 120.023 149.02 123.854 158.211 126.722M161.486 130.46C160.854 130.539 160.429 131.692 160.29 132.225C159.559 135.031 159.585 138.448 159.328 141.258C158.818 146.833 158.338 152.417 157.639 157.973C156.125 170.001 154.102 181.97 152.596 194M159.614 126.722C160.006 122.023 164.723 116.346 167.049 112.55C170.621 106.72 174.534 101.105 178.33 95.4193M182.541 94.4848C182.541 117.179 184.538 140.793 180.202 163.164M182.073 158.96C181.215 159.01 180.861 159.208 180.409 159.946C178.461 163.13 176.366 166.234 174.223 169.29C168.898 176.882 163.201 184.095 157.275 191.197M136.22 129.058C135.565 129.303 135.555 130.806 135.466 131.342C134.396 137.754 134.302 144.278 133.36 150.706C132.131 159.095 129.759 167.355 126.862 175.312M138.559 123.452C140.04 123.586 141.059 124.692 142.25 125.476C145.612 127.688 149.528 129.433 152.388 132.329C156.532 136.524 155.944 144.198 154.623 149.408C152.712 156.952 149.574 164.207 147.735 171.756C147.265 173.685 148.281 177.751 146.981 179.049M122.183 174.844C129.937 174.844 137.647 177.654 145.11 179.517M143.238 129.525C142.476 129.811 142.761 131.568 142.744 132.121L142.74 132.252C142.577 137.552 142.412 142.912 141.626 148.162C140.433 156.141 138.562 164.084 137.155 172.041M150.724 133.263C150.724 140.345 149.151 147.368 147.657 154.261C146.043 161.71 144.375 170.172 141.366 177.181M134.816 140.271C134.816 141.674 134.81 142.098 136.142 142.763C140.537 144.957 144.931 146.09 149.789 146.345M136.22 151.484C136.868 154.72 143.809 156.813 146.045 158.025M132.477 160.828C132.477 161.558 132.571 162.166 133.152 162.697C136.627 165.871 140.891 167.14 145.11 168.771M135.752 133.263C136.714 133.263 137.19 133.473 138.039 134.016C141.617 136.303 145.221 138.537 148.853 140.738M110.018 35.1496C110.093 33.9397 111.089 33.4162 112.097 32.8655C114.52 31.5418 123.254 26.5707 126.29 28.8164C128.113 30.1648 124.483 37.5707 123.821 39.0949C123.257 40.3919 122.457 41.6911 122.027 43.0402C121.49 44.7255 124.097 44.3565 124.99 44.4938M134.348 57.1083C133.77 57.6513 133.129 58.0754 132.477 58.5099M124.99 15.5268C130.563 5.91531 140.451 1.59515 151.114 2.02974C155.254 2.19845 159.565 3.24357 160.602 7.86983C161.598 12.3131 159.403 17.4599 157.067 21.1333C154.236 25.5844 150.293 29.1461 146.825 33.0731C143.865 36.4259 148.682 37.075 151.582 37.6932C155.879 38.6091 162.105 38.298 165.905 40.6262C168.024 41.925 167.568 45.1913 167.568 47.2969M170.376 61.7804C169.971 62.4668 169.57 62.7044 168.972 63.182M63.9093 53.6818C62.0002 53.5697 60.2081 51.8821 58.6793 50.9509C55.9401 49.2824 53.8168 46.7273 50.8584 45.3932C45.4595 42.9586 39.202 41.6083 33.2732 41.6083C31.4212 41.6083 29.1936 41.2813 27.4195 41.8718C24.2674 42.9209 22.0616 45.6233 19.8384 47.9086C13.0492 54.8872 12.8264 64.0953 11.2258 73.0858C10.0575 79.6477 9.75912 86.2941 9.16256 92.921C8.45075 100.828 8.20293 109.15 8.20293 117.092C8.20293 122.857 7.31357 129.606 9.25852 135.155C12.0361 143.079 21.6561 146.18 29.3627 146.821" stroke="#CDD6F4" stroke-width="4" stroke-linecap="round"/>
<path d="M177 120.616C177 116.76 175.939 114.797 175.939 111C175.409 112.025 174.187 113.235 173.876 114.223C173.32 115.992 172.201 117.968 171.43 119.647C170.351 121.997 169.093 124.266 167.983 126.616C167.821 126.959 166.984 128.586 167.246 129.01C167.423 129.295 167.551 129.505 167.393 129.889C166.743 131.476 166.75 133.817 166.657 135.494C166.462 139.002 164.9 142.366 164.8 145.857C164.704 149.223 163.474 152.473 163.474 155.857C163.474 158.255 163.034 160.669 162.944 163.098C162.905 164.136 162.413 165.131 162.413 166.22C162.413 167.058 162.311 168.261 162.015 169.053C161.59 170.191 161.087 171.465 161.087 172.704C161.087 172.998 161.048 173.517 161 174C161.457 172.7 162.68 171.58 163.341 170.522C163.926 169.588 164.818 168.934 165.331 167.947C165.621 167.387 166.141 167.035 166.524 166.553C166.973 165.988 167.135 165.239 167.585 164.674C169.293 162.528 171.613 160.906 173.316 158.765C174.6 157.153 175.409 156.336 175.409 154.281V149.645C175.409 145.601 175.558 141.677 175.939 137.661C176.239 134.505 177 131.326 177 128.161V120.616Z" fill="#F38BA8"/>
</svg>
