<svg width="192" height="192" viewBox="0 0 192 192" fill="none" xmlns="http://www.w3.org/2000/svg">
<path d="M63.8107 59.4986C59.5755 59.4986 54.637 58.6661 50.6637 60.2448C42.5872 63.4538 42.9451 77.24 42.5771 84.174C41.7792 99.2059 42.4352 114.949 36.6733 129.172C34.4283 134.713 31.1984 139.358 26.3541 142.878M67.3828 57.2599C67.4698 54.9039 68.6784 52.8526 69.7889 50.8174C72.59 45.684 76.1224 40.9435 81.5468 38.405C93.3351 32.8886 105.002 42.3259 113.373 49.9468C116.504 52.7973 119.75 56.1418 120.665 60.4438C122.314 68.1942 118.522 76.067 115.258 82.8308C109.062 95.6682 100.931 110.002 106.229 124.421M65.5968 65.767C62.1736 65.767 72.4446 65.6682 75.8663 65.767C83.9956 66.0018 89.6557 73.0264 91.6428 80.6171C93.9653 89.4892 92.5027 99.238 91.7916 108.203C90.9545 118.756 100.928 122.446 108.908 126.212M93.7264 112.332C92.9421 113.315 92.6999 114.668 91.8908 115.74C89.9937 118.253 88.0524 120.686 85.8382 122.928C79.2848 129.566 72.4751 136.24 64.7038 141.435M41.9321 127.107C41.6395 127.107 44.3223 127.808 44.76 127.978C53.7583 131.474 63.2252 132.678 72.7408 133.823M47.7366 88.6017C50.9103 88.6017 54.7177 84.7786 57.1132 83.2288M70.9548 82.781C75.1649 82.781 80.3668 85.1306 83.9034 87.2584M55.7737 97.1087H55.3272M73.6338 94.87H74.5268M63.8107 101.586C63.8107 104.152 66.2415 106.796 69.1688 106.959C70.5902 107.038 69.005 107.616 68.4246 107.954C66.7062 108.956 64.8331 109.613 62.9177 110.093M62.0247 120.391C62.1429 119.443 65.9693 119.943 66.4898 119.943M53.5412 136.062C49.835 136.062 48.3114 140.356 46.7444 143.325C42.2125 151.914 40.5926 163.151 40.5926 172.777M80.3314 128.898C81.4618 128.898 82.5087 128.681 83.4569 129.421C89.7933 134.363 95.2507 141.79 97.7698 149.42C101.265 160.005 100.406 171.894 98.1915 182.627M83.4569 143.226C80.7988 143.226 81.9683 142.89 84.201 141.982C87.5362 140.626 91.6607 140.333 95.1404 139.893C101.579 139.079 108.026 138.582 114.514 138.4C120.976 138.22 127.448 138.301 133.912 138.301M72.2943 162.031C75.6339 162.031 78.9318 162.391 82.2414 162.877C89.6473 163.965 96.8438 165.927 104.194 167.28C111.803 168.68 119.513 169.101 127.214 169.643M118.731 119.496C118.731 128.7 115.891 138.32 114.018 147.281C111.94 157.218 109.135 167.143 108.015 177.254M106.229 178.598C110.675 178.598 114.81 180.348 119.028 181.632C130.507 185.127 141.19 186.856 153.111 187.105M120.07 111.436C123.417 111.436 126.507 112.739 129.62 113.899C138.226 117.106 146.573 120.777 155.344 123.525M158.469 127.107C157.867 127.183 157.461 128.288 157.328 128.799C156.63 131.488 156.656 134.762 156.41 137.455C155.924 142.799 155.466 148.149 154.798 153.474C153.353 165.001 151.423 176.471 149.986 188M156.683 123.525C157.058 119.022 161.558 113.581 163.778 109.944C167.187 104.356 170.921 98.9756 174.543 93.5269M178.562 92.6313C178.562 114.38 180.468 137.01 176.329 158.449M178.115 154.42C177.297 154.468 176.959 154.658 176.528 155.365C174.668 158.416 172.67 161.391 170.624 164.32C165.542 171.595 160.106 178.508 154.451 185.314M134.358 125.764C133.734 125.999 133.724 127.439 133.639 127.953C132.618 134.098 132.529 140.35 131.63 146.509C130.456 154.549 128.193 162.466 125.428 170.09M136.591 120.391C138.004 120.52 138.976 121.58 140.113 122.331C143.321 124.451 147.058 126.123 149.787 128.898C153.742 132.919 153.18 140.273 151.921 145.266C150.097 152.495 147.102 159.448 145.347 166.683C144.899 168.532 145.868 172.428 144.628 173.672M120.963 169.643C128.363 169.643 135.72 172.335 142.842 174.12M141.056 126.212C140.328 126.485 140.601 128.169 140.584 128.699L140.581 128.825C140.425 133.904 140.267 139.041 139.518 144.072C138.379 151.719 136.593 159.331 135.251 166.956M148.2 129.794C148.2 136.581 146.698 143.311 145.273 149.917C143.732 157.056 142.14 165.164 139.27 171.881M133.019 136.51C133.019 137.855 133.013 138.26 134.284 138.898C138.478 141.001 142.671 142.086 147.307 142.33M134.358 147.256C134.977 150.356 141.6 152.362 143.735 153.524M130.786 156.21C130.786 156.91 130.876 157.493 131.431 158.001C134.747 161.043 138.816 162.259 142.842 163.822M133.912 129.794C134.83 129.794 135.284 129.995 136.095 130.515C139.509 132.707 142.948 134.848 146.414 136.958M109.354 35.7684C109.426 34.6089 110.377 34.1072 111.338 33.5794C113.651 32.3109 121.985 27.5469 124.882 29.699C126.622 30.9913 123.158 38.0886 122.526 39.5493C121.988 40.7923 121.225 42.0373 120.814 43.3302C120.302 44.9452 122.789 44.5916 123.642 44.7232M132.572 56.8121C132.021 57.3325 131.409 57.7389 130.786 58.1554M123.642 16.9632C128.96 7.75217 138.396 3.61202 148.572 4.0285C152.522 4.19018 156.636 5.19176 157.626 9.62525C158.577 13.8834 156.482 18.8158 154.252 22.3361C151.551 26.6017 147.788 30.0151 144.479 33.7783C141.654 36.9915 146.251 37.6135 149.018 38.206C153.119 39.0837 159.06 38.7856 162.686 41.0168C164.709 42.2614 164.274 45.3917 164.274 47.4095M166.953 61.2895C166.567 61.9473 166.184 62.175 165.613 62.6327M65.3534 53.5284C63.5316 53.421 61.8214 51.8037 60.3626 50.9113C57.7485 49.3123 55.7223 46.8637 52.8991 45.5852C47.7471 43.252 41.7757 41.9579 36.1179 41.9579C34.3505 41.9579 32.2247 41.6445 30.5317 42.2104C27.5238 43.2159 25.4188 45.8057 23.2972 47.9957C16.8184 54.6836 16.6058 63.508 15.0783 72.1239C13.9634 78.4124 13.6787 84.7818 13.1094 91.1327C12.4301 98.7105 12.1937 106.685 12.1937 114.297C12.1937 119.821 11.3449 126.289 13.201 131.607C15.8516 139.201 25.0318 142.172 32.3861 142.787" stroke="#CDD6F4" stroke-width="4" stroke-linecap="round"/>
<path d="M173 117.311C173 113.577 172.005 111.677 172.005 108C171.508 108.993 170.363 110.164 170.072 111.121C169.55 112.834 168.501 114.747 167.779 116.372C166.767 118.648 165.587 120.845 164.546 123.12C164.395 123.452 163.61 125.028 163.856 125.438C164.021 125.715 164.141 125.917 163.994 126.289C163.385 127.826 163.39 130.092 163.303 131.717C163.12 135.113 161.656 138.37 161.563 141.751C161.472 145.009 160.319 148.157 160.319 151.433C160.319 153.755 159.907 156.092 159.822 158.445C159.786 159.449 159.325 160.413 159.325 161.467C159.325 162.278 159.229 163.443 158.952 164.21C158.553 165.312 158.082 166.546 158.082 167.745C158.082 168.03 158.045 168.532 158 169C158.428 167.742 159.575 166.657 160.195 165.633C160.743 164.728 161.58 164.095 162.06 163.139C162.332 162.597 162.819 162.256 163.179 161.789C163.6 161.242 163.752 160.517 164.173 159.97C165.774 157.892 167.95 156.322 169.547 154.249C170.75 152.688 171.508 151.897 171.508 149.907V145.418C171.508 141.503 171.648 137.703 172.005 133.814C172.286 130.759 173 127.681 173 124.617V117.311Z" fill="#F38BA8"/>
</svg>
