<svg width="256" height="192" viewBox="0 0 256 192" fill="none" xmlns="http://www.w3.org/2000/svg">
<g clip-path="url(#clip0_899_76)">
<g filter="url(#filter0_d_899_76)">
<path d="M39.6529 57.0327C39.737 56.1277 39.7941 55.9424 39.8316 56.2626M39.8316 56.2626C39.8573 56.4819 39.8738 56.938 39.8835 57.5623M39.8316 56.2626C39.9046 56.0669 40.0475 55.9186 40.3002 55.8525C41.1888 55.6199 42.0557 55.6396 42.9611 55.6396L49.1279 55.6396C51.3843 55.6396 53.7712 55.399 56.0138 55.717C58.8096 56.1135 61.4851 56.6844 64.3291 56.6844C66.1952 56.6844 68.0529 56.7268 69.9115 56.549C70.5491 56.488 74.0346 56.0473 74.4243 56.7811C74.5506 57.019 74.4606 57.5511 74.5321 57.8259C74.7357 58.6083 74.731 59.3505 74.8468 60.1476C74.9676 60.98 75.0359 61.9041 75.0895 62.7401C75.1691 63.982 75.7987 65.1908 75.9794 66.4355C76.2352 68.1968 76.2998 69.9246 76.0963 71.698C76.0184 72.3766 75.9239 73.343 75.539 73.9229C75.3532 74.2028 75.0867 74.3974 74.9277 74.6968C74.7494 75.0325 73.1388 74.7936 72.8241 74.7936C71.76 74.7936 70.6857 74.8723 69.6688 74.6291C69.2597 74.5313 68.884 74.4453 68.4552 74.4453C67.6555 74.4453 66.9698 74.0971 66.1899 74.0971C65.31 74.0971 64.4154 74.1483 63.538 74.0874C62.0822 73.9863 60.7132 73.7488 59.232 73.7488L48.4806 73.7488C47.2095 73.7488 45.8508 73.8944 44.5972 73.6618C43.3102 73.423 41.973 73.7648 40.6957 73.4393C39.5537 73.1482 39.8147 71.7315 39.8147 70.7887C39.8147 67.7349 39.931 60.6247 39.8835 57.5623M39.8316 56.2626C39.7018 56.6111 39.7938 57.1098 39.8835 57.5623M39.8835 57.5623C39.9199 57.746 39.9559 57.9221 39.9766 58.0774M41.6117 59.833C42.826 59.0492 44.136 58.5006 45.4313 57.8798C46.7852 57.231 48.0687 56.1871 49.4225 55.6074C50.4679 55.1598 48.1363 57.5671 47.3005 58.3587C45.5325 60.0334 43.4634 61.4678 41.9007 63.3637C41.4859 63.8669 41.6969 63.8294 42.1535 63.6454C43.274 63.1938 44.3845 62.7116 45.5036 62.2557C48.3918 61.0789 51.2956 59.9582 54.2174 58.8752C54.6606 58.7109 55.5311 57.9746 55.5719 58.462C55.5795 58.5531 55.474 58.6161 55.4093 58.678C55.0068 59.0635 54.3717 59.4984 53.9426 59.7922L53.9104 59.8142C51.089 61.7463 48.1811 63.4787 45.5036 65.6361C44.4911 66.4519 43.4328 67.2908 42.5508 68.2654C42.5171 68.3026 41.7537 69.0924 42.3431 69.0354C43.2387 68.9487 44.2353 68.3821 45.025 68.0024C46.4788 67.3034 47.8931 66.5172 49.3413 65.8051C53.1738 63.9207 57.1084 62.3218 61.071 60.7626C61.4339 60.6198 62.8011 59.8789 63.3195 60.0208C63.9839 60.2026 62.1988 60.854 61.5948 61.1946C57.5521 63.4738 53.4978 65.7229 49.7386 68.4907C48.8127 69.1724 47.9013 69.8749 46.9754 70.5566C46.6862 70.7695 46.3388 70.9815 46.9574 70.6599C53.752 67.127 60.5907 63.7208 67.5274 60.4997C67.5483 60.49 70.8997 58.86 70.0196 59.5137C66.657 62.0114 62.8569 63.8533 59.4547 66.3122C57.9572 67.3945 56.4969 68.545 55.0662 69.7208C54.829 69.9158 53.4057 70.8783 53.2783 71.3641C53.1481 71.8604 54.1389 70.8566 54.5695 70.6035C55.7263 69.9236 56.9296 69.3302 58.1363 68.7536C61.5913 67.1029 65.1186 65.6255 68.7012 64.3027C68.8499 64.2478 72.6575 62.772 72.4215 63.5515C72.2672 64.0613 71.5894 64.554 71.2228 64.8204L71.2115 64.8286C69.814 65.8445 68.2643 66.6157 66.7508 67.4202C64.7693 68.4736 62.2518 69.4455 60.5924 71.0448C60.0073 71.6088 60.9914 71.3735 61.1613 71.3266C62.1982 71.0399 63.1855 70.5447 64.1502 70.0683C66.9937 68.664 69.7559 67.0904 72.5841 65.6549C72.8697 65.5099 73.1546 65.3613 73.4509 65.2417C73.8163 65.0943 73.9007 65.1 73.6677 65.4201C73.2033 66.0582 72.5502 66.5869 71.9701 67.101C70.4071 68.4858 68.8311 69.8661 67.2384 71.2139C66.8301 71.5594 66.0071 71.9835 67.0398 71.7585C69.2538 71.2761 71.4241 70.5591 73.6677 70.2185C74.9047 70.0307 73.8737 70.9027 73.4871 71.3829C72.5936 72.4924 71.802 73.6734 71.0309 74.876" stroke="#89B4FA" stroke-opacity="0.5" stroke-width="3" stroke-linecap="round"/>
</g>
<g filter="url(#filter1_d_899_76)">
<path d="M40.7433 77.0003C41.3757 77.4088 42.4434 77.2895 43.148 77.3455C44.5211 77.4546 45.897 77.5217 47.2704 77.626C48.8377 77.7449 50.4163 77.8733 51.9845 77.6907C53.6175 77.5005 55.2251 77.08 56.8704 77.0111C60.1896 76.8721 63.5301 77.0003 66.852 77.0003L74.4957 77.0003C74.6832 77.0003 75.1535 76.907 75.24 77.1513C75.5731 78.0926 75.6485 79.6666 75.7457 80.6894C76.1018 84.4325 75.7521 88.2289 76.1179 91.9508C76.152 92.2979 76.3658 95.2301 76.032 95.4457C74.6834 96.3168 72.6556 96.4114 71.1366 96.1253C68.4411 95.6174 65.6811 95.8821 62.9586 95.834C61.4591 95.8076 59.838 95.748 58.3495 95.5428C56.9717 95.3529 55.6666 95.5226 54.3129 95.1005C52.5812 94.5605 50.6781 94.4749 48.8927 94.4749C47.1665 94.4749 45.4746 94.2807 43.7492 94.2807C43.0126 94.2807 40.928 94.6954 40.5333 93.8924C39.627 92.0483 39.0256 90.7354 39.0256 88.5422C39.0256 86.9732 38.8801 85.3259 39.2832 83.8068C39.5649 82.7456 39.8562 81.7662 40.0944 80.6894C40.3885 79.3594 40.1862 77.9711 41.6021 77.9711M41.3533 81.2884C42.6003 80.3218 44.8497 80.1346 46.2886 79.7834C47.448 79.5004 48.5906 79.1601 49.7453 78.8588C51.4786 78.4065 49.4432 79.4697 49.0155 79.7188C45.7616 81.6148 42.2058 83.9379 39.721 87.0291C39.6731 87.0887 39.6174 87.2987 39.6826 87.2656C39.8223 87.1948 40.7161 86.5799 40.7196 86.5776C42.9273 85.0945 45.1753 83.6831 47.412 82.2559C49.5812 80.8719 51.7745 79.5454 53.9797 78.2353C54.9117 77.6816 56.1905 76.5489 57.2443 76.268C57.81 76.1172 56.7268 77.4666 56.3033 77.9128C54.0322 80.306 51.4222 82.3531 48.9771 84.5135C46.878 86.3683 44.7393 88.1951 42.7936 90.2542C42.2904 90.7867 41.6689 91.5112 41.1997 92.1033C40.9379 92.4336 40.114 93.1783 40.5083 93.1783C41.1171 93.1783 42.5618 91.6553 42.976 91.34C45.8976 89.1157 48.8579 86.9501 51.8193 84.793L51.8861 84.7443C54.4501 82.8767 57.0214 81.0037 59.6928 79.3318C60.7669 78.6596 62.1607 77.5884 63.4183 77.3538C63.872 77.2691 63.0296 78.3197 62.6885 78.6653C60.7417 80.6382 58.3411 82.1266 56.2073 83.8255C54.0422 85.5493 51.8958 87.3037 49.7453 89.0502C49.6797 89.1035 46.5671 91.8969 46.5959 91.9098C47.0552 92.1155 49.0053 90.6336 49.3228 90.4477C52.4186 88.6353 55.4167 86.6425 58.4061 84.621C60.6237 83.1215 62.8697 81.6889 65.1274 80.2671C66.2961 79.5311 67.4653 78.6082 68.6992 78.0095C69.179 77.7768 68.0284 78.9207 67.6142 79.2781C64.8361 81.6757 61.81 83.7523 58.8478 85.8466C56.5253 87.4886 54.1672 89.0709 51.9153 90.8347C51.8168 90.9119 49.2238 93.0876 49.9661 92.9095C51.3676 92.5733 52.7825 91.693 54.0469 90.9852C57.3386 89.1425 60.4542 86.9339 63.5335 84.6855C65.575 83.1948 67.6028 81.6873 69.6786 80.2564C70.4287 79.7393 71.7403 78.4514 72.6936 78.3643C73.1083 78.3264 72.3656 79.2524 72.0599 79.5683C70.0709 81.624 67.8105 83.3757 65.5499 85.0295C63.4823 86.5421 61.3369 87.9106 59.2415 89.3727C58.2129 90.0903 56.3014 91.0566 55.6792 92.3398C55.3976 92.9205 56.7731 91.8368 57.2923 91.5228C59.8423 89.9802 62.3821 88.4196 64.9065 86.8248C67.9331 84.9128 70.9017 82.9163 73.8554 80.8691C76.1409 79.285 70.0654 85.1887 67.8543 86.9001C67.0459 87.5258 57.1908 94.2012 57.7724 95.1779C58.231 95.9481 66.8232 89.568 67.5854 89.0717C69.2106 88.0134 70.8423 86.9709 72.4439 85.8681C72.7543 85.6544 73.9452 84.5049 74.3835 84.5565C74.9794 84.6267 73.738 85.7018 73.3081 86.1691C71.7201 87.8955 69.7783 89.1645 68.0271 90.6627C66.9282 91.6029 65.9039 92.6417 65.041 93.8556C64.7858 94.2144 64.3193 94.8533 65.0506 94.4254C68.4406 92.4413 72.1026 91.0981 75.4397 88.9964C75.5015 88.9575 76.6315 88.1498 76.5151 88.2439C75.743 88.8683 75.0127 89.5547 74.2395 90.179C73.859 90.4861 67.0661 95.8098 67.5278 96.2529C67.6929 96.4114 68.9646 95.4197 69.0065 95.3929C70.6924 94.3127 72.4046 93.2768 74.1627 92.3505C75.0862 91.8639 76.0446 91.3683 77.0432 91.1035C77.7334 90.9205 77.4753 92.0238 77.4753 92.5118" stroke="#CDD6F4" stroke-opacity="0.5" stroke-width="3" stroke-linecap="round"/>
</g>
<g filter="url(#filter2_d_899_76)">
<path d="M41.7617 98.369C43.9631 98.0352 46.1538 98.0753 48.3696 98.1347C50.6909 98.1969 52.9871 97.9458 55.3031 97.8365C57.7625 97.7204 60.2348 97.7939 62.6962 97.7939C65.1719 97.7939 67.589 97.702 70.0702 97.7939C71.6462 97.8523 73.1712 98.1773 74.7628 98.1773C76.1825 98.1773 76.2457 101.178 76.4483 102.479C76.8422 105.01 76.9271 107.397 76.9271 109.965C76.9271 111.028 76.5526 111.979 76.2759 112.979C76.0563 113.772 76.3153 114.439 75.6343 115.045C74.4453 116.102 73.1973 115.788 71.6887 116.099C69.3167 116.587 66.5796 116.195 64.171 116.195C60.7461 116.195 57.3434 115.62 53.9145 115.62C51.0805 115.62 48.2525 115.304 45.42 115.662C43.7142 115.879 42.0099 116.387 40.2965 116.387C39.11 116.387 40.0368 115.009 40.0368 113.971C40.0368 112.193 40.2965 109.83 40.3805 107.76C40.6304 107.244 40.1585 105.928 40.2965 105.344C40.442 104.73 40.178 103.558 40.2103 102.929C40.2558 102.044 40.2103 101.868 40.2103 100.957C40.2103 100.343 40.3865 99.8898 40.5551 99.3273M42.0286 101.829C41.4747 101.672 44.5948 99.9023 44.7976 99.8076C45.9846 99.2535 47.1972 98.7788 48.3992 98.2698C48.4685 98.2405 50.2712 97.3497 49.4836 98.0501C46.9864 100.271 44.1512 101.849 41.7478 104.256C41.1891 104.816 40.1357 105.624 39.7631 106.409C39.3589 107.261 41.3899 105.814 42.1641 105.41C45.9343 103.438 49.6698 101.378 53.4338 99.3902C53.876 99.1566 55.1061 98.4302 54.8279 98.8849C53.7499 100.648 51.5017 102.024 50.0354 103.312C49.2783 103.976 40.2856 111.842 40.557 112.088C41.0689 112.553 43.6846 110.643 44.023 110.441C46.882 108.726 49.6394 106.805 52.3978 104.893L52.5456 104.791C54.6589 103.327 56.7706 101.863 58.8362 100.313C59.8056 99.5853 60.799 98.6516 61.8569 98.083C65.4584 96.1476 55.3101 103.263 51.8459 105.498C49.4308 107.056 47.0095 108.63 44.6814 110.353C43.9856 110.867 43.1598 111.512 42.5127 112.132C42.2246 112.408 41.4781 113.204 41.8543 113.176C43.1844 113.075 44.9282 111.758 46.0756 111.133C49.8706 109.065 53.5806 106.799 57.3258 104.619C57.796 104.345 65.8694 99.3062 66.1556 99.8955C66.6287 100.869 59.0369 105.668 58.8362 105.805C55.0393 108.396 50.7806 110.741 47.3729 113.999C46.9686 114.386 48.3657 113.572 48.8252 113.274C52.1523 111.124 55.4322 108.877 58.7491 106.706C61.9123 104.635 65.0679 102.547 68.2372 100.489C68.6716 100.206 71.2478 98.6543 69.6992 100.467C68.2749 102.133 66.4027 103.365 64.6453 104.509C61.7433 106.398 58.7675 108.152 55.8445 110.001C53.6925 111.362 47.3162 115.527 49.6094 114.505C50.7191 114.01 51.7881 113.156 52.8238 112.506C56.0289 110.493 59.2656 108.557 62.5927 106.816C65.0017 105.555 67.4302 104.312 69.8928 103.191C70.8229 102.767 72.4096 101.753 73.4751 101.807C73.5922 101.813 71.6098 103.489 71.5968 103.498C69.0327 105.256 66.2427 106.544 63.5706 108.068C61.4168 109.296 59.2651 110.565 57.2 111.978C56.4309 112.505 54.7281 113.391 54.2857 114.395C53.9543 115.147 55.7647 114.125 56.4448 113.791C59.218 112.427 61.8631 110.712 64.5485 109.144C66.8061 107.827 69.0544 106.496 71.287 105.124C71.9691 104.705 72.8093 104.184 73.5138 103.784C73.9304 103.548 74.8917 102.702 74.8208 103.224C74.7206 103.963 72.7903 105.18 72.3617 105.519C70.2249 107.214 67.9791 108.719 65.8845 110.484C64.6486 111.526 63.4358 112.624 62.2635 113.758C62.203 113.816 61.057 114.766 61.8569 114.593C65.7507 113.749 69.5688 111.083 72.9232 108.826C73.6679 108.325 74.6247 107.414 75.4889 107.156C75.7386 107.082 74.5772 109.09 74.5013 109.188C72.7491 111.465 70.5465 113.1 68.334 114.724C66.9158 115.766 71.4338 113.2 72.9716 112.407C74.3322 111.705 74.1162 111.483 75.4889 110.812C76.0694 110.529 72.8197 108.8 72.5745 109.46C72.3751 109.998 74.1948 111.591 73.8518 111.957L74.0657 112.979C72.9145 114.209 75.1841 113.642 74.0657 114.911C72.5728 116.605 74.8129 115.093 75.4889 114.68" stroke="#F38BA8" stroke-opacity="0.5" stroke-width="3" stroke-linecap="round"/>
</g>
<g filter="url(#filter3_d_899_76)">
<path d="M177.675 114.021C177.675 114.611 180.152 114.667 180.76 114.797C181.247 114.9 183.176 115.674 183.579 115.188C183.915 114.783 183.903 113.733 184.009 113.238C184.295 111.903 184.423 110.637 184.423 109.272C184.423 104.352 184.423 99.4312 184.423 94.5106C184.423 88.986 184.001 83.5107 184.001 77.9981C184.001 73.2541 183.86 68.5026 183.86 63.7535C183.86 62.8312 183.579 61.9357 183.579 61.0213C183.579 60.5719 183.386 60.2564 183.314 59.8277C183.191 59.0959 183.282 58.335 183.15 57.6061C183.001 56.7875 183.103 55.7822 182.673 55.053C182.541 54.8286 182.698 54.5422 182.564 54.3368C182.378 54.0527 181.56 53.9985 181.221 53.9787C180.345 53.9274 179.562 53.6367 179.003 54.3633C178.706 54.7487 178.389 55.1356 178.105 55.5371C177.498 56.3964 177.755 57.6211 177.597 58.5611C177.133 61.3205 177.394 64.2036 177.394 66.9897C177.394 69.8369 177.394 72.684 177.394 75.5312C177.394 76.9537 177.675 78.3341 177.675 79.7621C177.675 81.0663 177.675 82.3705 177.675 83.6747C177.675 86.4219 177.599 89.1703 177.847 91.9111C177.955 93.1044 178.108 94.2877 178.222 95.4722C178.338 96.6789 178.218 97.8906 178.347 99.0996C178.51 100.624 178.303 102.167 178.456 103.695C178.607 105.19 178.745 106.677 178.808 108.178C178.892 110.185 178.94 112.183 178.94 114.193C178.94 114.781 178.94 113.671 178.94 113.543C178.94 112.83 178.727 112.666 179.503 113.092C179.815 113.264 181.569 114.555 181.603 114.16C181.677 113.314 181.401 112.481 181.049 111.7C180.296 110.027 179.329 108.45 178.831 106.699C178.817 106.649 178.49 105.794 178.776 106.122C179.386 106.823 180.308 107.351 181.026 107.973C181.12 108.054 182.214 109.153 182.142 108.576C181.983 107.294 180.974 106.142 180.276 105.042C180.086 104.742 177.163 99.2503 177.738 99.1527C178.076 99.0953 178.812 99.5672 179.073 99.6965C179.562 99.9385 180.173 100.351 180.76 100.393C182.446 100.512 179.715 95.7751 179.534 95.4258C179.241 94.8598 176.266 88.7616 178.128 88.9335C178.926 89.0071 179.715 89.478 180.33 89.8818C180.423 89.9426 181.303 90.6791 181.439 90.2797C181.605 89.7948 181.4 89.1441 181.229 88.6881C180.743 87.3962 179.995 86.1838 179.456 84.9082C179.082 84.024 178.714 83.0462 178.581 82.1096C178.46 81.2556 179.368 81.4476 180.003 81.6985C181.076 82.1231 182.044 82.4343 181.861 81.0088C181.696 79.7214 180.918 78.5836 180.377 77.3946C179.795 76.1128 179.42 74.8112 179.37 73.4356C179.312 71.8318 180.582 73.1011 181.611 73.0775C182.97 73.0463 181.211 69.406 181.049 69.0455C180.829 68.5543 178.9 63.9845 180.377 63.9061C180.901 63.8783 182.466 64.6844 182.455 64.0453C182.419 62.0671 180.874 60.2943 180.088 58.4881C179.983 58.2456 179.554 57.5605 179.643 57.2812C179.684 57.1533 179.92 57.4042 180.057 57.4668C180.463 57.6517 180.865 57.8608 181.283 58.0239C182.235 58.3949 181.289 56.6775 181.19 56.4456C180.908 55.7887 180.664 55.1354 180.487 54.4561" stroke="#74C7EC" stroke-opacity="0.5" stroke-width="3" stroke-linecap="round"/>
</g>
<g filter="url(#filter4_d_899_76)">
<path d="M185.764 115.413C185.837 115.912 188.518 115.957 189.028 115.894C189.913 115.785 190.999 115.433 191.542 114.84C191.808 114.55 191.731 114.304 191.767 113.95C191.839 113.249 192.14 112.576 192.241 111.878C192.555 109.722 192.358 107.473 192.358 105.303C192.358 103.369 192.546 101.365 192.133 99.4558C191.711 97.5033 191.998 95.4882 191.542 93.5522C191.12 91.7612 191.251 89.8239 191.151 87.995C191.068 86.4924 191.009 85.0069 191.009 83.4984C191.009 82.193 190.56 80.9359 190.56 79.624L190.56 75.3324C190.56 72.5184 190.191 69.5205 190.635 66.735C190.843 65.4258 190.709 64.0461 190.709 62.7262C190.709 62.1117 191.009 61.7646 191.009 61.1213L191.009 54.7087C191.009 54.2217 191.214 53.331 190.693 52.9835C190.038 52.5467 189.358 52.1074 188.462 52.319C186.142 52.8661 186.214 54.9899 186.214 56.6459C186.214 58.4966 186.166 60.3536 186.247 62.2031C186.405 65.8263 186.794 69.4346 186.955 73.0558C187.104 76.4087 186.963 79.7893 186.963 83.1449L186.963 100.651C186.963 105.495 186.663 110.31 186.663 115.159M187.862 111.213C188.39 112.761 189.738 113.863 191.001 115.024C191.083 115.1 192.122 116.202 192.291 116.092C192.649 115.86 191.514 114.08 191.409 113.9C190.128 111.705 188.606 109.565 187.929 107.155C187.794 106.677 188.881 107.391 188.961 107.438C190.009 108.052 191.021 108.734 191.992 109.432C192.202 109.583 192.856 110.266 193.191 110.266C193.275 110.266 193.193 110.118 193.157 110.054C192.829 109.462 192.334 108.913 191.892 108.385C190.473 106.693 188.924 105.056 187.812 103.196C187.365 102.448 186.526 101.172 186.696 100.269C186.758 99.9436 190.179 102.028 190.526 102.249C190.637 102.318 191.695 103.082 191.734 102.623C191.806 101.763 191.262 100.838 190.793 100.113C189.58 98.2413 187.705 96.3202 187.446 94.1178C187.378 93.543 188.433 94.5104 188.561 94.5986C189.32 95.12 190.036 95.6625 190.751 96.2247C191.03 96.4442 191.176 96.4363 191.117 96.0621C190.945 94.9667 190.108 93.9893 189.477 93.0573C188.689 91.8922 188.089 90.7397 187.729 89.4303C187.656 89.1665 187.17 88.0568 187.962 88.2637C188.269 88.344 190.766 89.7024 190.843 89.4091C191.307 87.6331 188.926 85.4708 188.195 83.9368C187.885 83.2859 187.648 82.6132 187.504 81.9218C187.367 81.2628 187.632 81.408 188.166 81.7011L188.195 81.7167C188.471 81.868 190.605 83.4389 190.676 83.159C191.008 81.8563 189.22 80.3855 188.553 79.3765C188.354 79.0753 186.139 75.1336 186.996 74.9718C187.868 74.8073 188.875 75.7087 189.744 75.8061C191.2 75.9694 189.104 73.051 188.978 72.8507C188.674 72.3706 187.139 69.8881 187.745 69.3086C188.016 69.0503 189.89 70.0538 190.243 70.2206C190.981 70.5687 189.897 68.1861 189.81 68.043C189.042 66.7763 187.98 65.2045 188.012 63.7302C188.037 62.5601 192.366 65.6153 190.293 62.6485C189.455 61.4492 188.364 60.3452 187.929 58.9649C187.698 58.2344 190.523 59.5274 190.793 59.6719C191.895 60.2634 190.692 58.9656 190.468 58.6821C189.87 57.9265 189.364 57.1298 188.944 56.2924C188.849 56.1031 188.376 55.4102 188.495 55.1824C188.661 54.8646 190.602 55.9236 190.943 55.6985C191.24 55.502 190.218 54.2875 190.11 54.1501C189.674 53.5952 189.397 53.1775 189.211 52.5452" stroke="#F5C2E7" stroke-opacity="0.5" stroke-width="3" stroke-linecap="round"/>
</g>
<g filter="url(#filter5_d_899_76)">
<path d="M194.864 114.653C194.904 114.828 195.261 115.939 195.277 115.173C195.293 114.404 195.193 113.661 195.147 112.897C195.022 110.826 195.139 108.719 195.139 106.645C195.139 104.065 195.001 101.492 195.001 98.9128C195.001 97.2787 194.726 95.7258 194.726 94.0998C194.726 90.0784 194.75 86.0337 194.58 82.0167C194.475 79.5263 194.036 77.0871 194.036 74.5948L194.036 57.3517C194.036 56.8011 194.016 56.2469 194.036 55.6968C194.09 54.2889 195.713 53.3122 197.008 53.0229C197.72 52.8639 198.835 53.066 199.337 53.5143C199.67 53.8121 200.003 53.911 200.164 54.3671C200.347 54.8862 200.284 55.571 200.348 56.1159C200.742 59.5097 200.24 63.0432 200.24 66.4502L200.24 106.429C200.24 108.395 199.689 110.341 199.689 112.311C199.689 112.945 199.631 114.461 199.457 115.036C199.234 115.77 198.974 115.304 198.172 115.693C197.523 116.009 196.702 116.372 196.135 115.795C195.425 115.071 195.691 113.735 195.691 112.832M195.829 112.181C196.604 112.861 197.617 113.273 198.571 113.684C199.368 114.028 199.406 113.676 199.046 112.933C198.599 112.013 197.779 111.327 197.161 110.519C196.503 109.658 197.665 110.024 198.264 110.158C198.854 110.289 199.937 110.838 200.547 110.649C201.314 110.411 199.122 108.209 199.107 108.192C198.089 107.001 193.413 102.078 197.713 102.223C198.055 102.234 200.047 102.721 200.072 102.02C200.108 101.001 198.886 99.9686 198.264 99.2742C197.934 98.9051 195.023 95.4686 196.012 94.967C196.462 94.7392 198.302 95.646 198.417 95.4729C198.914 94.7309 197.326 93.2126 196.962 92.6978C196.739 92.3824 195.829 90.8531 196.732 90.7466C197.009 90.7139 199.37 91.0709 199.383 91.0501C199.84 90.2653 197.74 88.4018 197.376 87.827C196.881 87.0465 195.683 85.6408 197.376 85.8324C197.547 85.8517 199.448 86.3955 199.352 85.948C199.182 85.1627 198.248 84.3939 197.774 83.78C197.017 82.7998 196.393 81.7833 196.265 80.5568C196.148 79.4338 197.045 79.4964 198.012 79.5379C199.061 79.5829 198.961 79.2834 198.333 78.3888C197.363 77.0056 196.234 75.6947 195.79 74.0528C195.503 72.9901 196.224 72.9805 197.192 73.0988C197.961 73.1929 198.739 73.5366 198.326 72.4701C197.792 71.0926 196.585 70.0908 196.127 68.6327C195.825 67.6696 195.947 67.5509 196.939 67.7655C197.253 67.8334 198.955 68.5548 198.578 67.6354C198.262 66.864 197.588 66.2074 197.169 65.4818C196.699 64.668 196.365 63.8079 196.196 62.8946C196.081 62.2697 195.937 61.5453 195.997 60.9073C196.068 60.1513 197.128 60.5731 197.575 60.7122C198.376 60.9616 199.106 61.3006 199.796 61.7528C199.961 61.861 200.376 62.1851 200.34 61.9985C200.277 61.6735 199.76 61.3589 199.528 61.1675C198.998 60.7302 198.523 60.2714 198.134 59.7149C197.954 59.4573 197.171 58.6321 197.805 58.5947C198.117 58.5763 199.658 58.8702 199.742 58.5514C200.011 57.5383 196.78 55.5612 198.172 54.685" stroke="#CDD6F4" stroke-opacity="0.5" stroke-width="3" stroke-linecap="round"/>
</g>
<g filter="url(#filter6_d_899_76)">
<path d="M204.497 109.177C204.497 109.656 204.39 110.214 204.714 110.634C205.083 111.113 205.6 111.501 206.062 111.913C206.522 112.324 206.883 112.915 207.394 113.271C208.701 114.179 205.953 110.67 205.047 109.46C204.501 108.732 204.126 107.933 203.773 107.127C203.495 106.493 203.879 106.634 204.48 106.858C205.46 107.223 206.407 107.692 207.245 108.258C207.374 108.346 208.123 109.134 208.094 108.682C208.04 107.855 207.362 107.18 206.795 106.554C205.897 105.564 204.914 104.605 204.381 103.422C204.366 103.39 204.017 102.633 204.297 102.871C205.081 103.536 206.249 103.911 207.161 104.44C207.233 104.482 208.5 105.258 208.51 105.239C208.799 104.687 207.124 103.278 206.812 102.927C205.936 101.943 205.014 100.974 204.264 99.9153C204.21 99.8387 203.434 98.6221 203.606 98.6639C204.429 98.8635 205.303 99.3841 206.012 99.7739C207.036 100.336 207.984 101.288 209.043 101.754C209.752 102.065 208.369 100.512 207.886 99.9719C206.653 98.5946 205.279 97.2938 204.164 95.8429C204.113 95.777 203.236 94.4604 203.465 94.5279C204.711 94.896 205.953 95.8663 207.028 96.4934C207.113 96.5427 208.51 97.4216 208.51 97.2782C208.51 96.2677 207.272 95.1307 206.67 94.344C205.818 93.2304 204.924 92.1528 204.031 91.0635C203.853 90.8463 202.725 89.6578 203.764 90.0595C205.112 90.5805 206.314 91.3422 207.436 92.1523C207.843 92.4458 208.797 93.4669 208.66 93.029C208.422 92.2699 207.52 91.5912 206.962 91.0069C206.07 90.0743 205.386 89.1191 205.013 87.9526C204.983 87.8592 204.788 86.8475 204.847 86.885L204.913 86.9269C205.467 87.2802 206.033 87.6402 206.529 88.0516C206.747 88.233 207.339 89.0273 207.694 89.0273C207.869 89.0273 205.986 86.6883 205.829 86.5032C205.302 85.8795 204.902 85.226 204.536 84.5282M204.536 84.5282C204.534 84.5243 204.532 84.5204 204.53 84.5165C204.256 83.9927 204.255 84.2409 204.536 84.5282ZM204.536 84.5282C204.565 84.5571 204.596 84.5865 204.63 84.6155C205.231 85.1259 205.979 85.5467 206.645 85.9942C207.048 86.2647 207.697 86.694 207.378 85.9164C207.018 85.04 206.246 84.2997 205.763 83.4701C205.185 82.4778 204.819 81.3948 204.414 80.3451C204.261 79.9496 204.489 80.2311 204.705 80.3875C205.769 81.1579 206.62 82.0347 207.553 82.9116C208.806 84.0903 205.814 80.0979 205.013 78.6624C204.667 78.042 204.164 77.2381 204.089 76.5414C204.078 76.4422 205.498 77.4128 205.679 77.5453C205.735 77.5863 206.826 78.4439 206.862 78.3937C207.127 78.0255 206.518 77.1698 206.345 76.8807C205.795 75.96 205.353 74.9986 204.797 74.0809C204.31 73.2775 203.763 72.4801 203.515 71.5922C203.485 71.4875 203.304 70.9407 203.64 71.0973C204.637 71.563 205.507 72.3437 206.362 72.9709C208.086 74.2352 205.484 69.6469 205.43 69.5419C204.664 68.0573 203.883 66.5274 203.764 64.8897C203.756 64.7797 203.627 63.7935 203.831 64.0271C204.262 64.5218 205.06 65.8292 205.779 66.0068C206.208 66.1128 205.93 65.2306 205.796 64.8685C205.345 63.6478 204.606 62.513 203.981 61.3546C203.815 61.0467 201.974 57.9319 202.549 57.5862C203.241 57.1699 205.45 58.919 206.295 58.9578C207.097 58.9946 206.372 57.4304 206.279 57.2398C205.65 55.9504 204.853 54.7173 204.197 53.436M202.998 113.122C202.998 113.771 202.951 114.85 203.54 115.35C204.392 116.074 205.807 115.922 206.895 115.922C207.72 115.922 208.095 115.575 208.31 114.897C209.298 111.783 208.375 108.63 208.876 105.487C209.132 103.883 208.993 102.211 208.993 100.594L208.993 84.8064C208.993 82.8383 208.565 80.9648 208.427 79.0018C208.237 76.2956 208.475 73.5664 208.169 70.864C207.794 67.5535 207.794 64.2774 207.794 60.9461L207.794 56.25C207.794 55.5622 207.884 54.8388 207.528 54.1996C207.243 53.6896 206.286 53.5854 205.704 53.5067C204.621 53.3604 204.068 53.8063 203.281 54.3693C202.507 54.9237 202.849 56.2709 202.849 57.0701L202.849 65.7099C202.849 71.4846 202.699 77.2983 202.699 83.0883C202.699 88.8904 202.998 94.6685 202.998 100.474L202.998 113.122Z" stroke="#F5C2E7" stroke-opacity="0.5" stroke-width="3" stroke-linecap="round"/>
</g>
<g filter="url(#filter7_d_899_76)">
<path d="M211.691 112.232C211.754 112.346 211.84 112.843 211.84 112.557L211.84 109.177M211.84 109.177L211.84 105.868C211.84 101.718 211.541 97.5504 211.541 93.4037C211.541 91.744 211.655 90.0544 211.424 88.4051C211.158 86.5034 210.641 84.6303 210.641 82.7065L210.641 72.9073C210.641 67.0574 210.791 61.1712 210.791 55.345C210.791 54.2791 210.912 53.4628 212.365 53.1886C213.052 53.0588 213.952 53.1594 214.655 53.1815C215.3 53.2018 215.891 54.1545 216.186 54.5531C217.344 56.114 216.786 58.6952 216.786 60.4638L216.786 68.446C216.786 78.0483 216.636 87.6491 216.636 97.257L216.636 105.812C216.636 107.641 217.047 109.929 216.453 111.694C216.102 112.737 216.723 114.904 214.763 114.904C213.76 114.904 212.222 114.608 211.84 113.73C211.255 112.385 211.403 110.541 211.84 109.177ZM212.29 109.432C213.004 110.58 214.019 111.516 214.963 112.529C215.144 112.723 215.418 113.179 215.72 113.271C215.982 113.35 215.889 112.222 215.887 112.147C215.826 110.469 214.639 109.071 213.889 107.565C213.545 106.877 216.225 108.18 216.52 108.336C216.54 108.347 217.395 108.924 217.335 108.598C217.168 107.675 216.219 106.761 215.62 106.024C214.439 104.57 212.768 102.65 213.056 100.757C213.165 100.039 214.971 100.464 215.437 100.651C215.506 100.678 216.159 101.024 216.178 100.933C216.271 100.498 216.176 99.9493 215.987 99.5477C215.211 97.9018 213.669 96.5309 213.364 94.7188C213.207 93.7835 214.528 94.2143 215.187 94.3865C216.345 94.689 215.923 93.7365 215.52 93.0431C214.856 91.8986 213.904 90.8916 213.256 89.7343C212.965 89.2146 212.246 88.0857 212.49 87.4648C212.791 86.6983 215.742 88.2467 216.27 88.3485C216.543 88.4013 215.934 87.1105 215.92 87.0901C215.304 86.1785 214.507 85.3598 213.889 84.4458C213.693 84.1571 212.012 81.5753 213.089 81.5753C214.036 81.5753 214.808 82.3106 215.662 82.3106C216.638 82.3106 214.405 79.3159 214.272 79.1432C214.076 78.8907 212.273 76.316 213.081 76.1101C213.91 75.8987 215.108 77.1879 215.52 77.0221C216.352 76.6876 214.179 73.6834 214.005 73.3456C213.634 72.6261 212.602 70.8575 214.272 71.3377C214.588 71.4286 216.363 72.3697 215.937 71.4508C215.267 70.0083 213.73 68.9953 213.214 67.4633C212.828 66.3153 213.48 66.5026 214.513 66.9118C215.543 67.3198 214.646 65.8092 214.471 65.5402C213.734 64.4077 213.039 63.4351 213.039 62.1111C213.039 61.5814 214.143 61.8701 214.505 61.9909C214.637 62.0351 215.146 62.3585 215.112 62.0475C215.037 61.346 214.372 60.6905 213.905 60.1527C212.953 59.0558 211.123 57.1803 211.724 55.649C212.043 54.8362 214.327 56.3189 214.671 56.5469C215.19 56.8911 215.746 57.1947 215.221 56.3631C214.694 55.5292 213.521 54.9903 212.74 54.3269" stroke="#74C7EC" stroke-opacity="0.5" stroke-width="3" stroke-linecap="round"/>
</g>
<g filter="url(#filter8_d_899_76)">
<path d="M148.462 56.9946C147.052 56.6167 149.416 56.7847 149.657 56.7764C160.167 56.4151 170.615 54.9861 181.105 54.2812C188.956 53.7536 196.835 53.6098 204.669 52.8161C208.328 52.4453 211.949 51.8314 215.613 51.5466" stroke="#CDD6F4" stroke-opacity="0.5" stroke-width="3" stroke-linecap="round"/>
</g>
<g filter="url(#filter9_d_899_76)">
<path d="M102.831 57.1898C104.122 56.8438 101.962 57.0131 101.742 57.0079C92.1504 56.7824 82.6235 55.6146 73.0531 55.0858C65.8899 54.69 58.6982 54.6332 51.5533 54.0025C48.2158 53.7079 44.9157 53.1984 41.5727 52.9797" stroke="#CDD6F4" stroke-opacity="0.5" stroke-width="3" stroke-linecap="round"/>
</g>
<g filter="url(#filter10_d_899_76)">
<path d="M132.16 39.4448C126.675 39.7876 121.104 44.2014 119.174 49.2851C117.836 52.8125 119.252 57.3128 123.733 56.9788C128.55 56.6198 132.082 51.6683 134.838 48.2437M128.36 41.262C127.885 39.6776 124.474 39.8006 123.33 39.7486C120.667 39.6275 117.561 39.4475 114.819 40.149M114.819 40.149C113.161 40.5732 111.636 41.32 110.422 42.5973C107.158 46.0317 105.666 51.9006 107.172 56.4405C109.087 62.2113 116.61 64.7518 122.084 64.9422C129.139 65.1876 139.971 62.3036 143.85 55.7283C147.247 49.9706 142.283 44.3533 137.841 41.1284C130.489 35.7907 121.029 34.7715 114.819 40.149ZM114.819 40.149C113.207 41.5454 111.814 43.3731 110.733 45.6686M115.541 50.4759C115.541 54.8892 115.14 59.2803 115.14 63.6959M122.93 58.8663C122.715 60.889 122.351 62.8597 122.351 64.8977M131.164 57.1081V66.0995M114.739 37.2559C113.87 29.6776 114.568 -20.0432 115.541 -27.5M130.363 41.262C130.461 31.775 130.363 -18.0076 130.363 -27.5" stroke="#CDD6F4" stroke-opacity="0.5" stroke-width="3" stroke-linecap="round"/>
</g>
<g filter="url(#filter11_d_899_76)">
<path d="M118.077 69.7522C117.315 69.1589 115.36 72.8879 115.082 73.3347C113.591 75.7332 111.931 77.7853 110.208 80.0006C109.15 81.361 108.376 82.9272 107.242 84.2291C106.678 84.876 105.983 85.374 105.392 85.991C104.304 87.1261 103.784 88.5694 103.131 89.97C102.186 91.9937 100.938 93.5547 99.7391 95.3878C98.8859 96.6926 98.2434 98.0828 97.3311 99.3667C95.6031 101.799 95.1289 104.836 93.499 107.281M108.04 87.0027C107.507 88.3956 106.883 89.7318 106.164 91.0359C105.833 91.6362 105.857 92.5041 105.71 93.1752C105.592 93.7098 105.411 94.2275 105.305 94.7648C105.195 95.3267 105.174 95.9049 105.051 96.4635C104.837 97.4355 104.335 98.3352 104.024 99.275C103.81 99.9242 103.689 100.616 103.479 101.273C103.146 102.32 102.862 103.367 102.562 104.426C102.321 105.278 102.235 106.147 101.99 106.996C101.623 108.265 101.226 109.439 101.045 110.757C100.947 111.471 100.927 112.163 100.927 112.883C100.927 113.577 100.944 114.273 100.841 114.963C100.779 115.377 100.624 115.768 100.564 116.185C100.512 116.54 100.536 116.898 100.477 117.252C100.357 117.972 100.333 118.656 100.255 119.378C100.25 119.416 100.205 119.968 100.173 119.977C100.1 119.997 99.6422 118.977 99.5825 118.887C99.2627 118.403 98.8295 118.006 98.5742 117.479C98.4227 117.166 98.3199 116.838 98.1926 116.516C97.8991 115.774 97.5332 115.096 97.1662 114.39C96.5484 113.204 96.0316 112.027 95.1132 111.025C94.1662 109.992 93.551 108.716 92.8377 107.528C92.6607 107.233 92.6376 106.883 92.7333 106.56C92.8312 106.23 93.8595 107.881 93.9687 108.041C94.039 108.144 94.7846 109.39 94.8952 109.095C95.0729 108.621 95.2063 108.112 95.3676 107.623C95.7032 106.606 95.7638 105.444 95.8672 104.385C95.9182 103.861 96.2476 103.191 96.4304 102.695C96.9436 101.302 97.1064 99.7981 97.6204 98.4029C98.0518 97.2319 98.8222 96.3262 99.3735 95.2236C99.7996 94.3716 100.555 93.6816 101.072 92.8709C101.771 91.7754 102.867 91.1596 103.82 90.3183C104.518 89.7022 105.081 89.0984 105.632 88.3471C105.907 87.972 105.996 87.5539 105.996 88.2653C105.996 89.2659 106.042 90.2502 105.85 91.2358C105.789 91.5493 105.087 95.4204 104.406 95.16C103.99 95.0011 104.195 93.9488 103.902 93.8837C103.725 93.8444 103.068 96.7322 102.976 97.1374L102.971 97.1584C102.919 97.384 102.572 99.1492 102.194 98.2939C101.945 97.7295 101.962 97.085 101.744 96.5044C101.526 95.9209 101.499 95.8855 101.499 96.5271C101.499 97.9872 101.717 99.6711 101.299 101.092L101.293 101.112C101.126 101.681 100.826 102.703 100.173 102.036C99.2775 101.122 99.21 99.9484 99.21 98.7481V98.7663C99.21 99.6654 99.22 100.561 99.3281 101.455C99.5067 102.932 99.7853 104.468 99.5779 105.961C99.567 106.039 99.5175 106.609 99.4144 106.265C99.391 106.187 99.3716 106.108 99.3555 106.027M99.3555 106.027C99.2867 105.684 99.2786 105.321 99.2825 104.963M99.3555 106.027C99.3371 105.672 99.3113 105.317 99.2825 104.963M99.3555 106.027C99.3606 106.126 99.3651 106.225 99.369 106.324C99.3711 106.376 99.3467 106.751 99.2961 107.205M99.2825 104.963C99.2849 104.742 99.2918 104.523 99.2918 104.312C99.2918 103.318 99.249 102.347 99.0965 101.364C99.0529 101.083 99.0465 100.876 99.0465 101.292C99.0465 102.526 99.183 103.742 99.2825 104.963ZM99.2961 107.205C99.2046 108.025 99.0275 109.104 98.7649 109.022C98.0781 108.806 97.804 107.312 97.5931 106.742C97.5228 106.552 97.1602 106.156 97.1662 105.988C97.1803 105.591 97.6247 105.381 97.9338 105.239C98.4761 104.988 99.1865 106.825 99.2782 107.142C99.2843 107.163 99.2902 107.184 99.2961 107.205ZM99.2961 107.205C99.5959 108.302 99.4854 109.577 99.5325 110.707C99.5479 111.076 99.5371 111.446 99.5371 111.815C99.5371 112.466 99.1751 113.711 98.6014 112.574C98.2988 111.974 98.02 111.479 97.8838 110.811C97.7731 110.269 97.619 109.729 97.475 109.195C97.3578 108.759 97.1444 108.482 96.8392 108.177" stroke="#CDD6F4" stroke-opacity="0.5" stroke-width="3" stroke-linecap="round"/>
</g>
<g filter="url(#filter12_d_899_76)">
<path d="M99.2918 120.849C99.6746 124.677 99.4553 128.609 99.4553 132.458C99.4553 133.861 99.6473 135.425 99.419 136.809C99.1946 138.17 99.2899 139.573 99.2282 140.952C99.1691 142.272 98.8456 143.576 98.8058 144.889C98.7405 147.044 98.7195 149.194 98.7195 151.353C98.7195 152.478 97.9243 153.488 97.3751 154.423C96.8558 155.307 96.3099 156.009 95.6583 156.785C95.2465 157.275 94.7576 157.87 94.4274 158.42C94.3535 158.543 94.1413 159.176 94.1413 159.047C94.1413 158.221 94.223 157.402 94.223 156.576C94.223 154.944 94.2841 153.366 94.4501 151.743C94.5631 150.638 94.5429 149.534 94.6409 148.432C94.7436 147.277 94.9177 146.151 94.9543 144.98C94.9807 144.135 94.9588 143.287 94.9588 142.441C94.9588 140.903 95.0406 139.375 95.0406 137.836C95.0406 134.735 95.0406 131.635 95.0406 128.534C95.0406 125.479 95.1733 122.385 94.9633 119.341C94.8627 117.882 94.2875 116.501 93.9414 115.085C93.7432 114.274 93.5752 113.399 93.2419 112.633C93.139 112.396 93.1303 111.662 93.0149 111.892C92.8837 112.155 93.3145 112.969 93.4236 113.219C93.5807 113.578 93.7303 113.913 93.8324 114.291C93.9198 114.613 94.1591 114.915 94.2775 115.235C94.5414 115.948 94.8107 116.658 95.1223 117.352C95.4059 117.983 95.6702 118.572 96.0579 119.15C96.5512 119.886 97.2378 120.527 97.6612 121.303C97.8256 121.605 98.2712 121.653 98.5151 121.876C98.6753 122.022 98.8583 122.181 98.992 122.352C98.9999 122.363 98.3416 122.029 98.229 121.944C98.0879 121.837 96.7041 120.673 96.6529 121.063C96.553 121.822 96.9191 122.741 97.1208 123.456C97.3194 124.161 97.4976 124.904 97.6204 125.627C97.6939 126.06 97.746 126.508 97.802 126.944C97.8683 127.46 97.7404 127.005 97.6385 126.79C97.4122 126.312 97.0422 125.917 96.7483 125.482C96.7422 125.473 96.3377 124.913 96.3214 124.973C96.262 125.191 96.5349 125.37 96.6348 125.573C96.8241 125.956 96.957 126.343 97.0753 126.754C97.3965 127.867 97.7188 128.983 97.9292 130.124C97.9738 130.365 98.4672 132.046 97.8429 131.945C97.4171 131.876 97.2001 131.505 96.8573 131.296C96.6779 131.186 96.7574 131.93 96.7574 131.995C96.7574 132.851 96.8231 133.658 97.0844 134.479C97.3066 135.178 97.4652 135.822 97.4886 136.56C97.5109 137.26 97.7165 138.02 96.8755 138.14C96.1121 138.249 96.2459 138.454 96.2669 139.235C96.2963 140.331 96.5857 141.403 96.6756 142.496C96.7407 143.286 96.7574 144.075 96.7574 144.867C96.7574 145.463 96.7864 145.904 96.5121 146.438C96.3466 146.761 95.8979 147.034 95.7945 147.356C95.6906 147.679 96.2386 147.973 96.3486 148.237C97.0841 150.002 96.9321 152.01 95.7763 153.551" stroke="#74C7EC" stroke-opacity="0.5" stroke-width="3" stroke-linecap="round"/>
</g>
<g filter="url(#filter13_d_899_76)">
<path d="M101.172 122.566C101.172 124.216 101.172 125.866 101.172 127.517C101.172 128.379 101.009 129.216 101.009 130.083C101.009 130.946 101.009 131.809 101.009 132.672C101.009 134.729 101.009 136.787 101.009 138.844C101.009 141.012 101.096 143.185 100.827 145.339C100.71 146.272 101.109 146.184 101.109 147.137C101.109 147.831 101.028 148.533 101.028 149.235C101.028 149.435 101.028 149.635 101.028 149.835C101.028 149.965 100.897 150.225 101.028 150.225C101.166 150.225 101.739 149.626 101.85 149.526C102.608 148.843 102.443 149.291 103.189 148.591C103.697 148.114 103.384 147.975 103.902 147.5C103.297 147.138 104.629 146.471 104.914 146.011C105.436 145.17 105.404 144.426 105.404 143.445C105.404 142.835 105.336 142.256 105.259 141.651C105.164 140.904 105.3 140.051 105.109 139.33C104.997 138.908 104.876 138.53 104.814 138.09C104.671 137.074 105.068 136.006 104.814 135C104.408 133.391 105.342 131.608 105.342 129.96C105.342 128.662 105.26 127.361 105.26 126.072C105.26 124.583 104.896 123.159 104.647 121.712C104.5 120.86 104.442 119.951 104.442 119.087C104.442 118.296 104.279 117.52 104.279 116.716C104.279 114.172 104.279 111.629 104.279 109.086C104.279 108.727 104.314 108.27 104.179 107.932C103.948 107.354 103.415 109.348 103.37 109.494C102.939 110.906 102.658 112.347 102.498 113.818C102.389 114.828 102.31 115.708 102.008 116.68C101.488 118.35 100.977 120.053 100.782 121.785C100.719 122.336 100.763 122.91 100.763 123.465C100.763 123.704 100.763 123.944 100.763 124.183C100.763 124.296 100.677 125.07 100.872 124.76C101.288 124.098 101.867 123.052 101.908 122.239C101.923 121.942 101.581 121.83 101.581 121.503C101.581 121.233 101.46 120.618 101.681 120.413C101.902 120.208 102.67 120.072 102.971 120.131C103.926 120.319 103.707 121.98 103.707 122.711C103.707 124.649 103.562 126.522 103.252 128.425C102.954 130.257 103.134 132.222 103.134 134.075C103.134 135.562 103.052 137.042 103.052 138.526C103.052 140.176 103.052 141.827 103.052 143.477C103.052 144.011 103.052 144.546 103.052 145.08C103.052 145.338 102.988 145.679 103.093 145.911C103.203 146.153 103.279 146.511 103.298 146.774C103.31 146.941 103.414 146.462 103.461 146.302C103.587 145.879 103.776 145.482 103.902 145.062C104.137 144.28 104.499 143.495 104.524 142.659C104.542 142.083 104.612 141.512 104.769 140.961" stroke="#F38BA8" stroke-opacity="0.5" stroke-width="3" stroke-linecap="round"/>
</g>
<g filter="url(#filter14_d_899_76)">
<path d="M99.21 108.586C99.3746 108.812 99.2164 109.775 98.824 109.544C98.1116 109.125 98.2802 107.835 98.7831 107.332C99.7547 106.361 100.004 109.835 99.21 109.24" stroke="#F9E2AF" stroke-opacity="0.5" stroke-width="3" stroke-linecap="round"/>
</g>
<g filter="url(#filter15_d_899_76)">
<path d="M106.248 106.809V119.514C106.248 121.372 106.311 123.212 106.628 125.045C106.704 125.483 106.805 125.872 106.972 126.283C107.075 126.535 107.096 126.812 107.166 127.074C107.277 127.491 107.409 127.899 107.51 128.318C107.675 129.006 107.73 129.7 107.848 130.396C107.99 131.238 107.992 132.15 108.231 132.968C108.386 133.499 108.367 134.013 108.367 134.562V137.177C108.367 137.934 108.422 138.699 108.422 139.447C108.422 139.88 108.585 140.289 108.585 140.703C108.585 141.193 108.538 141.668 108.693 142.135M108.611 142C108.629 141.748 108.796 141.529 108.857 141.288C108.993 140.749 109.413 140.319 109.653 139.861C109.919 139.353 110.261 138.777 110.38 138.189C110.564 137.274 110.53 136.366 110.53 135.407V134.435M110.53 134.435V133.013M110.53 134.435C110.704 134.153 110.856 133.848 110.956 133.525C111.113 133.018 110.821 133.015 110.53 133.013M110.53 134.435C110.339 134.743 110.122 135.023 109.917 135.269C109.534 135.728 109.169 136.138 109.044 136.83C108.918 137.525 108.85 138.06 108.85 138.777M110.53 133.013V130.366C110.53 128.861 110.544 127.356 110.593 125.853C110.619 125.044 110.724 124.173 110.643 123.36C110.4 120.939 110.08 118.508 109.78 116.106C109.678 115.294 109.75 114.414 109.75 113.59V106.387C109.75 105.343 109.836 104.226 109.69 103.201C109.486 101.767 109.328 100.297 109.224 98.8437C109.175 98.1638 109.21 97.4606 109.21 96.7777C109.21 96.2619 109.32 95.8966 109.377 95.4095C109.443 94.84 109.51 94.2509 109.51 93.6741C109.51 93.2194 109.47 92.7258 109.537 92.2784C109.681 91.3086 109.657 90.2489 109.63 89.2575C109.609 88.4923 109.263 89.6574 109.224 89.8543C109.023 90.8687 108.743 91.8372 108.581 92.8661C108.353 94.3101 108.16 95.7793 108.041 97.2598C107.907 98.9168 106.989 99.52 106.558 101.094C106.475 101.396 106.413 101.715 106.365 102.031C106.315 102.356 106.174 102.627 106.125 102.949C106.043 103.482 106.158 105.148 106.092 105.684C105.953 106.809 106.426 107.812 106.242 108.921C106.173 109.336 106.308 109.725 106.242 110.142C106.227 110.232 106.217 110.329 106.205 110.428M110.53 133.013C110.487 133.013 110.444 133.013 110.403 133.011C109.619 132.975 108.832 132.949 108.057 133.139C108.032 133.145 107.608 133.337 107.711 133.158C107.801 133 107.794 132.731 107.831 132.542C107.935 132.007 108.119 131.506 108.264 130.991C108.43 130.398 108.585 129.821 108.81 129.264C108.947 128.927 109.057 128.607 109.017 128.208C108.982 127.861 108.263 128.663 108.131 128.7C108.015 128.732 108.312 127.834 108.337 127.74C108.485 127.186 108.533 126.593 108.577 126.009C108.694 124.464 109.15 123.019 109.15 121.45C109.15 120.537 109.058 121.07 108.704 121.331C108.304 121.624 107.938 122.049 107.544 122.378C107.468 122.441 106.705 123.233 106.778 122.818C106.869 122.298 106.962 121.779 107.051 121.257C107.167 120.58 107.195 119.886 107.305 119.21C107.425 118.469 107.64 117.796 107.864 117.107C108.081 116.442 108.253 115.725 108.297 114.995C108.341 114.28 108.321 114.371 108.071 114.949C107.761 115.666 107.304 116.376 107.078 117.153C107.023 117.343 107.166 116.763 107.215 116.57C107.703 114.628 108.004 112.647 108.251 110.611C108.361 109.695 108.542 108.82 108.697 107.92C108.778 107.454 108.933 106.984 108.964 106.506C108.983 106.21 109.045 105.59 108.9 105.34C108.765 105.107 108.335 105.581 108.224 105.684C107.617 106.249 107.315 107.196 107.018 108.086C106.842 108.613 106.448 109.714 106.205 110.428M106.205 110.428C106.183 110.603 106.156 110.781 106.092 110.923C105.916 111.31 106.014 110.989 106.205 110.428Z" stroke="#CBA6F7" stroke-opacity="0.5" stroke-width="3" stroke-linecap="round"/>
</g>
<g filter="url(#filter16_d_899_76)">
<path d="M130.174 68.7754C132.382 70.247 134.269 72.6571 136.167 74.5028C138.817 77.0804 141.458 79.6541 144.142 82.1965C147.296 85.1847 151.145 87.8667 153.88 91.2323C155.726 93.5049 157.965 96.1806 160.512 97.7087" stroke="#CDD6F4" stroke-opacity="0.5" stroke-width="3" stroke-linecap="round"/>
</g>
<g filter="url(#filter17_d_899_76)">
<path d="M160.289 102.328C160.289 105.367 160.197 109.025 160.53 112.01C161.15 117.566 160.888 123.403 160.888 129.093C160.888 135.992 161.27 143.449 160.622 150.268C160.442 152.154 160.139 153.414 160.139 155.343C160.139 157.324 160.219 160.429 158.808 158.263C157.392 156.087 156.314 153.126 154.965 150.799C154.537 150.06 154.15 150.26 154.15 148.94V144.084C154.15 130.781 154 117.52 154 104.233V94.4735C154 93.2223 154.757 94.8066 154.973 95.1606C155.93 96.7239 157.011 97.9001 158.159 98.8927C158.988 99.609 159.504 101.136 160.139 102.328M155.471 99.1354C156.086 101.166 156.357 103.384 157.201 105.349M157.201 105.349C157.299 105.577 157.405 105.802 157.519 106.022C158.089 107.116 157.53 105.808 157.201 105.349ZM157.201 105.349C157.183 105.324 157.166 105.301 157.149 105.282C156.966 105.064 155.756 103.663 155.73 103.899C155.541 105.603 156.691 107.724 157.149 109.305C157.737 111.334 158.226 113.307 158.47 115.402C158.523 115.858 158.733 116.618 158.531 117.08C158.29 117.636 157.178 115.767 157.075 115.624C156.878 115.349 155.907 113.783 156.051 114.908C156.274 116.646 156.28 118.461 156.804 120.141C157.003 120.781 157.546 122.706 157.458 122.042C157.412 121.7 156.954 119.312 157.149 120.092C157.9 123.093 158.477 126.32 158.877 129.385C158.939 129.86 158.144 129.122 157.655 128.62M157.655 128.62C157.477 128.438 157.339 128.287 157.297 128.237C156.633 127.443 156.118 126.606 155.693 125.67C155.434 125.102 156.898 126.853 157.013 127.065C157.281 127.555 157.489 128.078 157.655 128.62ZM157.655 128.62C158.122 130.143 158.262 131.817 158.482 133.347C158.519 133.6 159.037 135.85 158.531 135.149C157.599 133.853 157.392 132.515 156.68 131.175C155.842 129.597 156.144 132.11 156.187 132.656C156.32 134.368 156.81 136.18 157.248 137.839C157.291 138.001 157.908 139.302 157.816 139.518C157.652 139.899 156.093 137.408 156.014 137.173C155.772 136.459 155.063 135.14 155.73 136.741C156.675 139.01 157.65 141.203 158.359 143.566C158.445 143.852 159.518 146.526 158.877 145.824C157.684 144.517 157.755 142.754 157.149 141.196C156.764 140.206 157.246 143.319 157.297 144.38C157.404 146.576 157.899 149.265 157.433 151.44C157.35 151.827 155.143 148.558 155.693 148.009" stroke="#89B4FA" stroke-opacity="0.5" stroke-width="3" stroke-linecap="round"/>
</g>
<g filter="url(#filter18_d_899_76)">
<path d="M139.698 82.4741C140.866 82.5909 142.619 84.2476 143.302 85.1399C144.474 86.6723 144.607 87.8443 144.227 89.8668C143.729 92.5263 142.646 95.2103 142.586 97.9259C142.552 99.4601 142.388 100.996 142.364 102.517C142.3 106.578 141.92 110.613 141.92 114.686V133.84C141.92 134.319 142.251 137.62 141.451 137.531C139.572 137.322 137.333 134.943 136.02 133.668C135.441 133.105 135.536 132.864 135.465 132.113C135.388 131.302 135.811 130.554 135.811 129.792C135.811 129.15 135.699 128.729 135.477 128.114C135.091 127.04 135.144 126.044 135.144 124.917V108.577C135.144 106.734 135.742 105.22 136.082 103.455C136.311 102.269 136.355 101.005 136.465 99.8019C136.566 98.6876 136.067 95.597 136.144 94.519C136.236 93.2295 136.098 92.1281 136.687 90.9152C137.617 88.997 136.754 87.0931 136.933 85.0282C137 84.2544 137.365 83.6919 137.365 82.8684V81.1405M140.587 87.5836C140.84 87.7198 141.087 88.0174 141.303 88.3555M141.303 88.3555C141.404 88.515 141.499 88.6834 141.585 88.8482M141.303 88.3555C141.275 88.1587 141.247 87.9627 141.219 87.7679M141.303 88.3555C141.761 91.5849 142.247 95.0678 141.475 98.1975C140.761 101.09 138.739 94.7651 138.377 94.2234C138.204 93.9631 138.39 94.8494 138.414 95.1614C138.497 96.2113 138.617 97.2575 138.686 98.3085C138.803 100.087 138.825 101.87 138.823 103.654M141.585 88.8482C142.066 89.7768 142.244 90.5887 141.648 89.0152C141.627 88.9587 141.605 88.9031 141.585 88.8482ZM141.585 88.8482C141.443 88.4743 141.318 88.1335 141.219 87.7679M141.219 87.7679C141.164 87.5614 141.117 87.3471 141.08 87.1146C141.043 86.8775 140.934 85.6298 141.068 86.6579C141.116 87.0233 141.167 87.3936 141.219 87.7679ZM138.823 103.654C138.822 104.88 138.809 106.106 138.809 107.33V108.947C138.809 106.843 138.717 104.805 138.464 102.715C138.272 101.13 138.503 100.974 138.711 102.715C138.748 103.028 138.785 103.341 138.823 103.654ZM138.823 103.654C139.291 107.549 139.78 111.431 140.142 115.34C140.3 117.046 140.587 118.769 140.587 120.487C140.587 120.698 140.512 120.068 140.438 119.87C140.068 118.873 139.406 118.012 138.908 117.08C138.607 116.516 138.295 115.936 137.997 115.347M137.997 115.347C137.663 114.688 137.346 114.02 137.082 113.353C136.811 112.672 136.355 111.145 137.082 112.81C137.441 113.634 137.727 114.487 137.997 115.347ZM137.997 115.347C138.384 116.581 138.737 117.83 139.229 119.03L139.236 119.048C139.428 119.515 140.682 122.572 139.538 121.844C139.038 121.526 136.377 118.481 136.835 120.709C137.189 122.435 137.765 124.154 138.266 125.843C138.621 127.037 139.175 128.152 139.538 129.311C139.611 129.545 135.252 128.27 134.737 128.151C132.314 127.592 134.869 130.756 135.255 131.644C135.691 132.646 137.309 133.145 137.489 134.137C137.638 134.958 138.572 135.4 139.032 136.013" stroke="#F5C2E7" stroke-opacity="0.5" stroke-width="3" stroke-linecap="round"/>
</g>
<g filter="url(#filter19_d_899_76)">
<path d="M147.251 88.6943C148.383 89.4416 149.224 90.1694 150.139 91.138C150.589 91.6139 150.823 92.176 151.361 92.5943C151.916 93.0263 151.916 93.5891 151.916 94.2339V144.59C151.916 145.802 151.951 147.019 151.916 148.231C151.881 149.469 150.245 146.969 150.016 146.663C148.963 145.259 148.081 143.859 147.078 142.455C146.553 141.719 146.393 141.076 145.684 140.456C144.683 139.58 144.141 139.61 144.141 138.111V103.702C144.141 101.867 143.994 99.9661 144.153 98.1357C144.255 96.9621 144.844 95.9698 144.98 94.7911C145.299 92.0385 145.688 89.4063 146.14 86.6949M145.918 136.013C145.841 135.315 146.351 136.464 146.585 136.815C147.243 137.802 148.021 138.747 148.584 139.789C149.587 141.644 148.808 138.645 148.695 138.098C148.457 136.942 148.227 135.784 148.041 134.618C147.942 133.998 147.374 132.477 147.595 132.412M147.595 132.412C147.627 132.402 147.676 132.423 147.745 132.483C147.909 132.624 147.918 133.101 147.918 133.297C147.918 133.368 147.759 132.907 147.595 132.412ZM147.595 132.412C147.428 131.908 147.256 131.368 147.239 131.31C146.456 128.66 145.553 125.837 145.474 123.054C145.427 121.394 146.933 124.916 147.029 125.189C147.377 126.175 147.944 127.597 148.695 128.348C149.346 128.999 148.662 125.624 148.584 125.176C148.232 123.166 147.306 121.214 146.4 119.401C146.266 119.134 145.546 117.449 146.017 117.895C147.236 119.048 148.098 120.153 149.028 121.523C149.643 122.43 148.35 119.964 148.251 119.536C147.673 117.048 147.626 114.417 146.93 111.971C146.876 111.779 145.778 108.994 146.622 109.416C146.702 109.456 146.779 109.501 146.852 109.55M146.852 109.55C147.742 110.142 148.099 111.323 148.489 112.444M146.852 109.55C147.345 110.517 147.952 111.554 148.489 112.444M146.852 109.55C146.408 108.677 146.055 107.86 145.931 107.256C145.836 106.799 145.224 106.032 145.622 106.022C146.798 105.993 147.733 106.211 148.695 106.923C149.039 107.178 149.956 108.189 149.917 108.145C149.174 107.309 148.812 105.654 148.325 104.64C147.317 102.541 146.446 100.5 146.363 98.1234C146.296 96.2202 147.037 98.8272 147.375 99.555C148.041 100.991 148.549 102.838 149.559 104.072C150.475 105.192 148.604 101.327 148.362 99.9006C148.115 98.444 147.825 97.0587 147.498 95.6674C147.333 94.9671 147.287 93.1604 148.041 94.6183C148.056 94.6469 148.072 94.6776 148.091 94.7104M148.489 112.444C148.742 113.173 149.01 113.877 149.448 114.377C150.335 115.391 149.547 114.2 148.489 112.444ZM148.091 94.7104C148.474 95.4021 149.575 97.0067 149.497 97.7038C149.471 97.9443 148.795 97.5942 148.732 97.531C148.45 97.2487 148.429 96.6177 148.362 96.2475C148.265 95.7153 148.169 95.2122 148.091 94.7104ZM148.091 94.7104C147.989 94.056 147.918 93.4039 147.918 92.693" stroke="#F9E2AF" stroke-opacity="0.5" stroke-width="3" stroke-linecap="round"/>
</g>
</g>
<defs>
<filter id="filter0_d_899_76" x="30.1528" y="46.0524" width="55.5639" height="38.3238" filterUnits="userSpaceOnUse" color-interpolation-filters="sRGB">
<feFlood flood-opacity="0" result="BackgroundImageFix"/>
<feColorMatrix in="SourceAlpha" type="matrix" values="0 0 0 0 0 0 0 0 0 0 0 0 0 0 0 0 0 0 127 0" result="hardAlpha"/>
<feOffset/>
<feGaussianBlur stdDeviation="4"/>
<feColorMatrix type="matrix" values="0 0 0 0 0.537255 0 0 0 0 0.705882 0 0 0 0 0.980392 0 0 0 0.5 0"/>
<feBlend mode="normal" in2="BackgroundImageFix" result="effect1_dropShadow_899_76"/>
<feBlend mode="normal" in="SourceGraphic" in2="effect1_dropShadow_899_76" result="shape"/>
</filter>
<filter id="filter1_d_899_76" x="29.4987" y="66.7563" width="57.5238" height="39.0137" filterUnits="userSpaceOnUse" color-interpolation-filters="sRGB">
<feFlood flood-opacity="0" result="BackgroundImageFix"/>
<feColorMatrix in="SourceAlpha" type="matrix" values="0 0 0 0 0 0 0 0 0 0 0 0 0 0 0 0 0 0 127 0" result="hardAlpha"/>
<feOffset/>
<feGaussianBlur stdDeviation="4"/>
<feColorMatrix type="matrix" values="0 0 0 0 0.803922 0 0 0 0 0.839216 0 0 0 0 0.956863 0 0 0 0.5 0"/>
<feBlend mode="normal" in2="BackgroundImageFix" result="effect1_dropShadow_899_76"/>
<feBlend mode="normal" in="SourceGraphic" in2="effect1_dropShadow_899_76" result="shape"/>
</filter>
<filter id="filter2_d_899_76" x="30.192" y="88.2531" width="56.2351" height="37.6335" filterUnits="userSpaceOnUse" color-interpolation-filters="sRGB">
<feFlood flood-opacity="0" result="BackgroundImageFix"/>
<feColorMatrix in="SourceAlpha" type="matrix" values="0 0 0 0 0 0 0 0 0 0 0 0 0 0 0 0 0 0 127 0" result="hardAlpha"/>
<feOffset/>
<feGaussianBlur stdDeviation="4"/>
<feColorMatrix type="matrix" values="0 0 0 0 0.952941 0 0 0 0 0.545098 0 0 0 0 0.658824 0 0 0 0.5 0"/>
<feBlend mode="normal" in2="BackgroundImageFix" result="effect1_dropShadow_899_76"/>
<feBlend mode="normal" in="SourceGraphic" in2="effect1_dropShadow_899_76" result="shape"/>
</filter>
<filter id="filter3_d_899_76" x="167.821" y="44.3782" width="26.1013" height="80.4689" filterUnits="userSpaceOnUse" color-interpolation-filters="sRGB">
<feFlood flood-opacity="0" result="BackgroundImageFix"/>
<feColorMatrix in="SourceAlpha" type="matrix" values="0 0 0 0 0 0 0 0 0 0 0 0 0 0 0 0 0 0 127 0" result="hardAlpha"/>
<feOffset/>
<feGaussianBlur stdDeviation="4"/>
<feColorMatrix type="matrix" values="0 0 0 0 0.454902 0 0 0 0 0.780392 0 0 0 0 0.92549 0 0 0 0.5 0"/>
<feBlend mode="normal" in2="BackgroundImageFix" result="effect1_dropShadow_899_76"/>
<feBlend mode="normal" in="SourceGraphic" in2="effect1_dropShadow_899_76" result="shape"/>
</filter>
<filter id="filter4_d_899_76" x="176.264" y="42.7644" width="26.4632" height="82.8349" filterUnits="userSpaceOnUse" color-interpolation-filters="sRGB">
<feFlood flood-opacity="0" result="BackgroundImageFix"/>
<feColorMatrix in="SourceAlpha" type="matrix" values="0 0 0 0 0 0 0 0 0 0 0 0 0 0 0 0 0 0 127 0" result="hardAlpha"/>
<feOffset/>
<feGaussianBlur stdDeviation="4"/>
<feColorMatrix type="matrix" values="0 0 0 0 0.960784 0 0 0 0 0.760784 0 0 0 0 0.905882 0 0 0 0.5 0"/>
<feBlend mode="normal" in2="BackgroundImageFix" result="effect1_dropShadow_899_76"/>
<feBlend mode="normal" in="SourceGraphic" in2="effect1_dropShadow_899_76" result="shape"/>
</filter>
<filter id="filter5_d_899_76" x="184.527" y="43.4691" width="25.6822" height="82.1296" filterUnits="userSpaceOnUse" color-interpolation-filters="sRGB">
<feFlood flood-opacity="0" result="BackgroundImageFix"/>
<feColorMatrix in="SourceAlpha" type="matrix" values="0 0 0 0 0 0 0 0 0 0 0 0 0 0 0 0 0 0 127 0" result="hardAlpha"/>
<feOffset/>
<feGaussianBlur stdDeviation="4"/>
<feColorMatrix type="matrix" values="0 0 0 0 0.803922 0 0 0 0 0.839216 0 0 0 0 0.956863 0 0 0 0.5 0"/>
<feBlend mode="normal" in2="BackgroundImageFix" result="effect1_dropShadow_899_76"/>
<feBlend mode="normal" in="SourceGraphic" in2="effect1_dropShadow_899_76" result="shape"/>
</filter>
<filter id="filter6_d_899_76" x="192.938" y="43.9357" width="25.8033" height="81.4992" filterUnits="userSpaceOnUse" color-interpolation-filters="sRGB">
<feFlood flood-opacity="0" result="BackgroundImageFix"/>
<feColorMatrix in="SourceAlpha" type="matrix" values="0 0 0 0 0 0 0 0 0 0 0 0 0 0 0 0 0 0 127 0" result="hardAlpha"/>
<feOffset/>
<feGaussianBlur stdDeviation="4"/>
<feColorMatrix type="matrix" values="0 0 0 0 0.960784 0 0 0 0 0.760784 0 0 0 0 0.905882 0 0 0 0.5 0"/>
<feBlend mode="normal" in2="BackgroundImageFix" result="effect1_dropShadow_899_76"/>
<feBlend mode="normal" in="SourceGraphic" in2="effect1_dropShadow_899_76" result="shape"/>
</filter>
<filter id="filter7_d_899_76" x="201.141" y="43.6234" width="25.6953" height="80.7807" filterUnits="userSpaceOnUse" color-interpolation-filters="sRGB">
<feFlood flood-opacity="0" result="BackgroundImageFix"/>
<feColorMatrix in="SourceAlpha" type="matrix" values="0 0 0 0 0 0 0 0 0 0 0 0 0 0 0 0 0 0 127 0" result="hardAlpha"/>
<feOffset/>
<feGaussianBlur stdDeviation="4"/>
<feColorMatrix type="matrix" values="0 0 0 0 0.454902 0 0 0 0 0.780392 0 0 0 0 0.92549 0 0 0 0.5 0"/>
<feBlend mode="normal" in2="BackgroundImageFix" result="effect1_dropShadow_899_76"/>
<feBlend mode="normal" in="SourceGraphic" in2="effect1_dropShadow_899_76" result="shape"/>
</filter>
<filter id="filter8_d_899_76" x="138.516" y="42.0465" width="86.5973" height="24.4484" filterUnits="userSpaceOnUse" color-interpolation-filters="sRGB">
<feFlood flood-opacity="0" result="BackgroundImageFix"/>
<feColorMatrix in="SourceAlpha" type="matrix" values="0 0 0 0 0 0 0 0 0 0 0 0 0 0 0 0 0 0 127 0" result="hardAlpha"/>
<feOffset/>
<feGaussianBlur stdDeviation="4"/>
<feColorMatrix type="matrix" values="0 0 0 0 0.803922 0 0 0 0 0.839216 0 0 0 0 0.956863 0 0 0 0.5 0"/>
<feBlend mode="normal" in2="BackgroundImageFix" result="effect1_dropShadow_899_76"/>
<feBlend mode="normal" in="SourceGraphic" in2="effect1_dropShadow_899_76" result="shape"/>
</filter>
<filter id="filter9_d_899_76" x="32.0726" y="43.4796" width="80.6675" height="23.2105" filterUnits="userSpaceOnUse" color-interpolation-filters="sRGB">
<feFlood flood-opacity="0" result="BackgroundImageFix"/>
<feColorMatrix in="SourceAlpha" type="matrix" values="0 0 0 0 0 0 0 0 0 0 0 0 0 0 0 0 0 0 127 0" result="hardAlpha"/>
<feOffset/>
<feGaussianBlur stdDeviation="4"/>
<feColorMatrix type="matrix" values="0 0 0 0 0.803922 0 0 0 0 0.839216 0 0 0 0 0.956863 0 0 0 0.5 0"/>
<feBlend mode="normal" in2="BackgroundImageFix" result="effect1_dropShadow_899_76"/>
<feBlend mode="normal" in="SourceGraphic" in2="effect1_dropShadow_899_76" result="shape"/>
</filter>
<filter id="filter10_d_899_76" x="97.0835" y="-37.0002" width="57.392" height="112.6" filterUnits="userSpaceOnUse" color-interpolation-filters="sRGB">
<feFlood flood-opacity="0" result="BackgroundImageFix"/>
<feColorMatrix in="SourceAlpha" type="matrix" values="0 0 0 0 0 0 0 0 0 0 0 0 0 0 0 0 0 0 127 0" result="hardAlpha"/>
<feOffset/>
<feGaussianBlur stdDeviation="4"/>
<feColorMatrix type="matrix" values="0 0 0 0 0.803922 0 0 0 0 0.839216 0 0 0 0 0.956863 0 0 0 0.5 0"/>
<feBlend mode="normal" in2="BackgroundImageFix" result="effect1_dropShadow_899_76"/>
<feBlend mode="normal" in="SourceGraphic" in2="effect1_dropShadow_899_76" result="shape"/>
</filter>
<filter id="filter11_d_899_76" x="83.1778" y="60.1891" width="44.3997" height="69.2885" filterUnits="userSpaceOnUse" color-interpolation-filters="sRGB">
<feFlood flood-opacity="0" result="BackgroundImageFix"/>
<feColorMatrix in="SourceAlpha" type="matrix" values="0 0 0 0 0 0 0 0 0 0 0 0 0 0 0 0 0 0 127 0" result="hardAlpha"/>
<feOffset/>
<feGaussianBlur stdDeviation="4"/>
<feColorMatrix type="matrix" values="0 0 0 0 0.803922 0 0 0 0 0.839216 0 0 0 0 0.956863 0 0 0 0.5 0"/>
<feBlend mode="normal" in2="BackgroundImageFix" result="effect1_dropShadow_899_76"/>
<feBlend mode="normal" in="SourceGraphic" in2="effect1_dropShadow_899_76" result="shape"/>
</filter>
<filter id="filter12_d_899_76" x="83.4902" y="102.348" width="25.5406" height="66.2166" filterUnits="userSpaceOnUse" color-interpolation-filters="sRGB">
<feFlood flood-opacity="0" result="BackgroundImageFix"/>
<feColorMatrix in="SourceAlpha" type="matrix" values="0 0 0 0 0 0 0 0 0 0 0 0 0 0 0 0 0 0 127 0" result="hardAlpha"/>
<feOffset/>
<feGaussianBlur stdDeviation="4"/>
<feColorMatrix type="matrix" values="0 0 0 0 0.454902 0 0 0 0 0.780392 0 0 0 0 0.92549 0 0 0 0.5 0"/>
<feBlend mode="normal" in2="BackgroundImageFix" result="effect1_dropShadow_899_76"/>
<feBlend mode="normal" in="SourceGraphic" in2="effect1_dropShadow_899_76" result="shape"/>
</filter>
<filter id="filter13_d_899_76" x="91.2444" y="98.327" width="23.6615" height="61.3985" filterUnits="userSpaceOnUse" color-interpolation-filters="sRGB">
<feFlood flood-opacity="0" result="BackgroundImageFix"/>
<feColorMatrix in="SourceAlpha" type="matrix" values="0 0 0 0 0 0 0 0 0 0 0 0 0 0 0 0 0 0 127 0" result="hardAlpha"/>
<feOffset/>
<feGaussianBlur stdDeviation="4"/>
<feColorMatrix type="matrix" values="0 0 0 0 0.952941 0 0 0 0 0.545098 0 0 0 0 0.658824 0 0 0 0.5 0"/>
<feBlend mode="normal" in2="BackgroundImageFix" result="effect1_dropShadow_899_76"/>
<feBlend mode="normal" in="SourceGraphic" in2="effect1_dropShadow_899_76" result="shape"/>
</filter>
<filter id="filter14_d_899_76" x="88.8467" y="97.6597" width="20.3358" height="21.4201" filterUnits="userSpaceOnUse" color-interpolation-filters="sRGB">
<feFlood flood-opacity="0" result="BackgroundImageFix"/>
<feColorMatrix in="SourceAlpha" type="matrix" values="0 0 0 0 0 0 0 0 0 0 0 0 0 0 0 0 0 0 127 0" result="hardAlpha"/>
<feOffset/>
<feGaussianBlur stdDeviation="4"/>
<feColorMatrix type="matrix" values="0 0 0 0 0.976471 0 0 0 0 0.886275 0 0 0 0 0.686275 0 0 0 0.5 0"/>
<feBlend mode="normal" in2="BackgroundImageFix" result="effect1_dropShadow_899_76"/>
<feBlend mode="normal" in="SourceGraphic" in2="effect1_dropShadow_899_76" result="shape"/>
</filter>
<filter id="filter15_d_899_76" x="96.4999" y="79.4995" width="24" height="72.1354" filterUnits="userSpaceOnUse" color-interpolation-filters="sRGB">
<feFlood flood-opacity="0" result="BackgroundImageFix"/>
<feColorMatrix in="SourceAlpha" type="matrix" values="0 0 0 0 0 0 0 0 0 0 0 0 0 0 0 0 0 0 127 0" result="hardAlpha"/>
<feOffset/>
<feGaussianBlur stdDeviation="4"/>
<feColorMatrix type="matrix" values="0 0 0 0 0.796078 0 0 0 0 0.65098 0 0 0 0 0.968627 0 0 0 0.5 0"/>
<feBlend mode="normal" in2="BackgroundImageFix" result="effect1_dropShadow_899_76"/>
<feBlend mode="normal" in="SourceGraphic" in2="effect1_dropShadow_899_76" result="shape"/>
</filter>
<filter id="filter16_d_899_76" x="120.674" y="59.2753" width="49.3382" height="47.9337" filterUnits="userSpaceOnUse" color-interpolation-filters="sRGB">
<feFlood flood-opacity="0" result="BackgroundImageFix"/>
<feColorMatrix in="SourceAlpha" type="matrix" values="0 0 0 0 0 0 0 0 0 0 0 0 0 0 0 0 0 0 127 0" result="hardAlpha"/>
<feOffset/>
<feGaussianBlur stdDeviation="4"/>
<feColorMatrix type="matrix" values="0 0 0 0 0.803922 0 0 0 0 0.839216 0 0 0 0 0.956863 0 0 0 0.5 0"/>
<feBlend mode="normal" in2="BackgroundImageFix" result="effect1_dropShadow_899_76"/>
<feBlend mode="normal" in="SourceGraphic" in2="effect1_dropShadow_899_76" result="shape"/>
</filter>
<filter id="filter17_d_899_76" x="144.5" y="84.4983" width="25.9998" height="84.002" filterUnits="userSpaceOnUse" color-interpolation-filters="sRGB">
<feFlood flood-opacity="0" result="BackgroundImageFix"/>
<feColorMatrix in="SourceAlpha" type="matrix" values="0 0 0 0 0 0 0 0 0 0 0 0 0 0 0 0 0 0 127 0" result="hardAlpha"/>
<feOffset/>
<feGaussianBlur stdDeviation="4"/>
<feColorMatrix type="matrix" values="0 0 0 0 0.537255 0 0 0 0 0.705882 0 0 0 0 0.980392 0 0 0 0.5 0"/>
<feBlend mode="normal" in2="BackgroundImageFix" result="effect1_dropShadow_899_76"/>
<feBlend mode="normal" in="SourceGraphic" in2="effect1_dropShadow_899_76" result="shape"/>
</filter>
<filter id="filter18_d_899_76" x="124.205" y="71.6405" width="29.7114" height="75.3922" filterUnits="userSpaceOnUse" color-interpolation-filters="sRGB">
<feFlood flood-opacity="0" result="BackgroundImageFix"/>
<feColorMatrix in="SourceAlpha" type="matrix" values="0 0 0 0 0 0 0 0 0 0 0 0 0 0 0 0 0 0 127 0" result="hardAlpha"/>
<feOffset/>
<feGaussianBlur stdDeviation="4"/>
<feColorMatrix type="matrix" values="0 0 0 0 0.960784 0 0 0 0 0.760784 0 0 0 0 0.905882 0 0 0 0.5 0"/>
<feBlend mode="normal" in2="BackgroundImageFix" result="effect1_dropShadow_899_76"/>
<feBlend mode="normal" in="SourceGraphic" in2="effect1_dropShadow_899_76" result="shape"/>
</filter>
<filter id="filter19_d_899_76" x="134.58" y="77.1947" width="26.8513" height="80.8766" filterUnits="userSpaceOnUse" color-interpolation-filters="sRGB">
<feFlood flood-opacity="0" result="BackgroundImageFix"/>
<feColorMatrix in="SourceAlpha" type="matrix" values="0 0 0 0 0 0 0 0 0 0 0 0 0 0 0 0 0 0 127 0" result="hardAlpha"/>
<feOffset/>
<feGaussianBlur stdDeviation="4"/>
<feColorMatrix type="matrix" values="0 0 0 0 0.976471 0 0 0 0 0.886275 0 0 0 0 0.686275 0 0 0 0.5 0"/>
<feBlend mode="normal" in2="BackgroundImageFix" result="effect1_dropShadow_899_76"/>
<feBlend mode="normal" in="SourceGraphic" in2="effect1_dropShadow_899_76" result="shape"/>
</filter>
<clipPath id="clip0_899_76">
<rect width="256" height="192" fill="white"/>
</clipPath>
</defs>
</svg>
