<svg width="256" height="256" viewBox="0 0 256 256" fill="none" xmlns="http://www.w3.org/2000/svg">
<g filter="url(#filter0_d_806_55)">
<path d="M164.604 104.692C163.536 105.698 162.16 105.631 160.745 105.631M200.896 90.3002C201.851 90.2471 202.356 88.1628 202.356 87.3801M185.497 101.171C184.47 101.027 187.086 104.621 187.425 104.88C188.69 105.847 190.012 106.428 191.527 106.837C192.718 107.158 190.559 108.878 190.139 109.179C189.08 109.941 187.96 110.498 186.712 110.853M165.223 105.925C164.485 106.272 164.977 105.358 165.158 104.985C166.42 102.389 167.402 99.6344 168.804 97.1109C169.231 96.342 170.591 96.9757 171.202 97.1919C173.642 98.0564 176.198 98.598 178.638 99.4116M187.29 96.5925C187.29 96.3239 187.319 96.1086 187.414 95.8526C187.848 94.6817 188.333 93.5311 188.748 92.3531C189.126 91.2809 189.5 90.2092 189.915 89.1505C190.146 88.5603 190.447 87.9346 190.552 87.3035C190.627 86.8556 193.269 87.8584 193.393 87.9084C196.051 88.9837 198.632 90.0472 201.385 90.8571M173 129.5C176.192 131 181 132.208 184.372 132.611M206.868 84.1736C205 87.3801 204 93.5 206.868 99.481M206.868 100C206.868 110 203.241 116.676 201.096 119.874C197.924 124.604 193.212 129.208 186.712 132.208M172.51 132.208C170.579 132.684 176 144.979 176.192 145.528M199.915 122.52C199.915 127.508 203.868 132.416 206.05 136.648M206.459 138.262C206.349 138.262 207.188 137.893 207.459 137.59C211.817 132.696 216.405 128.199 221.184 123.731M221.593 124.135C222.85 124.135 224 126.5 228 126.5C232 126.5 227 126.5 234.5 126.5M177.419 147.546C171.867 147.546 166.587 150.259 161.485 152.859M161.485 152.859C160.619 153.301 159.757 153.739 158.9 154.16C157.84 154.682 156.787 155.177 155.741 155.619M161.485 152.859C160.446 151.827 159.417 150.792 158.398 149.753C147.505 138.633 148.332 118.052 135.696 110.853C123.06 103.654 118.214 87.9031 120.807 74.687C122.449 66.3197 128.556 59.5257 135.696 55.1128C138.881 53.1442 144.377 52.3986 147.958 54.0451C151.238 55.5532 155.434 58.1181 158.055 60.7054M161.485 152.859C161.732 153.104 161.98 153.349 162.228 153.594M154.923 158.445C154.923 172.846 152.469 182 146 195M125.064 169.343C134.754 180.644 143.642 192.887 152.469 204.864M117.293 154.005C111.781 154.005 106.569 152.571 102.273 157.212C95.1906 164.862 98.0421 178.457 109.749 178.852C120.76 179.223 132.769 163.407 124.837 153.78C122.123 150.486 117.495 148.814 113.178 149.134M113.178 149.134C112.062 149.217 110.967 149.433 109.931 149.789C105.465 151.322 102.661 154.772 100.114 158.445M113.178 149.134C113.187 149.278 113.195 149.421 113.203 149.565M113.178 149.134C113.077 147.55 112.891 145.977 112.695 144.408M111.976 183.875C116.418 192.642 123.3 200.393 129.177 208.228C137.624 219.488 143.5 225.5 154.605 230.5M155.741 228.68C161.186 218.218 169.887 203.968 174.556 193.159M175.374 194.37C181.313 206.092 187.685 217.492 194.597 228.68M112.695 144.408C112.157 140.086 111.549 135.796 112.476 131.4C113.202 127.954 115.086 121.643 118.838 120.188C121.196 119.274 121.779 129.887 121.792 130.952C121.859 136.482 121.792 142.016 121.792 147.546M112.695 144.408C113.243 145.208 113.811 145.993 114.43 146.739M112.695 144.408C110.395 141.047 108.461 137.414 104.704 135.213C102.957 134.189 101.196 133.193 99.4781 132.118C98.2403 131.344 96.9228 130.038 95.4107 129.808C93.6484 129.541 93.0559 130.064 93.002 131.871C92.9152 134.785 95.6134 137.663 97.3649 139.743C100.209 143.119 103.37 146.211 106.659 149.161M117.702 161.27C115.111 161.27 111.944 160.779 109.613 161.943C108.974 162.262 105.978 164.355 107.113 165.329C109.682 167.534 114.556 167.196 117.702 167.325M154.105 72.0642C155.29 72.0642 153.39 73.2995 152.809 74.0152C147.281 80.8357 152.1 92.0367 154.605 99.1086C156.328 103.976 158.371 108.745 159.74 113.73C161.109 118.714 167.506 121.707 170 125.32C172.494 128.933 172.919 134.954 177.419 140M157.377 90.2284C158.402 90.1159 158.82 89.4245 159.695 88.9726C163.007 87.2604 165.792 87.9976 169.238 88.2101M183.554 85.3846C183.554 81.8987 188.53 78.4105 193.552 79.0056M170.574 66.1964C168.492 65.6826 172.775 62.4513 174.438 61.1122C178.529 57.8188 186.625 53.0671 191.697 57.3498C196.786 61.6465 197.55 68.6087 199.322 74.5345C201.138 80.6089 215.888 107 217.444 115.836M175.675 119.276C175.598 118.672 176.566 119.996 177.684 120.216C182.065 121.081 185.179 121.371 189.121 119.276M154.614 46.8868C156.803 44.4869 158.273 41.5687 160.723 39.2957C164.929 35.394 169.957 34.454 175.463 33.4248L175.622 33.395C185.221 31.6002 195.616 30.4858 203.724 36.8876C206.986 39.4624 209.559 42.7222 212.725 45.3877C214.557 46.9296 215.764 48.3595 217.444 50.491C224.71 59.7069 224.22 67.5872 226.93 79.0056C230.158 92.6037 229.877 111.569 231.5 114.5" stroke="#CDD6F4" stroke-opacity="0.5" stroke-width="3" stroke-linecap="round"/>
</g>
<defs>
<filter id="filter0_d_806_55" x="83.5" y="22.4994" width="160.5" height="217.501" filterUnits="userSpaceOnUse" color-interpolation-filters="sRGB">
<feFlood flood-opacity="0" result="BackgroundImageFix"/>
<feColorMatrix in="SourceAlpha" type="matrix" values="0 0 0 0 0 0 0 0 0 0 0 0 0 0 0 0 0 0 127 0" result="hardAlpha"/>
<feOffset/>
<feGaussianBlur stdDeviation="4"/>
<feColorMatrix type="matrix" values="0 0 0 0 0.803922 0 0 0 0 0.839216 0 0 0 0 0.956863 0 0 0 0.5 0"/>
<feBlend mode="normal" in2="BackgroundImageFix" result="effect1_dropShadow_806_55"/>
<feBlend mode="normal" in="SourceGraphic" in2="effect1_dropShadow_806_55" result="shape"/>
</filter>
</defs>
</svg>
