<svg width="258" height="258" viewBox="0 0 258 258" fill="none" xmlns="http://www.w3.org/2000/svg">
<g filter="url(#filter0_d_806_67)">
<path d="M187.767 89.9127C188.581 89.9127 189.282 90.7755 190.003 91.1205C191.453 91.8144 193.127 91.5175 194.424 90.6892M152 102.336C154.71 102.336 156.742 100.142 157.264 97.5219M116.975 144.997C117.255 147.661 118.764 149.885 119.729 152.305C120.011 153.014 120.128 153.851 120.128 154.61M107.629 156.156C109.337 158.922 112.352 159.828 112.917 163.228M113.673 152.62C114.374 152.971 114.634 154.427 114.932 155.089C115.359 156.038 115.866 157 116.443 157.867C116.871 158.511 117.475 159.091 117.954 159.692M123.03 148.335C121.504 153.385 117.287 160.585 116.866 161.34C115.86 163.146 116.21 163.73 117.398 165.451C119.02 167.801 128.369 160.167 131.039 158.062M145.761 100.207C148.676 108.239 147.286 118.393 148.397 126.798C149.396 134.356 149.454 133.586 150.871 141.079M150.159 137.406C161.97 142.803 173.392 150.616 176.719 162.562M184.588 96.7883C184.595 96.7096 184.604 96.6285 184.614 96.5454M184.614 96.5454C184.637 96.3547 184.667 96.1533 184.699 95.9454M184.614 96.5454C184.513 96.4871 184.432 96.4208 184.383 96.3474C184.301 96.226 184.239 96.1056 184.196 95.9871M184.614 96.5454C184.955 96.7425 185.523 96.8471 185.863 96.8208M184.699 95.9454C184.72 95.8083 184.743 95.6683 184.765 95.5267M184.699 95.9454C184.803 95.9509 184.911 95.9649 185.02 95.9888M184.699 95.9454C184.52 95.936 184.35 95.952 184.196 95.9871M184.765 95.5267C184.775 95.462 184.785 95.397 184.794 95.3317M184.765 95.5267C184.554 95.4072 184.363 95.2675 184.201 95.1078M184.765 95.5267C184.796 95.5445 184.828 95.5619 184.86 95.5788M184.794 95.3317C184.845 94.9951 184.89 94.6525 184.914 94.3194M184.794 95.3317C184.732 95.0598 184.698 94.7687 184.69 94.4724M184.794 95.3317C184.814 95.4161 184.835 95.4986 184.86 95.5788M184.914 94.3194C184.941 93.937 184.94 93.5672 184.885 93.2336M184.914 94.3194C185.681 93.8683 186.817 93.8699 187.473 94.7651C187.638 94.9906 187.779 95.2485 187.894 95.5273M184.914 94.3194C184.835 94.3658 184.76 94.4169 184.69 94.4724M184.885 93.2336C184.875 93.1718 184.863 93.1113 184.849 93.0521M184.885 93.2336C186.004 93.1615 187.273 93.4242 188.147 93.8806M184.885 93.2336C184.858 93.2354 184.831 93.2373 184.804 93.2394M184.849 93.0521C184.848 93.0483 184.847 93.0445 184.846 93.0407M184.849 93.0521C184.851 93.0447 184.853 93.0373 184.855 93.0299M184.849 93.0521C184.833 93.1138 184.818 93.1762 184.804 93.2394M184.846 93.0407C184.841 93.0188 184.835 92.9971 184.829 92.9756C184.706 92.5251 184.577 92.1633 184.445 91.8799M184.846 93.0407C184.849 93.0371 184.852 93.0335 184.855 93.0299M184.846 93.0407C184.793 93.1078 184.743 93.1773 184.695 93.2492M184.445 91.8799C182.91 88.5863 180.883 95.8689 180.742 97.422C180.456 100.57 183.636 101.282 186.438 100.37C187.189 100.125 187.686 99.5737 187.966 98.8902M184.445 91.8799C185.746 90.2095 188.169 88.9733 188.22 91.4034M184.445 91.8799C184.041 92.3994 183.745 92.9608 183.662 93.467C183.661 93.4733 183.66 93.4795 183.659 93.4857M187.966 98.8902C188.011 98.7816 188.05 98.6697 188.084 98.5551M187.966 98.8902C186.512 99.427 183.902 98.8183 183.848 97.9872C183.837 97.8188 183.828 97.6476 183.823 97.4747M187.966 98.8902C188.196 98.8054 188.397 98.6919 188.555 98.5462M188.084 98.5551C188.253 97.9782 188.287 97.3345 188.206 96.7131M188.084 98.5551C186.71 98.5286 184.931 98.0781 183.823 97.4747M188.084 98.5551C188.247 98.5583 188.404 98.5555 188.555 98.5462M188.206 96.7131C188.169 96.4359 188.11 96.1632 188.029 95.9029M188.206 96.7131C187.876 96.8364 187.511 96.9184 187.147 96.9507M188.206 96.7131C189.189 96.3454 189.853 95.6108 189.206 94.7388M188.029 95.9029C187.989 95.7744 187.944 95.6488 187.894 95.5273M188.029 95.9029C187.94 95.9303 187.846 95.954 187.75 95.974M188.029 95.9029C188.576 95.7357 188.995 95.4313 189.136 94.9875C189.163 94.9055 189.186 94.8225 189.206 94.7388M187.894 95.5273C187.852 95.6824 187.805 95.8317 187.75 95.974M187.894 95.5273C188.029 95.0254 188.104 94.4629 188.147 93.8806M184.69 94.4724C184.47 94.6466 184.297 94.8634 184.201 95.1078M184.69 94.4724C184.679 94.0592 184.718 93.6358 184.804 93.2394M184.201 95.1078C184.096 95.3744 184.082 95.674 184.196 95.9871M184.201 95.1078C184.139 95.0466 184.081 94.9826 184.028 94.9156M184.196 95.9871C184.07 96.0159 183.955 96.0573 183.853 96.1082M185.863 96.8208C186.13 96.8001 186.256 96.6983 186.018 96.4968C185.689 96.2184 185.346 96.06 185.02 95.9888M185.863 96.8208C185.49 96.6828 185.212 96.3819 185.02 95.9888M185.863 96.8208C185.88 96.8274 185.898 96.8335 185.916 96.8393C186.283 96.9568 186.714 96.989 187.147 96.9507M185.02 95.9888C184.958 95.8611 184.904 95.7236 184.86 95.5788M183.853 96.1082C183.339 96.3658 183.18 96.8637 183.817 97.1587M183.853 96.1082C183.886 95.7013 183.942 95.2995 184.028 94.9156M183.853 96.1082C183.825 96.4573 183.814 96.8102 183.817 97.1587M183.817 97.1587C183.868 97.1825 183.925 97.205 183.987 97.2259C185.553 97.7545 186.532 97.5595 187.147 96.9507M183.817 97.1587C183.818 97.2645 183.82 97.3699 183.823 97.4747M187.147 96.9507C187.408 96.6919 187.604 96.3585 187.75 95.974M187.75 95.974C186.854 96.1611 185.713 96.0269 184.86 95.5788M188.147 93.8806C188.189 93.3077 188.201 92.7156 188.21 92.1433M188.147 93.8806C188.293 93.9568 188.427 94.0383 188.548 94.1246C188.843 94.3346 189.059 94.5403 189.206 94.7388M188.21 92.1433C188.213 91.9465 188.216 91.752 188.22 91.5615C188.221 91.5072 188.221 91.4545 188.22 91.4034M188.21 92.1433C188.533 92.2615 188.84 92.4404 189.122 92.6649M188.21 92.1433C187.996 92.065 187.775 92.0134 187.549 91.9928C186.291 91.8778 185.43 92.3047 184.855 93.0299M188.22 91.4034C188.636 91.6848 188.942 92.1362 189.122 92.6649M188.22 91.4034C187.634 91.0073 186.828 90.9482 185.842 91.4849C185.379 91.7367 185.041 92.3272 184.855 93.0299M183.659 93.4857C183.571 94.0566 183.724 94.5337 184.028 94.9156M183.659 93.4857C183.969 93.3638 184.322 93.2868 184.695 93.2492M183.659 93.4857C182.578 93.9105 182.007 94.8809 182.849 96.6294C182.991 96.9251 183.344 97.2141 183.823 97.4747M184.028 94.9156C184.166 94.2954 184.38 93.722 184.695 93.2492M189.206 94.7388C189.374 94.0429 189.338 93.2984 189.122 92.6649M189.122 92.6649C190.735 93.9508 191.524 96.7333 189.794 98.1787C189.532 98.3975 189.091 98.513 188.555 98.5462M184.804 93.2394C184.768 93.2423 184.731 93.2456 184.695 93.2492M188.555 98.5462C188.757 98.3589 188.887 98.1184 188.915 97.8169M160.676 102.836C159.889 102.863 159.65 103.304 159.722 103.838M159.722 103.838C159.763 104.137 159.902 104.465 160.097 104.764M159.722 103.838C159.271 103.886 158.754 103.862 158.168 103.744M159.722 103.838C163.792 103.398 162.474 96.9974 157.989 99.2132C157.828 99.2925 157.682 99.3763 157.551 99.4639M160.097 104.764C160.259 105.013 160.46 105.242 160.676 105.419M160.097 104.764C159.417 104.559 158.743 104.196 158.168 103.744M160.097 104.764C160.597 104.915 161.099 104.98 161.567 104.933M160.676 105.419C161.301 105.931 162.052 106.006 162.352 104.854C162.364 104.806 162.377 104.758 162.389 104.708M160.676 105.419C159.912 105.609 158.931 105.391 157.738 104.679C157.324 104.432 157.023 104.101 156.808 103.715M160.676 105.419C161.016 105.335 161.313 105.171 161.567 104.933M162.389 104.708C162.675 103.536 162.89 101.757 162.77 100.635C162.739 100.344 162.617 100.033 162.428 99.7221M162.389 104.708C162.134 104.831 161.857 104.904 161.567 104.933M162.389 104.708C163.142 104.345 163.699 103.545 163.826 102.139C163.955 100.72 162.965 99.3947 161.721 98.6435M162.428 99.7221C162.136 99.2423 161.684 98.762 161.158 98.3509M162.428 99.7221C162.631 100.301 162.717 101.06 162.644 102.031C162.543 103.353 162.183 104.357 161.567 104.933M162.428 99.7221C162.262 99.2479 162.018 98.8943 161.721 98.6435M161.158 98.3509C161.124 98.3241 161.089 98.2976 161.054 98.2715M161.158 98.3509C161.349 98.435 161.538 98.533 161.721 98.6435M161.158 98.3509C161.018 98.2893 160.877 98.2352 160.735 98.1891M161.054 98.2715C159.4 97.0305 157.092 96.4917 156.667 98.7054C156.594 99.0804 156.517 99.5018 156.454 99.945M161.054 98.2715C161.296 98.3528 161.52 98.4749 161.721 98.6435M161.054 98.2715C160.951 98.2367 160.844 98.2094 160.735 98.1891M156.454 99.945C156.449 99.9806 156.444 100.016 156.439 100.052M156.454 99.945C156.478 99.9453 156.504 99.9463 156.531 99.9482M156.454 99.945C156.148 99.9416 156.132 100.066 156.274 100.257M156.439 100.052C156.424 100.167 156.41 100.282 156.397 100.399M156.439 100.052C156.469 100.017 156.5 99.9826 156.531 99.9482M156.439 100.052C156.382 100.12 156.326 100.188 156.274 100.257M156.397 100.399C156.295 101.337 156.29 102.332 156.569 103.168M156.397 100.399C156.349 100.349 156.307 100.301 156.274 100.257M156.397 100.399C156.463 100.467 156.541 100.541 156.628 100.617M156.569 103.168C156.633 103.359 156.712 103.543 156.808 103.715M156.569 103.168C155.362 102.42 155.506 101.268 156.274 100.257M156.569 103.168C156.652 103.219 156.741 103.268 156.836 103.315M156.808 103.715C156.819 103.58 156.828 103.446 156.836 103.315M156.808 103.715C156.807 103.726 156.806 103.738 156.805 103.749M160.735 98.1891C159.838 98.023 158.768 98.335 157.844 98.8874M160.735 98.1891C159.621 97.8273 158.483 97.9634 157.844 98.8874M157.844 98.8874C157.348 99.184 156.894 99.5498 156.531 99.9482M157.844 98.8874C157.729 99.0535 157.631 99.2452 157.551 99.4639M156.531 99.9482C156.64 99.9556 156.777 99.9756 156.946 100.01M156.836 103.315C157.166 103.479 157.574 103.617 158.07 103.724C158.103 103.731 158.136 103.738 158.168 103.744M156.836 103.315C156.858 102.979 156.88 102.666 156.966 102.423M158.168 103.744C157.674 103.355 157.253 102.9 156.966 102.423M157.551 99.4639C157.298 99.633 157.098 99.8164 156.946 100.01M157.551 99.4639C157.48 99.6587 157.425 99.875 157.387 100.114M156.946 100.01C156.794 100.203 156.69 100.407 156.628 100.617M156.946 100.01C157.074 100.036 157.22 100.071 157.387 100.114M156.628 100.617C156.457 101.198 156.608 101.828 156.966 102.423M156.628 100.617C156.83 100.794 157.079 100.987 157.323 101.173M156.966 102.423C157.041 102.206 157.167 102.045 157.386 101.974M157.387 100.114C157.361 100.276 157.343 100.448 157.334 100.631C157.324 100.823 157.32 101.003 157.323 101.173M157.387 100.114C157.44 100.128 157.495 100.143 157.552 100.158C162.358 101.48 157.975 105.735 157.386 101.974M157.323 101.173C157.327 101.473 157.349 101.739 157.386 101.974M157.323 101.173C157.989 101.679 158.623 102.124 158.19 102.011C157.834 101.917 157.575 101.912 157.386 101.974M172.46 105.179C174.316 105.829 171.762 111.191 171.213 111.961C169.792 113.952 168.083 111.996 166.835 113.038C164.657 114.858 173.411 120.813 174.792 121.224M200.466 71.3121C201.227 71.6749 202.601 72.0256 203.179 72.6049C204.684 74.1108 204.171 79.0204 204.187 80.7653C204.253 87.63 202.835 94.2763 202.111 101.071C200.954 111.939 200.671 122.897 203.095 133.617C205.313 143.428 210.177 152.401 213.258 161.887M191.596 68.2982C192.372 68.5472 195.025 70.3765 192.614 67.8987C190.731 65.9629 188.004 65.4144 185.448 64.922C176.902 63.2755 167.44 62.2144 160.041 67.7372C145.12 78.8746 160.645 105.864 142.627 113.852M196.27 37.6954C192.722 37.3713 189.859 36.1821 186.494 34.8673C177.775 31.4602 168.493 30.2275 159.153 30.0121C141.297 29.6004 123.39 39.6799 120.669 58.2297C117.85 77.4454 123.639 95.6505 126.782 114.515C128.065 122.221 129.813 128.643 132.989 135.769C134.871 139.991 136.338 144.409 137.554 148.852M101.65 81.1565C103.756 90.1335 102.767 100.202 103.222 109.361C103.652 118.044 104.165 126.696 104.165 135.393M97.8766 78.6338C97.8766 75.8553 95.8088 75.7645 93.0557 75.2003C81.0812 72.7462 71.7224 74.4915 60.7765 79.2645M65.0775 131.286C65.0775 137.729 66.0625 144.089 68.8914 150.412M109.195 142.33C107.386 142.33 105.762 142.328 103.955 142.75C91.7262 145.608 79.6927 149.979 67.6935 153.682M73.3529 89.9858C73.3557 89.9911 73.3585 89.9964 73.3613 90.0017M73.3613 90.0017C73.4485 90.1663 73.5343 90.319 73.6187 90.4604M73.3613 90.0017C73.3686 89.9019 73.3806 89.8033 73.397 89.7066M73.3613 90.0017C73.3557 90.0775 73.3529 90.154 73.3529 90.231C73.3529 90.2884 73.3587 90.3451 73.3697 90.4007M73.6187 90.4604C73.8299 90.8141 74.0319 91.0968 74.2235 91.3168M73.6187 90.4604C73.5257 90.4417 73.4429 90.4217 73.3697 90.4007M73.6187 90.4604C73.9891 90.5351 74.5224 90.5898 75.2614 90.6089M74.2235 91.3168C75.8343 93.1665 76.7114 90.5951 76.099 88.6497M74.2235 91.3168C73.8291 91.1741 73.4527 90.8183 73.3697 90.4007M74.2235 91.3168C74.6349 91.4657 75.0659 91.3828 75.2044 90.8967C75.2338 90.7935 75.2524 90.6978 75.2614 90.6089M76.099 88.6497C75.7939 87.6807 75.1193 86.8671 73.9817 86.8325C71.5722 86.7593 71.1532 91.7678 73.0035 92.3682C74.8969 92.9826 77.8642 91.2544 76.3921 89.0398C76.2948 88.8933 76.1969 88.7637 76.099 88.6497ZM76.099 88.6497C74.8742 87.2249 73.6427 88.2598 73.397 89.7066M73.397 89.7066C74.1197 89.4827 75.3681 89.5555 75.2614 90.6089M73.397 89.7066C72.8734 89.8689 72.6258 90.187 73.3697 90.4007M75.2614 90.6089C75.45 90.6138 75.652 90.6164 75.8681 90.6164M181.854 131.459C182.827 131.673 181.107 133.169 180.981 133.244C177.707 135.165 173.403 135.621 169.699 135.283M193.683 82.4616C195.207 82.4104 191.043 77.6467 190.486 77.3453C187.897 75.9446 184.258 75.7219 181.386 75.8286C178.415 75.939 176.034 76.7232 173.636 78.4098M201.784 39.0554C203.033 39.1695 203.145 38.3168 204.052 37.6526C206.572 35.8064 210.728 33.8785 213.702 32.8695C222.91 29.7454 230.877 37.4323 235.545 44.4058C245.33 59.0254 248.816 78.9556 247.843 96.2147C246.702 116.454 242.191 137.322 235.534 156.449M242.726 142.079C239.483 145.062 236.799 148.773 233.603 151.86C227.589 157.669 221.419 162.594 214.256 166.848M173.392 167.242C167.252 170.467 157.455 170.802 150.871 172.979M58.89 101.177C61.8352 98.9241 65.1781 96.1458 69.1681 96.9649C70.5409 97.2467 71.8821 98.1721 73.0007 98.9838C73.5841 99.4072 74.1273 99.8808 74.6363 100.391C75.9639 101.723 76.065 105.689 76.1945 106.962C76.428 109.261 76.6141 111.566 76.7268 113.873C76.8566 116.535 77.4118 122.427 75.8654 125.327C75.3784 126.241 74.4067 126.888 73.4459 127.268C72.6063 127.6 64.8659 128.372 64.4646 128.433M142.481 215.055C138.667 215.055 135.35 213.565 135.234 213.559C127.872 213.183 117.664 210.68 110.444 209.317C95.0208 206.406 90.7693 203.197 74.9752 203.197M110.444 177.952C112.361 177.952 105.872 179.048 103.955 179.034C100.349 179.006 97.0957 179.072 93.6632 179.864C90.2307 176.422 88.3237 170.182 86.5169 166.162C84.7101 162.142 81.8741 157.244 79.3836 152.855C78.7187 151.683 78.201 150.292 77.2912 149.278M60.6586 81.8812C60.9146 84.7049 61.2392 87.5079 61.4239 90.3418C61.4911 91.3729 61.7799 92.4217 61.7799 93.4476M144.977 223.403C144.977 230.838 144.105 239.102 146.478 246.243M209.543 172.954C208.85 172.954 208.238 172.934 207.555 173.15C203.061 174.568 198.771 177.011 194.528 179.034C186.94 182.65 179.336 186.214 171.504 189.269M165.865 189.68C163.538 189.467 161.594 187.79 159.827 186.384C154.306 181.99 149.941 176.421 145.956 170.639C137.443 158.29 131.31 149.911 123.593 137.093M122.384 135.543C121.411 131.542 118.896 127.479 115.836 124.764C111.899 121.273 110.063 119.429 106.854 119.429M106.854 130.063C108.626 131.812 110.139 133.928 111.428 136.045C112.43 137.69 114.195 139.814 114.195 141.832M115.697 143.338C115.592 142.496 113.768 142.585 113.194 142.585C111.45 142.585 110.261 143.752 108.675 144.467C107.478 145.007 106.685 145.673 105.714 146.559C105.118 147.102 104.471 147.135 103.809 147.493C102.9 147.984 101.421 149.7 100.834 150.616C100.228 151.563 99.6801 152.318 99.6801 153.503C99.6801 154.312 99.3325 156.138 99.8191 156.766C101.182 158.523 103.064 165.172 105.486 165.712C107.694 166.204 108.017 164.947 110.444 164.947C111.792 164.947 113.85 163.986 115.196 163.919M106.187 166.68C107.292 167.899 108.209 169.331 109.245 170.612C114.038 176.536 118.618 182.628 123.593 188.404C131.337 197.394 140.15 205.28 148.619 213.559C153.571 218.399 158.165 223.546 163.746 227.67M165.247 230.933C166.72 230.933 168.083 230.705 169.53 230.375C174.723 229.189 179.952 228.112 185.129 226.861C194.899 224.502 204.175 219.62 214.298 219.136M217.051 169.44C218.436 169.44 219.741 169.563 221.083 169.998C227.42 172.054 232.63 177.594 235.014 183.663C240.136 196.704 239.781 211.271 238.211 224.937C237.583 230.408 237.064 235.894 236.724 241.391C236.585 243.625 236.736 245.933 235.82 248M60.1656 101.312C59.186 101.312 58.0679 101.168 57.1379 101.5C54.9523 102.278 52.8157 105.32 51.8941 107.354C50.7541 109.869 50.8622 111.909 51.3478 114.569C51.941 117.819 52.4335 121.014 52.7368 124.305C53.1624 128.922 54.5275 132.817 56.2327 137.093M54.2663 135.684C55.1221 137.508 55.5901 139.55 56.0142 141.507C57.1173 146.596 58.4274 151.775 59.9471 156.752C61.3429 161.324 63.4669 165.632 64.9412 170.182C65.8875 173.102 66.4507 176.138 67.3446 179.072C69.2881 185.451 72.8814 191.214 75.8971 197.104C77.1702 199.59 78.4647 201.955 79.9548 204.304M165.911 81.2733C165.817 80.8316 165.446 80.9202 164.889 80.7984C162.511 80.2776 160.064 79.2527 157.129 79.8649C152.204 80.8923 150.573 84.0231 148.166 86.6999" stroke="#B4BEFE" stroke-opacity="0.5" stroke-width="3" stroke-linecap="round"/>
</g>
<path d="M61.9287 73.1515C60.985 73.4953 54.4921 74.9656 52.4532 75.5583C52.4532 76.9053 53.4541 78.6334 53.7251 79.9607C53.9353 80.9904 54.3614 81.9544 54.4921 83.0346C54.6565 84.3933 54.5757 84.1873 55.2592 87.2612C55.9427 90.3351 55.6427 89.5666 56.0263 92.6405C56.4098 95.7144 56.7778 97.2678 57.1752 98.1776C57.4227 98.7444 57.695 98.9739 57.0233 98.9739C49.4239 98.9739 42.3346 102.183 36.1701 106.382C33.8385 107.971 31.7929 110.033 29.5793 111.697C28.6574 112.389 27.964 113.288 27.1399 114.079C27.0149 114.254 26.8874 114.426 26.7572 114.596C26.0014 115.577 26.6822 114.516 27.1144 114.103C27.1229 114.095 27.1314 114.087 27.1399 114.079C28.1925 112.605 29.0685 110.939 29.9276 109.361C31.4728 106.523 32.9621 103.252 33.1337 99.9849C33.3282 96.2832 32.2648 92.5501 30.6509 89.2395C28.8946 85.6366 26.8949 82.042 23.4349 79.8451C21.9467 78.9001 20.449 77.8174 18.8535 77.0715C17.6857 76.5255 16.4435 75.9348 15.3437 75.2642C13.484 74.1301 11.6734 72.8242 9.77095 71.7569C8.91205 71.275 8.09306 70.6598 7.14532 70.3433C6.50051 70.1279 8.19329 70.3075 8.48492 70.3075C12.3679 70.3075 16.2057 70.7904 20.1038 70.6206C22.2968 70.5251 24.4894 70.3693 26.6679 70.0748C28.7575 69.7924 31.1159 69.7656 33.0712 68.9386C35.4878 67.9164 38.5836 66.1109 39.7067 63.5793C40.3763 62.0698 41.0284 60.4815 41.0284 58.8015C41.0284 57.3683 40.9977 55.9492 41.1535 54.5248C41.4505 51.8094 41.241 48.9145 41.3499 46.1861C41.3773 45.5009 42.4759 46.9195 42.5556 47.0361C43.1314 47.8792 43.5447 48.7673 44.047 49.6576C44.6486 50.724 44.946 52.0092 45.6545 53.0128C46.8928 54.7666 48.4375 56.3364 49.8788 57.9247C50.9117 59.0631 51.9744 59.8618 53.4064 60.4478C54.2083 60.7759 54.8768 61.3261 55.6569 61.7004C56.3586 62.037 57.1265 62.1362 57.8271 62.4967C59.2116 63.209 60.574 63.8034 62.087 64.1877C63.303 64.4965 64.5851 64.5786 65.7844 64.9124C67.9041 65.5023 70.3464 66.1523 72.536 66.2813C73.4212 66.3334 72.7915 67.8864 72.661 68.2496C72.3931 68.9951 72.2149 68.8758 71.4107 69.0996C70.7273 69.2898 70.1065 69.5902 69.4013 69.7438C68.2748 69.9891 67.4498 70.6887 66.3916 71.1127C64.8936 71.713 63.4563 72.595 61.9287 73.1515Z" fill="url(#paint0_radial_806_67)" fill-opacity="0.5"/>
<defs>
<filter id="filter0_d_806_67" x="41.5" y="20.5001" width="216" height="237" filterUnits="userSpaceOnUse" color-interpolation-filters="sRGB">
<feFlood flood-opacity="0" result="BackgroundImageFix"/>
<feColorMatrix in="SourceAlpha" type="matrix" values="0 0 0 0 0 0 0 0 0 0 0 0 0 0 0 0 0 0 127 0" result="hardAlpha"/>
<feOffset/>
<feGaussianBlur stdDeviation="4"/>
<feColorMatrix type="matrix" values="0 0 0 0 0.705882 0 0 0 0 0.745098 0 0 0 0 0.996078 0 0 0 0.5 0"/>
<feBlend mode="normal" in2="BackgroundImageFix" result="effect1_dropShadow_806_67"/>
<feBlend mode="normal" in="SourceGraphic" in2="effect1_dropShadow_806_67" result="shape"/>
</filter>
<radialGradient id="paint0_radial_806_67" cx="0" cy="0" r="1" gradientUnits="userSpaceOnUse" gradientTransform="translate(72.9678 89.0346) rotate(-145.32) scale(64.8284 62.1637)">
<stop offset="0.355" stop-color="#B4BEFE"/>
<stop offset="1" stop-color="#B4BEFE" stop-opacity="0"/>
</radialGradient>
</defs>
</svg>
