<svg width="256" height="386" viewBox="0 0 256 386" fill="none" xmlns="http://www.w3.org/2000/svg">
<g filter="url(#filter0_d_806_57)">
<path d="M134.965 232.849C135.674 234.629 135.49 236.846 135.594 238.708C136.077 247.369 136.178 256.015 136.178 264.688C136.178 269.643 136.164 274.53 136.807 279.447C136.934 280.417 136.746 281.684 137.391 282.331M148.313 232.444C149.026 232.712 149.247 236.631 149.324 237.153C149.915 241.172 149.984 245.228 150.515 249.253C151.364 255.688 151.184 262.374 152.335 268.721C152.798 271.275 151.74 276.386 154.38 277.779C156.702 279.005 160.867 279.318 163.458 278.5C168.133 277.024 172.982 277.464 177.863 277.464H193.593C198.08 277.464 202.514 278.275 206.963 278.275M135.774 281.925C135.919 284.41 140.036 286.458 141.931 287.513C144.953 289.197 149.807 288.82 153.166 288.82C157.404 288.82 161.906 287.901 166.11 287.288C169.748 286.757 173.757 287.045 177.436 286.815C181.569 286.556 185.647 286.92 189.773 286.387C193.322 285.927 196.886 285.589 200.446 285.192C203.97 284.8 207.454 284.764 211.008 284.764M205.345 277.869C205.439 276.364 209.333 276.092 210.514 275.346C212.667 273.984 212.626 269.752 212.626 267.572C212.626 264.264 214.564 261.484 214.648 258.176C214.707 255.872 214.881 253.367 214.446 251.101C213.533 246.337 212.626 241.473 212.626 236.59C212.626 233.698 211.817 230.873 211.817 227.982M223.547 226.765C223.547 229.686 224.383 232.393 224.671 235.283C225.019 238.776 225.174 242.36 225.659 245.828C226.13 249.19 226.379 252.57 226.379 255.968V268.541C226.379 269.739 224.76 271.978 223.862 272.912C221.37 275.503 218.476 278.189 215.547 280.303C213.799 281.565 211.379 283.615 210.604 285.17M135.369 235.688C135.369 233.368 133.675 232.089 131.526 231.61C130.568 231.396 129.471 230.876 128.493 230.821C127.932 230.79 126.154 231.135 125.751 230.731C124.605 229.582 126.056 226.659 127.077 225.977C129.161 224.584 133.103 224.738 135.571 224.738C140.679 224.738 145.372 223.115 150.425 223.115C152.341 223.115 153.631 222.25 155.391 221.943C157.431 221.588 159.77 221.898 161.84 221.898C167.398 221.898 172.946 221.493 178.559 221.493C184.496 221.493 190.506 221.087 196.357 221.087C199.623 221.087 203.027 219.059 206.356 219.059H214.289C218.444 219.059 222.609 218.654 226.783 218.654C229.724 218.654 229.625 219.246 229.202 221.791L229.188 221.876C228.977 223.142 225.978 223.427 225.075 224.242C223.072 226.05 223.159 228.337 222.334 230.821M147.908 234.472C147.908 231.899 147.961 229.605 151.144 229.605C152.209 229.605 152.908 228.793 154.178 228.793C156.094 228.793 157.894 228.635 159.796 228.41C167.607 227.489 176.036 228.388 183.907 228.388H200.087C202.768 228.388 210.316 225.783 211.817 228.793M133.347 225.954H128.538C126.619 225.954 124.501 224.839 122.605 224.332C118.772 223.307 117.654 214.972 120.403 212.412C122.542 210.421 126.232 208.316 129.077 207.725C134.787 206.541 140.436 205.163 146.245 204.661C158.987 203.56 172.154 204.458 184.941 204.458C194.182 204.458 203.121 203.846 212.222 202.205C216.07 201.511 220.355 202.025 224.266 202.025C225.518 202.025 227.625 201.664 228.806 202.205C232.674 203.978 236.254 208.112 236.086 212.66C236.024 214.343 234.187 215.237 233.255 216.536C232.705 217.302 231.219 217.038 230.423 217.437M119.89 84.7244C119.89 77.6989 122.42 69.3403 126.397 65.4369C130.373 61.5334 134.922 58.1978 138.087 57.1708C141.253 56.1437 145.462 55.7931 149.992 55.7931C152.699 55.7931 155.502 55.2167 158.07 55.7931C160.667 56.3762 162.25 57.0226 164.891 57.1708C166.761 57.2757 168.956 58.3881 170.8 58.9056C173.064 59.5411 175.253 60.5965 177.416 61.5334C179.643 62.4975 180.979 63.6881 182.619 65.4369C183.533 66.4115 184.975 66.9196 185.8 67.9626C186.86 69.3003 188.438 69.9905 189.21 71.6364C190.18 73.7071 191.435 75.5979 192.265 77.734C193.596 81.1561 195.801 83.5377 195.801 87.4798M138.087 82.282C136.81 82.282 137.3 81.4351 136.448 80.9468C135.434 80.3656 133.703 80.3444 132.556 80.0738C130.322 79.5468 129.974 80.2344 127.842 80.9468M205.843 83.6686C205.843 71.4909 208.44 48.0808 224.741 48.0808C227.451 48.0808 230.559 47.3929 232.219 50.0322C234.527 53.7032 234.928 57.6946 236.367 61.6894C237.865 65.8504 238.235 70.3557 238.672 74.7331C239.162 79.6516 238.368 84.8209 239.133 89.6769C240.496 98.3354 239.783 107.095 240.771 115.764C241.573 122.8 240.874 130.292 240.874 137.384C240.874 145.274 241.171 153.075 241.335 160.955C241.402 164.194 242.257 167.321 242.257 170.661C242.257 174.434 242.666 178.155 242.717 181.907C242.828 189.888 241.818 198.336 242.82 206.249C243.568 212.16 243.639 218.83 243.639 224.787C243.639 231.639 244.561 238.435 244.561 245.329C244.561 250.149 245.756 257.13 244.203 261.608C243.437 263.814 244.1 267.177 244.1 269.567V273.342C244.1 274.521 243.258 275.175 243.178 276.295C242.958 279.388 242.544 281.529 239.85 283.33C237.649 284.801 234.776 285.641 232.116 285.641C226.449 285.641 221.624 286.375 215.984 284.254M43.5905 187.585C43.5905 183.918 48.6038 180.3 51.091 178.161C54.3628 175.348 57.9577 172.977 61.451 170.519C63.4671 169.1 66.8187 171.526 69.092 172.207C76.1739 174.326 82.5197 176.192 89.9995 176.192M83.671 175.348C85.6246 175.348 87.5336 175.574 89.4838 175.676C95.5908 175.998 101.009 173.806 106.641 171.738C110.69 170.251 114.916 169.104 118.853 167.354C120.499 166.623 123.559 166.079 124.951 165.047C126.758 163.959 127.469 163.894 129.221 162.91M163.668 126.845C167.959 124.644 173.278 123.063 178.083 122.696C182.07 122.392 186.643 125.003 190.001 127.605C196.318 132.502 196.318 141.632 196.318 150.264C196.318 158.31 196.429 166.312 195.451 174.317M193 240.152C193.993 246.682 193.622 252.694 191.053 258.523C186.789 268.198 177.243 268.434 169.546 269.349M103.81 271.964C109.429 272.425 115.562 272.598 121.597 272.492C125.486 272.424 129.407 272.277 133.347 272.07M167.293 269.33C163.009 269.74 158.699 270.149 154.38 270.532M97.8152 364.13C97.0592 359.988 97.2457 355.583 97.5833 351.321M80.7145 352.349C80.5576 350.518 80.3769 348.707 80.1757 346.909M77.8333 351.444C70.8732 351.444 64.6145 347.603 58.4493 352.499C53.9007 356.112 56.8468 360.526 61.262 362.767C65.9347 365.139 71.8111 364.525 76.8723 364.525C83.6878 364.525 90.4494 364.847 97.2407 365.369M65.1703 304.108C63.5945 307.119 61.5356 309.698 59.8709 312.605M81.1162 223.417C78.794 222.765 71.1114 221.361 69.5603 221.97C66.4472 223.194 63.9698 227.372 63.0211 230.391C62.2705 232.78 62.4048 235.387 62.0625 237.847C61.5469 241.554 60.7568 245.237 59.9365 248.886C58.6025 254.822 58.5067 255.028 57.3378 260.873M84.221 223.87C92.3726 223.855 96.2319 224.568 104.383 224.552C108.156 224.545 115.067 225.143 119.578 225.511C120.894 225.618 122.062 225.714 123.143 225.81M108.286 246.547C101.333 246.815 93.8633 248.051 90.61 248.051C87.3567 248.051 86.9311 247.931 85.1878 248.051C84.8263 252.763 83.6596 252.289 83.6426 256.54C83.6224 261.6 81.4825 266.669 79.4225 271.2C76.5123 277.601 75.9246 284.031 72.615 290.242L67.5796 304.31C63.0722 303.344 58.1365 301.593 54.7992 298.256M109.935 246.821C110.797 246.821 111.605 246.808 112.42 246.47C116.256 244.879 120.003 244.171 123.94 242.754C126.921 241.68 129.963 240.809 132.949 240.152M55.8256 184.631C55.2073 185.338 56.7926 185.133 57.0913 184.866C58.8124 183.326 60.7544 182.239 62.9979 181.678M65.5293 182.1C66.18 182.1 67.1043 181.933 67.6388 182.381C71.5423 185.649 74.5558 190.794 77.7644 194.759M77.3425 196.024C78.7824 193.432 83.1839 193.506 85.7805 193.164C102.743 190.934 119.484 187.612 136.409 185.053M138.572 183.133C137.089 183.954 136.501 184.356 135.065 185.251M138.518 152.562C138.518 146.738 139.62 140.833 138.424 135.05C136.363 125.086 126.619 118.653 122.673 109.427C119.321 101.588 119.743 92.6273 119.908 84.0589M206.256 120.727C202.116 112.444 198.264 103.426 195.709 94.5413C194.523 90.42 193.761 86.201 192.854 82.0131M131.768 82.9372C131.768 85.1541 132.812 86.9832 133.69 88.9854C134.884 91.7083 135.143 94.3463 135.143 97.2841M135.565 98.55C134.221 98.886 136.042 102.746 136.244 103.239C138.322 108.299 141.545 112.342 145.268 116.273M150.331 125.978C146.627 121.989 145.69 119.401 145.69 113.928C145.69 108.37 145.774 102.582 144.753 97.0965C143.794 91.9496 141.724 85.0943 137.403 81.6804M13.5742 155.128C13.6555 156.958 14.0983 158.458 14.6992 160.192C16.5713 165.594 18.0498 171.104 19.6917 176.578C22.1458 184.76 24.4629 192.995 27.075 201.123M12.9221 130.654C12.9221 130.654 31.7827 189.327 33.043 193.949M88.5974 204.176C87.7275 207.683 88.5974 211.667 88.5974 214.989M10 215.235C21.8636 215.235 33.7133 215.371 45.5748 215.559C59.877 215.786 74.5035 217.06 88.6042 215.235M36.8832 217.912C36.8832 239.199 39.4501 260.354 39.7292 281.662C40.1021 310.124 38.9827 347.292 38.9827 375.73M53.995 217.481C54.0341 218.867 54.454 220.195 54.6565 221.549C55.3874 226.44 55.6246 231.425 55.653 236.403C55.7578 254.788 54.8913 273.228 54.6884 291.62C54.4103 316.846 52.7039 350.81 51.3141 376M146.892 191.882C146.892 195.013 146.922 198.153 146.921 201.293M196.108 238.282C182.321 238.282 168.65 238.872 155.073 236.085C153.938 235.852 152.818 235.596 151.7 235.35M195.301 169.691C194.564 172.18 195.018 175.002 195.122 177.537C195.446 185.464 195.653 193.366 195.696 201.293C195.702 202.317 195.705 203.342 195.705 204.368M197.722 240.299C197.12 237.14 196.696 233.982 196.397 230.821M161.84 128.801C159.172 128.801 154.206 135.164 152.423 136.775C149.893 139.312 148.808 141.124 146.639 143.299M130.419 158.231C130.419 162.677 131.666 167.421 133.041 171.608C134.369 175.653 141.424 188.945 145.877 190.148C149.091 184.731 156.986 180.819 162.125 178.511M130.419 157.493C131.291 156.98 131.837 156.114 132.57 155.424C136.609 151.626 140.919 148.144 145.166 144.588M124.425 271.988C125.873 266.803 113.834 273.004 113.171 273.526C109.996 276.027 107.719 280.557 107.155 285.193C106.216 292.912 110.082 294.507 114.886 296.821M116.81 296.821H123.456C151.732 296.821 179.022 295.851 206.949 293.314M182.111 269.057C185.617 269.057 190.992 268.289 194.031 268.242C199.446 268.159 205.376 267.881 210.514 269.839M211.205 292.99C215.706 290.288 219.245 285.243 219.179 280.303M215.147 117.544C214.596 117.544 213.344 117.304 212.895 117.544C211.002 118.557 209.541 122.983 208.922 124.458C206.351 130.587 204.756 136.829 203.604 143.355C200.255 162.336 197.439 182.094 199.981 201.293M207.827 262.837C204.938 252.104 202.546 241.239 201.054 230.252M206.138 263.4C206.138 267.03 206.769 270.739 208.114 274.148M224.156 285.363C220.591 285.175 217.537 284.693 214.896 283.093M214.584 119.234C218.51 119.234 221.304 121.405 224.719 123.176M206.407 82.0131C205.26 95.3486 209.392 107.283 219.089 116.981M37.4264 297.99C35.4222 297.405 29.052 296.476 27.4132 296.727C24.8396 297.121 22.4375 298.522 20.7363 300.387C18.5589 302.774 18.9174 306 21.1451 308.076C25.2325 311.884 31.9237 312.621 37.4264 313.526M10 202.636C17.9615 202.636 25.8911 203.4 33.8575 203.288C39.8895 203.203 45.8946 202.657 51.9314 202.636C59.8047 202.609 67.6637 202.972 75.535 202.972H88.3119M151.429 300.328C152.237 301.663 152.361 303.129 152.572 304.574C153.298 309.562 153.748 314.571 153.766 319.589C153.788 325.462 152.831 331.288 152.831 337.152M168.962 302.081C168.962 307.624 169.86 313.144 170.612 318.656C171.346 324.036 171.033 329.452 171.884 334.814M122.961 353.023C121.898 353.023 120.877 353.104 119.921 353.33M119.921 353.33C118.114 353.758 116.541 354.707 115.358 356.614C111.041 363.579 119.881 366.82 125.149 366.659C133.272 366.411 133.651 355.652 127.477 352.013C124.043 349.989 121.563 351.086 119.921 353.33ZM119.921 353.33C118.368 355.452 117.563 358.598 117.406 361.103M198.952 348.472C196.271 349.545 193.399 357.468 193.51 359.835C193.771 365.406 205.29 365.085 208.154 362.22C212.497 357.876 208.209 351.057 204.283 348.192C199.936 345.335 194.639 352.683 193.903 358.573M148.439 336.228C144.579 334.412 139.559 333.822 135.337 333.546L135.318 333.544C133.247 333.409 131.048 333.265 129.018 333.804C126.917 334.361 124.929 335.401 122.88 336.125C120.561 336.945 117.764 337.88 116.149 339.891C115.053 341.256 116.23 342.822 117.103 343.889C118.786 345.947 120.743 347.028 123.37 347.501C128.508 348.425 134.175 348.275 139.36 347.965C143.531 347.716 158.207 344.198 162.545 341.928C168.328 343.835 191.078 348.255 199.226 345.229C201.526 344.375 209.128 341.703 206.288 338.048C204.874 336.228 202.009 335.431 199.921 334.766C196.358 333.63 192.479 333.31 188.768 333.004L188.719 333C184.482 332.65 180.094 332.473 176.136 334.33C176.015 334.387 174.453 335.357 175.202 335.611M33.5366 194.663C42.8016 194.382 52.0265 194.324 61.3222 194.324C70.1676 194.324 79.3573 193.909 88.1601 194.558M88.1601 194.558C88.6013 194.59 89.0416 194.625 89.4808 194.663M88.1601 194.558C88.1525 194.505 88.1451 194.453 88.1379 194.4M88.1601 194.558C88.4228 196.37 88.9128 198.178 88.9128 200.042M27.1651 201.112C29.2825 201.017 31.4028 200.948 33.5245 200.898M33.5245 200.898C37.4012 200.807 41.2827 200.78 45.1605 200.773C60.4736 200.745 70.9762 201.385 86.2005 200.277M33.5245 200.898C33.443 197.793 32.9771 194.711 32.9771 191.609M33.5245 200.898C33.5323 201.195 33.5366 201.493 33.5366 201.791M70.7187 293.322C70.7187 297.318 71.1671 301.301 71.1671 305.307C71.1671 311.331 71.8384 317.296 72.0889 323.31C72.2281 326.651 73.04 329.952 73.1851 333.289C73.2428 334.616 73.8579 335.875 74.0944 337.176C74.294 338.274 75.0885 339.455 75.4771 340.465C75.9568 341.713 76.6172 342.796 77.221 344.004M77.4453 345.798C78.3815 346.122 79.2851 346.504 80.1757 346.909M99.6429 351.404C98.9542 351.381 98.2678 351.354 97.5833 351.321M103.903 275.606C103.749 277.151 104.127 278.224 104.538 279.817C105.168 282.256 105.104 284.969 105.012 287.466C104.924 289.823 104.352 292.081 104.352 294.456V300.261C104.352 305.95 104.8 311.514 104.8 317.218C104.8 320.999 104.171 324.594 103.455 328.306C102.918 331.086 103.23 334.128 103.23 336.952C103.23 342.13 103.809 347.779 101.437 352.525M80.1757 346.909C82.7871 348.095 85.2866 349.474 88.1704 350.146C91.2875 350.871 94.4149 351.167 97.5833 351.321" stroke="#F9E2AF" stroke-opacity="0.5" stroke-width="3" stroke-linecap="round"/>
</g>
<path d="M36.0474 182.972L20.6456 134.742C20.2418 133.477 20.4915 132.095 21.312 131.052L72.7697 65.629C74.7047 63.1689 78.5881 63.784 79.6681 66.7218L119.184 174.22C120.097 176.703 118.391 179.372 115.755 179.587L40.1825 185.742C38.3276 185.893 36.6135 184.745 36.0474 182.972Z" fill="url(#paint0_linear_806_57)" fill-opacity="0.5"/>
<defs>
<filter id="filter0_d_806_57" x="0.5" y="38.4999" width="254" height="347" filterUnits="userSpaceOnUse" color-interpolation-filters="sRGB">
<feFlood flood-opacity="0" result="BackgroundImageFix"/>
<feColorMatrix in="SourceAlpha" type="matrix" values="0 0 0 0 0 0 0 0 0 0 0 0 0 0 0 0 0 0 127 0" result="hardAlpha"/>
<feOffset/>
<feGaussianBlur stdDeviation="4"/>
<feColorMatrix type="matrix" values="0 0 0 0 0.976471 0 0 0 0 0.882353 0 0 0 0 0.682353 0 0 0 0.5 0"/>
<feBlend mode="normal" in2="BackgroundImageFix" result="effect1_dropShadow_806_57"/>
<feBlend mode="normal" in="SourceGraphic" in2="effect1_dropShadow_806_57" result="shape"/>
</filter>
<linearGradient id="paint0_linear_806_57" x1="27.6021" y1="157.2" x2="102.062" y2="127.395" gradientUnits="userSpaceOnUse">
<stop stop-color="#F9E2AF"/>
<stop offset="1" stop-color="#F9E2AF" stop-opacity="0"/>
</linearGradient>
</defs>
</svg>
